<?xml version="1.0" encoding="UTF-8" standalone="no"?>
<svg
   xmlns:dc="http://purl.org/dc/elements/1.1/"
   xmlns:cc="http://creativecommons.org/ns#"
   xmlns:rdf="http://www.w3.org/1999/02/22-rdf-syntax-ns#"
   xmlns:svg="http://www.w3.org/2000/svg"
   xmlns="http://www.w3.org/2000/svg"
   xmlns:sodipodi="http://sodipodi.sourceforge.net/DTD/sodipodi-0.dtd"
   xmlns:inkscape="http://www.inkscape.org/namespaces/inkscape"
   width="3200"
   height="800"
   viewBox="0 0 846.66666 211.66666"
   version="1.1"
   id="svg845"
   inkscape:version="1.0.2 (e86c870879, 2021-01-15)"
   sodipodi:docname="banner.svg">
  <defs
     id="defs839" />
  <sodipodi:namedview
     id="base"
     pagecolor="#ffffff"
     bordercolor="#666666"
     borderopacity="1.0"
     inkscape:pageopacity="0.0"
     inkscape:pageshadow="2"
     inkscape:zoom="0.24748737"
     inkscape:cx="1298.4957"
     inkscape:cy="727.08287"
     inkscape:document-units="px"
     inkscape:current-layer="layer1"
     inkscape:document-rotation="0"
     showgrid="false"
     units="px"
     inkscape:window-width="1920"
     inkscape:window-height="1011"
     inkscape:window-x="0"
     inkscape:window-y="0"
     inkscape:window-maximized="1" />
  <metadata
     id="metadata842">
    <rdf:RDF>
      <cc:Work
         rdf:about="">
        <dc:format>image/svg+xml</dc:format>
        <dc:type
           rdf:resource="http://purl.org/dc/dcmitype/StillImage" />
        <dc:title></dc:title>
      </cc:Work>
    </rdf:RDF>
  </metadata>
  <g
     inkscape:groupmode="layer"
     id="layer2"
     inkscape:label="BG">
    <rect
       style="fill:#1e1e1e;stroke:#000000;stroke-width:0.264999;fill-opacity:1"
       id="rect2926"
       width="846.66663"
       height="211.66666"
       x="0.1324995"
       y="0.1324995" />
  </g>
  <g
     inkscape:label="Computer"
     inkscape:groupmode="layer"
     id="layer1">
    <path
       id="rect10-3-6-7"
       style="fill:#e3e2db;stroke:none;stroke-width:0.235958"
       d="M 31.629432,155.52503 H 213.34498 c 0.63716,0 1.15011,0.51295 1.15011,1.15011 v 39.92819 c 0,0.63716 -0.51295,1.15011 -1.15011,1.15011 H 31.629432 c -0.637162,0 -1.15011,-0.51295 -1.15011,-1.15011 v -39.92819 c 0,-0.63716 0.512948,-1.15011 1.15011,-1.15011 z" />
    <path
       id="path1215-4"
       style="fill:#000000;fill-opacity:1;stroke:none;stroke-width:0.275525"
       d="m 112.31076,188.16677 a 2.2089305,2.2089305 0 0 1 -2.20893,2.20893 2.2089305,2.2089305 0 0 1 -2.20894,-2.20893 2.2089305,2.2089305 0 0 1 2.20894,-2.20893 2.2089305,2.2089305 0 0 1 2.20893,2.20893 z" />
    <path
       id="rect1167-4"
       style="fill:#c8c4b7;fill-opacity:1;stroke:none;stroke-width:0.350186"
       d="m 131.88725,162.04793 h 72.41438 c 1.17993,0 2.12984,1.28237 2.12984,2.87528 v 17.25166 c 0,1.59291 -0.94991,2.87527 -2.12984,2.87527 h -72.41438 c -1.17993,0 -2.12984,-1.28236 -2.12984,-2.87527 v -17.25166 c 0,-1.59291 0.94991,-2.87528 2.12984,-2.87528 z" />
    <a
       id="a1217-9"
       transform="matrix(0.0071873,0,0,2.3002217,40.55604,-819.08088)">
      <path
         id="rect1169-3"
         style="fill:#000000;stroke:none;stroke-width:1.06935"
         d="m 241.39287,427.1131 h 131.35 c 0.554,0 1,0.446 1,1 v 3 c 0,0.554 -0.446,1 -1,1 h -131.35 c -0.554,0 -1,-0.446 -1,-1 v -3 c 0,-0.554 0.446,-1 1,-1 z" />
    </a>
    <a
       id="a1217-9-6"
       transform="matrix(0.0071873,0,0,2.3002217,44.389741,-819.14022)">
      <path
         id="rect1169-3-0"
         style="fill:#000000;stroke:none;stroke-width:1.06935"
         d="m 241.39287,427.1131 h 131.35 c 0.554,0 1,0.446 1,1 v 3 c 0,0.554 -0.446,1 -1,1 h -131.35 c -0.554,0 -1,-0.446 -1,-1 v -3 c 0,-0.554 0.446,-1 1,-1 z" />
    </a>
    <a
       id="a1217-9-62"
       transform="matrix(0.0071873,0,0,2.3002217,48.223451,-819.08083)">
      <path
         id="rect1169-3-6"
         style="fill:#000000;stroke:none;stroke-width:1.06935"
         d="m 241.39287,427.1131 h 131.35 c 0.554,0 1,0.446 1,1 v 3 c 0,0.554 -0.446,1 -1,1 h -131.35 c -0.554,0 -1,-0.446 -1,-1 v -3 c 0,-0.554 0.446,-1 1,-1 z" />
    </a>
    <path
       id="rect1169-3-0-1"
       style="fill:#000000;stroke:none;stroke-width:0.137495"
       d="m 53.792111,163.31461 h 0.944047 c 0.0044,0 0.0071,1.0259 0.0071,2.30022 v 6.90067 c 0,1.27433 -0.0027,2.30022 -0.0071,2.30022 h -0.944047 c -0.0044,0 -0.0071,-1.02589 -0.0071,-2.30022 v -6.90067 c 0,-1.27432 0.0027,-2.30022 0.0071,-2.30022 z" />
    <a
       id="a1217-9-8"
       transform="matrix(0.0071873,0,0,2.3002217,55.890853,-819.14022)">
      <path
         id="rect1169-3-7"
         style="fill:#000000;stroke:none;stroke-width:1.06935"
         d="m 241.39287,427.1131 h 131.35 c 0.554,0 1,0.446 1,1 v 3 c 0,0.554 -0.446,1 -1,1 h -131.35 c -0.554,0 -1,-0.446 -1,-1 v -3 c 0,-0.554 0.446,-1 1,-1 z" />
    </a>
    <a
       id="a1217-9-6-9"
       transform="matrix(0.0071873,0,0,2.3002217,59.724554,-819.19957)">
      <path
         id="rect1169-3-0-2"
         style="fill:#000000;stroke:none;stroke-width:1.06935"
         d="m 241.39287,427.1131 h 131.35 c 0.554,0 1,0.446 1,1 v 3 c 0,0.554 -0.446,1 -1,1 h -131.35 c -0.554,0 -1,-0.446 -1,-1 v -3 c 0,-0.554 0.446,-1 1,-1 z" />
    </a>
    <a
       id="a1217-9-62-0"
       transform="matrix(0.0071873,0,0,2.3002217,63.558255,-819.14018)">
      <path
         id="rect1169-3-6-2"
         style="fill:#000000;stroke:none;stroke-width:1.06935"
         d="m 241.39287,427.1131 h 131.35 c 0.554,0 1,0.446 1,1 v 3 c 0,0.554 -0.446,1 -1,1 h -131.35 c -0.554,0 -1,-0.446 -1,-1 v -3 c 0,-0.554 0.446,-1 1,-1 z" />
    </a>
    <path
       id="rect1169-3-0-1-3"
       style="fill:#000000;stroke:none;stroke-width:0.137495"
       d="m 69.126923,163.25525 h 0.944048 c 0.0035,0 0.0071,1.0259 0.0071,2.30022 v 6.90067 c 0,1.27432 -0.0027,2.30022 -0.0071,2.30022 h -0.944048 c -0.0035,0 -0.0071,-1.0259 -0.0071,-2.30022 v -6.90067 c 0,-1.27432 0.0027,-2.30022 0.0071,-2.30022 z" />
    <a
       id="a1217-9-7"
       transform="matrix(0.0071873,0,0,2.3002217,71.225667,-819.1996)">
      <path
         id="rect1169-3-5"
         style="fill:#000000;stroke:none;stroke-width:1.06935"
         d="m 241.39287,427.1131 h 131.35 c 0.554,0 1,0.446 1,1 v 3 c 0,0.554 -0.446,1 -1,1 h -131.35 c -0.554,0 -1,-0.446 -1,-1 v -3 c 0,-0.554 0.446,-1 1,-1 z" />
    </a>
    <a
       id="a1217-9-6-92"
       transform="matrix(0.0071873,0,0,2.3002217,75.059368,-819.25895)">
      <path
         id="rect1169-3-0-28"
         style="fill:#000000;stroke:none;stroke-width:1.06935"
         d="m 241.39287,427.1131 h 131.35 c 0.554,0 1,0.446 1,1 v 3 c 0,0.554 -0.446,1 -1,1 h -131.35 c -0.554,0 -1,-0.446 -1,-1 v -3 c 0,-0.554 0.446,-1 1,-1 z" />
    </a>
    <a
       id="a1217-9-62-9"
       transform="matrix(0.0071873,0,0,2.3002217,78.893064,-819.19957)">
      <path
         id="rect1169-3-6-7"
         style="fill:#000000;stroke:none;stroke-width:1.06935"
         d="m 241.39287,427.1131 h 131.35 c 0.554,0 1,0.446 1,1 v 3 c 0,0.554 -0.446,1 -1,1 h -131.35 c -0.554,0 -1,-0.446 -1,-1 v -3 c 0,-0.554 0.446,-1 1,-1 z" />
    </a>
    <path
       id="rect1169-3-0-1-36"
       style="fill:#000000;stroke:none;stroke-width:0.137495"
       d="m 84.461744,163.19592 h 0.94405 c 0.004,0 0.007,1.0259 0.007,2.30022 v 6.90067 c 0,1.27432 -0.003,2.30022 -0.007,2.30022 h -0.94405 c -0.004,0 -0.007,-1.0259 -0.007,-2.30022 v -6.90067 c 0,-1.27432 0.003,-2.30022 0.007,-2.30022 z" />
    <a
       id="a1217-9-8-1"
       transform="matrix(0.0071873,0,0,2.3002217,86.560484,-819.25895)">
      <path
         id="rect1169-3-7-2"
         style="fill:#000000;stroke:none;stroke-width:1.06935"
         d="m 241.39287,427.1131 h 131.35 c 0.554,0 1,0.446 1,1 v 3 c 0,0.554 -0.446,1 -1,1 h -131.35 c -0.554,0 -1,-0.446 -1,-1 v -3 c 0,-0.554 0.446,-1 1,-1 z" />
    </a>
    <a
       id="a1217-9-6-9-9"
       transform="matrix(0.0071873,0,0,2.3002217,90.394184,-819.31829)">
      <path
         id="rect1169-3-0-2-3"
         style="fill:#000000;stroke:none;stroke-width:1.06935"
         d="m 241.39287,427.1131 h 131.35 c 0.554,0 1,0.446 1,1 v 3 c 0,0.554 -0.446,1 -1,1 h -131.35 c -0.554,0 -1,-0.446 -1,-1 v -3 c 0,-0.554 0.446,-1 1,-1 z" />
    </a>
    <a
       id="a1217-9-62-0-1"
       transform="matrix(0.0071873,0,0,2.3002217,94.227884,-819.25891)">
      <path
         id="rect1169-3-6-2-9"
         style="fill:#000000;stroke:none;stroke-width:1.06935"
         d="m 241.39287,427.1131 h 131.35 c 0.554,0 1,0.446 1,1 v 3 c 0,0.554 -0.446,1 -1,1 h -131.35 c -0.554,0 -1,-0.446 -1,-1 v -3 c 0,-0.554 0.446,-1 1,-1 z" />
    </a>
    <path
       id="rect1169-3-0-1-3-4"
       style="fill:#000000;stroke:none;stroke-width:0.137495"
       d="m 99.796554,163.13656 h 0.944036 c 0.004,0 0.007,1.02589 0.007,2.30022 v 6.90067 c 0,1.27432 -0.003,2.30022 -0.007,2.30022 h -0.944036 c -0.004,0 -0.007,-1.0259 -0.007,-2.30022 v -6.90067 c 0,-1.27433 0.003,-2.30022 0.007,-2.30022 z" />
    <a
       id="a1217-9-78"
       transform="matrix(0.0071873,0,0,2.3002217,40.55604,-803.74595)">
      <path
         id="rect1169-3-4"
         style="fill:#000000;stroke:none;stroke-width:1.06935"
         d="m 241.39287,427.1131 h 131.35 c 0.554,0 1,0.446 1,1 v 3 c 0,0.554 -0.446,1 -1,1 h -131.35 c -0.554,0 -1,-0.446 -1,-1 v -3 c 0,-0.554 0.446,-1 1,-1 z" />
    </a>
    <a
       id="a1217-9-6-5"
       transform="matrix(0.0071873,0,0,2.3002217,44.389741,-803.8053)">
      <path
         id="rect1169-3-0-0"
         style="fill:#000000;stroke:none;stroke-width:1.06935"
         d="m 241.39287,427.1131 h 131.35 c 0.554,0 1,0.446 1,1 v 3 c 0,0.554 -0.446,1 -1,1 h -131.35 c -0.554,0 -1,-0.446 -1,-1 v -3 c 0,-0.554 0.446,-1 1,-1 z" />
    </a>
    <a
       id="a1217-9-62-3"
       transform="matrix(0.0071873,0,0,2.3002217,48.223451,-803.74591)">
      <path
         id="rect1169-3-6-6"
         style="fill:#000000;stroke:none;stroke-width:1.06935"
         d="m 241.39287,427.1131 h 131.35 c 0.554,0 1,0.446 1,1 v 3 c 0,0.554 -0.446,1 -1,1 h -131.35 c -0.554,0 -1,-0.446 -1,-1 v -3 c 0,-0.554 0.446,-1 1,-1 z" />
    </a>
    <path
       id="rect1169-3-0-1-1"
       style="fill:#000000;stroke:none;stroke-width:0.137495"
       d="m 53.792111,178.64953 h 0.944056 c 0.0035,0 0.0071,1.0259 0.0071,2.30022 v 6.90067 c 0,1.27432 -0.0027,2.30022 -0.0071,2.30022 h -0.944056 c -0.0044,0 -0.0071,-1.0259 -0.0071,-2.30022 v -6.90067 c 0,-1.27432 0.0027,-2.30022 0.0071,-2.30022 z" />
    <a
       id="a1217-9-8-0"
       transform="matrix(0.0071873,0,0,2.3002217,55.890853,-803.8053)">
      <path
         id="rect1169-3-7-6"
         style="fill:#000000;stroke:none;stroke-width:1.06935"
         d="m 241.39287,427.1131 h 131.35 c 0.554,0 1,0.446 1,1 v 3 c 0,0.554 -0.446,1 -1,1 h -131.35 c -0.554,0 -1,-0.446 -1,-1 v -3 c 0,-0.554 0.446,-1 1,-1 z" />
    </a>
    <a
       id="a1217-9-6-9-3"
       transform="matrix(0.0071873,0,0,2.3002217,59.724554,-803.86464)">
      <path
         id="rect1169-3-0-2-2"
         style="fill:#000000;stroke:none;stroke-width:1.06935"
         d="m 241.39287,427.1131 h 131.35 c 0.554,0 1,0.446 1,1 v 3 c 0,0.554 -0.446,1 -1,1 h -131.35 c -0.554,0 -1,-0.446 -1,-1 v -3 c 0,-0.554 0.446,-1 1,-1 z" />
    </a>
    <a
       id="a1217-9-62-0-0"
       transform="matrix(0.0071873,0,0,2.3002217,63.558255,-803.80526)">
      <path
         id="rect1169-3-6-2-6"
         style="fill:#000000;stroke:none;stroke-width:1.06935"
         d="m 241.39287,427.1131 h 131.35 c 0.554,0 1,0.446 1,1 v 3 c 0,0.554 -0.446,1 -1,1 h -131.35 c -0.554,0 -1,-0.446 -1,-1 v -3 c 0,-0.554 0.446,-1 1,-1 z" />
    </a>
    <path
       id="rect1169-3-0-1-3-1"
       style="fill:#000000;stroke:none;stroke-width:0.137495"
       d="m 69.126923,178.59017 h 0.944048 c 0.0035,0 0.0071,1.02589 0.0071,2.30022 v 6.90066 c 0,1.27432 -0.0027,2.30023 -0.0071,2.30023 h -0.944048 c -0.0035,0 -0.0071,-1.02591 -0.0071,-2.30023 v -6.90066 c 0,-1.27433 0.0027,-2.30022 0.0071,-2.30022 z" />
    <a
       id="a1217-9-7-5"
       transform="matrix(0.0071873,0,0,2.3002217,71.225658,-803.86468)">
      <path
         id="rect1169-3-5-5"
         style="fill:#000000;stroke:none;stroke-width:1.06935"
         d="m 241.39287,427.1131 h 131.35 c 0.554,0 1,0.446 1,1 v 3 c 0,0.554 -0.446,1 -1,1 h -131.35 c -0.554,0 -1,-0.446 -1,-1 v -3 c 0,-0.554 0.446,-1 1,-1 z" />
    </a>
    <a
       id="a1217-9-6-92-4"
       transform="matrix(0.0071873,0,0,2.3002217,75.059368,-803.92402)">
      <path
         id="rect1169-3-0-28-7"
         style="fill:#000000;stroke:none;stroke-width:1.06935"
         d="m 241.39287,427.1131 h 131.35 c 0.554,0 1,0.446 1,1 v 3 c 0,0.554 -0.446,1 -1,1 h -131.35 c -0.554,0 -1,-0.446 -1,-1 v -3 c 0,-0.554 0.446,-1 1,-1 z" />
    </a>
    <a
       id="a1217-9-62-9-6"
       transform="matrix(0.0071873,0,0,2.3002217,78.893064,-803.86464)">
      <path
         id="rect1169-3-6-7-5"
         style="fill:#000000;stroke:none;stroke-width:1.06935"
         d="m 241.39287,427.1131 h 131.35 c 0.554,0 1,0.446 1,1 v 3 c 0,0.554 -0.446,1 -1,1 h -131.35 c -0.554,0 -1,-0.446 -1,-1 v -3 c 0,-0.554 0.446,-1 1,-1 z" />
    </a>
    <path
       id="rect1169-3-0-1-36-6"
       style="fill:#000000;stroke:none;stroke-width:0.137495"
       d="m 84.461744,178.53084 h 0.94405 c 0.004,0 0.007,1.0259 0.007,2.30022 v 6.90067 c 0,1.27432 -0.003,2.30022 -0.007,2.30022 h -0.94405 c -0.004,0 -0.007,-1.0259 -0.007,-2.30022 v -6.90067 c 0,-1.27432 0.003,-2.30022 0.007,-2.30022 z" />
    <a
       id="a1217-9-8-1-9"
       transform="matrix(0.0071873,0,0,2.3002217,86.560484,-803.92402)">
      <path
         id="rect1169-3-7-2-3"
         style="fill:#000000;stroke:none;stroke-width:1.06935"
         d="m 241.39287,427.1131 h 131.35 c 0.554,0 1,0.446 1,1 v 3 c 0,0.554 -0.446,1 -1,1 h -131.35 c -0.554,0 -1,-0.446 -1,-1 v -3 c 0,-0.554 0.446,-1 1,-1 z" />
    </a>
    <a
       id="a1217-9-6-9-9-7"
       transform="matrix(0.0071873,0,0,2.3002217,90.394184,-803.98337)">
      <path
         id="rect1169-3-0-2-3-4"
         style="fill:#000000;stroke:none;stroke-width:1.06935"
         d="m 241.39287,427.1131 h 131.35 c 0.554,0 1,0.446 1,1 v 3 c 0,0.554 -0.446,1 -1,1 h -131.35 c -0.554,0 -1,-0.446 -1,-1 v -3 c 0,-0.554 0.446,-1 1,-1 z" />
    </a>
    <a
       id="a1217-9-62-0-1-5"
       transform="matrix(0.0071873,0,0,2.3002217,94.227884,-803.92399)">
      <path
         id="rect1169-3-6-2-9-2"
         style="fill:#000000;stroke:none;stroke-width:1.06935"
         d="m 241.39287,427.1131 h 131.35 c 0.554,0 1,0.446 1,1 v 3 c 0,0.554 -0.446,1 -1,1 h -131.35 c -0.554,0 -1,-0.446 -1,-1 v -3 c 0,-0.554 0.446,-1 1,-1 z" />
    </a>
    <path
       id="rect1169-3-0-1-3-4-5"
       style="fill:#000000;stroke:none;stroke-width:0.137495"
       d="m 99.796554,178.47148 h 0.944036 c 0.004,0 0.007,1.02589 0.007,2.30022 v 6.90066 c 0,1.27432 -0.003,2.30022 -0.007,2.30022 h -0.944036 c -0.004,0 -0.007,-1.0259 -0.007,-2.30022 v -6.90066 c 0,-1.27433 0.003,-2.30022 0.007,-2.30022 z" />
    <g
       id="g1270"
       transform="matrix(0.38337028,0,0,0.38337028,50.733937,8.6265489)">
      <path
         id="rect1167"
         style="fill:#2d2d2a;fill-opacity:1;stroke:none;stroke-width:0.707548"
         d="m 221.12799,410.19061 h 170 c 2.77,0 5,2.23 5,5 v 30 c 0,2.77 -2.23,5 -5,5 h -170 c -2.77,0 -5,-2.23 -5,-5 v -30 c 0,-2.77 2.23,-5 5,-5 z" />
      <path
         id="path1193"
         style="fill:#ff2323;fill-opacity:1;stroke:none;stroke-width:0.873125"
         d="m 359.56552,419.93155 a 2,2 0 0 1 -2,2 2,2 0 0 1 -2,-2 2,2 0 0 1 2,-2 2,2 0 0 1 2,2 z" />
      <a
         id="a1217">
        <path
           id="rect1169"
           style="fill:#000000;stroke:none;stroke-width:1.06935"
           d="m 241.39287,427.1131 h 131.35 c 0.554,0 1,0.446 1,1 v 3 c 0,0.554 -0.446,1 -1,1 h -131.35 c -0.554,0 -1,-0.446 -1,-1 v -3 c 0,-0.554 0.446,-1 1,-1 z" />
      </a>
      <path
         id="rect1169-0"
         style="fill:#000000;stroke:none;stroke-width:1.30993"
         d="m 290.6431,414.4129 h 32.84981 c 0.13855,0 0.25009,2.676 0.25009,6 v 18 c 0,3.324 -0.11154,6 -0.25009,6 H 290.6431 c -0.13855,0 -0.25009,-2.676 -0.25009,-6 v -18 c 0,-3.324 0.11154,-6 0.25009,-6 z" />
      <g
         id="g1255"
         style="fill:#000000"
         transform="matrix(0.82312453,0,0,0.82312453,-159.69515,80.168531)">
        <path
           id="path1215"
           style="fill:#000000;fill-opacity:1;stroke:none;stroke-width:0.873125"
           d="m 527.09521,413.88394 a 7,7 0 0 1 -7,7 7,7 0 0 1 -7,-7 7,7 0 0 1 7,-7 7,7 0 0 1 7,7 z" />
        <path
           id="rect1251"
           style="fill:#000000;fill-opacity:1;stroke:none;stroke-width:1.20191"
           d="m 486.28973,415.99466 h 33.95574 v 4.87134 h -33.95574 z" />
      </g>
    </g>
    <path
       id="rect10-3-9"
       style="mix-blend-mode:normal;fill:#c8c4b7;stroke:none;stroke-width:0.102615"
       d="M 47.726711,146.03712 H 197.24726 c 1.06193,0 1.91685,0.0712 1.91685,0.15972 v 9.26391 c 0,0.0885 -0.85492,0.15972 -1.91685,0.15972 H 47.726711 c -1.061931,0 -1.91685,-0.0712 -1.91685,-0.15972 v -9.26391 c 0,-0.0885 0.854919,-0.15972 1.91685,-0.15972 z" />
    <path
       id="rect10-3-6"
       style="fill:#e3e2db;stroke:none;stroke-width:0.396903"
       d="M 42.364407,15.798752 H 202.61002 c 2.33621,0 4.21699,1.937803 4.21699,4.34485 V 141.79941 c 0,2.40704 -1.88078,4.34485 -4.21699,4.34485 H 42.364407 c -2.33622,0 -4.217,-1.93781 -4.217,-4.34485 V 20.143602 c 0,-2.407047 1.88078,-4.34485 4.217,-4.34485 z" />
    <a
       id="a1217-9-87"
       transform="matrix(0.00491995,0,0,0.77882322,49.153099,-192.27762)">
      <path
         id="rect1169-3-1"
         style="fill:#000000;stroke:none;stroke-width:1.06935"
         d="m 241.39287,427.1131 h 131.35 c 0.554,0 1,0.446 1,1 v 3 c 0,0.554 -0.446,1 -1,1 h -131.35 c -0.554,0 -1,-0.446 -1,-1 v -3 c 0,-0.554 0.446,-1 1,-1 z" />
    </a>
    <a
       id="a1217-9-6-7"
       transform="matrix(0.00491995,0,0,0.77882322,51.777398,-192.29771)">
      <path
         id="rect1169-3-0-27"
         style="fill:#000000;stroke:none;stroke-width:1.06935"
         d="m 241.39287,427.1131 h 131.35 c 0.554,0 1,0.446 1,1 v 3 c 0,0.554 -0.446,1 -1,1 h -131.35 c -0.554,0 -1,-0.446 -1,-1 v -3 c 0,-0.554 0.446,-1 1,-1 z" />
    </a>
    <a
       id="a1217-9-62-2"
       transform="matrix(0.00491995,0,0,0.77882322,54.401697,-192.2776)">
      <path
         id="rect1169-3-6-26"
         style="fill:#000000;stroke:none;stroke-width:1.06935"
         d="m 241.39287,427.1131 h 131.35 c 0.554,0 1,0.446 1,1 v 3 c 0,0.554 -0.446,1 -1,1 h -131.35 c -0.554,0 -1,-0.446 -1,-1 v -3 c 0,-0.554 0.446,-1 1,-1 z" />
    </a>
    <path
       id="rect1169-3-0-1-10"
       style="fill:#000000;stroke:none;stroke-width:0.0661943"
       d="m 58.213639,140.34788 h 0.646233 c 0.0027,0 0.0053,0.34735 0.0053,0.77883 v 2.33646 c 0,0.43147 -0.0027,0.77883 -0.0053,0.77883 h -0.646233 c -0.0027,0 -0.0053,-0.34736 -0.0053,-0.77883 v -2.33646 c 0,-0.43148 0.0027,-0.77883 0.0053,-0.77883 z" />
    <a
       id="a1217-9-8-6"
       transform="matrix(0.00491995,0,0,0.77882322,59.650304,-192.29771)">
      <path
         id="rect1169-3-7-1"
         style="fill:#000000;stroke:none;stroke-width:1.06935"
         d="m 241.39287,427.1131 h 131.35 c 0.554,0 1,0.446 1,1 v 3 c 0,0.554 -0.446,1 -1,1 h -131.35 c -0.554,0 -1,-0.446 -1,-1 v -3 c 0,-0.554 0.446,-1 1,-1 z" />
    </a>
    <a
       id="a1217-9-6-9-5"
       transform="matrix(0.00491995,0,0,0.77882322,62.274603,-192.3178)">
      <path
         id="rect1169-3-0-2-9"
         style="fill:#000000;stroke:none;stroke-width:1.06935"
         d="m 241.39287,427.1131 h 131.35 c 0.554,0 1,0.446 1,1 v 3 c 0,0.554 -0.446,1 -1,1 h -131.35 c -0.554,0 -1,-0.446 -1,-1 v -3 c 0,-0.554 0.446,-1 1,-1 z" />
    </a>
    <a
       id="a1217-9-62-0-4"
       transform="matrix(0.00491995,0,0,0.77882322,64.898902,-192.2977)">
      <path
         id="rect1169-3-6-2-90"
         style="fill:#000000;stroke:none;stroke-width:1.06935"
         d="m 241.39287,427.1131 h 131.35 c 0.554,0 1,0.446 1,1 v 3 c 0,0.554 -0.446,1 -1,1 h -131.35 c -0.554,0 -1,-0.446 -1,-1 v -3 c 0,-0.554 0.446,-1 1,-1 z" />
    </a>
    <path
       id="rect1169-3-0-1-3-9"
       style="fill:#000000;stroke:none;stroke-width:0.0661943"
       d="m 68.710844,140.3278 h 0.646241 c 0.0027,0 0.0053,0.34735 0.0053,0.77881 v 2.33647 c 0,0.43147 -0.0027,0.77883 -0.0053,0.77883 h -0.646241 c -0.0027,0 -0.0053,-0.34736 -0.0053,-0.77883 v -2.33647 c 0,-0.43146 0.0027,-0.77881 0.0053,-0.77881 z" />
    <a
       id="a1217-9-7-1"
       transform="matrix(0.00491995,0,0,0.77882322,70.147508,-192.31782)">
      <path
         id="rect1169-3-5-7"
         style="fill:#000000;stroke:none;stroke-width:1.06935"
         d="m 241.39287,427.1131 h 131.35 c 0.554,0 1,0.446 1,1 v 3 c 0,0.554 -0.446,1 -1,1 h -131.35 c -0.554,0 -1,-0.446 -1,-1 v -3 c 0,-0.554 0.446,-1 1,-1 z" />
    </a>
    <a
       id="a1217-9-6-92-7"
       transform="matrix(0.00491995,0,0,0.77882322,72.771809,-192.33791)">
      <path
         id="rect1169-3-0-28-1"
         style="fill:#000000;stroke:none;stroke-width:1.06935"
         d="m 241.39287,427.1131 h 131.35 c 0.554,0 1,0.446 1,1 v 3 c 0,0.554 -0.446,1 -1,1 h -131.35 c -0.554,0 -1,-0.446 -1,-1 v -3 c 0,-0.554 0.446,-1 1,-1 z" />
    </a>
    <a
       id="a1217-9-62-9-1"
       transform="matrix(0.00491995,0,0,0.77882322,75.396117,-192.3178)">
      <path
         id="rect1169-3-6-7-59"
         style="fill:#000000;stroke:none;stroke-width:1.06935"
         d="m 241.39287,427.1131 h 131.35 c 0.554,0 1,0.446 1,1 v 3 c 0,0.554 -0.446,1 -1,1 h -131.35 c -0.554,0 -1,-0.446 -1,-1 v -3 c 0,-0.554 0.446,-1 1,-1 z" />
    </a>
    <path
       id="rect1169-3-0-1-36-7"
       style="fill:#000000;stroke:none;stroke-width:0.0661943"
       d="m 79.208054,140.30771 h 0.64624 c 0.003,0 0.005,0.34735 0.005,0.77881 v 2.33648 c 0,0.43147 -0.003,0.77882 -0.005,0.77882 h -0.64624 c -0.003,0 -0.005,-0.34735 -0.005,-0.77882 v -2.33648 c 0,-0.43146 0.003,-0.77881 0.005,-0.77881 z" />
    <a
       id="a1217-9-8-1-7"
       transform="matrix(0.00491995,0,0,0.77882322,80.644714,-192.33791)">
      <path
         id="rect1169-3-7-2-6"
         style="fill:#000000;stroke:none;stroke-width:1.06935"
         d="m 241.39287,427.1131 h 131.35 c 0.554,0 1,0.446 1,1 v 3 c 0,0.554 -0.446,1 -1,1 h -131.35 c -0.554,0 -1,-0.446 -1,-1 v -3 c 0,-0.554 0.446,-1 1,-1 z" />
    </a>
    <a
       id="a1217-9-6-9-9-73"
       transform="matrix(0.00491995,0,0,0.77882322,83.269014,-192.358)">
      <path
         id="rect1169-3-0-2-3-6"
         style="fill:#000000;stroke:none;stroke-width:1.06935"
         d="m 241.39287,427.1131 h 131.35 c 0.554,0 1,0.446 1,1 v 3 c 0,0.554 -0.446,1 -1,1 h -131.35 c -0.554,0 -1,-0.446 -1,-1 v -3 c 0,-0.554 0.446,-1 1,-1 z" />
    </a>
    <a
       id="a1217-9-62-0-1-56"
       transform="matrix(0.00491995,0,0,0.77882322,85.893324,-192.3379)">
      <path
         id="rect1169-3-6-2-9-3"
         style="fill:#000000;stroke:none;stroke-width:1.06935"
         d="m 241.39287,427.1131 h 131.35 c 0.554,0 1,0.446 1,1 v 3 c 0,0.554 -0.446,1 -1,1 h -131.35 c -0.554,0 -1,-0.446 -1,-1 v -3 c 0,-0.554 0.446,-1 1,-1 z" />
    </a>
    <path
       id="rect1169-3-0-1-3-4-9"
       style="fill:#000000;stroke:none;stroke-width:0.0661943"
       d="m 89.705254,140.28761 h 0.64624 c 0.003,0 0.005,0.34735 0.005,0.77882 v 2.33647 c 0,0.43147 -0.003,0.77882 -0.005,0.77882 h -0.64624 c -0.003,0 -0.005,-0.34735 -0.005,-0.77882 v -2.33647 c 0,-0.43147 0.003,-0.77882 0.005,-0.77882 z" />
    <path
       id="rect10-3"
       style="fill:#c8c4b7;stroke:none;stroke-width:0.355479"
       d="M 49.648358,23.466048 H 195.32906 c 2.12388,0 3.83371,1.70983 3.83371,3.833701 V 134.64343 c 0,2.12387 -1.70983,3.8337 -3.83371,3.8337 H 49.648358 c -2.12387,0 -3.8337,-1.70983 -3.8337,-3.8337 V 27.299749 c 0,-2.123871 1.70983,-3.833701 3.8337,-3.833701 z" />
    <path
       id="rect10"
       style="fill:#1f241c;stroke:none;stroke-width:0.33473"
       d="m 62.7957,27.298215 h 119.3815 c 7.28488,0 13.1496,4.001007 13.1496,8.970862 v 89.401953 c 0,4.96986 -5.86472,8.97086 -13.1496,8.97086 H 62.7957 c -7.284883,0 -13.149603,-4.001 -13.149603,-8.97086 V 36.269077 c 0,-4.969855 5.86472,-8.970862 13.149603,-8.970862 z" />
    <g
       aria-label="Luke Briggs▌ "
       id="text3626"
       style="font-style:normal;font-variant:normal;font-weight:normal;font-stretch:normal;font-size:88.1944px;line-height:1.25;font-family:'Abyssinica SIL';-inkscape-font-specification:'Abyssinica SIL';fill:#00ff00;fill-opacity:1;stroke:none;stroke-width:0.264583"
       transform="matrix(0.38337028,0,0,0.38337028,36.53081,6.1907979)">
      <path
         d="m 66.103341,148.92307 h 30.661333 v 6.761 H 58.136562 V 92.983363 h 7.966779 z"
         style="font-style:normal;font-variant:normal;font-weight:normal;font-stretch:normal;font-size:88.1944px;font-family:'Roboto Mono';-inkscape-font-specification:'Roboto Mono';fill:#00ff00;stroke-width:0.264583"
         id="path3642" />
      <path
         d="m 140.25898,149.26758 q -2.32544,3.44509 -5.81359,5.38296 -3.48816,1.8948 -8.05291,1.8948 -3.66041,0 -6.63181,-1.11966 -2.97139,-1.16271 -5.08151,-3.57428 -2.11012,-2.41157 -3.27284,-6.11504 -1.11965,-3.74654 -1.11965,-8.95724 v -27.68994 h 7.96678 v 27.77606 q 0,3.78961 0.60289,6.2873 0.60289,2.49769 1.80867,4.00492 1.20578,1.46416 2.92833,2.06706 1.76561,0.60289 4.04799,0.60289 4.86619,0 7.83758,-1.98093 3.01446,-1.98093 4.47863,-5.3399 v -33.4174 h 8.00984 v 46.59489 h -7.2347 z"
         style="font-style:normal;font-variant:normal;font-weight:normal;font-stretch:normal;font-size:88.1944px;font-family:'Roboto Mono';-inkscape-font-specification:'Roboto Mono';fill:#00ff00;stroke-width:0.264583"
         id="path3644" />
      <path
         d="m 176.90616,133.93691 -5.85665,5.64134 v 16.10582 h -8.00985 V 89.538269 h 8.00985 v 40.479851 l 5.2107,-5.59828 15.2876,-15.33066 h 9.68933 l -18.86189,19.42171 21.74715,27.17318 h -10.11996 z"
         style="font-style:normal;font-variant:normal;font-weight:normal;font-stretch:normal;font-size:88.1944px;font-family:'Roboto Mono';-inkscape-font-specification:'Roboto Mono';fill:#00ff00;stroke-width:0.264583"
         id="path3646" />
      <path
         d="m 236.46322,156.54534 q -4.90925,0 -9.04337,-1.67948 -4.09104,-1.67949 -7.01937,-4.69394 -2.92833,-3.01446 -4.56475,-7.14857 -1.63642,-4.13411 -1.63642,-9.00031 v -1.80867 q 0,-5.64134 1.80867,-10.0769 1.80868,-4.47862 4.78007,-7.53614 3.01446,-3.10059 6.80406,-4.73701 3.83267,-1.63642 7.83759,-1.63642 5.03845,0 8.78499,1.76561 3.7896,1.72255 6.28729,4.82313 2.49769,3.05752 3.70348,7.2347 1.24884,4.17718 1.24884,9.04337 v 3.57429 h -33.28821 q 0.12919,3.18671 1.20578,5.98585 1.11965,2.79913 3.01446,4.90925 1.93786,2.06706 4.60781,3.27284 2.66995,1.20579 5.89972,1.20579 4.2633,0 7.57921,-1.72255 3.3159,-1.72255 5.51215,-4.56475 l 4.86619,3.7896 q -1.16272,1.76561 -2.92833,3.40203 -1.72254,1.59336 -4.00492,2.84221 -2.28237,1.24884 -5.16764,1.98092 -2.88527,0.77515 -6.2873,0.77515 z m -1.03352,-41.77176 q -2.41157,0 -4.56475,0.90434 -2.15319,0.86127 -3.87573,2.58382 -1.72255,1.67948 -2.92833,4.17717 -1.16272,2.45463 -1.63642,5.68441 h 25.06305 v -0.60289 q -0.12919,-2.32544 -0.90433,-4.60782 -0.73209,-2.28237 -2.19625,-4.09105 -1.46416,-1.80867 -3.70348,-2.92832 -2.19624,-1.11966 -5.25376,-1.11966 z"
         style="font-style:normal;font-variant:normal;font-weight:normal;font-stretch:normal;font-size:88.1944px;font-family:'Roboto Mono';-inkscape-font-specification:'Roboto Mono';fill:#00ff00;stroke-width:0.264583"
         id="path3648" />
      <path
         d="m 57.016906,274.23835 v -62.7007 h 18.646569 q 3.875731,0.0431 7.579206,1.03353 3.703476,0.9474 6.588742,2.97139 2.885266,2.02399 4.607813,5.16764 1.722547,3.14365 1.679483,7.53614 -0.04306,2.45463 -0.81821,4.47862 -0.732082,2.024 -2.067056,3.66042 -1.29191,1.59335 -3.057521,2.79913 -1.76561,1.20579 -3.746539,2.06706 2.497693,0.73208 4.564749,2.11012 2.11012,1.33497 3.617348,3.27284 1.507229,1.8948 2.325439,4.30637 0.861273,2.41156 0.861273,5.2107 0.04306,4.39249 -1.679483,7.75146 -1.722547,3.35897 -4.607813,5.64134 -2.885266,2.23931 -6.674869,3.44509 -3.746539,1.20579 -7.75146,1.24885 z m 8.009843,-29.32636 v 22.56537 h 12.273146 q 2.497693,-0.0431 4.737004,-0.81821 2.239311,-0.81821 3.961857,-2.23932 1.722547,-1.4211 2.713012,-3.48815 1.033528,-2.06706 1.033528,-4.69394 0.04306,-2.66995 -0.904337,-4.73701 -0.904338,-2.06705 -2.540757,-3.48815 -1.636419,-1.46417 -3.832667,-2.23931 -2.196247,-0.77515 -4.737003,-0.86128 z m 0,-6.6318 h 11.110427 q 2.239311,-0.0431 4.392494,-0.68902 2.153184,-0.68902 3.832667,-1.93787 1.679483,-1.29191 2.713011,-3.14365 1.033528,-1.85173 1.033528,-4.30636 0,-2.62689 -1.033528,-4.47862 -0.990464,-1.85174 -2.713011,-3.01446 -1.679483,-1.20578 -3.918794,-1.76561 -2.196247,-0.55983 -4.521686,-0.60289 H 65.026749 Z"
         style="font-style:normal;font-variant:normal;font-weight:normal;font-stretch:normal;font-size:88.1944px;font-family:'Roboto Mono';-inkscape-font-specification:'Roboto Mono';fill:#00ff00;stroke-width:0.264583"
         id="path3650" />
      <path
         d="m 140.56043,226.78219 q 1.11965,0 2.32544,0.0861 1.20578,0.0431 2.28237,0.21532 1.11965,0.12919 2.02399,0.34451 0.9474,0.21532 1.55029,0.4737 l -1.07659,7.79453 q -2.32544,-0.51677 -4.43556,-0.73209 -2.06705,-0.25838 -4.34943,-0.25838 -5.59827,0 -9.08643,2.54076 -3.44509,2.54076 -5.08151,7.1055 v 29.88619 h -8.00985 v -46.59489 h 7.57921 l 0.38757,7.40695 q 2.8422,-3.83267 6.80406,-6.02891 4.00492,-2.23931 9.08644,-2.23931 z"
         style="font-style:normal;font-variant:normal;font-weight:normal;font-stretch:normal;font-size:88.1944px;font-family:'Roboto Mono';-inkscape-font-specification:'Roboto Mono';fill:#00ff00;stroke-width:0.264583"
         id="path3652" />
      <path
         d="m 164.20238,227.64346 h 23.81421 v 39.7047 h 15.20148 v 6.89019 h -39.01569 v -6.89019 h 15.84743 v -32.77145 h -15.84743 z m 14.8139,-12.23008 q 0,-1.98093 1.16272,-3.31591 1.20579,-1.37803 3.61735,-1.37803 2.3685,0 3.57429,1.37803 1.20578,1.33498 1.20578,3.31591 0,1.93786 -1.20578,3.22977 -1.20579,1.29191 -3.57429,1.29191 -2.41156,0 -3.61735,-1.29191 -1.16272,-1.29191 -1.16272,-3.22977 z"
         style="font-style:normal;font-variant:normal;font-weight:normal;font-stretch:normal;font-size:88.1944px;font-family:'Roboto Mono';-inkscape-font-specification:'Roboto Mono';fill:#00ff00;stroke-width:0.264583"
         id="path3654" />
      <path
         d="m 214.41463,250.55333 q 0,-5.2107 1.24884,-9.56013 1.29191,-4.3925 3.70348,-7.53614 2.41156,-3.14365 5.85666,-4.90926 3.44509,-1.76561 7.79452,-1.76561 4.30637,0 7.53614,1.55029 3.27284,1.50723 5.55522,4.39249 l 0.38757,-5.08151 h 7.2347 v 45.60443 q 0,4.60781 -1.46417,8.18209 -1.4211,3.57429 -4.04798,6.07198 -2.58382,2.49769 -6.20117,3.7896 -3.61735,1.29191 -8.00984,1.29191 -1.80868,0 -4.13412,-0.43063 -2.32544,-0.38757 -4.737,-1.33498 -2.3685,-0.90433 -4.60781,-2.45462 -2.19625,-1.5503 -3.78961,-3.83267 l 4.13412,-4.78007 q 1.46416,1.76561 3.01445,2.97139 1.5503,1.24885 3.14365,1.98093 1.59336,0.73209 3.18671,1.03353 1.59336,0.34451 3.18671,0.34451 2.84221,0 5.12458,-0.81821 2.28238,-0.81821 3.87573,-2.41156 1.63642,-1.5503 2.49769,-3.87573 0.86128,-2.32544 0.86128,-5.3399 v -4.00492 q -2.32544,2.66995 -5.51215,4.09105 -3.14365,1.37803 -7.32083,1.37803 -4.2633,0 -7.70839,-1.80867 -3.4451,-1.80867 -5.85666,-4.99539 -2.3685,-3.18671 -3.66041,-7.49307 -1.29191,-4.34943 -1.29191,-9.34482 z m 7.96677,0.90434 q 0,3.40203 0.68902,6.45955 0.73209,3.05752 2.23931,5.38296 1.5503,2.32544 3.9188,3.70347 2.3685,1.33498 5.6844,1.33498 2.06706,0 3.70348,-0.4737 1.67948,-0.51677 2.97139,-1.4211 1.33498,-0.90434 2.3685,-2.15319 1.03353,-1.24884 1.80868,-2.75607 v -21.35958 q -0.77515,-1.46417 -1.80868,-2.66995 -1.03352,-1.20578 -2.3685,-2.06706 -1.33497,-0.90433 -2.97139,-1.37803 -1.63642,-0.51677 -3.61735,-0.51677 -3.35897,0 -5.77053,1.37804 -2.3685,1.37804 -3.9188,3.74654 -1.50722,2.32544 -2.23931,5.42602 -0.68902,3.05752 -0.68902,6.45955 z"
         style="font-style:normal;font-variant:normal;font-weight:normal;font-stretch:normal;font-size:88.1944px;font-family:'Roboto Mono';-inkscape-font-specification:'Roboto Mono';fill:#00ff00;stroke-width:0.264583"
         id="path3656" />
      <path
         d="m 267.33987,250.55333 q 0,-5.2107 1.24885,-9.56013 1.29191,-4.3925 3.70347,-7.53614 2.41157,-3.14365 5.85666,-4.90926 3.4451,-1.76561 7.79453,-1.76561 4.30637,0 7.53614,1.55029 3.27284,1.50723 5.55521,4.39249 l 0.38758,-5.08151 h 7.23469 v 45.60443 q 0,4.60781 -1.46416,8.18209 -1.4211,3.57429 -4.04799,6.07198 -2.58382,2.49769 -6.20116,3.7896 -3.61735,1.29191 -8.00985,1.29191 -1.80867,0 -4.13411,-0.43063 -2.32544,-0.38757 -4.737,-1.33498 -2.36851,-0.90433 -4.60782,-2.45462 -2.19624,-1.5503 -3.7896,-3.83267 l 4.13411,-4.78007 q 1.46417,1.76561 3.01446,2.97139 1.55029,1.24885 3.14365,1.98093 1.59335,0.73209 3.18671,1.03353 1.59336,0.34451 3.18671,0.34451 2.8422,0 5.12458,-0.81821 2.28237,-0.81821 3.87573,-2.41156 1.63642,-1.5503 2.49769,-3.87573 0.86127,-2.32544 0.86127,-5.3399 v -4.00492 q -2.32543,2.66995 -5.51215,4.09105 -3.14364,1.37803 -7.32082,1.37803 -4.2633,0 -7.7084,-1.80867 -3.44509,-1.80867 -5.85666,-4.99539 -2.3685,-3.18671 -3.66041,-7.49307 -1.29191,-4.34943 -1.29191,-9.34482 z m 7.96678,0.90434 q 0,3.40203 0.68902,6.45955 0.73208,3.05752 2.23931,5.38296 1.55029,2.32544 3.9188,3.70347 2.3685,1.33498 5.6844,1.33498 2.06706,0 3.70348,-0.4737 1.67948,-0.51677 2.97139,-1.4211 1.33497,-0.90434 2.3685,-2.15319 1.03353,-1.24884 1.80867,-2.75607 v -21.35958 q -0.77514,-1.46417 -1.80867,-2.66995 -1.03353,-1.20578 -2.3685,-2.06706 -1.33498,-0.90433 -2.97139,-1.37803 -1.63642,-0.51677 -3.61735,-0.51677 -3.35897,0 -5.77053,1.37804 -2.36851,1.37804 -3.9188,3.74654 -1.50723,2.32544 -2.23931,5.42602 -0.68902,3.05752 -0.68902,6.45955 z"
         style="font-style:normal;font-variant:normal;font-weight:normal;font-stretch:normal;font-size:88.1944px;font-family:'Roboto Mono';-inkscape-font-specification:'Roboto Mono';fill:#00ff00;stroke-width:0.264583"
         id="path3658" />
      <path
         d="m 352.69206,261.87908 q 0,-1.4211 -0.55982,-2.54076 -0.55983,-1.16272 -1.89481,-2.11012 -1.33497,-0.9474 -3.53122,-1.72255 -2.19624,-0.8182 -5.46908,-1.46416 -4.00492,-0.81821 -7.32083,-1.98093 -3.27284,-1.16272 -5.64134,-2.75607 -2.32544,-1.63642 -3.61735,-3.78961 -1.29191,-2.19624 -1.29191,-5.08151 0,-2.8422 1.33498,-5.29683 1.33497,-2.49769 3.74654,-4.34943 2.41156,-1.85174 5.72747,-2.92833 3.35896,-1.07659 7.36388,-1.07659 4.30637,0 7.75146,1.11965 3.4451,1.11966 5.85666,3.10059 2.41157,1.98093 3.70348,4.65087 1.33497,2.62689 1.33497,5.68441 h -7.96678 q 0,-1.50723 -0.77514,-2.92833 -0.77515,-1.46417 -2.15319,-2.58382 -1.37803,-1.11966 -3.35896,-1.80868 -1.93787,-0.68902 -4.3925,-0.68902 -2.54075,0 -4.47862,0.55983 -1.8948,0.55983 -3.18671,1.50723 -1.24885,0.9474 -1.8948,2.19625 -0.64596,1.24884 -0.64596,2.58382 0,1.37804 0.51677,2.45463 0.51676,1.07659 1.76561,1.93786 1.29191,0.86128 3.40203,1.55029 2.15318,0.68902 5.42602,1.33498 4.30637,0.90434 7.7084,2.11012 3.40203,1.16272 5.72747,2.8422 2.32543,1.63642 3.53122,3.83267 1.24884,2.19624 1.24884,5.08151 0,3.10058 -1.4211,5.64134 -1.37804,2.54076 -3.87573,4.34943 -2.49769,1.80868 -5.98585,2.79914 -3.48816,0.99046 -7.62227,0.99046 -4.737,0 -8.44048,-1.24884 -3.70347,-1.29191 -6.28729,-3.35897 -2.54076,-2.11012 -3.9188,-4.86619 -1.33497,-2.75608 -1.33497,-5.72747 h 7.96678 q 0.17225,2.45463 1.29191,4.13411 1.16272,1.67948 2.8422,2.71301 1.72255,1.03353 3.7896,1.46417 2.06706,0.43063 4.09105,0.43063 5.03845,0 7.96678,-1.85173 2.92833,-1.85174 2.97139,-4.90926 z"
         style="font-style:normal;font-variant:normal;font-weight:normal;font-stretch:normal;font-size:88.1944px;font-family:'Roboto Mono';-inkscape-font-specification:'Roboto Mono';fill:#00ff00;stroke-width:0.264583"
         id="path3660" />
      <path
         d="M 366.3002,296.28695 V 191.51304 h 34.75238 v 104.77391 z"
         style="font-style:normal;font-variant:normal;font-weight:normal;font-stretch:normal;font-size:88.1944px;font-family:'Roboto Mono';-inkscape-font-specification:'Roboto Mono';fill:#00ff00;stroke-width:0.264583"
         id="path3662" />
    </g>
    <text
       xml:space="preserve"
       style="font-size:45.8611px;line-height:1.25;font-family:'Roboto Mono';-inkscape-font-specification:'Roboto Mono';text-align:center;text-anchor:middle;stroke-width:0.264583;fill:#d6d6d6;fill-opacity:1;"
       x="519.2829"
       y="85.526253"
       id="text2913"><tspan
         sodipodi:role="line"
         id="tspan2911"
         x="519.2829"
         y="85.526253"
         style="font-size:45.8611px;text-align:center;text-anchor:middle;stroke-width:0.264583;fill:#d6d6d6;fill-opacity:1;">A Definitive</tspan><tspan
         sodipodi:role="line"
         x="519.2829"
         y="142.85265"
         style="font-size:45.8611px;text-align:center;text-anchor:middle;stroke-width:0.264583;fill:#d6d6d6;fill-opacity:1;"
         id="tspan2917">Changelog of Progress</tspan></text>
  </g>
</svg>
