<?xml version="1.0" encoding="UTF-8" standalone="no"?>
<svg
   xmlns:dc="http://purl.org/dc/elements/1.1/"
   xmlns:cc="http://creativecommons.org/ns#"
   xmlns:rdf="http://www.w3.org/1999/02/22-rdf-syntax-ns#"
   xmlns:svg="http://www.w3.org/2000/svg"
   xmlns="http://www.w3.org/2000/svg"
   xmlns:sodipodi="http://sodipodi.sourceforge.net/DTD/sodipodi-0.dtd"
   xmlns:inkscape="http://www.inkscape.org/namespaces/inkscape"
   width="1024"
   height="1024"
   viewBox="0 0 270.93333 270.93333"
   version="1.1"
   id="svg8"
   inkscape:version="1.0.2 (e86c870879, 2021-01-15)"
   sodipodi:docname="lukelogowhitebg.svg"
   inkscape:export-filename="/home/luke/Documents/Projects/HugoSite/static/logo.png"
   inkscape:export-xdpi="96"
   inkscape:export-ydpi="96">
  <defs
     id="defs2" />
  <sodipodi:namedview
     id="base"
     pagecolor="#ffffff"
     bordercolor="#666666"
     borderopacity="1.0"
     inkscape:pageopacity="0.0"
     inkscape:pageshadow="2"
     inkscape:zoom="0.7"
     inkscape:cx="202.59752"
     inkscape:cy="475.79696"
     inkscape:document-units="mm"
     inkscape:current-layer="layer1"
     inkscape:document-rotation="0"
     showgrid="false"
     inkscape:window-width="1920"
     inkscape:window-height="1011"
     inkscape:window-x="0"
     inkscape:window-y="0"
     inkscape:window-maximized="1"
     units="px" />
  <metadata
     id="metadata5">
    <rdf:RDF>
      <cc:Work
         rdf:about="">
        <dc:format>image/svg+xml</dc:format>
        <dc:type
           rdf:resource="http://purl.org/dc/dcmitype/StillImage" />
        <dc:title></dc:title>
      </cc:Work>
    </rdf:RDF>
  </metadata>
  <g
     inkscape:label="Layer 1"
     inkscape:groupmode="layer"
     id="layer1"
     transform="translate(-16.958542,-41.433795)">
    <rect
       style="fill:#000000;fill-rule:evenodd;stroke-width:0.56139"
       id="rect50"
       width="67.366837"
       height="67.366837"
       x="79.654045"
       y="102.8091"
       ry="9.3498564" />
    <rect
       style="fill:#000000;fill-rule:evenodd;stroke-width:0.56139"
       id="rect50-6"
       width="67.366837"
       height="67.366837"
       x="156.2037"
       y="102.8091"
       ry="9.3498564" />
    <rect
       style="fill:#000000;fill-rule:evenodd;stroke-width:0.56139"
       id="rect50-6-7"
       width="67.366837"
       height="67.366837"
       x="79.654045"
       y="179.15788"
       ry="9.3498564" />
    <rect
       style="fill:#000000;fill-rule:evenodd;stroke-width:0.56139"
       id="rect50-6-7-6"
       width="67.366837"
       height="67.366837"
       x="156.00314"
       y="179.15788"
       ry="9.3498564" />
    <g
       aria-label="L  U"
       id="text193"
       style="font-style:normal;font-variant:normal;font-weight:normal;font-stretch:normal;font-size:25.4px;line-height:1.25;font-family:'IBM Plex Mono';-inkscape-font-specification:'IBM Plex Mono';fill:#ffffff;fill-opacity:1;stroke:none;stroke-width:0.264583"
       transform="matrix(2.1217902,0,0,2.1217902,-19.023926,-7.73273)">
      <path
         d="m 67.172208,74.749091 v 1.947168 H 56.220939 V 58.638446 h 2.393652 v 16.110645 z"
         style="font-style:normal;font-variant:normal;font-weight:normal;font-stretch:normal;font-size:25.4px;font-family:Roboto;-inkscape-font-specification:Roboto;fill:#ffffff;stroke-width:0.264583"
         id="path35" />
      <path
         d="m 102.14544,58.638446 h 2.38126 v 12.216309 q 0,3.050976 -1.95958,4.576465 -1.95958,1.513085 -4.588876,1.513085 -2.765723,0 -4.650879,-1.513085 -1.872754,-1.525489 -1.872754,-4.576465 V 58.638446 h 2.368848 v 12.216309 q 0,2.1208 1.141015,3.137793 1.153418,1.004589 3.01377,1.004589 1.885156,0 3.026176,-1.004589 1.14102,-1.016993 1.14102,-3.137793 z"
         style="font-style:normal;font-variant:normal;font-weight:normal;font-stretch:normal;font-size:25.4px;font-family:Roboto;-inkscape-font-specification:Roboto;fill:#ffffff;stroke-width:0.264583"
         id="path37" />
    </g>
    <g
       aria-label="{"
       id="text134"
       style="font-size:98.7778px;line-height:1.25;font-family:'DM Mono';-inkscape-font-specification:'DM Mono';stroke-width:0.264583"
       transform="matrix(2.1217902,0,0,2.1217902,-19.023926,-8.8555034)">
      <path
         d="m 55.109539,126.18539 v 6.94531 h -2.990344 q -12.009605,0 -16.10927,-3.56912 -4.051433,-3.56912 -4.051433,-14.22825 v -11.52729 q 0,-7.282932 -2.604493,-10.08035 -2.604493,-2.797419 -9.453344,-2.797419 h -2.942113 v -6.897082 h 2.942113 q 6.897082,0 9.453344,-2.749187 2.604493,-2.797418 2.604493,-9.983889 V 59.722589 q 0,-10.659128 4.051433,-14.180016 4.099665,-3.56912 16.10927,-3.56912 h 2.990344 v 6.897083 h -3.279732 q -6.80062,0 -8.874568,2.122179 -2.073948,2.122179 -2.073948,8.922799 v 11.961375 q 0,7.572322 -2.218642,10.996747 -2.170411,3.424426 -7.475859,4.63021 5.35368,1.302246 7.52409,4.726672 2.170411,3.424426 2.170411,10.948512 v 11.96138 q 0,6.80062 2.073948,8.9228 2.073948,2.12218 8.874568,2.12218 z"
         style="font-size:98.7778px;stroke-width:0.264583"
         id="path40" />
    </g>
    <g
       aria-label="}"
       id="text138"
       style="font-size:98.7778px;line-height:1.25;font-family:'DM Mono';-inkscape-font-specification:'DM Mono';stroke-width:0.264583"
       transform="matrix(2.1217902,0,0,2.1217902,-19.023926,-8.8555034)">
      <path
         d="m 106.49846,126.1749 h 3.3762 q 6.75239,0 8.7781,-2.07395 2.07395,-2.07395 2.07395,-8.97103 v -11.96138 q 0,-7.524087 2.17041,-10.948513 2.17041,-3.424425 7.52409,-4.726672 -5.35368,-1.205783 -7.52409,-4.630209 -2.17041,-3.424426 -2.17041,-10.996748 V 59.905024 q 0,-6.848851 -2.07395,-8.922799 -2.02571,-2.12218 -8.7781,-2.12218 h -3.3762 v -6.897083 h 3.03858 q 12.0096,0 16.01281,3.56912 4.05143,3.520889 4.05143,14.180017 v 11.575523 q 0,7.186471 2.60449,9.983889 2.60449,2.749187 9.45335,2.749187 h 2.99034 v 6.897083 h -2.99034 q -6.84886,0 -9.45335,2.797418 -2.60449,2.797418 -2.60449,10.080351 v 11.52729 q 0,10.65913 -4.05143,14.22825 -4.00321,3.56912 -16.01281,3.56912 h -3.03858 z"
         style="font-size:98.7778px;stroke-width:0.264583"
         id="path43" />
    </g>
    <g
       aria-label="K  E"
       id="text172"
       style="font-size:25.4px;line-height:1.25;font-family:'DM Mono';-inkscape-font-specification:'DM Mono';fill:#ffffff;stroke-width:0.264583"
       transform="matrix(2.1217902,0,0,2.1217902,-19.023926,-7.73273)">
      <path
         d="m 67.607452,112.78773 -6.387207,-8.40879 -2.207617,2.29443 v 6.11436 H 56.618976 V 94.729915 h 2.393652 v 8.904885 l 1.95957,-2.15801 6.064746,-6.746875 h 2.877344 l -7.09414,7.974705 7.639843,10.08311 z"
         style="font-style:normal;font-variant:normal;font-weight:normal;font-stretch:normal;font-size:25.4px;font-family:Roboto;-inkscape-font-specification:Roboto;fill:#ffffff;stroke-width:0.264583"
         id="path30" />
      <path
         d="M 91.82371,112.78773 V 94.729915 h 11.34816 v 1.95957 h -8.954508 v 5.804295 h 7.813488 v 1.94717 h -7.813488 v 6.39961 h 9.078528 v 1.94717 z"
         style="font-style:normal;font-variant:normal;font-weight:normal;font-stretch:normal;font-size:25.4px;font-family:Roboto;-inkscape-font-specification:Roboto;fill:#ffffff;stroke-width:0.264583"
         id="path32" />
    </g>
  </g>
</svg>
