<?xml version="1.0" standalone="no"?>
<!DOCTYPE svg PUBLIC "-//W3C//DTD SVG 20010904//EN"
 "http://www.w3.org/TR/2001/REC-SVG-20010904/DTD/svg10.dtd">
<svg version="1.0" xmlns="http://www.w3.org/2000/svg"
 width="1814.000000pt" height="1814.000000pt" viewBox="0 0 1814.000000 1814.000000"
 preserveAspectRatio="xMidYMid meet">
<metadata>
Created by potrace 1.14, written by Peter Selinger 2001-2017
</metadata>
<g transform="translate(0.000000,1814.000000) scale(0.100000,-0.100000)"
fill="#000000" stroke="none">
<path d="M1076 18029 c-152 -36 -280 -176 -309 -338 -10 -51 -12 -1440 -11
-6091 0 -3314 4 -6043 8 -6065 28 -164 179 -315 341 -341 6 -1 100 -2 210 -3
l200 -1 -3 -457 c-2 -306 1 -459 8 -463 6 -3 -316 -6 -715 -6 -714 0 -726 -1
-753 -21 -15 -11 -33 -31 -39 -44 -10 -19 -13 -458 -12 -2014 0 -2196 -5
-2042 63 -2070 31 -13 1157 -15 9010 -15 6839 0 8981 3 9001 12 14 6 34 26 45
43 19 31 20 62 20 2024 0 2176 4 2028 -56 2068 -24 15 -87 17 -740 17 l-714 0
-2 463 -3 463 195 0 c107 0 215 5 240 11 141 31 261 147 305 294 17 57 18 320
19 6105 1 5013 -1 6055 -12 6105 -30 132 -116 240 -240 298 l-67 32 -7975 2
c-4783 0 -7991 -3 -8014 -8z"/>
</g>
</svg>
