<?xml version="1.0" standalone="no"?>
<!DOCTYPE svg PUBLIC "-//W3C//DTD SVG 20010904//EN"
 "http://www.w3.org/TR/2001/REC-SVG-20010904/DTD/svg10.dtd">
<svg version="1.0" xmlns="http://www.w3.org/2000/svg"
 width="700.000000pt" height="700.000000pt" viewBox="0 0 700.000000 700.000000"
 preserveAspectRatio="xMidYMid meet">
<metadata>
Created by potrace 1.14, written by Peter Selinger 2001-2017
</metadata>
<g transform="translate(0.000000,700.000000) scale(0.100000,-0.100000)"
fill="#000000" stroke="none">
<path d="M1705 5993 c-108 -6 -288 -33 -384 -58 -295 -78 -425 -241 -481 -605
-7 -45 -15 -296 -20 -620 -8 -565 -10 -595 -55 -720 -35 -98 -100 -177 -182
-219 -102 -51 -276 -81 -478 -81 l-105 0 0 -189 0 -189 193 -5 c207 -5 263
-15 372 -66 79 -37 141 -100 181 -186 63 -133 66 -163 74 -765 9 -604 14 -664
76 -852 90 -273 301 -390 778 -428 71 -5 194 -10 272 -10 l144 0 0 189 0 188
-187 6 c-406 12 -513 72 -568 317 -15 63 -18 163 -25 640 -7 513 -9 573 -28
655 -51 227 -127 339 -293 428 -35 19 -95 45 -133 57 l-69 23 69 22 c112 35
184 76 256 144 96 90 141 186 179 384 6 28 14 304 19 612 6 470 11 572 25 635
23 103 50 161 93 203 81 79 193 106 465 114 l197 6 0 188 0 189 -162 -2 c-90
-1 -190 -3 -223 -5z"/>
<path d="M4910 5811 l0 -188 198 -5 c397 -10 501 -70 557 -318 15 -63 18 -165
25 -640 7 -513 9 -573 28 -655 61 -273 176 -402 427 -480 l70 -22 -70 -23
c-253 -83 -366 -211 -427 -485 -19 -82 -21 -142 -28 -655 -7 -475 -10 -577
-25 -640 -55 -247 -159 -305 -567 -317 l-188 -6 0 -190 0 -190 223 6 c346 9
538 43 703 122 113 54 177 120 233 239 88 182 101 300 111 961 8 581 11 603
72 734 83 175 233 241 581 256 l167 7 0 184 0 184 -92 0 c-123 0 -290 16 -363
35 -188 49 -284 146 -337 342 -20 73 -21 112 -28 608 -5 304 -13 571 -20 625
-39 307 -140 489 -320 576 -168 82 -437 124 -786 124 l-144 0 0 -189z"/>
<path d="M1751 5384 c-59 -30 -105 -85 -121 -145 -7 -25 -10 -276 -8 -716 l3
-678 25 -45 c33 -58 96 -105 160 -119 70 -15 1290 -15 1360 0 64 14 127 61
160 119 l25 45 3 678 c2 440 -1 691 -8 716 -16 62 -65 120 -123 147 l-52 24
-686 0 -685 0 -53 -26z m531 -766 l3 -443 233 -3 232 -2 0 -50 0 -50 -300 0
-300 0 0 488 c0 269 3 492 7 495 3 4 33 7 65 7 l58 0 2 -442z"/>
<path d="M3745 5396 c-51 -22 -97 -68 -121 -121 l-24 -50 0 -674 c0 -488 3
-685 12 -713 17 -56 79 -123 136 -145 44 -17 92 -18 722 -18 754 0 723 -3 796
70 75 76 74 60 74 799 0 445 -4 664 -11 691 -18 65 -63 120 -121 149 l-52 26
-690 0 c-547 -1 -697 -4 -721 -14z m467 -708 c3 -415 4 -416 71 -475 46 -40
105 -57 182 -50 106 8 170 55 194 142 7 26 11 167 11 398 l0 357 66 0 65 0 -3
-387 c-3 -371 -4 -390 -24 -433 -93 -198 -423 -252 -592 -97 -55 51 -78 97
-92 178 -11 70 -14 721 -3 732 3 4 32 7 64 7 l58 0 3 -372z"/>
<path d="M1779 3426 c-69 -24 -119 -76 -144 -147 -13 -35 -15 -146 -15 -713 0
-653 1 -672 21 -716 25 -55 62 -95 114 -123 40 -22 42 -22 735 -22 693 0 695
0 735 22 52 28 89 68 114 123 20 44 21 63 21 716 0 745 1 729 -66 798 -74 76
-20 71 -789 73 -550 2 -697 0 -726 -11z m531 -589 l5 -239 215 241 215 240 79
1 c72 0 77 -1 65 -17 -8 -9 -94 -107 -192 -217 -100 -114 -175 -206 -172 -214
2 -7 95 -132 205 -277 l201 -265 -78 0 -78 0 -175 230 -175 230 -57 -62 -57
-63 -1 -167 0 -168 -70 0 -70 0 0 488 c0 269 3 492 7 496 4 4 34 6 68 4 l60
-3 5 -238z"/>
<path d="M3751 3426 c-48 -17 -108 -71 -134 -119 l-22 -42 0 -690 0 -691 26
-49 c28 -56 91 -109 147 -125 24 -6 272 -10 693 -10 739 0 725 -1 797 71 76
75 73 40 70 815 l-3 691 -30 49 c-19 30 -49 60 -79 79 l-49 30 -691 2 c-525 1
-699 -1 -725 -11z m977 -403 l3 -53 -245 0 -246 0 0 -160 0 -160 210 0 210 0
0 -55 0 -55 -210 0 -210 0 0 -175 0 -175 245 0 245 0 0 -50 0 -50 -315 0 -315
0 0 488 c0 269 3 492 7 495 4 4 144 6 312 5 l306 -3 3 -52z"/>
</g>
</svg>
