<?xml version="1.0" encoding="UTF-8" standalone="no"?>
<!-- Created with Inkscape (http://www.inkscape.org/) -->

<svg
   width="144"
   height="72"
   viewBox="0 0 38.1 19.05"
   version="1.1"
   id="svg5"
   inkscape:version="1.1 (c68e22c387, 2021-05-23)"
   sodipodi:docname="banner_144x72.svg"
   inkscape:export-filename="C:\Users\lukeb\Documents\Projects\calmer-internet\icons\banner_1920x960.png"
   inkscape:export-xdpi="1280"
   inkscape:export-ydpi="1280"
   xmlns:inkscape="http://www.inkscape.org/namespaces/inkscape"
   xmlns:sodipodi="http://sodipodi.sourceforge.net/DTD/sodipodi-0.dtd"
   xmlns:xlink="http://www.w3.org/1999/xlink"
   xmlns="http://www.w3.org/2000/svg"
   xmlns:svg="http://www.w3.org/2000/svg">
  <sodipodi:namedview
     id="namedview7"
     pagecolor="#ffffff"
     bordercolor="#666666"
     borderopacity="1.0"
     inkscape:pageshadow="2"
     inkscape:pageopacity="0.0"
     inkscape:pagecheckerboard="0"
     inkscape:document-units="mm"
     showgrid="false"
     units="px"
     inkscape:zoom="5.12"
     inkscape:cx="59.472657"
     inkscape:cy="55.273438"
     inkscape:window-width="1920"
     inkscape:window-height="1007"
     inkscape:window-x="0"
     inkscape:window-y="0"
     inkscape:window-maximized="1"
     inkscape:current-layer="layer2"
     width="96px" />
  <defs
     id="defs2">
    <linearGradient
       inkscape:collect="always"
       id="linearGradient36023">
      <stop
         style="stop-color:#81d4fa;stop-opacity:1;"
         offset="0"
         id="stop36027" />
      <stop
         style="stop-color:#4faff7;stop-opacity:1"
         offset="1"
         id="stop36029" />
    </linearGradient>
    <filter
       style="color-interpolation-filters:sRGB"
       inkscape:label="Drop Shadow"
       id="filter21754"
       x="-0.070241436"
       y="-0.070256412"
       width="1.1711907"
       height="1.1705958">
      <feFlood
         flood-opacity="0.498039"
         flood-color="rgb(0,0,0)"
         result="flood"
         id="feFlood21744" />
      <feComposite
         in="flood"
         in2="SourceGraphic"
         operator="in"
         result="composite1"
         id="feComposite21746" />
      <feGaussianBlur
         in="composite1"
         stdDeviation="3"
         result="blur"
         id="feGaussianBlur21748" />
      <feOffset
         dx="5.98802"
         dy="6"
         result="offset"
         id="feOffset21750" />
      <feComposite
         in="SourceGraphic"
         in2="offset"
         operator="over"
         result="fbSourceGraphic"
         id="feComposite21752" />
      <feColorMatrix
         result="fbSourceGraphicAlpha"
         in="fbSourceGraphic"
         values="0 0 0 -1 0 0 0 0 -1 0 0 0 0 -1 0 0 0 0 1 0"
         id="feColorMatrix21774" />
      <feFlood
         id="feFlood21776"
         flood-opacity="0.498039"
         flood-color="rgb(0,0,0)"
         result="flood"
         in="fbSourceGraphic" />
      <feComposite
         in2="fbSourceGraphic"
         id="feComposite21778"
         in="flood"
         operator="in"
         result="composite1" />
      <feGaussianBlur
         id="feGaussianBlur21780"
         in="composite1"
         stdDeviation="3"
         result="blur" />
      <feOffset
         id="feOffset21782"
         dx="5.98802"
         dy="6"
         result="offset" />
      <feComposite
         in2="offset"
         id="feComposite21784"
         in="fbSourceGraphic"
         operator="over"
         result="composite2" />
    </filter>
    <linearGradient
       inkscape:collect="always"
       xlink:href="#linearGradient36023"
       id="linearGradient36025"
       x1="1.3523833"
       y1="11.374353"
       x2="9.8677168"
       y2="2.2939761"
       gradientUnits="userSpaceOnUse"
       gradientTransform="matrix(3.0306919,0,0,1.5222966,-0.17952961,-0.06000007)" />
    <filter
       id="mask-powermask-path-effect46538_inverse"
       inkscape:label="filtermask-powermask-path-effect46538"
       style="color-interpolation-filters:sRGB"
       height="100"
       width="100"
       x="-50"
       y="-50">
      <feColorMatrix
         id="mask-powermask-path-effect46538_primitive1"
         values="1"
         type="saturate"
         result="fbSourceGraphic" />
      <feColorMatrix
         id="mask-powermask-path-effect46538_primitive2"
         values="-1 0 0 0 1 0 -1 0 0 1 0 0 -1 0 1 0 0 0 1 0 "
         in="fbSourceGraphic" />
    </filter>
    <clipPath
       clipPathUnits="userSpaceOnUse"
       id="clipPath55611">
      <ellipse
         style="display:none;fill:#ffffff;fill-opacity:1;stroke:#0079c1;stroke-width:13.016;stroke-linecap:butt;stroke-miterlimit:4;stroke-dasharray:none;stroke-opacity:1;paint-order:stroke fill markers"
         id="circle55613"
         cx="322.81763"
         cy="154.61189"
         rx="182.40161"
         ry="182.28813" />
      <path
         style="fill:#ffffff;fill-opacity:1;stroke:#0079c1;stroke-width:13.016;stroke-linecap:butt;stroke-miterlimit:4;stroke-dasharray:none;stroke-opacity:1;paint-order:stroke fill markers"
         class="powerclip"
         id="lpe_path-effect55615"
         d="M -2.9941592,-3 H 422.99416 V 422.73235 H -2.9941592 Z M 505.21924,154.61189 A 182.40161,182.28813 0 0 0 322.81763,-27.676239 182.40161,182.28813 0 0 0 140.41602,154.61189 182.40161,182.28813 0 0 0 322.81763,336.90002 182.40161,182.28813 0 0 0 505.21924,154.61189 Z" />
    </clipPath>
    <inkscape:path-effect
       effect="fill_between_many"
       method="originald"
       linkedpaths="#path2,0,1"
       id="path-effect62719"
       is_visible="true"
       lpeversion="0"
       join="true"
       close="true"
       autoreverse="true"
       applied="false" />
    <filter
       style="color-interpolation-filters:sRGB"
       inkscape:label="Drop Shadow"
       id="filter65122"
       x="-0.030575059"
       y="-0.02800917"
       width="1.0732298"
       height="1.0671124">
      <feFlood
         flood-opacity="0.498039"
         flood-color="rgb(0,0,0)"
         result="flood"
         id="feFlood65112" />
      <feComposite
         in="flood"
         in2="SourceGraphic"
         operator="in"
         result="composite1"
         id="feComposite65114" />
      <feGaussianBlur
         in="composite1"
         stdDeviation="0.1"
         result="blur"
         id="feGaussianBlur65116" />
      <feOffset
         dx="0.1"
         dy="0.1"
         result="offset"
         id="feOffset65118" />
      <feComposite
         in="SourceGraphic"
         in2="offset"
         operator="over"
         result="composite2"
         id="feComposite65120" />
    </filter>
  </defs>
  <g
     inkscape:groupmode="layer"
     id="layer2"
     inkscape:label="bg">
    <rect
       style="fill:url(#linearGradient36025);fill-opacity:1;stroke:none;stroke-width:0.629343;stroke-linecap:butt;stroke-miterlimit:4;stroke-dasharray:none;stroke-opacity:1;paint-order:normal"
       id="rect19395"
       width="37.602001"
       height="18.785418"
       x="0.26458332"
       y="0.16307493"
       rx="1.5875"
       ry="1.5875" />
    <g
       id="svgg"
       transform="matrix(0.26458333,0,0,0.26458333,-60.984115,-10.559032)">
      <path
         id="path0"
         d="m 168.846,39.657 c -9.353,2.837 -16.494,5.372 -20.961,7.44 -16.45,7.614 -28.086,15.083 -40.193,25.798 -4.305,3.81 -12.698,12.282 -12.686,12.806 0.005,0.217 7.747,4.952 10.512,6.429 0.456,0.243 1.867,1.011 3.136,1.707 7.307,4.005 21.923,10.761 22.31,10.312 0.053,-0.061 0.66,-1.409 1.349,-2.995 3.596,-8.274 10.259,-21.035 14.159,-27.116 8.746,-13.636 14.355,-21.217 22.336,-30.192 4.87,-5.475 4.542,-5.004 3.463,-4.973 -0.509,0.014 -2.05,0.367 -3.425,0.784 m -3.713,34.128 c -3.518,5.194 -5.482,8.377 -10.242,16.6 -0.982,1.697 -5.602,10.976 -6.989,14.038 -0.575,1.269 -1.326,2.863 -1.669,3.543 -0.342,0.679 -0.494,1.363 -0.337,1.52 0.633,0.633 7.241,2.344 7.38,1.911 0.077,-0.24 0.397,-1.647 0.711,-3.128 1.691,-7.985 4.537,-17.387 7.162,-23.654 0.664,-1.586 1.439,-3.49 1.721,-4.23 0.282,-0.741 1.227,-2.886 2.099,-4.768 1.827,-3.942 1.863,-4.34 0.164,-1.832 m -83.071,28.434 c -12.433,18.689 -20.181,38.263 -24.013,60.666 -0.572,3.343 -1.871,16.458 -1.664,16.793 0.109,0.177 13.154,0.322 28.988,0.322 h 28.789 l 0.224,-3.365 c 0.356,-5.331 2.153,-21.176 2.736,-24.135 0.292,-1.481 0.718,-3.817 0.946,-5.192 0.967,-5.828 4.739,-20.489 6.761,-26.281 0.756,-2.164 0.757,-2.162 -2.521,-3.456 -9.102,-3.592 -23.601,-11.072 -33.406,-17.233 -4.411,-2.772 -3.596,-2.996 -6.84,1.881 m 57.046,25.174 c -2.54,8.173 -3.37,11.398 -5.275,20.492 -1.938,9.25 -3.828,24.378 -3.832,30.673 L 130,180 h 12.692 c 7.852,0 12.693,-0.141 12.693,-0.369 0,-0.203 -0.418,-2.064 -0.929,-4.135 -3.336,-13.52 -5.029,-36.488 -3.443,-46.721 0.217,-1.402 0.202,-1.421 -1.455,-1.851 -0.92,-0.238 -3.145,-0.871 -4.943,-1.405 -1.798,-0.535 -3.55,-1.048 -3.893,-1.141 -0.489,-0.132 -0.84,0.524 -1.614,3.015 m -82.954,68.162 c 0,0.094 0.348,3.512 0.775,7.596 2.624,25.157 10.699,47.884 24.458,68.837 3.842,5.851 3.46,5.579 5.773,4.099 3.772,-2.414 4.631,-2.944 7.84,-4.842 1.798,-1.063 5.173,-2.929 7.5,-4.146 2.327,-1.217 4.404,-2.338 4.615,-2.492 0.313,-0.226 11.453,-5.259 16.672,-7.531 0.983,-0.428 1.222,-0.717 1.012,-1.222 -0.358,-0.861 -2.343,-7.552 -3.334,-11.239 -3.459,-12.864 -6.317,-30.885 -7.062,-44.519 l -0.257,-4.711 H 85.15 c -15.948,0 -28.996,0.076 -28.996,0.17 m 73.847,2.037 c 0.006,15.198 7.552,54.162 10.343,53.413 0.34,-0.092 2.521,-0.715 4.848,-1.386 9.634,-2.778 12.385,-3.446 21.422,-5.203 5.781,-1.123 17.621,-2.878 19.424,-2.878 1.706,0 1.614,-0.386 -0.76,-3.184 -3.203,-3.777 -7.961,-10.421 -12.041,-16.816 -2.621,-4.107 -9.059,-16.52 -10.373,-20 -0.279,-0.74 -0.943,-2.384 -1.474,-3.653 l -0.966,-2.308 -15.212,-0.101 -15.212,-0.1 0.001,2.216 m 58.268,59.355 c -4.019,0.384 -8.259,0.883 -9.423,1.109 -1.163,0.226 -4.106,0.755 -6.538,1.176 -11.824,2.045 -26.639,5.919 -26.851,7.022 -0.29,1.505 7.53,17.373 13.124,26.631 8.758,14.495 17.425,25.687 29.289,37.821 7.843,8.021 9.9,9.739 11.948,9.969 l 1.72,0.194 v -42.357 -42.358 l -2.98,0.047 c -1.64,0.026 -6.27,0.362 -10.289,0.746 m 28.654,47.476 v 36.346 h 1.166 c 5.817,0 29.531,-26.948 41.515,-47.177 l 2.665,-4.499 -3.538,-1.131 c -5.103,-1.631 -11.147,-3.894 -16.616,-6.222 -5.923,-2.521 -19.379,-9.953 -23.113,-12.766 -0.654,-0.494 -1.39,-0.897 -1.634,-0.897 -0.334,0 -0.445,9.109 -0.445,36.346 m -89.231,-32.156 c -5.998,2.402 -16.956,7.851 -23.846,11.859 -5.572,3.241 -8.823,5.286 -8.835,5.558 -0.024,0.553 11.537,11.848 15.374,15.019 6.793,5.615 8.306,6.718 18.846,13.75 3.613,2.411 16.118,8.778 21.196,10.793 6.881,2.731 11.524,4.352 17.028,5.945 4.381,1.268 4.378,1.377 0.099,-3.517 -14.381,-16.45 -32.527,-45.855 -36.575,-59.27 -0.312,-1.033 -0.979,-1.06 -3.287,-0.137 m 149.19,22.637 c -5.517,9.752 -12.021,19.568 -18.668,28.173 -1.146,1.485 -8.58,10.342 -9.681,11.536 -1.598,1.732 -1.235,1.802 2.879,0.558 18,-5.44 31.714,-12.076 47.05,-22.763 5.272,-3.675 14.607,-11.639 19.038,-16.243 l 1.923,-1.999 -2.692,0.294 c -7.606,0.83 -26.418,0.168 -34.378,-1.21 -4.343,-0.752 -4.062,-0.837 -5.471,1.654"
         stroke="none"
         fill="#fbfbfb"
         fill-rule="evenodd" />
    </g>
    <text
       xml:space="preserve"
       style="font-size:3.70417px;line-height:1.25;font-family:'EB Garamond';-inkscape-font-specification:'EB Garamond';stroke-width:0.264583"
       x="16.042852"
       y="2.6660137"
       id="text68334"><tspan
         sodipodi:role="line"
         id="tspan68332"
         style="font-size:3.70417px;stroke-width:0.264583"
         x="16.042852"
         y="2.6660137" /></text>
    <g
       aria-label="calmer internet"
       id="text94950"
       style="font-weight:300;font-size:3.69916px;line-height:1.25;font-family:'Source Sans Pro';-inkscape-font-specification:'Source Sans Pro Light';fill:#ffffff;stroke:#000000;stroke-width:0">
      <path
         d="m 10.574257,8.5558987 v 0.1770106 q -0.149917,-0.092118 -0.247454,-0.1246299 -0.167979,-0.052381 -0.321509,-0.052381 -0.4371075,0 -0.6267617,0.2239726 -0.1896542,0.2239725 -0.1896542,0.6917862 0,0.4714262 0.1896542,0.6953985 0.1896542,0.223973 0.6267617,0.223973 0.144499,0 0.285385,-0.03974 0.142692,-0.03793 0.283578,-0.115599 v 0.167979 q -0.13908,0.06503 -0.287191,0.09754 -0.149917,0.03251 -0.2962216,0.03251 -0.4443327,0 -0.7062361,-0.240229 -0.2619034,-0.242034 -0.2619034,-0.8218345 0,-0.5797999 0.2619034,-0.8218348 0.2619034,-0.2402287 0.7062361,-0.2402287 0.1444986,0 0.3070596,0.041543 0.16256,0.039737 0.276353,0.1047614 z"
         id="path12216" />
      <path
         d="m 12.031885,9.3398027 q -0.400983,0 -0.577994,0.1426922 -0.17701,0.1426922 -0.17701,0.4172393 0,0.2673218 0.146304,0.3793088 0.146305,0.111986 0.346797,0.111986 0.379308,0 0.545481,-0.321509 0.16798,-0.3215092 0.16798,-0.6050874 V 9.3398027 Z m 0.619537,-0.012644 V 10.48134 H 12.487055 V 9.9322463 q -0.13908,0.4027897 -0.368471,0.5129697 -0.182429,0.0885 -0.363052,0.0885 -0.301641,0 -0.475039,-0.160754 -0.173398,-0.162561 -0.173398,-0.4768453 0,-0.3142841 0.225779,-0.5021321 0.225779,-0.1896542 0.738748,-0.1896542 h 0.411821 v -0.032512 q 0,-0.2691284 -0.15353,-0.4425265 -0.151723,-0.1733981 -0.502132,-0.1733981 -0.173398,0 -0.354021,0.065024 -0.115599,0.041543 -0.299835,0.1679794 V 8.6100856 q 0.160755,-0.099343 0.299835,-0.140886 0.202298,-0.059606 0.388339,-0.059606 0.357634,0 0.588831,0.2167477 0.200492,0.1860417 0.200492,0.7008174 z"
         id="path12218" />
      <path
         d="m 13.489513,7.6708457 h 0.166173 V 10.48134 h -0.166173 z"
         id="path12220" />
      <path
         d="m 15.97308,8.8990825 q 0.09392,-0.2438411 0.296222,-0.3684711 0.19146,-0.1210174 0.45517,-0.1210174 0.26371,0 0.422658,0.1860417 0.160754,0.1842356 0.160754,0.6646929 V 10.48134 H 17.143517 V 9.271166 q 0,-0.4190455 -0.115598,-0.5671564 -0.115599,-0.1481109 -0.30706,-0.1481109 -0.278159,0 -0.491294,0.1715919 -0.233004,0.1860417 -0.233004,0.6105059 V 10.48134 H 15.830388 V 9.271166 q 0,-0.4045957 -0.111987,-0.5599315 -0.111986,-0.1553358 -0.310671,-0.1553358 -0.27816,0 -0.491295,0.1733981 -0.233004,0.1860417 -0.233004,0.6086997 V 10.48134 H 14.517258 V 8.4583622 h 0.166173 v 0.3793084 q 0.08851,-0.1986853 0.274547,-0.3142841 0.187848,-0.1137925 0.460589,-0.1137925 0.177011,0 0.341378,0.1192112 0.126436,0.092118 0.213135,0.3702773 z"
         id="path12222" />
      <path
         d="m 19.697527,9.3867647 v 0.1047614 h -1.535296 q 0,0.4876822 0.189654,0.6827549 0.209523,0.216748 0.62315,0.216748 0.108373,0 0.28719,-0.04696 0.180623,-0.04696 0.357634,-0.140886 v 0.175204 q -0.178817,0.07586 -0.366665,0.115599 -0.187848,0.03974 -0.298028,0.03974 -0.467814,0 -0.70443,-0.252872 -0.256485,-0.269129 -0.256485,-0.7893229 0,-0.5400629 0.23481,-0.8055788 0.240229,-0.2763533 0.668306,-0.2763533 0.39737,0 0.599668,0.2619034 0.200492,0.2745471 0.200492,0.7152673 z m -0.16798,-0.036125 q 0,-0.4262704 -0.19146,-0.6213433 -0.160755,-0.1733981 -0.437108,-0.1733981 -0.30164,0 -0.505744,0.180623 -0.187848,0.1679795 -0.225779,0.6141184 z"
         id="path12224" />
      <path
         d="m 21.494727,8.6010544 q -0.03974,-0.019869 -0.108374,-0.034318 -0.06141,-0.010837 -0.155336,-0.010837 -0.307059,0 -0.509357,0.227585 -0.158948,0.1842355 -0.158948,0.6321807 V 10.48134 H 20.400151 V 8.4583622 h 0.162561 v 0.3793084 q 0.08128,-0.1625607 0.227585,-0.274547 0.202298,-0.1535296 0.476845,-0.1535296 0.07044,0 0.122824,0.00542 0.05419,0 0.104761,0.012644 z"
         id="path12226" />
      <path
         d="m 23.089628,8.4583622 h 0.166174 V 10.48134 h -0.166174 z m 0,-0.7875165 h 0.166174 v 0.2275851 h -0.166174 z"
         id="path12228" />
      <path
         d="M 25.649057,9.2603286 V 10.48134 H 25.482884 V 9.271166 q 0,-0.3937583 -0.126436,-0.5545128 -0.126436,-0.1607545 -0.372084,-0.1607545 -0.28719,0 -0.491294,0.1733981 -0.205911,0.1752044 -0.205911,0.6086997 V 10.48134 H 24.120986 V 8.4583622 h 0.166173 v 0.3793084 q 0.08851,-0.1842355 0.233004,-0.2817719 0.213135,-0.1463047 0.471426,-0.1463047 0.299834,0 0.478651,0.2041041 0.178817,0.2022978 0.178817,0.6466305 z"
         id="path12230" />
      <path
         d="m 26.640677,7.8839809 v 0.5743813 h 0.684561 v 0.140886 h -0.684561 v 1.2155931 q 0,0.2311977 0.05961,0.3233157 0.122824,0.202297 0.357634,0.202297 h 0.267322 v 0.140886 h -0.258291 q -0.247454,0 -0.420852,-0.144498 -0.173398,-0.144498 -0.173398,-0.5220007 V 8.5992482 h -0.242035 v -0.140886 h 0.242035 V 7.8839809 Z"
         id="path12232" />
      <path
         d="m 29.492715,9.3867647 v 0.1047614 h -1.535296 q 0,0.4876822 0.189654,0.6827549 0.209523,0.216748 0.62315,0.216748 0.108373,0 0.28719,-0.04696 0.180623,-0.04696 0.357634,-0.140886 v 0.175204 q -0.178817,0.07586 -0.366665,0.115599 -0.187848,0.03974 -0.298028,0.03974 -0.467814,0 -0.70443,-0.252872 -0.256485,-0.269129 -0.256485,-0.7893229 0,-0.5400629 0.23481,-0.8055788 0.240229,-0.2763533 0.668306,-0.2763533 0.39737,0 0.599668,0.2619034 0.200492,0.2745471 0.200492,0.7152673 z m -0.16798,-0.036125 q 0,-0.4262704 -0.19146,-0.6213433 -0.160755,-0.1733981 -0.437108,-0.1733981 -0.30164,0 -0.505744,0.180623 -0.187848,0.1679795 -0.225779,0.6141184 z"
         id="path12234" />
      <path
         d="m 31.289914,8.6010544 q -0.03974,-0.019869 -0.108374,-0.034318 -0.06141,-0.010837 -0.155336,-0.010837 -0.307059,0 -0.509357,0.227585 -0.158948,0.1842355 -0.158948,0.6321807 V 10.48134 H 30.195338 V 8.4583622 h 0.162561 v 0.3793084 q 0.08128,-0.1625607 0.227585,-0.274547 0.202298,-0.1535296 0.476845,-0.1535296 0.07044,0 0.122824,0.00542 0.05419,0 0.104761,0.012644 z"
         id="path12236" />
      <path
         d="M 33.175619,9.2603286 V 10.48134 H 33.009446 V 9.271166 q 0,-0.3937583 -0.126437,-0.5545128 -0.126436,-0.1607545 -0.372083,-0.1607545 -0.287191,0 -0.491295,0.1733981 -0.20591,0.1752044 -0.20591,0.6086997 V 10.48134 H 31.647548 V 8.4583622 h 0.166173 v 0.3793084 q 0.0885,-0.1842355 0.233004,-0.2817719 0.213135,-0.1463047 0.471426,-0.1463047 0.299834,0 0.478651,0.2041041 0.178817,0.2022978 0.178817,0.6466305 z"
         id="path12238" />
      <path
         d="m 35.568875,9.3867647 v 0.1047614 h -1.535296 q 0,0.4876822 0.189654,0.6827549 0.209523,0.216748 0.62315,0.216748 0.108374,0 0.287191,-0.04696 0.180623,-0.04696 0.357633,-0.140886 v 0.175204 q -0.178817,0.07586 -0.366665,0.115599 -0.187848,0.03974 -0.298028,0.03974 -0.467813,0 -0.70443,-0.252872 Q 33.8656,10.01172 33.8656,9.4915261 q 0,-0.5400629 0.23481,-0.8055788 0.240228,-0.2763533 0.668305,-0.2763533 0.397371,0 0.599669,0.2619034 0.200491,0.2745471 0.200491,0.7152673 z m -0.167979,-0.036125 q 0,-0.4262704 -0.191461,-0.6213433 -0.160754,-0.1733981 -0.437108,-0.1733981 -0.30164,0 -0.505744,0.180623 -0.187848,0.1679795 -0.225779,0.6141184 z"
         id="path12240" />
      <path
         d="m 36.443091,7.8839809 v 0.5743813 h 0.684561 v 0.140886 h -0.684561 v 1.2155931 q 0,0.2311977 0.0596,0.3233157 0.122824,0.202297 0.357634,0.202297 h 0.267322 v 0.140886 h -0.258291 q -0.247454,0 -0.420852,-0.144498 -0.173398,-0.144498 -0.173398,-0.5220007 V 8.5992482 h -0.242035 v -0.140886 h 0.242035 V 7.8839809 Z"
         id="path12242" />
    </g>
  </g>
  <g
     inkscape:groupmode="layer"
     id="layer4"
     inkscape:label="globe">
    <path
       inkscape:original-d="M 0,2.1166667"
       inkscape:path-effect="#path-effect62719"
       d="m 6.4663753,4.9324177 c -0.019053,0.00178 -0.090345,0.00801 -0.1584479,0.013831 -1.3920421,0.118925 -2.7345209,0.9891778 -3.4542818,2.2392247 -0.065089,0.1130044 -0.2038903,0.3865669 -0.2252348,0.4439059 -0.00711,0.01908 -0.027036,0.068127 -0.044286,0.1089615 -0.8124239,1.9247241 -0.1122314,4.2392092 1.6456004,5.4393612 1.2306596,0.84023 2.9560493,1.020073 4.2518746,0.443183 0.010892,-0.0048 0.057678,-0.02536 0.1039682,-0.0456 0.7207126,-0.314887 1.364854,-0.837192 1.843337,-1.494722 0.101316,-0.139215 0.101291,-0.139112 0.07691,-0.219494 -0.02354,-0.07758 -0.03208,-0.08636 -0.09969,-0.102577 -0.0492,-0.01182 -0.12719,0.0073 -0.12719,0.03115 0,0.02232 -0.303197,0.0975 -0.514943,0.127654 C 8.0112532,12.167023 6.2387458,11.078127 5.683175,9.4103579 5.1789446,7.8967374 5.6975691,6.3037905 7.0407431,5.2406155 7.2042371,5.1112116 7.2133772,4.9781755 7.0616724,4.9360274 7.0293587,4.9270653 6.5539655,4.9241591 6.4663742,4.9324213 Z"
       id="path62721"
       style="fill:#ffffff;fill-opacity:1" />
    <path
       id="path2"
       d="m 6.4663753,4.9324177 c -0.019053,0.00178 -0.090345,0.00801 -0.1584479,0.013831 -1.3920421,0.118925 -2.7345209,0.9891778 -3.4542818,2.2392247 -0.065089,0.1130044 -0.2038903,0.3865669 -0.2252348,0.4439059 -0.00711,0.01908 -0.027036,0.068127 -0.044286,0.1089615 -0.8124239,1.9247241 -0.1122314,4.2392092 1.6456004,5.4393612 1.2306596,0.84023 2.9560493,1.020073 4.2518746,0.443183 0.010892,-0.0048 0.057678,-0.02536 0.1039682,-0.0456 0.7207126,-0.314887 1.364854,-0.837192 1.843337,-1.494722 0.101316,-0.139215 0.101291,-0.139112 0.07691,-0.219494 -0.02354,-0.07758 -0.03208,-0.08636 -0.09969,-0.102577 -0.0492,-0.01182 -0.12719,0.0073 -0.12719,0.03115 0,0.02232 -0.303197,0.0975 -0.514943,0.127654 C 8.0112532,12.167023 6.2387458,11.078127 5.683175,9.4103579 5.1789446,7.8967374 5.6975691,6.3037905 7.0407431,5.2406155 7.2042371,5.1112116 7.2133772,4.9781755 7.0616724,4.9360274 7.0293587,4.9270653 6.5539655,4.9241591 6.4663742,4.9324213 M 5.7516114,5.7152384 C 5.3542041,6.1655035 5.0755433,6.592828 4.826698,7.133491 4.7417591,7.3180204 4.7532409,7.3071296 4.6789347,7.2734273 4.6680402,7.2685126 4.5929916,7.234936 4.5121201,7.198864 4.3730861,7.1368142 4.3144851,7.107539 4.139251,7.012635 4.0410241,6.9594666 3.8404807,6.8389453 3.8247236,6.8236514 3.7991825,6.7988574 4.1249865,6.482837 4.3631466,6.301423 4.7226017,6.0276027 5.1000808,5.8278051 5.5305713,5.6835443 5.6468715,5.6445623 5.845073,5.5899533 5.8510968,5.5952323 c 0.00201,0.00172 -0.042766,0.055743 -0.099485,0.1200067 m -0.09166,0.7808322 C 5.522692,6.7772291 5.4189327,7.0748655 5.3469181,7.3942326 c -0.012006,0.053115 -0.026159,0.096552 -0.031489,0.096552 -0.014653,0 -0.1799198,-0.051443 -0.188082,-0.058549 -0.029584,-0.025695 0.313265,-0.664069 0.5030465,-0.9366794 0.083731,-0.1202653 0.088493,-0.1201878 0.029558,5.169e-4 m -1.981909,0.6964488 c 0.2331656,0.1449302 0.5169754,0.2942634 0.7533345,0.3963763 0.065345,0.028245 0.1332155,0.0577 0.1508003,0.065475 0.018254,0.00808 0.029996,0.019541 0.027369,0.026777 C 4.4756611,8.0493589 4.3280017,8.8425755 4.3274614,9.196521 l -8.4e-5,0.047039 H 3.5733253 2.819269 L 2.826119,9.1373784 C 2.861698,8.5869575 3.0493943,7.9761334 3.3368092,7.4752234 3.3998892,7.3653093 3.555866,7.1243677 3.5639497,7.1243677 c 0.00245,0 0.053786,0.030664 0.1140862,0.068153 m 1.4486086,0.649805 c 0.062873,0.019053 0.1203931,0.034656 0.1278596,0.034656 0.011259,0 0.012508,0.039755 0.00739,0.2351998 -0.0093,0.3549496 0.020545,0.682633 0.090088,0.9896671 0.013801,0.06097 0.025105,0.1177669 0.025105,0.1262633 0,0.013695 -0.037953,0.015448 -0.3329101,0.015448 H 4.71125 l 0.00659,-0.08664 C 4.752033,8.70632 4.804428,8.4030964 4.9170446,8.0041192 c 0.04735,-0.1677166 0.063751,-0.2085512 0.081131,-0.2018826 0.00781,0.00299 0.065603,0.021034 0.1284774,0.040088 M 4.3250664,9.699076 c 0.017792,0.438679 0.117767,1.015414 0.2450861,1.414057 0.03499,0.109553 0.038415,0.102808 -0.07688,0.150465 -0.2370027,0.09794 -0.5657932,0.268594 -0.8096954,0.420271 l -0.1188734,0.07392 -0.053914,-0.07621 C 3.3992084,11.523853 3.2199819,11.204383 3.1539925,11.045601 3.0767519,10.859732 3.0549427,10.803012 3.0189747,10.694307 2.9037563,10.346361 2.786684,9.7051295 2.8265671,9.6406072 c 0.00487,-0.00792 0.21491,-0.01024 0.7513261,-0.00841 l 0.7445534,0.00252 0.00263,0.064367 m 1.1776739,-0.061536 c 0.00647,0.00412 0.025825,0.043048 0.043024,0.086509 0.1375413,0.3478178 0.3532757,0.7058828 0.6399443,1.0620678 0.034424,0.04279 0.041324,0.04001 -0.1665329,0.06666 -0.2512137,0.03221 -0.5155072,0.08239 -0.7083278,0.134477 -0.098869,0.02673 -0.300443,0.08522 -0.321839,0.09344 -0.024665,0.0095 -0.041402,-0.03638 -0.1120002,-0.307163 C 4.7857929,10.42373 4.6865644,9.7244137 4.716946,9.6452672 c 0.00643,-0.016787 0.7598987,-0.024176 0.7858003,-0.00773 m 1.0701531,2.6505608 c 0.00137,0.598833 -0.00108,1.092403 -0.00554,1.096807 -0.09565,0.09568 -0.7858521,-0.671303 -1.1242198,-1.249301 -0.1259551,-0.215143 -0.3334249,-0.635799 -0.3334249,-0.676042 0,-0.0079 0.023457,-0.0199 0.056952,-0.02917 0.031308,-0.0087 0.1081642,-0.03005 0.1708057,-0.04748 0.3561607,-0.09905 0.9388168,-0.190452 1.1784192,-0.184839 l 0.054482,0.0013 0.00252,1.088742 m 0.4563897,-0.751261 c 0.2683631,0.180719 0.6446818,0.36337 0.9472619,0.459766 0.1833188,0.05842 0.1724537,0.03836 0.092638,0.171064 -0.3065961,0.509561 -0.9042629,1.197319 -1.0606252,1.220413 l -0.04704,0.0069 v -0.946778 c 0,-0.520761 0.00338,-0.94685 0.00758,-0.94685 0.00414,0 0.031259,0.01596 0.060195,0.03548 M 4.7868153,11.70197 c 0.2174074,0.4997 0.5141166,0.977747 0.8606995,1.386689 0.05551,0.0655 0.1134927,0.133987 0.1288637,0.152191 0.015397,0.01823 0.025334,0.03311 0.022116,0.03311 -0.045134,0 -0.4433913,-0.132753 -0.5665132,-0.188831 -0.02307,-0.01051 -0.044698,-0.0191 -0.048018,-0.0191 -0.014881,0 -0.3276054,-0.161872 -0.427866,-0.221451 C 4.4278234,12.649439 4.1093308,12.392662 3.8717109,12.13151 l -0.061895,-0.068 0.07312,-0.0465 c 0.2261904,-0.143875 0.7767395,-0.422691 0.8405674,-0.425703 0.00971,-4.61e-4 0.031669,0.03795 0.063313,0.110661 m 4.0341829,0.472073 c 0.2195201,0.0225 0.5254979,0.02714 0.6846158,0.01038 0.1221201,-0.01287 0.1221956,-0.01444 -0.00462,0.107804 -0.4304923,0.415095 -0.954677,0.727975 -1.5343468,0.915825 -0.1000284,0.03242 -0.220782,0.06591 -0.2375681,0.06591 -0.00378,0 0.029323,-0.04037 0.073637,-0.08973 0.2172529,-0.242023 0.4598946,-0.577688 0.6295155,-0.870819 0.042557,-0.07353 0.083088,-0.14318 0.090037,-0.154792 0.011203,-0.01864 0.017689,-0.02016 0.055564,-0.0131 0.023615,0.0044 0.133009,0.01725 0.2431564,0.02853"
       stroke="none"
       fill="#040404"
       fill-rule="evenodd"
       style="stroke:#000000;stroke-width:0.025747;stroke-opacity:1;filter:url(#filter65122)" />
  </g>
  <g
     inkscape:label="C"
     inkscape:groupmode="layer"
     id="layer1" />
</svg>
