<?xml version="1.0" encoding="UTF-8" standalone="no"?>
<!-- Created with Inkscape (http://www.inkscape.org/) -->

<svg
   width="144"
   height="56"
   viewBox="0 0 38.1 14.816664"
   version="1.1"
   id="svg5"
   inkscape:version="1.1.1 (c3084ef, 2021-09-22)"
   sodipodi:docname="banner.svg"
   inkscape:export-filename="C:\Users\lukeb\Documents\Projects\calmer-internet\icons\banner_1920x640.png"
   inkscape:export-xdpi="1280"
   inkscape:export-ydpi="1280"
   xmlns:inkscape="http://www.inkscape.org/namespaces/inkscape"
   xmlns:sodipodi="http://sodipodi.sourceforge.net/DTD/sodipodi-0.dtd"
   xmlns:xlink="http://www.w3.org/1999/xlink"
   xmlns="http://www.w3.org/2000/svg"
   xmlns:svg="http://www.w3.org/2000/svg">
  <sodipodi:namedview
     id="namedview7"
     pagecolor="#ffffff"
     bordercolor="#666666"
     borderopacity="1.0"
     inkscape:pageshadow="2"
     inkscape:pageopacity="0.0"
     inkscape:pagecheckerboard="0"
     inkscape:document-units="mm"
     showgrid="false"
     units="px"
     inkscape:zoom="5.12"
     inkscape:cx="54.980469"
     inkscape:cy="42.773438"
     inkscape:window-width="1512"
     inkscape:window-height="916"
     inkscape:window-x="0"
     inkscape:window-y="38"
     inkscape:window-maximized="1"
     inkscape:current-layer="layer2"
     width="96px"
     height="49px" />
  <defs
     id="defs2">
    <linearGradient
       inkscape:collect="always"
       id="linearGradient36023">
      <stop
         style="stop-color:#81d4fa;stop-opacity:1;"
         offset="0"
         id="stop36027" />
      <stop
         style="stop-color:#4faff7;stop-opacity:1"
         offset="1"
         id="stop36029" />
    </linearGradient>
    <linearGradient
       inkscape:collect="always"
       xlink:href="#linearGradient36023"
       id="linearGradient36025"
       x1="1.3523833"
       y1="11.374353"
       x2="9.8677168"
       y2="2.2939761"
       gradientUnits="userSpaceOnUse"
       gradientTransform="matrix(3.1139935,0,0,1.2274337,-0.70850081,-0.38494567)" />
    <inkscape:path-effect
       effect="fill_between_many"
       method="originald"
       linkedpaths="#path2,0,1"
       id="path-effect62719"
       is_visible="true"
       lpeversion="0"
       join="true"
       close="true"
       autoreverse="true"
       applied="false" />
    <filter
       style="color-interpolation-filters:sRGB"
       inkscape:label="Drop Shadow"
       id="filter65122"
       x="-0.030575059"
       y="-0.028009173"
       width="1.0732298"
       height="1.0671124">
      <feFlood
         flood-opacity="0.498039"
         flood-color="rgb(0,0,0)"
         result="flood"
         id="feFlood65112" />
      <feComposite
         in="flood"
         in2="SourceGraphic"
         operator="in"
         result="composite1"
         id="feComposite65114" />
      <feGaussianBlur
         in="composite1"
         stdDeviation="0.1"
         result="blur"
         id="feGaussianBlur65116" />
      <feOffset
         dx="0.1"
         dy="0.1"
         result="offset"
         id="feOffset65118" />
      <feComposite
         in="SourceGraphic"
         in2="offset"
         operator="over"
         result="composite2"
         id="feComposite65120" />
    </filter>
  </defs>
  <g
     inkscape:groupmode="layer"
     id="layer2"
     inkscape:label="bg">
    <rect
       style="fill:url(#linearGradient36025);fill-opacity:1;stroke:none;stroke-width:0.572828;stroke-linecap:butt;stroke-miterlimit:4;stroke-dasharray:none;stroke-opacity:1;paint-order:normal"
       id="rect19395"
       width="38.635529"
       height="15.228674"
       x="-0.25218099"
       y="-0.20507953" />
    <text
       xml:space="preserve"
       style="font-size:3.70417px;line-height:1.25;font-family:'EB Garamond';-inkscape-font-specification:'EB Garamond';stroke-width:0.264583"
       x="16.042852"
       y="2.6660137"
       id="text68334"><tspan
         sodipodi:role="line"
         id="tspan68332"
         style="font-size:3.70417px;stroke-width:0.264583"
         x="16.042852"
         y="2.6660137" /></text>
    <g
       aria-label="calmer internet"
       id="text94950"
       style="font-weight:300;font-size:3.72512px;line-height:1.25;font-family:'Source Sans Pro';-inkscape-font-specification:'Source Sans Pro Light';fill:#ffffff;stroke:#000000;stroke-width:0"
       transform="matrix(0.98207526,0,0,0.98207526,-0.36743709,1.1389203)">
      <path
         d="m 10.585144,5.3871143 v 0.1782528 q -0.150969,-0.092764 -0.24919,-0.1255045 -0.169158,-0.052748 -0.323765,-0.052748 -0.4401756,0 -0.6311607,0.2255444 -0.1909852,0.2255444 -0.1909852,0.6966411 0,0.4747345 0.1909852,0.7002789 0.1909851,0.2255444 0.6311607,0.2255444 0.145512,0 0.287387,-0.040016 0.143694,-0.038197 0.285568,-0.11641 v 0.1691583 q -0.140056,0.065481 -0.289206,0.098221 -0.150969,0.03274 -0.2983005,0.03274 -0.4474509,0 -0.7111923,-0.2419146 -0.2637415,-0.2437334 -0.2637415,-0.8276023 0,-0.5838689 0.2637415,-0.8276024 0.2637414,-0.2419145 0.7111923,-0.2419145 0.1455125,0 0.3092145,0.041835 0.163701,0.040016 0.278292,0.1054964 z"
         id="path11761" />
      <path
         d="m 12.053002,6.1765196 q -0.403798,0 -0.58205,0.1436936 -0.178253,0.1436936 -0.178253,0.4201674 0,0.2691981 0.147331,0.3819703 0.147332,0.1127722 0.34923,0.1127722 0.381971,0 0.54931,-0.3237653 0.169158,-0.3237653 0.169158,-0.6093336 V 6.1765196 Z m 0.623885,-0.012732 V 7.3260684 H 12.511366 V 6.7731209 q -0.140056,0.4056161 -0.371057,0.5165694 -0.183709,0.089126 -0.3656,0.089126 -0.303757,0 -0.478372,-0.1618827 -0.174615,-0.1637015 -0.174615,-0.4801912 0,-0.3164897 0.227363,-0.505656 0.227363,-0.1909851 0.743933,-0.1909851 h 0.41471 v -0.03274 q 0,-0.271017 -0.154607,-0.445632 -0.152788,-0.174615 -0.505656,-0.174615 -0.174615,0 -0.356505,0.065481 -0.11641,0.041835 -0.301939,0.1691583 V 5.4416815 q 0.161883,-0.1000399 0.301939,-0.1418747 0.203717,-0.060024 0.391065,-0.060024 0.360143,0 0.592963,0.2182687 0.201899,0.1873474 0.201899,0.7057361 z"
         id="path11763" />
      <path
         d="m 13.520859,4.4958502 h 0.16734 v 2.8302182 h -0.16734 z"
         id="path11765" />
      <path
         d="m 16.021855,5.7327065 q 0.09458,-0.2455524 0.298301,-0.3710569 0.192804,-0.1218667 0.458364,-0.1218667 0.265561,0 0.425624,0.1873473 0.161883,0.1855285 0.161883,0.6693576 v 1.2295806 h -0.16552 V 6.1074012 q 0,-0.4219863 -0.11641,-0.5711366 -0.11641,-0.1491503 -0.309215,-0.1491503 -0.280111,0 -0.494742,0.1727961 -0.234639,0.1873473 -0.234639,0.6147903 V 7.3260684 H 15.878162 V 6.1074012 q 0,-0.407435 -0.112773,-0.563861 -0.112772,-0.1564259 -0.312851,-0.1564259 -0.280112,0 -0.494743,0.174615 -0.234639,0.1873474 -0.234639,0.6129714 v 1.1513677 h -0.167339 v -2.037175 h 0.167339 v 0.3819703 q 0.08913,-0.2000797 0.276474,-0.3164897 0.189166,-0.1145911 0.463821,-0.1145911 0.178253,0 0.343773,0.1200478 0.127324,0.092764 0.214631,0.3728758 z"
         id="path11767" />
      <path
         d="m 19.77244,6.2238112 v 0.1054966 h -1.54607 q 0,0.4911047 0.190985,0.6875465 0.210993,0.2182688 0.627522,0.2182688 0.109135,0 0.289206,-0.047292 0.181891,-0.047292 0.360144,-0.1418747 v 0.1764339 q -0.180072,0.076394 -0.369238,0.11641 -0.189166,0.040016 -0.30012,0.040016 -0.471096,0 -0.709373,-0.2546469 -0.258285,-0.271017 -0.258285,-0.794862 0,-0.543853 0.236458,-0.8112322 0.241915,-0.2782927 0.672995,-0.2782927 0.40016,0 0.603877,0.2637414 0.201899,0.2764738 0.201899,0.7202873 z m -0.169158,-0.036378 q 0,-0.4292619 -0.192804,-0.6257038 -0.161883,-0.174615 -0.440176,-0.174615 -0.303757,0 -0.509294,0.1818906 -0.189166,0.1691583 -0.227363,0.6184282 z"
         id="path11769" />
      <path
         d="m 21.582252,5.432587 q -0.04002,-0.020008 -0.109134,-0.034559 -0.06184,-0.010913 -0.156426,-0.010913 -0.309214,0 -0.512932,0.2291822 -0.160063,0.1855284 -0.160063,0.6366172 v 1.0731547 h -0.163702 v -2.037175 h 0.163702 v 0.3819703 q 0.08185,-0.1637016 0.229182,-0.2764738 0.203717,-0.154607 0.480191,-0.154607 0.07094,0 0.123686,0.00546 0.05457,0 0.105496,0.012732 z"
         id="path11771" />
      <path
         d="m 23.188346,5.2888934 h 0.167339 v 2.037175 h -0.167339 z m 0,-0.7930432 h 0.167339 v 0.2291822 h -0.167339 z"
         id="path11773" />
      <path
         d="M 25.765736,6.0964878 V 7.3260684 H 25.598397 V 6.1074012 q 0,-0.3965216 -0.127323,-0.5584042 -0.127324,-0.1618827 -0.374695,-0.1618827 -0.289206,0 -0.494743,0.174615 -0.207355,0.1764339 -0.207355,0.6129714 v 1.1513677 h -0.167339 v -2.037175 h 0.167339 v 0.3819703 q 0.08913,-0.1855285 0.234639,-0.2837494 0.214631,-0.1473314 0.474735,-0.1473314 0.301938,0 0.48201,0.2055364 0.180071,0.2037175 0.180071,0.6511685 z"
         id="path11775" />
      <path
         d="m 26.764316,4.7104812 v 0.5784122 h 0.689365 V 5.4307681 H 26.764316 V 6.654892 q 0,0.23282 0.06002,0.3255842 0.123685,0.2037175 0.360143,0.2037175 h 0.269198 v 0.1418747 h -0.260103 q -0.249191,0 -0.423806,-0.1455125 Q 26.595157,7.0350434 26.595157,6.654892 V 5.4307681 H 26.351424 V 5.2888934 h 0.243733 V 4.7104812 Z"
         id="path11777" />
      <path
         d="m 29.63637,6.2238112 v 0.1054966 h -1.546071 q 0,0.4911047 0.190985,0.6875465 0.210994,0.2182688 0.627523,0.2182688 0.109135,0 0.289206,-0.047292 0.181891,-0.047292 0.360144,-0.1418747 v 0.1764339 q -0.180072,0.076394 -0.369238,0.11641 -0.189167,0.040016 -0.30012,0.040016 -0.471097,0 -0.709373,-0.2546469 -0.258285,-0.271017 -0.258285,-0.794862 0,-0.543853 0.236458,-0.8112322 0.241914,-0.2782927 0.672995,-0.2782927 0.40016,0 0.603877,0.2637414 0.201899,0.2764738 0.201899,0.7202873 z m -0.169159,-0.036378 q 0,-0.4292619 -0.192804,-0.6257038 -0.161882,-0.174615 -0.440175,-0.174615 -0.303757,0 -0.509294,0.1818906 -0.189166,0.1691583 -0.227363,0.6184282 z"
         id="path11779" />
      <path
         d="M 31.44618,5.432587 Q 31.40616,5.412579 31.337046,5.398028 31.275206,5.387115 31.18062,5.387115 q -0.309214,0 -0.512932,0.2291822 -0.160064,0.1855284 -0.160064,0.6366172 v 1.0731547 h -0.163701 v -2.037175 h 0.163701 v 0.3819703 q 0.08185,-0.1637016 0.229183,-0.2764738 0.203717,-0.154607 0.480191,-0.154607 0.07094,0 0.123685,0.00546 0.05457,0 0.105497,0.012732 z"
         id="path11781" />
      <path
         d="M 33.345119,6.0964878 V 7.3260684 H 33.17778 V 6.1074012 q 0,-0.3965216 -0.127323,-0.5584042 -0.127324,-0.1618827 -0.374695,-0.1618827 -0.289206,0 -0.494743,0.174615 -0.207355,0.1764339 -0.207355,0.6129714 v 1.1513677 h -0.167339 v -2.037175 h 0.167339 v 0.3819703 q 0.08913,-0.1855285 0.234639,-0.2837494 0.214631,-0.1473314 0.474734,-0.1473314 0.301939,0 0.482011,0.2055364 0.180071,0.2037175 0.180071,0.6511685 z"
         id="path11783" />
      <path
         d="M 35.755171,6.2238112 V 6.3293078 H 34.2091 q 0,0.4911047 0.190986,0.6875465 0.210993,0.2182688 0.627522,0.2182688 0.109135,0 0.289206,-0.047292 0.181891,-0.047292 0.360144,-0.1418747 v 0.1764339 q -0.180072,0.076394 -0.369238,0.11641 -0.189166,0.040016 -0.30012,0.040016 -0.471096,0 -0.709373,-0.2546469 -0.258285,-0.271017 -0.258285,-0.794862 0,-0.543853 0.236458,-0.8112322 0.241914,-0.2782927 0.672995,-0.2782927 0.40016,0 0.603877,0.2637414 0.201899,0.2764738 0.201899,0.7202873 z m -0.169159,-0.036378 q 0,-0.4292619 -0.192804,-0.6257038 -0.161882,-0.174615 -0.440175,-0.174615 -0.303757,0 -0.509294,0.1818906 -0.189166,0.1691583 -0.227363,0.6184282 z"
         id="path11785" />
      <path
         d="m 36.63552,4.7104812 v 0.5784122 h 0.689365 V 5.4307681 H 36.63552 V 6.654892 q 0,0.23282 0.06002,0.3255842 0.123686,0.2037175 0.360143,0.2037175 h 0.269198 v 0.1418747 h -0.260103 q -0.24919,0 -0.423805,-0.1455125 Q 36.466362,7.0350434 36.466362,6.654892 V 5.4307681 H 36.222628 V 5.2888934 h 0.243734 V 4.7104812 Z"
         id="path11787" />
    </g>
  </g>
  <g
     inkscape:groupmode="layer"
     id="layer4"
     inkscape:label="globe">
    <path
       inkscape:original-d="M 0,1.0583333"
       inkscape:path-effect="#path-effect62719"
       d="m 6.4663753,2.8157509 c -0.019053,0.00178 -0.090345,0.00801 -0.1584479,0.013831 C 4.9158853,2.9485069 3.5734065,3.8187597 2.8536456,5.0688066 2.7885566,5.181811 2.6497553,5.4553735 2.6284108,5.5127125 c -0.00711,0.01908 -0.027036,0.068127 -0.044286,0.1089615 -0.8124239,1.9247241 -0.1122314,4.2392081 1.6456004,5.43936 1.2306596,0.84023 2.9560493,1.020073 4.2518746,0.443183 0.010892,-0.0048 0.057678,-0.02536 0.1039682,-0.0456 0.7207126,-0.314887 1.364854,-0.837192 1.843337,-1.494722 0.101316,-0.139215 0.101291,-0.1391116 0.07691,-0.2194941 -0.02354,-0.077576 -0.03208,-0.086356 -0.09969,-0.102577 -0.0492,-0.011823 -0.12719,0.00729 -0.12719,0.031154 0,0.022323 -0.303197,0.097504 -0.514943,0.1276541 C 8.0112532,10.050355 6.2387458,8.9614592 5.683175,7.2936911 5.1789446,5.7800706 5.6975691,4.1871237 7.0407431,3.1239487 7.2042371,2.9945448 7.2133772,2.8615087 7.0616724,2.8193606 7.0293587,2.8103985 6.5539655,2.8074923 6.4663742,2.8157545 Z"
       id="path62721"
       style="fill:#ffffff;fill-opacity:1" />
    <path
       id="path2"
       d="m 6.4663753,2.8157509 c -0.019053,0.00178 -0.090345,0.00801 -0.1584479,0.013831 C 4.9158853,2.9485069 3.5734065,3.8187597 2.8536456,5.0688066 2.7885566,5.181811 2.6497553,5.4553735 2.6284108,5.5127125 c -0.00711,0.01908 -0.027036,0.068127 -0.044286,0.1089615 -0.8124239,1.9247241 -0.1122314,4.2392081 1.6456004,5.43936 1.2306596,0.84023 2.9560493,1.020073 4.2518746,0.443183 0.010892,-0.0048 0.057678,-0.02536 0.1039682,-0.0456 0.7207126,-0.314887 1.364854,-0.837192 1.843337,-1.494722 0.101316,-0.139215 0.101291,-0.1391116 0.07691,-0.2194941 -0.02354,-0.077576 -0.03208,-0.086356 -0.09969,-0.102577 -0.0492,-0.011823 -0.12719,0.00729 -0.12719,0.031154 0,0.022323 -0.303197,0.097504 -0.514943,0.1276541 C 8.0112532,10.050355 6.2387458,8.9614592 5.683175,7.2936911 5.1789446,5.7800706 5.6975691,4.1871237 7.0407431,3.1239487 7.2042371,2.9945448 7.2133772,2.8615087 7.0616724,2.8193606 7.0293587,2.8103985 6.5539655,2.8074923 6.4663742,2.8157545 M 5.7516114,3.5985716 C 5.3542041,4.0488367 5.0755433,4.4761612 4.826698,5.0168242 4.7417591,5.2013536 4.7532409,5.1904628 4.6789347,5.1567605 4.6680402,5.1518458 4.5929916,5.1182692 4.5121201,5.0821972 4.3730861,5.0201474 4.3144851,4.9908722 4.139251,4.8959682 4.0410241,4.8427998 3.8404807,4.7222785 3.8247236,4.7069846 3.7991825,4.6821906 4.1249865,4.3661702 4.3631466,4.1847562 4.7226017,3.9109359 5.1000808,3.7111383 5.5305713,3.5668775 5.6468715,3.5278955 5.845073,3.4732865 5.8510968,3.4785655 c 0.00201,0.00172 -0.042766,0.055743 -0.099485,0.1200067 m -0.09166,0.7808322 C 5.522692,4.6605623 5.4189327,4.9581987 5.3469181,5.2775658 c -0.012006,0.053115 -0.026159,0.096552 -0.031489,0.096552 -0.014653,0 -0.1799198,-0.051443 -0.188082,-0.058549 -0.029584,-0.025695 0.313265,-0.664069 0.5030465,-0.9366794 0.083731,-0.1202653 0.088493,-0.1201878 0.029558,5.169e-4 m -1.981909,0.6964488 c 0.2331656,0.1449302 0.5169754,0.2942634 0.7533345,0.3963763 0.065345,0.028245 0.1332155,0.0577 0.1508003,0.065475 0.018254,0.00808 0.029996,0.019541 0.027369,0.026777 -0.1338853,0.3682087 -0.2815447,1.1614253 -0.282085,1.5153708 l -8.4e-5,0.047039 H 3.5733253 2.819269 L 2.826119,7.0207116 C 2.861698,6.4702907 3.0493943,5.8594666 3.3368092,5.3585566 3.3998892,5.2486425 3.555866,5.0077009 3.5639497,5.0077009 c 0.00245,0 0.053786,0.030664 0.1140862,0.068153 m 1.4486086,0.649805 c 0.062873,0.019053 0.1203931,0.034656 0.1278596,0.034656 0.011259,0 0.012508,0.039755 0.00739,0.2351998 -0.0093,0.3549496 0.020545,0.682633 0.090088,0.9896671 0.013801,0.06097 0.025105,0.1177669 0.025105,0.1262633 0,0.013695 -0.037953,0.015448 -0.3329101,0.015448 H 4.71125 l 0.00659,-0.08664 C 4.752033,6.5896532 4.804428,6.2864296 4.9170446,5.8874524 c 0.04735,-0.1677166 0.063751,-0.2085512 0.081131,-0.2018826 0.00781,0.00299 0.065603,0.021034 0.1284774,0.040088 M 4.3250664,7.5824092 c 0.017792,0.4386788 0.117767,1.0154138 0.2450861,1.4140562 0.03499,0.1095534 0.038415,0.1028082 -0.07688,0.1504656 C 4.2562698,9.244873 3.9274793,9.4155245 3.6835771,9.567201 L 3.5647037,9.641121 3.5107897,9.56491 C 3.3992084,9.4071859 3.2199819,9.087716 3.1539925,8.9289337 3.0767519,8.7430652 3.0549427,8.6863446 3.0189747,8.5776403 2.9037563,8.229694 2.786684,7.5884627 2.8265671,7.5239404 c 0.00487,-0.00792 0.21491,-0.01024 0.7513261,-0.00841 l 0.7445534,0.00252 0.00263,0.064367 m 1.1776739,-0.061536 c 0.00647,0.00412 0.025825,0.043048 0.043024,0.086509 0.1375413,0.3478175 0.3532757,0.7058825 0.6399443,1.0620679 0.034424,0.042793 0.041324,0.040011 -0.1665329,0.066659 -0.2512137,0.032209 -0.5155072,0.08239 -0.7083278,0.1344769 -0.098869,0.026725 -0.300443,0.085222 -0.321839,0.093435 C 4.9643539,8.9735092 4.9476173,8.9276483 4.8770189,8.6568667 4.7857929,8.3070636 4.6865644,7.6077469 4.716946,7.5286004 4.723376,7.5118134 5.4768447,7.5044244 5.5027463,7.5208704 M 6.5728994,10.17143 c 0.00137,0.598833 -0.00108,1.092403 -0.00554,1.096807 -0.09565,0.09568 -0.7858521,-0.671303 -1.1242198,-1.249301 C 5.3171845,9.803793 5.1097147,9.3831372 5.1097147,9.3428945 c 0,-0.00788 0.023457,-0.019902 0.056952,-0.029171 0.031308,-0.00871 0.1081642,-0.030047 0.1708057,-0.047478 0.3561607,-0.099049 0.9388168,-0.1904517 1.1784192,-0.1848388 l 0.054482,0.00129 0.00252,1.0887413 M 7.0292833,9.4201868 c 0.2683631,0.1807189 0.6446818,0.3633691 0.9472619,0.459766 0.1833188,0.05842 0.1724537,0.038363 0.092638,0.1710632 -0.3065961,0.509561 -0.9042629,1.197319 -1.0606252,1.220413 l -0.04704,0.0069 v -0.946778 c 0,-0.5207608 0.00338,-0.9468497 0.00758,-0.9468497 0.00414,0 0.031259,0.015963 0.060195,0.03548 M 4.7868153,9.5853025 c 0.2174074,0.4996995 0.5141166,0.9777465 0.8606995,1.3866885 0.05551,0.0655 0.1134927,0.133987 0.1288637,0.152191 0.015397,0.01823 0.025334,0.03311 0.022116,0.03311 -0.045134,0 -0.4433913,-0.132753 -0.5665132,-0.188831 -0.02307,-0.01051 -0.044698,-0.0191 -0.048018,-0.0191 -0.014881,0 -0.3276054,-0.161872 -0.427866,-0.221451 C 4.4278234,10.532771 4.1093308,10.275994 3.8717109,10.014842 l -0.061895,-0.067997 0.07312,-0.0465 c 0.2261904,-0.143875 0.7767395,-0.4226902 0.8405674,-0.425703 0.00971,-4.603e-4 0.031669,0.037951 0.063313,0.1106612 m 4.0341829,0.4720731 c 0.2195201,0.0225 0.5254979,0.02714 0.6846158,0.01038 0.1221201,-0.01287 0.1221956,-0.01444 -0.00462,0.107804 -0.4304923,0.415095 -0.954677,0.727975 -1.5343468,0.915825 -0.1000284,0.03242 -0.220782,0.06591 -0.2375681,0.06591 -0.00378,0 0.029323,-0.04037 0.073637,-0.08973 0.2172529,-0.242023 0.4598946,-0.577688 0.6295155,-0.870819 0.042557,-0.07353 0.083088,-0.14318 0.090037,-0.154792 0.011203,-0.01864 0.017689,-0.02016 0.055564,-0.0131 0.023615,0.0044 0.133009,0.01725 0.2431564,0.02853"
       stroke="none"
       fill="#040404"
       fill-rule="evenodd"
       style="stroke:#000000;stroke-width:0.025747;stroke-opacity:1;filter:url(#filter65122)" />
  </g>
  <g
     inkscape:label="C"
     inkscape:groupmode="layer"
     id="layer1" />
</svg>
