<?xml version="1.0" encoding="UTF-8" standalone="no"?>
<!-- Created with Inkscape (http://www.inkscape.org/) -->

<svg
   width="48"
   height="48"
   viewBox="0 0 12.7 12.7"
   version="1.1"
   id="svg5"
   inkscape:version="1.1 (c68e22c387, 2021-05-23)"
   sodipodi:docname="vector.svg"
   inkscape:export-filename="C:\Users\lukeb\Documents\Projects\calmer-internet\icons\96.png"
   inkscape:export-xdpi="192"
   inkscape:export-ydpi="192"
   xmlns:inkscape="http://www.inkscape.org/namespaces/inkscape"
   xmlns:sodipodi="http://sodipodi.sourceforge.net/DTD/sodipodi-0.dtd"
   xmlns:xlink="http://www.w3.org/1999/xlink"
   xmlns="http://www.w3.org/2000/svg"
   xmlns:svg="http://www.w3.org/2000/svg">
  <sodipodi:namedview
     id="namedview7"
     pagecolor="#ffffff"
     bordercolor="#666666"
     borderopacity="1.0"
     inkscape:pageshadow="2"
     inkscape:pageopacity="0.0"
     inkscape:pagecheckerboard="0"
     inkscape:document-units="mm"
     showgrid="false"
     units="px"
     inkscape:zoom="8"
     inkscape:cx="40.5"
     inkscape:cy="32.3125"
     inkscape:window-width="1920"
     inkscape:window-height="1017"
     inkscape:window-x="-8"
     inkscape:window-y="-8"
     inkscape:window-maximized="1"
     inkscape:current-layer="layer4" />
  <defs
     id="defs2">
    <linearGradient
       inkscape:collect="always"
       id="linearGradient36023">
      <stop
         style="stop-color:#81d4fa;stop-opacity:1;"
         offset="0"
         id="stop36027" />
      <stop
         style="stop-color:#4faff7;stop-opacity:1"
         offset="1"
         id="stop36029" />
    </linearGradient>
    <filter
       style="color-interpolation-filters:sRGB;"
       inkscape:label="Drop Shadow"
       id="filter21754"
       x="-0.070241434"
       y="-0.07025641"
       width="1.1711907"
       height="1.1705958">
      <feFlood
         flood-opacity="0.498039"
         flood-color="rgb(0,0,0)"
         result="flood"
         id="feFlood21744" />
      <feComposite
         in="flood"
         in2="SourceGraphic"
         operator="in"
         result="composite1"
         id="feComposite21746" />
      <feGaussianBlur
         in="composite1"
         stdDeviation="3"
         result="blur"
         id="feGaussianBlur21748" />
      <feOffset
         dx="5.98802"
         dy="6"
         result="offset"
         id="feOffset21750" />
      <feComposite
         in="SourceGraphic"
         in2="offset"
         operator="over"
         result="fbSourceGraphic"
         id="feComposite21752" />
      <feColorMatrix
         result="fbSourceGraphicAlpha"
         in="fbSourceGraphic"
         values="0 0 0 -1 0 0 0 0 -1 0 0 0 0 -1 0 0 0 0 1 0"
         id="feColorMatrix21774" />
      <feFlood
         id="feFlood21776"
         flood-opacity="0.498039"
         flood-color="rgb(0,0,0)"
         result="flood"
         in="fbSourceGraphic" />
      <feComposite
         in2="fbSourceGraphic"
         id="feComposite21778"
         in="flood"
         operator="in"
         result="composite1" />
      <feGaussianBlur
         id="feGaussianBlur21780"
         in="composite1"
         stdDeviation="3"
         result="blur" />
      <feOffset
         id="feOffset21782"
         dx="5.98802"
         dy="6"
         result="offset" />
      <feComposite
         in2="offset"
         id="feComposite21784"
         in="fbSourceGraphic"
         operator="over"
         result="composite2" />
    </filter>
    <linearGradient
       inkscape:collect="always"
       xlink:href="#linearGradient36023"
       id="linearGradient36025"
       x1="1.3523833"
       y1="11.374353"
       x2="9.8677168"
       y2="2.2939761"
       gradientUnits="userSpaceOnUse"
       gradientTransform="translate(0.01653646,0.01653646)" />
    <filter
       id="mask-powermask-path-effect46538_inverse"
       inkscape:label="filtermask-powermask-path-effect46538"
       style="color-interpolation-filters:sRGB"
       height="100"
       width="100"
       x="-50"
       y="-50">
      <feColorMatrix
         id="mask-powermask-path-effect46538_primitive1"
         values="1"
         type="saturate"
         result="fbSourceGraphic" />
      <feColorMatrix
         id="mask-powermask-path-effect46538_primitive2"
         values="-1 0 0 0 1 0 -1 0 0 1 0 0 -1 0 1 0 0 0 1 0 "
         in="fbSourceGraphic" />
    </filter>
    <clipPath
       clipPathUnits="userSpaceOnUse"
       id="clipPath55611">
      <ellipse
         style="display:none;fill:#ffffff;fill-opacity:1;stroke:#0079c1;stroke-width:13.016;stroke-linecap:butt;stroke-miterlimit:4;stroke-dasharray:none;stroke-opacity:1;paint-order:stroke fill markers"
         id="circle55613"
         cx="322.81763"
         cy="154.61189"
         rx="182.40161"
         ry="182.28813" />
      <path
         style="fill:#ffffff;fill-opacity:1;stroke:#0079c1;stroke-width:13.016;stroke-linecap:butt;stroke-miterlimit:4;stroke-dasharray:none;stroke-opacity:1;paint-order:stroke fill markers"
         class="powerclip"
         id="lpe_path-effect55615"
         d="M -2.9941592,-3 H 422.99416 V 422.73235 H -2.9941592 Z M 505.21924,154.61189 A 182.40161,182.28813 0 0 0 322.81763,-27.676239 182.40161,182.28813 0 0 0 140.41602,154.61189 182.40161,182.28813 0 0 0 322.81763,336.90002 182.40161,182.28813 0 0 0 505.21924,154.61189 Z" />
    </clipPath>
    <inkscape:path-effect
       effect="fill_between_many"
       method="originald"
       linkedpaths="#path2,0,1|"
       id="path-effect62719" />
    <filter
       style="color-interpolation-filters:sRGB;"
       inkscape:label="Drop Shadow"
       id="filter65122"
       x="-0.030575059"
       y="-0.028009175"
       width="1.0732298"
       height="1.0671124">
      <feFlood
         flood-opacity="0.498039"
         flood-color="rgb(0,0,0)"
         result="flood"
         id="feFlood65112" />
      <feComposite
         in="flood"
         in2="SourceGraphic"
         operator="in"
         result="composite1"
         id="feComposite65114" />
      <feGaussianBlur
         in="composite1"
         stdDeviation="0.1"
         result="blur"
         id="feGaussianBlur65116" />
      <feOffset
         dx="0.1"
         dy="0.1"
         result="offset"
         id="feOffset65118" />
      <feComposite
         in="SourceGraphic"
         in2="offset"
         operator="over"
         result="composite2"
         id="feComposite65120" />
    </filter>
  </defs>
  <g
     inkscape:groupmode="layer"
     id="layer2"
     inkscape:label="bg">
    <rect
       style="fill:url(#linearGradient36025);fill-opacity:1;stroke:none;stroke-width:0.293;stroke-linecap:butt;stroke-miterlimit:4;stroke-dasharray:none;stroke-opacity:1;paint-order:normal"
       id="rect19395"
       width="12.406923"
       height="12.406923"
       x="0.16307493"
       y="0.16307493"
       rx="1.5875"
       ry="1.5875" />
    <g
       id="svgg"
       transform="matrix(0.26458333,0,0,0.26458333,-60.984115,-10.559032)">
      <path
         id="path0"
         d="m 168.846,39.657 c -9.353,2.837 -16.494,5.372 -20.961,7.44 -16.45,7.614 -28.086,15.083 -40.193,25.798 -4.305,3.81 -12.698,12.282 -12.686,12.806 0.005,0.217 7.747,4.952 10.512,6.429 0.456,0.243 1.867,1.011 3.136,1.707 7.307,4.005 21.923,10.761 22.31,10.312 0.053,-0.061 0.66,-1.409 1.349,-2.995 3.596,-8.274 10.259,-21.035 14.159,-27.116 8.746,-13.636 14.355,-21.217 22.336,-30.192 4.87,-5.475 4.542,-5.004 3.463,-4.973 -0.509,0.014 -2.05,0.367 -3.425,0.784 m -3.713,34.128 c -3.518,5.194 -5.482,8.377 -10.242,16.6 -0.982,1.697 -5.602,10.976 -6.989,14.038 -0.575,1.269 -1.326,2.863 -1.669,3.543 -0.342,0.679 -0.494,1.363 -0.337,1.52 0.633,0.633 7.241,2.344 7.38,1.911 0.077,-0.24 0.397,-1.647 0.711,-3.128 1.691,-7.985 4.537,-17.387 7.162,-23.654 0.664,-1.586 1.439,-3.49 1.721,-4.23 0.282,-0.741 1.227,-2.886 2.099,-4.768 1.827,-3.942 1.863,-4.34 0.164,-1.832 m -83.071,28.434 c -12.433,18.689 -20.181,38.263 -24.013,60.666 -0.572,3.343 -1.871,16.458 -1.664,16.793 0.109,0.177 13.154,0.322 28.988,0.322 h 28.789 l 0.224,-3.365 c 0.356,-5.331 2.153,-21.176 2.736,-24.135 0.292,-1.481 0.718,-3.817 0.946,-5.192 0.967,-5.828 4.739,-20.489 6.761,-26.281 0.756,-2.164 0.757,-2.162 -2.521,-3.456 -9.102,-3.592 -23.601,-11.072 -33.406,-17.233 -4.411,-2.772 -3.596,-2.996 -6.84,1.881 m 57.046,25.174 c -2.54,8.173 -3.37,11.398 -5.275,20.492 -1.938,9.25 -3.828,24.378 -3.832,30.673 L 130,180 h 12.692 c 7.852,0 12.693,-0.141 12.693,-0.369 0,-0.203 -0.418,-2.064 -0.929,-4.135 -3.336,-13.52 -5.029,-36.488 -3.443,-46.721 0.217,-1.402 0.202,-1.421 -1.455,-1.851 -0.92,-0.238 -3.145,-0.871 -4.943,-1.405 -1.798,-0.535 -3.55,-1.048 -3.893,-1.141 -0.489,-0.132 -0.84,0.524 -1.614,3.015 m -82.954,68.162 c 0,0.094 0.348,3.512 0.775,7.596 2.624,25.157 10.699,47.884 24.458,68.837 3.842,5.851 3.46,5.579 5.773,4.099 3.772,-2.414 4.631,-2.944 7.84,-4.842 1.798,-1.063 5.173,-2.929 7.5,-4.146 2.327,-1.217 4.404,-2.338 4.615,-2.492 0.313,-0.226 11.453,-5.259 16.672,-7.531 0.983,-0.428 1.222,-0.717 1.012,-1.222 -0.358,-0.861 -2.343,-7.552 -3.334,-11.239 -3.459,-12.864 -6.317,-30.885 -7.062,-44.519 l -0.257,-4.711 H 85.15 c -15.948,0 -28.996,0.076 -28.996,0.17 m 73.847,2.037 c 0.006,15.198 7.552,54.162 10.343,53.413 0.34,-0.092 2.521,-0.715 4.848,-1.386 9.634,-2.778 12.385,-3.446 21.422,-5.203 5.781,-1.123 17.621,-2.878 19.424,-2.878 1.706,0 1.614,-0.386 -0.76,-3.184 -3.203,-3.777 -7.961,-10.421 -12.041,-16.816 -2.621,-4.107 -9.059,-16.52 -10.373,-20 -0.279,-0.74 -0.943,-2.384 -1.474,-3.653 l -0.966,-2.308 -15.212,-0.101 -15.212,-0.1 0.001,2.216 m 58.268,59.355 c -4.019,0.384 -8.259,0.883 -9.423,1.109 -1.163,0.226 -4.106,0.755 -6.538,1.176 -11.824,2.045 -26.639,5.919 -26.851,7.022 -0.29,1.505 7.53,17.373 13.124,26.631 8.758,14.495 17.425,25.687 29.289,37.821 7.843,8.021 9.9,9.739 11.948,9.969 l 1.72,0.194 v -42.357 -42.358 l -2.98,0.047 c -1.64,0.026 -6.27,0.362 -10.289,0.746 m 28.654,47.476 v 36.346 h 1.166 c 5.817,0 29.531,-26.948 41.515,-47.177 l 2.665,-4.499 -3.538,-1.131 c -5.103,-1.631 -11.147,-3.894 -16.616,-6.222 -5.923,-2.521 -19.379,-9.953 -23.113,-12.766 -0.654,-0.494 -1.39,-0.897 -1.634,-0.897 -0.334,0 -0.445,9.109 -0.445,36.346 m -89.231,-32.156 c -5.998,2.402 -16.956,7.851 -23.846,11.859 -5.572,3.241 -8.823,5.286 -8.835,5.558 -0.024,0.553 11.537,11.848 15.374,15.019 6.793,5.615 8.306,6.718 18.846,13.75 3.613,2.411 16.118,8.778 21.196,10.793 6.881,2.731 11.524,4.352 17.028,5.945 4.381,1.268 4.378,1.377 0.099,-3.517 -14.381,-16.45 -32.527,-45.855 -36.575,-59.27 -0.312,-1.033 -0.979,-1.06 -3.287,-0.137 m 149.19,22.637 c -5.517,9.752 -12.021,19.568 -18.668,28.173 -1.146,1.485 -8.58,10.342 -9.681,11.536 -1.598,1.732 -1.235,1.802 2.879,0.558 18,-5.44 31.714,-12.076 47.05,-22.763 5.272,-3.675 14.607,-11.639 19.038,-16.243 l 1.923,-1.999 -2.692,0.294 c -7.606,0.83 -26.418,0.168 -34.378,-1.21 -4.343,-0.752 -4.062,-0.837 -5.471,1.654"
         stroke="none"
         fill="#fbfbfb"
         fill-rule="evenodd" />
    </g>
  </g>
  <g
     inkscape:groupmode="layer"
     id="layer4"
     inkscape:label="globe">
    <path
       inkscape:original-d="M 0,0"
       inkscape:path-effect="#path-effect62719"
       d="m 6.4663753,1.7574175 c -0.019053,0.00178 -0.090345,0.00801 -0.1584479,0.013831 -1.3920421,0.118925 -2.7345209,0.9891778 -3.4542818,2.2392247 -0.065089,0.1130044 -0.2038903,0.3865669 -0.2252348,0.4439059 -0.00711,0.01908 -0.027036,0.068127 -0.044286,0.1089615 -0.8124239,1.9247241 -0.1122314,4.2392081 1.6456004,5.4393594 1.2306596,0.84023 2.9560493,1.020073 4.2518746,0.443183 0.010892,-0.0048 0.057678,-0.02536 0.1039682,-0.0456 0.7207126,-0.314887 1.364854,-0.8371921 1.843337,-1.4947214 0.101316,-0.139215 0.101291,-0.1391116 0.07691,-0.2194941 -0.02354,-0.077576 -0.03208,-0.086356 -0.09969,-0.102577 -0.0492,-0.011823 -0.12719,0.00729 -0.12719,0.031154 0,0.022323 -0.303197,0.097504 -0.514943,0.1276541 C 8.0112532,8.992022 6.2387458,7.9031258 5.683175,6.2353577 5.1789446,4.7217372 5.6975691,3.1287903 7.0407431,2.0656153 7.2042371,1.9362114 7.2133772,1.8031753 7.0616724,1.7610272 7.0293587,1.7520651 6.5539655,1.7491589 6.4663742,1.7574211 Z"
       id="path62721"
       style="fill:#ffffff;fill-opacity:1" />
    <path
       id="path2"
       d="m 6.4663753,1.7574175 c -0.019053,0.00178 -0.090345,0.00801 -0.1584479,0.013831 -1.3920421,0.118925 -2.7345209,0.9891778 -3.4542818,2.2392247 -0.065089,0.1130044 -0.2038903,0.3865669 -0.2252348,0.4439059 -0.00711,0.01908 -0.027036,0.068127 -0.044286,0.1089615 -0.8124239,1.9247241 -0.1122314,4.2392081 1.6456004,5.4393594 1.2306596,0.84023 2.9560493,1.020073 4.2518746,0.443183 0.010892,-0.0048 0.057678,-0.02536 0.1039682,-0.0456 0.7207126,-0.314887 1.364854,-0.8371921 1.843337,-1.4947214 0.101316,-0.139215 0.101291,-0.1391116 0.07691,-0.2194941 -0.02354,-0.077576 -0.03208,-0.086356 -0.09969,-0.102577 -0.0492,-0.011823 -0.12719,0.00729 -0.12719,0.031154 0,0.022323 -0.303197,0.097504 -0.514943,0.1276541 C 8.0112532,8.992022 6.2387458,7.9031258 5.683175,6.2353577 5.1789446,4.7217372 5.6975691,3.1287903 7.0407431,2.0656153 7.2042371,1.9362114 7.2133772,1.8031753 7.0616724,1.7610272 7.0293587,1.7520651 6.5539655,1.7491589 6.4663742,1.7574211 M 5.7516114,2.5402382 C 5.3542041,2.9905033 5.0755433,3.4178278 4.826698,3.9584908 4.7417591,4.1430202 4.7532409,4.1321294 4.6789347,4.0984271 4.6680402,4.0935124 4.5929916,4.0599358 4.5121201,4.0238638 4.3730861,3.961814 4.3144851,3.9325388 4.139251,3.8376348 4.0410241,3.7844664 3.8404807,3.6639451 3.8247236,3.6486512 3.7991825,3.6238572 4.1249865,3.3078368 4.3631466,3.1264228 4.7226017,2.8526025 5.1000808,2.6528049 5.5305713,2.5085441 5.6468715,2.4695621 5.845073,2.4149531 5.8510968,2.4202321 c 0.00201,0.00172 -0.042766,0.055743 -0.099485,0.1200067 M 5.6599518,3.321071 C 5.522692,3.6022289 5.4189327,3.8998653 5.3469181,4.2192324 c -0.012006,0.053115 -0.026159,0.096552 -0.031489,0.096552 -0.014653,0 -0.1799198,-0.051443 -0.188082,-0.058549 -0.029584,-0.025695 0.313265,-0.664069 0.5030465,-0.9366794 0.083731,-0.1202653 0.088493,-0.1201878 0.029558,5.169e-4 m -1.981909,0.6964488 c 0.2331656,0.1449302 0.5169754,0.2942634 0.7533345,0.3963763 0.065345,0.028245 0.1332155,0.0577 0.1508003,0.065475 0.018254,0.00808 0.029996,0.019541 0.027369,0.026777 -0.1338853,0.3682087 -0.2815447,1.1614253 -0.282085,1.5153708 l -8.4e-5,0.047039 H 3.5733253 2.819269 L 2.826119,5.9623782 C 2.861698,5.4119573 3.0493943,4.8011332 3.3368092,4.3002232 3.3998892,4.1903091 3.555866,3.9493675 3.5639497,3.9493675 c 0.00245,0 0.053786,0.030664 0.1140862,0.068153 m 1.4486086,0.649805 c 0.062873,0.019053 0.1203931,0.034656 0.1278596,0.034656 0.011259,0 0.012508,0.039755 0.00739,0.2351998 -0.0093,0.3549496 0.020545,0.682633 0.090088,0.9896671 0.013801,0.06097 0.025105,0.1177669 0.025105,0.1262633 0,0.013695 -0.037953,0.015448 -0.3329101,0.015448 H 4.71125 l 0.00659,-0.08664 C 4.752033,5.5313198 4.804428,5.2280962 4.9170446,4.829119 c 0.04735,-0.1677166 0.063751,-0.2085512 0.081131,-0.2018826 0.00781,0.00299 0.065603,0.021034 0.1284774,0.040088 M 4.3250664,6.5240758 c 0.017792,0.4386788 0.117767,1.0154138 0.2450861,1.4140562 0.03499,0.1095534 0.038415,0.1028082 -0.07688,0.1504656 -0.2370027,0.097942 -0.5657932,0.2685935 -0.8096954,0.42027 l -0.1188734,0.07392 -0.053914,-0.076211 C 3.3992084,8.3488525 3.2199819,8.0293826 3.1539925,7.8706003 3.0767519,7.6847318 3.0549427,7.6280112 3.0189747,7.5193069 2.9037563,7.1713606 2.786684,6.5301293 2.8265671,6.465607 c 0.00487,-0.00792 0.21491,-0.01024 0.7513261,-0.00841 l 0.7445534,0.00252 0.00263,0.064367 M 5.5027505,6.462548 c 0.00647,0.00412 0.025825,0.043048 0.043024,0.086509 0.1375413,0.3478175 0.3532757,0.7058825 0.6399443,1.0620679 0.034424,0.042793 0.041324,0.040011 -0.1665329,0.066659 -0.2512137,0.032209 -0.5155072,0.08239 -0.7083278,0.1344769 -0.098869,0.026725 -0.300443,0.085222 -0.321839,0.093435 C 4.9643539,7.9151758 4.9476173,7.8693149 4.8770189,7.5985333 4.7857929,7.2487302 4.6865644,6.5494135 4.716946,6.470267 4.723376,6.45348 5.4768447,6.446091 5.5027463,6.462537 m 1.0701531,2.6505599 c 0.00137,0.598832 -0.00108,1.0924021 -0.00554,1.0968061 C 6.4717099,10.305579 5.7815073,9.5385999 5.4431396,8.9606024 5.3171845,8.7454596 5.1097147,8.3248038 5.1097147,8.2845611 c 0,-0.00788 0.023457,-0.019902 0.056952,-0.029171 0.031308,-0.00871 0.1081642,-0.030047 0.1708057,-0.047478 0.3561607,-0.099049 0.9388168,-0.1904517 1.1784192,-0.1848388 l 0.054482,0.00129 0.00252,1.0887411 m 0.4563897,-0.751251 c 0.2683631,0.1807189 0.6446818,0.3633691 0.9472619,0.459766 0.1833188,0.05842 0.1724537,0.038363 0.092638,0.1710634 C 7.7625871,9.5022429 7.1649203,10.190001 7.008558,10.213095 l -0.04704,0.0069 V 9.2732176 c 0,-0.5207608 0.00338,-0.9468497 0.00758,-0.9468497 0.00414,0 0.031259,0.015963 0.060195,0.03548 M 4.7868153,8.5269691 c 0.2174074,0.4996998 0.5141166,0.9777458 0.8606995,1.3866878 0.05551,0.0655 0.1134927,0.1339871 0.1288637,0.1521911 0.015397,0.01823 0.025334,0.03311 0.022116,0.03311 -0.045134,0 -0.4433913,-0.1327531 -0.5665132,-0.1888311 -0.02307,-0.01051 -0.044698,-0.0191 -0.048018,-0.0191 -0.014881,0 -0.3276054,-0.161872 -0.427866,-0.221451 C 4.4278234,9.4744369 4.1093308,9.2176611 3.8717109,8.9565083 l -0.061895,-0.067997 0.07312,-0.0465 c 0.2261904,-0.143875 0.7767395,-0.4226902 0.8405674,-0.425703 0.00971,-4.603e-4 0.031669,0.037951 0.063313,0.1106612 m 4.0341829,0.472073 c 0.2195201,0.022503 0.5254979,0.027138 0.6846158,0.010377 0.1221201,-0.012873 0.1221956,-0.01444 -0.00462,0.107804 -0.4304923,0.4150944 -0.954677,0.7279744 -1.5343468,0.9158245 -0.1000284,0.03242 -0.220782,0.06591 -0.2375681,0.06591 -0.00378,0 0.029323,-0.04037 0.073637,-0.08973 C 8.01997,9.7672049 8.2626117,9.4315407 8.4322326,9.1384097 c 0.042557,-0.073533 0.083088,-0.1431802 0.090037,-0.1547918 0.011203,-0.018641 0.017689,-0.020159 0.055564,-0.013101 0.023615,0.0044 0.133009,0.01725 0.2431564,0.028528"
       stroke="none"
       fill="#040404"
       fill-rule="evenodd"
       style="stroke:#000000;stroke-width:0.025747;stroke-opacity:1;filter:url(#filter65122)" />
  </g>
  <g
     inkscape:label="C"
     inkscape:groupmode="layer"
     id="layer1" />
</svg>
