<?xml version="1.0" encoding="UTF-8" standalone="no"?>
<!DOCTYPE svg PUBLIC "-//W3C//DTD SVG 1.1//EN" "http://www.w3.org/Graphics/SVG/1.1/DTD/svg11.dtd">
<svg width="100%" height="100%" viewBox="0 0 678 290" version="1.1" xmlns="http://www.w3.org/2000/svg" xmlns:xlink="http://www.w3.org/1999/xlink" xml:space="preserve" xmlns:serif="http://www.serif.com/" style="fill-rule:evenodd;clip-rule:evenodd;">
    <g>
        <clipPath id="_clip1">
            <rect x="0" y="0" width="677" height="289.322"/>
        </clipPath>
        <g clip-path="url(#_clip1)">
            <g transform="matrix(0.717921,0,0,-0.717921,0,289.322)">
                <rect x="0" y="0" width="943" height="403" style="fill:white;"/>
            </g>
            <g transform="matrix(0.717921,0,0,-0.717921,0.358961,44.8701)">
                <rect x="381" y="1" width="560" height="60" style="fill:rgb(255,204,204);stroke:rgb(54,57,61);stroke-width:1px;"/>
            </g>
            <g transform="matrix(0,0.717921,-0.717921,0,444.62,-159.87)">
                <path d="M404.185,197.815L437.815,197.815" style="fill:none;fill-rule:nonzero;stroke:black;stroke-width:1px;stroke-miterlimit:10;"/>
            </g>
            <g transform="matrix(-0.321064,-0.642129,0.642129,-0.321064,298.828,495.511)">
                <path d="M417.87,214.815L425.696,214.815L422.565,217.163L422.565,221.076L417.87,214.815Z" style="fill-rule:nonzero;stroke:black;stroke-width:1px;stroke-miterlimit:10;"/>
            </g>
            <g transform="matrix(0.717921,0,0,-0.717921,0,254.862)">
                <path d="M381,213L375,213L375,215L381,215L381,213ZM369,213L363,213L363,215L369,215L369,213ZM357,213L351,213L351,215L357,215L357,213ZM345,213L339,213L339,215L345,215L345,213ZM333,213L327,213L327,215L333,215L333,213ZM321,213L315,213L315,215L321,215L321,213ZM309,213L303,213L303,215L309,215L309,213ZM297,213L291,213L291,215L297,215L297,213ZM285,213L279,213L279,215L285,215L285,213ZM273,213L267,213L267,215L273,215L273,213ZM261,213L255,213L255,215L261,215L261,213ZM249,213L243,213L243,215L249,215L249,213ZM237,213L231,213L231,215L237,215L237,213ZM225,213L219,213L219,215L225,215L225,213ZM213,213L207,213L207,215L213,215L213,213ZM201,213L195,213L195,215L201,215L201,213ZM189,213L183,213L183,215L189,215L189,213ZM177,213L171,213L171,215L177,215L177,213ZM165,213L159,213L159,215L165,215L165,213ZM153,213L147,213L147,215L153,215L153,213ZM141,213L135,213L135,215L141,215L141,213ZM129,213L123,213L123,215L129,215L129,213ZM117,213L111,213L111,215L117,215L117,213ZM105,213L101,213L101,214L102,214L102,212L100,212L100,215L105,215L105,213ZM102,206L102,200L100,200L100,206L102,206ZM102,194L102,188L100,188L100,194L102,194ZM102,182L102,176L100,176L100,182L102,182ZM102,170L102,164L100,164L100,170L102,170ZM102,158L102,152L100,152L100,158L102,158ZM102,146L102,140L100,140L100,146L102,146Z" style="fill-rule:nonzero;"/>
            </g>
            <g transform="matrix(0.717921,0,0,-0.717921,0,202.454)">
                <path d="M461,142L467,142L467,140L461,140M473,142L479,142L479,140L473,140M485,142L491,142L491,140L485,140M497,142L501,142L501,140L497,140" style="fill-rule:nonzero;"/>
            </g>
            <g transform="matrix(0.717921,0,0,-0.717921,0.358961,202.813)">
                <path d="M461,141C461,139.69 460.936,138.383 460.807,137.079C460.679,135.776 460.487,134.481 460.231,133.196C459.976,131.912 459.658,130.642 459.278,129.389C458.897,128.135 458.456,126.903 457.955,125.693C457.454,124.482 456.894,123.3 456.277,122.144C455.659,120.989 454.987,119.866 454.259,118.777C453.531,117.688 452.751,116.637 451.92,115.624C451.089,114.612 450.211,113.642 449.284,112.716C448.358,111.789 447.388,110.911 446.376,110.08C445.363,109.249 444.312,108.469 443.223,107.741C442.133,107.013 441.011,106.341 439.856,105.723C438.7,105.106 437.518,104.546 436.307,104.045C435.097,103.544 433.865,103.103 432.611,102.722C431.358,102.342 430.088,102.024 428.804,101.769C427.519,101.513 426.224,101.321 424.921,101.193C423.617,101.064 422.31,101 421,101C419.69,101 418.383,101.064 417.079,101.193C415.776,101.321 414.481,101.513 413.196,101.769C411.911,102.024 410.642,102.342 409.389,102.722C408.135,103.103 406.903,103.544 405.693,104.045C404.482,104.546 403.299,105.106 402.144,105.723C400.989,106.341 399.866,107.013 398.777,107.741C397.688,108.469 396.637,109.249 395.624,110.08C394.612,110.911 393.642,111.789 392.716,112.716C391.789,113.642 390.911,114.612 390.08,115.624C389.249,116.637 388.469,117.688 387.741,118.777C387.013,119.866 386.341,120.989 385.723,122.144C385.106,123.3 384.546,124.482 384.045,125.693C383.543,126.903 383.103,128.135 382.722,129.389C382.342,130.642 382.024,131.912 381.769,133.196C381.513,134.481 381.321,135.776 381.193,137.079C381.064,138.383 381,139.69 381,141C381,142.31 381.064,143.617 381.193,144.921C381.321,146.224 381.513,147.519 381.769,148.804C382.024,150.089 382.342,151.358 382.722,152.611C383.103,153.865 383.543,155.097 384.045,156.307C384.546,157.518 385.106,158.701 385.723,159.856C386.341,161.011 387.013,162.134 387.741,163.223C388.469,164.312 389.248,165.363 390.08,166.376C390.911,167.388 391.789,168.358 392.716,169.284C393.642,170.211 394.612,171.089 395.624,171.92C396.637,172.752 397.688,173.531 398.777,174.259C399.866,174.987 400.989,175.659 402.144,176.277C403.299,176.894 404.482,177.454 405.693,177.955C406.903,178.457 408.135,178.897 409.389,179.278C410.642,179.658 411.911,179.976 413.196,180.231C414.481,180.487 415.776,180.679 417.079,180.807C418.383,180.936 419.69,181 421,181C422.31,181 423.617,180.936 424.921,180.807C426.224,180.679 427.519,180.487 428.804,180.231C430.088,179.976 431.358,179.658 432.611,179.278C433.865,178.897 435.097,178.457 436.307,177.955C437.518,177.454 438.7,176.894 439.856,176.277C441.011,175.659 442.133,174.987 443.223,174.259C444.312,173.531 445.363,172.752 446.376,171.92C447.388,171.089 448.358,170.211 449.284,169.284C450.211,168.358 451.089,167.388 451.92,166.376C452.751,165.363 453.531,164.312 454.259,163.223C454.987,162.134 455.659,161.011 456.277,159.856C456.894,158.701 457.454,157.518 457.955,156.307C458.456,155.097 458.897,153.865 459.278,152.611C459.658,151.358 459.976,150.089 460.231,148.804C460.487,147.519 460.679,146.224 460.807,144.921C460.936,143.617 461,142.31 461,141Z" style="fill:rgb(238,238,238);fill-rule:nonzero;stroke:rgb(54,57,61);stroke-width:1px;"/>
            </g>
            <g transform="matrix(0,0.717921,-0.717921,0,530.77,-246.021)">
                <path d="M524.185,197.815L557.815,197.815" style="fill:none;fill-rule:nonzero;stroke:black;stroke-width:1px;stroke-miterlimit:10;"/>
            </g>
            <g transform="matrix(-0.321064,-0.642129,0.642129,-0.321064,423.506,572.566)">
                <path d="M537.87,214.815L545.696,214.815L542.565,217.163L542.565,221.076L537.87,214.815Z" style="fill-rule:nonzero;stroke:black;stroke-width:1px;stroke-miterlimit:10;"/>
            </g>
            <g transform="matrix(0.717921,0,0,-0.717921,0,202.454)">
                <path d="M581,142L587,142L587,140L581,140M593,142L599,142L599,140L593,140M605,142L611,142L611,140L605,140M617,142L621,142L621,140L617,140" style="fill-rule:nonzero;"/>
            </g>
            <g transform="matrix(0.717921,0,0,-0.717921,0.358961,202.813)">
                <path d="M581,141C581,139.69 580.936,138.383 580.807,137.079C580.679,135.776 580.487,134.481 580.231,133.196C579.976,131.912 579.658,130.642 579.278,129.389C578.897,128.135 578.456,126.903 577.955,125.693C577.454,124.482 576.894,123.3 576.277,122.144C575.659,120.989 574.987,119.866 574.259,118.777C573.531,117.688 572.751,116.637 571.92,115.624C571.089,114.612 570.211,113.642 569.284,112.716C568.358,111.789 567.388,110.911 566.376,110.08C565.363,109.249 564.312,108.469 563.223,107.741C562.133,107.013 561.011,106.341 559.856,105.723C558.7,105.106 557.518,104.546 556.307,104.045C555.097,103.544 553.865,103.103 552.611,102.722C551.358,102.342 550.088,102.024 548.804,101.769C547.519,101.513 546.224,101.321 544.921,101.193C543.617,101.064 542.31,101 541,101C539.69,101 538.383,101.064 537.079,101.193C535.776,101.321 534.481,101.513 533.196,101.769C531.911,102.024 530.642,102.342 529.389,102.722C528.135,103.103 526.903,103.544 525.693,104.045C524.482,104.546 523.3,105.106 522.144,105.723C520.989,106.341 519.866,107.013 518.777,107.741C517.688,108.469 516.637,109.249 515.624,110.08C514.612,110.911 513.642,111.789 512.716,112.716C511.789,113.642 510.911,114.612 510.08,115.624C509.248,116.637 508.469,117.688 507.741,118.777C507.013,119.866 506.341,120.989 505.723,122.144C505.106,123.3 504.546,124.482 504.045,125.693C503.543,126.903 503.103,128.135 502.722,129.389C502.342,130.642 502.024,131.912 501.769,133.196C501.513,134.481 501.321,135.776 501.193,137.079C501.064,138.383 501,139.69 501,141C501,142.31 501.064,143.617 501.193,144.921C501.321,146.224 501.513,147.519 501.769,148.804C502.024,150.089 502.342,151.358 502.722,152.611C503.103,153.865 503.543,155.097 504.045,156.307C504.546,157.518 505.106,158.701 505.723,159.856C506.341,161.011 507.013,162.134 507.741,163.223C508.469,164.312 509.248,165.363 510.08,166.376C510.911,167.388 511.789,168.358 512.716,169.284C513.642,170.211 514.612,171.089 515.624,171.92C516.637,172.752 517.688,173.531 518.777,174.259C519.866,174.987 520.989,175.659 522.144,176.277C523.299,176.894 524.482,177.454 525.693,177.955C526.903,178.457 528.135,178.897 529.389,179.278C530.642,179.658 531.911,179.976 533.196,180.231C534.481,180.487 535.776,180.679 537.079,180.807C538.383,180.936 539.69,181 541,181C542.31,181 543.617,180.936 544.921,180.807C546.224,180.679 547.519,180.487 548.804,180.231C550.088,179.976 551.358,179.658 552.611,179.278C553.865,178.897 555.097,178.457 556.307,177.955C557.518,177.454 558.701,176.894 559.856,176.277C561.011,175.659 562.133,174.987 563.223,174.259C564.312,173.531 565.363,172.752 566.376,171.92C567.388,171.089 568.358,170.211 569.284,169.284C570.211,168.358 571.089,167.388 571.92,166.376C572.751,165.363 573.531,164.312 574.259,163.223C574.987,162.134 575.659,161.011 576.277,159.856C576.894,158.701 577.454,157.518 577.955,156.307C578.456,155.097 578.897,153.865 579.278,152.611C579.658,151.358 579.976,150.089 580.231,148.804C580.487,147.519 580.679,146.224 580.807,144.921C580.936,143.617 581,142.31 581,141Z" style="fill:rgb(238,238,238);fill-rule:nonzero;stroke:rgb(54,57,61);stroke-width:1px;"/>
            </g>
            <g transform="matrix(0,0.717921,-0.717921,0,616.921,-332.172)">
                <path d="M644.185,197.815L677.815,197.815" style="fill:none;fill-rule:nonzero;stroke:black;stroke-width:1px;stroke-miterlimit:10;"/>
            </g>
            <g transform="matrix(-0.321064,-0.642129,0.642129,-0.321064,548.185,649.622)">
                <path d="M657.87,214.815L665.696,214.815L662.565,217.163L662.565,221.076L657.87,214.815Z" style="fill-rule:nonzero;stroke:black;stroke-width:1px;stroke-miterlimit:10;"/>
            </g>
            <g transform="matrix(0.717921,0,0,-0.717921,0,202.454)">
                <path d="M701,142L707,142L707,140L701,140M713,142L719,142L719,140L713,140M725,142L731,142L731,140L725,140M737,142L741,142L741,140L737,140" style="fill-rule:nonzero;"/>
            </g>
            <g transform="matrix(0.717921,0,0,-0.717921,0.358961,202.813)">
                <path d="M701,141C701,139.69 700.936,138.383 700.807,137.079C700.679,135.776 700.487,134.481 700.231,133.196C699.976,131.912 699.658,130.642 699.278,129.389C698.897,128.135 698.456,126.903 697.955,125.693C697.454,124.482 696.894,123.3 696.277,122.144C695.659,120.989 694.987,119.866 694.259,118.777C693.531,117.688 692.751,116.637 691.92,115.624C691.089,114.612 690.211,113.642 689.284,112.716C688.358,111.789 687.388,110.911 686.376,110.08C685.363,109.249 684.312,108.469 683.223,107.741C682.134,107.013 681.011,106.341 679.856,105.723C678.701,105.106 677.518,104.546 676.307,104.045C675.097,103.544 673.865,103.103 672.611,102.722C671.358,102.342 670.088,102.024 668.804,101.769C667.519,101.513 666.224,101.321 664.921,101.193C663.617,101.064 662.31,101 661,101C659.69,101 658.383,101.064 657.079,101.193C655.776,101.321 654.481,101.513 653.196,101.769C651.911,102.024 650.642,102.342 649.389,102.722C648.135,103.103 646.903,103.544 645.693,104.045C644.482,104.546 643.299,105.106 642.144,105.723C640.989,106.341 639.866,107.013 638.777,107.741C637.688,108.469 636.637,109.249 635.624,110.08C634.612,110.911 633.642,111.789 632.716,112.716C631.789,113.642 630.911,114.612 630.08,115.624C629.248,116.637 628.469,117.688 627.741,118.777C627.013,119.866 626.341,120.989 625.723,122.144C625.106,123.3 624.546,124.482 624.045,125.693C623.543,126.903 623.103,128.135 622.722,129.389C622.342,130.642 622.024,131.912 621.769,133.196C621.513,134.481 621.321,135.776 621.193,137.079C621.064,138.383 621,139.69 621,141C621,142.31 621.064,143.617 621.193,144.921C621.321,146.224 621.513,147.519 621.769,148.804C622.024,150.089 622.342,151.358 622.722,152.611C623.103,153.865 623.543,155.097 624.045,156.307C624.546,157.518 625.106,158.701 625.723,159.856C626.341,161.011 627.013,162.134 627.741,163.223C628.469,164.312 629.248,165.363 630.08,166.376C630.911,167.388 631.789,168.358 632.716,169.284C633.642,170.211 634.612,171.089 635.624,171.92C636.637,172.752 637.688,173.531 638.777,174.259C639.866,174.987 640.989,175.659 642.144,176.277C643.299,176.894 644.482,177.454 645.693,177.955C646.903,178.457 648.135,178.897 649.389,179.278C650.642,179.658 651.911,179.976 653.196,180.231C654.481,180.487 655.776,180.679 657.079,180.807C658.383,180.936 659.69,181 661,181C662.31,181 663.617,180.936 664.921,180.807C666.224,180.679 667.519,180.487 668.804,180.231C670.088,179.976 671.358,179.658 672.611,179.278C673.865,178.897 675.097,178.457 676.307,177.955C677.518,177.454 678.701,176.894 679.856,176.277C681.011,175.659 682.133,174.987 683.223,174.259C684.312,173.531 685.363,172.752 686.376,171.92C687.388,171.089 688.358,170.211 689.284,169.284C690.211,168.358 691.089,167.388 691.92,166.376C692.751,165.363 693.531,164.312 694.259,163.223C694.987,162.134 695.659,161.011 696.277,159.856C696.894,158.701 697.454,157.518 697.955,156.307C698.456,155.097 698.897,153.865 699.278,152.611C699.658,151.358 699.976,150.089 700.231,148.804C700.487,147.519 700.679,146.224 700.807,144.921C700.936,143.617 701,142.31 701,141Z" style="fill:rgb(238,238,238);fill-rule:nonzero;stroke:rgb(54,57,61);stroke-width:1px;"/>
            </g>
            <g transform="matrix(0,0.717921,-0.717921,0,703.071,-418.322)">
                <path d="M764.185,197.815L797.815,197.815" style="fill:none;fill-rule:nonzero;stroke:black;stroke-width:1px;stroke-miterlimit:10;"/>
            </g>
            <g transform="matrix(-0.321064,-0.642129,0.642129,-0.321064,672.863,726.677)">
                <path d="M777.87,214.815L785.696,214.815L782.565,217.163L782.565,221.076L777.87,214.815Z" style="fill-rule:nonzero;stroke:black;stroke-width:1px;stroke-miterlimit:10;"/>
            </g>
            <g transform="matrix(0.717921,0,0,-0.717921,0,202.454)">
                <path d="M821,142L827,142L827,140L821,140M833,142L839,142L839,140L833,140M845,142L851,142L851,140L845,140M857,142L861,142L861,140L857,140" style="fill-rule:nonzero;"/>
            </g>
            <g transform="matrix(0.717921,0,0,-0.717921,0.358961,202.813)">
                <path d="M821,141C821,139.69 820.936,138.383 820.807,137.079C820.679,135.776 820.487,134.481 820.231,133.196C819.976,131.912 819.658,130.642 819.278,129.389C818.897,128.135 818.456,126.903 817.955,125.693C817.454,124.482 816.894,123.3 816.277,122.144C815.659,120.989 814.987,119.866 814.259,118.777C813.531,117.688 812.751,116.637 811.92,115.624C811.089,114.612 810.211,113.642 809.284,112.716C808.358,111.789 807.388,110.911 806.376,110.08C805.363,109.249 804.312,108.469 803.223,107.741C802.133,107.013 801.011,106.341 799.856,105.723C798.701,105.106 797.518,104.546 796.307,104.045C795.097,103.544 793.865,103.103 792.611,102.722C791.358,102.342 790.088,102.024 788.804,101.769C787.519,101.513 786.224,101.321 784.921,101.193C783.617,101.064 782.31,101 781,101C779.69,101 778.383,101.064 777.079,101.193C775.776,101.321 774.481,101.513 773.196,101.769C771.911,102.024 770.642,102.342 769.389,102.722C768.135,103.103 766.903,103.544 765.693,104.045C764.482,104.546 763.299,105.106 762.144,105.723C760.989,106.341 759.866,107.013 758.777,107.741C757.688,108.469 756.637,109.249 755.624,110.08C754.612,110.911 753.642,111.789 752.716,112.716C751.789,113.642 750.911,114.612 750.079,115.624C749.248,116.637 748.469,117.688 747.741,118.777C747.013,119.866 746.341,120.989 745.723,122.144C745.106,123.3 744.546,124.482 744.045,125.693C743.543,126.903 743.103,128.135 742.722,129.389C742.342,130.642 742.024,131.912 741.768,133.196C741.513,134.481 741.321,135.776 741.193,137.079C741.064,138.383 741,139.69 741,141C741,142.31 741.064,143.617 741.193,144.921C741.321,146.224 741.513,147.519 741.768,148.804C742.024,150.089 742.342,151.358 742.722,152.611C743.103,153.865 743.543,155.097 744.045,156.307C744.546,157.518 745.106,158.701 745.723,159.856C746.341,161.011 747.013,162.134 747.741,163.223C748.469,164.312 749.248,165.363 750.079,166.376C750.911,167.388 751.789,168.358 752.716,169.284C753.642,170.211 754.612,171.089 755.624,171.92C756.637,172.752 757.688,173.531 758.777,174.259C759.866,174.987 760.989,175.659 762.144,176.277C763.299,176.894 764.482,177.454 765.693,177.955C766.903,178.457 768.135,178.897 769.389,179.278C770.642,179.658 771.911,179.976 773.196,180.231C774.481,180.487 775.776,180.679 777.079,180.807C778.383,180.936 779.69,181 781,181C782.31,181 783.617,180.936 784.921,180.807C786.224,180.679 787.519,180.487 788.804,180.231C790.088,179.976 791.358,179.658 792.611,179.278C793.865,178.897 795.097,178.457 796.307,177.955C797.518,177.454 798.7,176.894 799.856,176.277C801.011,175.659 802.133,174.987 803.223,174.259C804.312,173.531 805.363,172.752 806.376,171.92C807.388,171.089 808.358,170.211 809.284,169.284C810.211,168.358 811.089,167.388 811.92,166.376C812.752,165.363 813.531,164.312 814.259,163.223C814.987,162.134 815.659,161.011 816.277,159.856C816.894,158.701 817.454,157.518 817.955,156.307C818.456,155.097 818.897,153.865 819.278,152.611C819.658,151.358 819.976,150.089 820.231,148.804C820.487,147.519 820.679,146.224 820.807,144.921C820.936,143.617 821,142.31 821,141Z" style="fill:rgb(238,238,238);fill-rule:nonzero;stroke:rgb(54,57,61);stroke-width:1px;"/>
            </g>
            <g transform="matrix(0,0.717921,-0.717921,0,789.222,-504.473)">
                <path d="M884.185,197.815L917.815,197.815" style="fill:none;fill-rule:nonzero;stroke:black;stroke-width:1px;stroke-miterlimit:10;"/>
            </g>
            <g transform="matrix(-0.321064,-0.642129,0.642129,-0.321064,797.541,803.732)">
                <path d="M897.87,214.815L905.696,214.815L902.565,217.163L902.565,221.076L897.87,214.815Z" style="fill-rule:nonzero;stroke:black;stroke-width:1px;stroke-miterlimit:10;"/>
            </g>
            <g transform="matrix(0.717921,0,0,-0.717921,0.358961,202.813)">
                <path d="M941,141C941,139.69 940.936,138.383 940.807,137.079C940.679,135.776 940.487,134.481 940.231,133.196C939.976,131.912 939.658,130.642 939.278,129.389C938.897,128.135 938.456,126.903 937.955,125.693C937.454,124.482 936.894,123.3 936.277,122.144C935.659,120.989 934.987,119.866 934.259,118.777C933.531,117.688 932.752,116.637 931.92,115.624C931.089,114.612 930.211,113.642 929.284,112.716C928.358,111.789 927.388,110.911 926.376,110.08C925.363,109.249 924.312,108.469 923.223,107.741C922.133,107.013 921.011,106.341 919.856,105.723C918.701,105.106 917.518,104.546 916.307,104.045C915.097,103.544 913.865,103.103 912.611,102.722C911.358,102.342 910.088,102.024 908.804,101.769C907.519,101.513 906.224,101.321 904.921,101.193C903.617,101.064 902.31,101 901,101C899.69,101 898.383,101.064 897.079,101.193C895.776,101.321 894.481,101.513 893.196,101.769C891.911,102.024 890.642,102.342 889.389,102.722C888.135,103.103 886.903,103.544 885.693,104.045C884.482,104.546 883.299,105.106 882.144,105.723C880.989,106.341 879.866,107.013 878.777,107.741C877.688,108.469 876.637,109.249 875.624,110.08C874.612,110.911 873.642,111.789 872.716,112.716C871.789,113.642 870.911,114.612 870.08,115.624C869.248,116.637 868.469,117.688 867.741,118.777C867.013,119.866 866.341,120.989 865.723,122.144C865.106,123.3 864.546,124.482 864.045,125.693C863.543,126.903 863.103,128.135 862.722,129.389C862.342,130.642 862.024,131.912 861.768,133.196C861.513,134.481 861.321,135.776 861.193,137.079C861.064,138.383 861,139.69 861,141C861,142.31 861.064,143.617 861.193,144.921C861.321,146.224 861.513,147.519 861.768,148.804C862.024,150.089 862.342,151.358 862.722,152.611C863.103,153.865 863.543,155.097 864.045,156.307C864.546,157.518 865.106,158.701 865.723,159.856C866.341,161.011 867.013,162.134 867.741,163.223C868.469,164.312 869.248,165.363 870.08,166.376C870.911,167.388 871.789,168.358 872.716,169.284C873.642,170.211 874.612,171.089 875.624,171.92C876.637,172.752 877.688,173.531 878.777,174.259C879.866,174.987 880.989,175.659 882.144,176.277C883.299,176.894 884.482,177.454 885.693,177.955C886.903,178.457 888.135,178.897 889.389,179.278C890.642,179.658 891.911,179.976 893.196,180.231C894.481,180.487 895.776,180.679 897.079,180.807C898.383,180.936 899.69,181 901,181C902.31,181 903.617,180.936 904.921,180.807C906.224,180.679 907.519,180.487 908.804,180.231C910.088,179.976 911.358,179.658 912.611,179.278C913.865,178.897 915.097,178.457 916.307,177.955C917.518,177.454 918.701,176.894 919.856,176.277C921.011,175.659 922.133,174.987 923.223,174.259C924.312,173.531 925.363,172.752 926.376,171.92C927.388,171.089 928.358,170.211 929.284,169.284C930.211,168.358 931.089,167.388 931.92,166.376C932.752,165.363 933.531,164.312 934.259,163.223C934.987,162.134 935.659,161.011 936.277,159.856C936.894,158.701 937.454,157.518 937.955,156.307C938.456,155.097 938.897,153.865 939.278,152.611C939.658,151.358 939.976,150.089 940.231,148.804C940.487,147.519 940.679,146.224 940.807,144.921C940.936,143.617 941,142.31 941,141Z" style="fill:rgb(238,238,238);fill-rule:nonzero;stroke:rgb(54,57,61);stroke-width:1px;"/>
            </g>
            <g transform="matrix(0.006124,0.717895,-0.717895,0.006124,527.569,-76.4567)">
                <path d="M405.309,316.825L436.961,316.825" style="fill:none;fill-rule:nonzero;stroke:black;stroke-width:1px;stroke-miterlimit:10;"/>
            </g>
            <g transform="matrix(-0.326556,-0.639353,0.639353,-0.326556,226.555,618.944)">
                <path d="M418.092,332.84L425.919,332.84L422.786,335.192L422.788,339.101L418.092,332.84Z" style="fill-rule:nonzero;stroke:black;stroke-width:1px;stroke-miterlimit:10;"/>
            </g>
            <g transform="matrix(0.717921,0,0,-0.717921,0,374.755)">
                <path d="M461,262L467,262L467,260L461,260M473,262L479,262L479,260L473,260M485,262L491,262L491,260L485,260M497,262L501,262L501,260L497,260" style="fill-rule:nonzero;"/>
            </g>
            <g transform="matrix(0.717921,0,0,-0.717921,0.358961,375.114)">
                <path d="M461,261C461,259.69 460.936,258.383 460.807,257.079C460.679,255.776 460.487,254.481 460.231,253.196C459.976,251.912 459.658,250.642 459.278,249.389C458.897,248.135 458.456,246.903 457.955,245.693C457.454,244.482 456.894,243.3 456.277,242.144C455.659,240.989 454.987,239.866 454.259,238.777C453.531,237.688 452.751,236.637 451.92,235.624C451.089,234.612 450.211,233.642 449.284,232.716C448.358,231.789 447.388,230.911 446.376,230.08C445.363,229.249 444.312,228.469 443.223,227.741C442.133,227.013 441.011,226.341 439.856,225.723C438.7,225.106 437.518,224.546 436.307,224.045C435.097,223.543 433.865,223.103 432.611,222.722C431.358,222.342 430.088,222.024 428.804,221.769C427.519,221.513 426.224,221.321 424.921,221.193C423.617,221.064 422.31,221 421,221C419.69,221 418.383,221.064 417.079,221.193C415.776,221.321 414.481,221.513 413.196,221.769C411.911,222.024 410.642,222.342 409.389,222.722C408.135,223.103 406.903,223.543 405.693,224.045C404.482,224.546 403.299,225.106 402.144,225.723C400.989,226.341 399.866,227.013 398.777,227.741C397.688,228.469 396.637,229.249 395.624,230.08C394.612,230.911 393.642,231.789 392.716,232.716C391.789,233.642 390.911,234.612 390.08,235.624C389.249,236.637 388.469,237.688 387.741,238.777C387.013,239.866 386.341,240.989 385.723,242.144C385.106,243.3 384.546,244.482 384.045,245.693C383.543,246.903 383.103,248.135 382.722,249.389C382.342,250.642 382.024,251.912 381.769,253.196C381.513,254.481 381.321,255.776 381.193,257.079C381.064,258.383 381,259.69 381,261C381,262.31 381.064,263.617 381.193,264.921C381.321,266.224 381.513,267.519 381.769,268.804C382.024,270.089 382.342,271.358 382.722,272.611C383.103,273.865 383.543,275.097 384.045,276.307C384.546,277.518 385.106,278.701 385.723,279.856C386.341,281.011 387.013,282.134 387.741,283.223C388.469,284.312 389.248,285.363 390.08,286.376C390.911,287.388 391.789,288.358 392.716,289.284C393.642,290.211 394.612,291.089 395.624,291.92C396.637,292.752 397.688,293.531 398.777,294.259C399.866,294.987 400.989,295.659 402.144,296.277C403.299,296.894 404.482,297.454 405.693,297.955C406.903,298.457 408.135,298.897 409.389,299.278C410.642,299.658 411.911,299.976 413.196,300.231C414.481,300.487 415.776,300.679 417.079,300.807C418.383,300.936 419.69,301 421,301C422.31,301 423.617,300.936 424.921,300.807C426.224,300.679 427.519,300.487 428.804,300.231C430.088,299.976 431.358,299.658 432.611,299.278C433.865,298.897 435.097,298.457 436.307,297.955C437.518,297.454 438.7,296.894 439.856,296.277C441.011,295.659 442.133,294.987 443.223,294.259C444.312,293.531 445.363,292.752 446.376,291.92C447.388,291.089 448.358,290.211 449.284,289.284C450.211,288.358 451.089,287.388 451.92,286.376C452.751,285.363 453.531,284.312 454.259,283.223C454.987,282.134 455.659,281.011 456.277,279.856C456.894,278.701 457.454,277.518 457.955,276.307C458.456,275.097 458.897,273.865 459.278,272.611C459.658,271.358 459.976,270.089 460.231,268.804C460.487,267.519 460.679,266.224 460.807,264.921C460.936,263.617 461,262.31 461,261Z" style="fill:rgb(255,255,136);fill-rule:nonzero;stroke:rgb(54,57,61);stroke-width:1px;"/>
            </g>
            <g transform="matrix(0.013607,0.717793,-0.717793,0.013607,609.019,-165.038)">
                <path d="M525.472,316.825L557.128,316.825" style="fill:none;fill-rule:nonzero;stroke:black;stroke-width:1px;stroke-miterlimit:10;"/>
            </g>
            <g transform="matrix(-0.333121,-0.635957,0.635957,-0.333121,356.927,696.211)">
                <path d="M538.383,332.847L546.206,332.847L543.08,335.195L543.073,339.108L538.383,332.847Z" style="fill-rule:nonzero;stroke:black;stroke-width:1px;stroke-miterlimit:10;"/>
            </g>
            <g transform="matrix(0.717921,0,0,-0.717921,0,374.755)">
                <path d="M581,262L587,262L587,260L581,260M593,262L599,262L599,260L593,260M605,262L611,262L611,260L605,260M617,262L621,262L621,260L617,260" style="fill-rule:nonzero;"/>
            </g>
            <g transform="matrix(0.717921,0,0,-0.717921,0.358961,375.114)">
                <path d="M581,261C581,259.69 580.936,258.383 580.807,257.079C580.679,255.776 580.487,254.481 580.231,253.196C579.976,251.912 579.658,250.642 579.278,249.389C578.897,248.135 578.456,246.903 577.955,245.693C577.454,244.482 576.894,243.3 576.277,242.144C575.659,240.989 574.987,239.866 574.259,238.777C573.531,237.688 572.751,236.637 571.92,235.624C571.089,234.612 570.211,233.642 569.284,232.716C568.358,231.789 567.388,230.911 566.376,230.08C565.363,229.249 564.312,228.469 563.223,227.741C562.133,227.013 561.011,226.341 559.856,225.723C558.7,225.106 557.518,224.546 556.307,224.045C555.097,223.543 553.865,223.103 552.611,222.722C551.358,222.342 550.088,222.024 548.804,221.769C547.519,221.513 546.224,221.321 544.921,221.193C543.617,221.064 542.31,221 541,221C539.69,221 538.383,221.064 537.079,221.193C535.776,221.321 534.481,221.513 533.196,221.769C531.911,222.024 530.642,222.342 529.389,222.722C528.135,223.103 526.903,223.543 525.693,224.045C524.482,224.546 523.3,225.106 522.144,225.723C520.989,226.341 519.866,227.013 518.777,227.741C517.688,228.469 516.637,229.249 515.624,230.08C514.612,230.911 513.642,231.789 512.716,232.716C511.789,233.642 510.911,234.612 510.08,235.624C509.248,236.637 508.469,237.688 507.741,238.777C507.013,239.866 506.341,240.989 505.723,242.144C505.106,243.3 504.546,244.482 504.045,245.693C503.543,246.903 503.103,248.135 502.722,249.389C502.342,250.642 502.024,251.912 501.769,253.196C501.513,254.481 501.321,255.776 501.193,257.079C501.064,258.383 501,259.69 501,261C501,262.31 501.064,263.617 501.193,264.921C501.321,266.224 501.513,267.519 501.769,268.804C502.024,270.089 502.342,271.358 502.722,272.611C503.103,273.865 503.543,275.097 504.045,276.307C504.546,277.518 505.106,278.701 505.723,279.856C506.341,281.011 507.013,282.134 507.741,283.223C508.469,284.312 509.248,285.363 510.08,286.376C510.911,287.388 511.789,288.358 512.716,289.284C513.642,290.211 514.612,291.089 515.624,291.92C516.637,292.752 517.688,293.531 518.777,294.259C519.866,294.987 520.989,295.659 522.144,296.277C523.299,296.894 524.482,297.454 525.693,297.955C526.903,298.457 528.135,298.897 529.389,299.278C530.642,299.658 531.911,299.976 533.196,300.231C534.481,300.487 535.776,300.679 537.079,300.807C538.383,300.936 539.69,301 541,301C542.31,301 543.617,300.936 544.921,300.807C546.224,300.679 547.519,300.487 548.804,300.231C550.088,299.976 551.358,299.658 552.611,299.278C553.865,298.897 555.097,298.457 556.307,297.955C557.518,297.454 558.701,296.894 559.856,296.277C561.011,295.659 562.133,294.987 563.223,294.259C564.312,293.531 565.363,292.752 566.376,291.92C567.388,291.089 568.358,290.211 569.284,289.284C570.211,288.358 571.089,287.388 571.92,286.376C572.751,285.363 573.531,284.312 574.259,283.223C574.987,282.134 575.659,281.011 576.277,279.856C576.894,278.701 577.454,277.518 577.955,276.307C578.456,275.097 578.897,273.865 579.278,272.611C579.658,271.358 579.976,270.089 580.231,268.804C580.487,267.519 580.679,266.224 580.807,264.921C580.936,263.617 581,262.31 581,261Z" style="fill:rgb(255,255,136);fill-rule:nonzero;stroke:rgb(54,57,61);stroke-width:1px;"/>
            </g>
            <g transform="matrix(0,0.717921,-0.717921,0,703.071,-246.021)">
                <path d="M644.185,317.815L677.815,317.815" style="fill:none;fill-rule:nonzero;stroke:black;stroke-width:1px;stroke-miterlimit:10;"/>
            </g>
            <g transform="matrix(-0.321064,-0.642129,0.642129,-0.321064,471.129,774.3)">
                <path d="M657.87,334.815L665.696,334.815L662.565,337.163L662.565,341.076L657.87,334.815Z" style="fill-rule:nonzero;stroke:black;stroke-width:1px;stroke-miterlimit:10;"/>
            </g>
            <g transform="matrix(0.717921,0,0,-0.717921,0,374.755)">
                <path d="M701,262L707,262L707,260L701,260M713,262L719,262L719,260L713,260M725,262L731,262L731,260L725,260M737,262L741,262L741,260L737,260" style="fill-rule:nonzero;"/>
            </g>
            <g transform="matrix(0.717921,0,0,-0.717921,0.358961,375.114)">
                <path d="M701,261C701,259.69 700.936,258.383 700.807,257.079C700.679,255.776 700.487,254.481 700.231,253.196C699.976,251.912 699.658,250.642 699.278,249.389C698.897,248.135 698.456,246.903 697.955,245.693C697.454,244.482 696.894,243.3 696.277,242.144C695.659,240.989 694.987,239.866 694.259,238.777C693.531,237.688 692.751,236.637 691.92,235.624C691.089,234.612 690.211,233.642 689.284,232.716C688.358,231.789 687.388,230.911 686.376,230.08C685.363,229.249 684.312,228.469 683.223,227.741C682.134,227.013 681.011,226.341 679.856,225.723C678.701,225.106 677.518,224.546 676.307,224.045C675.097,223.543 673.865,223.103 672.611,222.722C671.358,222.342 670.088,222.024 668.804,221.769C667.519,221.513 666.224,221.321 664.921,221.193C663.617,221.064 662.31,221 661,221C659.69,221 658.383,221.064 657.079,221.193C655.776,221.321 654.481,221.513 653.196,221.769C651.911,222.024 650.642,222.342 649.389,222.722C648.135,223.103 646.903,223.543 645.693,224.045C644.482,224.546 643.299,225.106 642.144,225.723C640.989,226.341 639.866,227.013 638.777,227.741C637.688,228.469 636.637,229.249 635.624,230.08C634.612,230.911 633.642,231.789 632.716,232.716C631.789,233.642 630.911,234.612 630.08,235.624C629.248,236.637 628.469,237.688 627.741,238.777C627.013,239.866 626.341,240.989 625.723,242.144C625.106,243.3 624.546,244.482 624.045,245.693C623.543,246.903 623.103,248.135 622.722,249.389C622.342,250.642 622.024,251.912 621.769,253.196C621.513,254.481 621.321,255.776 621.193,257.079C621.064,258.383 621,259.69 621,261C621,262.31 621.064,263.617 621.193,264.921C621.321,266.224 621.513,267.519 621.769,268.804C622.024,270.089 622.342,271.358 622.722,272.611C623.103,273.865 623.543,275.097 624.045,276.307C624.546,277.518 625.106,278.701 625.723,279.856C626.341,281.011 627.013,282.134 627.741,283.223C628.469,284.312 629.248,285.363 630.08,286.376C630.911,287.388 631.789,288.358 632.716,289.284C633.642,290.211 634.612,291.089 635.624,291.92C636.637,292.752 637.688,293.531 638.777,294.259C639.866,294.987 640.989,295.659 642.144,296.277C643.299,296.894 644.482,297.454 645.693,297.955C646.903,298.457 648.135,298.897 649.389,299.278C650.642,299.658 651.911,299.976 653.196,300.231C654.481,300.487 655.776,300.679 657.079,300.807C658.383,300.936 659.69,301 661,301C662.31,301 663.617,300.936 664.921,300.807C666.224,300.679 667.519,300.487 668.804,300.231C670.088,299.976 671.358,299.658 672.611,299.278C673.865,298.897 675.097,298.457 676.307,297.955C677.518,297.454 678.701,296.894 679.856,296.277C681.011,295.659 682.133,294.987 683.223,294.259C684.312,293.531 685.363,292.752 686.376,291.92C687.388,291.089 688.358,290.211 689.284,289.284C690.211,288.358 691.089,287.388 691.92,286.376C692.751,285.363 693.531,284.312 694.259,283.223C694.987,282.134 695.659,281.011 696.277,279.856C696.894,278.701 697.454,277.518 697.955,276.307C698.456,275.097 698.897,273.865 699.278,272.611C699.658,271.358 699.976,270.089 700.231,268.804C700.487,267.519 700.679,266.224 700.807,264.921C700.936,263.617 701,262.31 701,261Z" style="fill:rgb(255,255,136);fill-rule:nonzero;stroke:rgb(54,57,61);stroke-width:1px;"/>
            </g>
            <g transform="matrix(-0.0140599,0.717784,-0.717784,-0.0140599,798.863,-328.478)">
                <path d="M765.382,316.315L796.018,316.315" style="fill:none;fill-rule:nonzero;stroke:black;stroke-width:1px;stroke-miterlimit:10;"/>
            </g>
            <g transform="matrix(-0.308516,-0.648251,0.648251,-0.308516,585.337,848.443)">
                <path d="M777.313,331.707L785.131,331.707L782.01,334.053L782.006,337.971L777.313,331.707Z" style="fill-rule:nonzero;stroke:black;stroke-width:1px;stroke-miterlimit:10;"/>
            </g>
            <g transform="matrix(0.717921,0,0,-0.717921,0,374.755)">
                <path d="M821,262L827,262L827,260L821,260M833,262L839,262L839,260L833,260M845,262L851,262L851,260L845,260M857,262L861,262L861,260L857,260" style="fill-rule:nonzero;"/>
            </g>
            <g transform="matrix(0.717921,0,0,-0.717921,0.358961,375.114)">
                <path d="M821,261C821,259.69 820.936,258.383 820.807,257.079C820.679,255.776 820.487,254.481 820.231,253.196C819.976,251.912 819.658,250.642 819.278,249.389C818.897,248.135 818.456,246.903 817.955,245.693C817.454,244.482 816.894,243.3 816.277,242.144C815.659,240.989 814.987,239.866 814.259,238.777C813.531,237.688 812.751,236.637 811.92,235.624C811.089,234.612 810.211,233.642 809.284,232.716C808.358,231.789 807.388,230.911 806.376,230.08C805.363,229.249 804.312,228.469 803.223,227.741C802.133,227.013 801.011,226.341 799.856,225.723C798.701,225.106 797.518,224.546 796.307,224.045C795.097,223.543 793.865,223.103 792.611,222.722C791.358,222.342 790.088,222.024 788.804,221.769C787.519,221.513 786.224,221.321 784.921,221.193C783.617,221.064 782.31,221 781,221C779.69,221 778.383,221.064 777.079,221.193C775.776,221.321 774.481,221.513 773.196,221.769C771.911,222.024 770.642,222.342 769.389,222.722C768.135,223.103 766.903,223.543 765.693,224.045C764.482,224.546 763.299,225.106 762.144,225.723C760.989,226.341 759.866,227.013 758.777,227.741C757.688,228.469 756.637,229.249 755.624,230.08C754.612,230.911 753.642,231.789 752.716,232.716C751.789,233.642 750.911,234.612 750.079,235.624C749.248,236.637 748.469,237.688 747.741,238.777C747.013,239.866 746.341,240.989 745.723,242.144C745.106,243.3 744.546,244.482 744.045,245.693C743.543,246.903 743.103,248.135 742.722,249.389C742.342,250.642 742.024,251.912 741.768,253.196C741.513,254.481 741.321,255.776 741.193,257.079C741.064,258.383 741,259.69 741,261C741,262.31 741.064,263.617 741.193,264.921C741.321,266.224 741.513,267.519 741.768,268.804C742.024,270.089 742.342,271.358 742.722,272.611C743.103,273.865 743.543,275.097 744.045,276.307C744.546,277.518 745.106,278.701 745.723,279.856C746.341,281.011 747.013,282.134 747.741,283.223C748.469,284.312 749.248,285.363 750.079,286.376C750.911,287.388 751.789,288.358 752.716,289.284C753.642,290.211 754.612,291.089 755.624,291.92C756.637,292.752 757.688,293.531 758.777,294.259C759.866,294.987 760.989,295.659 762.144,296.277C763.299,296.894 764.482,297.454 765.693,297.955C766.903,298.457 768.135,298.897 769.389,299.278C770.642,299.658 771.911,299.976 773.196,300.231C774.481,300.487 775.776,300.679 777.079,300.807C778.383,300.936 779.69,301 781,301C782.31,301 783.617,300.936 784.921,300.807C786.224,300.679 787.519,300.487 788.804,300.231C790.088,299.976 791.358,299.658 792.611,299.278C793.865,298.897 795.097,298.457 796.307,297.955C797.518,297.454 798.7,296.894 799.856,296.277C801.011,295.659 802.133,294.987 803.223,294.259C804.312,293.531 805.363,292.752 806.376,291.92C807.388,291.089 808.358,290.211 809.284,289.284C810.211,288.358 811.089,287.388 811.92,286.376C812.752,285.363 813.531,284.312 814.259,283.223C814.987,282.134 815.659,281.011 816.277,279.856C816.894,278.701 817.454,277.518 817.955,276.307C818.456,275.097 818.897,273.865 819.278,272.611C819.658,271.358 819.976,270.089 820.231,268.804C820.487,267.519 820.679,266.224 820.807,264.921C820.936,263.617 821,262.31 821,261Z" style="fill:rgb(255,255,136);fill-rule:nonzero;stroke:rgb(54,57,61);stroke-width:1px;"/>
            </g>
            <g transform="matrix(0.717921,0,0,-0.717921,0.358961,454.538)">
                <path d="M901,331.63L902.4,331.63L902.37,301" style="fill:none;fill-rule:nonzero;stroke:black;stroke-width:1px;stroke-miterlimit:10;"/>
            </g>
            <g transform="matrix(-0.320329,-0.642496,0.642496,-0.320329,723.05,926.26)">
                <path d="M899.242,331.809L907.064,331.809L903.936,334.161L903.932,338.069L899.242,331.809Z" style="fill-rule:nonzero;stroke:black;stroke-width:1px;stroke-miterlimit:10;"/>
            </g>
            <g transform="matrix(0.717921,0,0,-0.717921,0.358961,375.114)">
                <path d="M941,261C941,259.69 940.936,258.383 940.807,257.079C940.679,255.776 940.487,254.481 940.231,253.196C939.976,251.912 939.658,250.642 939.278,249.389C938.897,248.135 938.456,246.903 937.955,245.693C937.454,244.482 936.894,243.3 936.277,242.144C935.659,240.989 934.987,239.866 934.259,238.777C933.531,237.688 932.752,236.637 931.92,235.624C931.089,234.612 930.211,233.642 929.284,232.716C928.358,231.789 927.388,230.911 926.376,230.08C925.363,229.249 924.312,228.469 923.223,227.741C922.133,227.013 921.011,226.341 919.856,225.723C918.701,225.106 917.518,224.546 916.307,224.045C915.097,223.543 913.865,223.103 912.611,222.722C911.358,222.342 910.088,222.024 908.804,221.769C907.519,221.513 906.224,221.321 904.921,221.193C903.617,221.064 902.31,221 901,221C899.69,221 898.383,221.064 897.079,221.193C895.776,221.321 894.481,221.513 893.196,221.769C891.911,222.024 890.642,222.342 889.389,222.722C888.135,223.103 886.903,223.543 885.693,224.045C884.482,224.546 883.299,225.106 882.144,225.723C880.989,226.341 879.866,227.013 878.777,227.741C877.688,228.469 876.637,229.249 875.624,230.08C874.612,230.911 873.642,231.789 872.716,232.716C871.789,233.642 870.911,234.612 870.08,235.624C869.248,236.637 868.469,237.688 867.741,238.777C867.013,239.866 866.341,240.989 865.723,242.144C865.106,243.3 864.546,244.482 864.045,245.693C863.543,246.903 863.103,248.135 862.722,249.389C862.342,250.642 862.024,251.912 861.768,253.196C861.513,254.481 861.321,255.776 861.193,257.079C861.064,258.383 861,259.69 861,261C861,262.31 861.064,263.617 861.193,264.921C861.321,266.224 861.513,267.519 861.768,268.804C862.024,270.089 862.342,271.358 862.722,272.611C863.103,273.865 863.543,275.097 864.045,276.307C864.546,277.518 865.106,278.701 865.723,279.856C866.341,281.011 867.013,282.134 867.741,283.223C868.469,284.312 869.248,285.363 870.08,286.376C870.911,287.388 871.789,288.358 872.716,289.284C873.642,290.211 874.612,291.089 875.624,291.92C876.637,292.752 877.688,293.531 878.777,294.259C879.866,294.987 880.989,295.659 882.144,296.277C883.299,296.894 884.482,297.454 885.693,297.955C886.903,298.457 888.135,298.897 889.389,299.278C890.642,299.658 891.911,299.976 893.196,300.231C894.481,300.487 895.776,300.679 897.079,300.807C898.383,300.936 899.69,301 901,301C902.31,301 903.617,300.936 904.921,300.807C906.224,300.679 907.519,300.487 908.804,300.231C910.088,299.976 911.358,299.658 912.611,299.278C913.865,298.897 915.097,298.457 916.307,297.955C917.518,297.454 918.701,296.894 919.856,296.277C921.011,295.659 922.133,294.987 923.223,294.259C924.312,293.531 925.363,292.752 926.376,291.92C927.388,291.089 928.358,290.211 929.284,289.284C930.211,288.358 931.089,287.388 931.92,286.376C932.752,285.363 933.531,284.312 934.259,283.223C934.987,282.134 935.659,281.011 936.277,279.856C936.894,278.701 937.454,277.518 937.955,276.307C938.456,275.097 938.897,273.865 939.278,272.611C939.658,271.358 939.976,270.089 940.231,268.804C940.487,267.519 940.679,266.224 940.807,264.921C940.936,263.617 941,262.31 941,261Z" style="fill:rgb(255,255,136);fill-rule:nonzero;stroke:rgb(54,57,61);stroke-width:1px;"/>
            </g>
            <g transform="matrix(0.717921,0,0,-0.717921,0,317.321)">
                <path d="M151,220L145,220L145,222L151,222" style="fill-rule:nonzero;"/>
            </g>
            <g transform="matrix(0.717921,0,0,-0.717921,0,317.321)">
                <path d="M231,222L237,222L237,220L231,220M243,222L249,222L249,220L243,220M255,222L261,222L261,220L255,220" style="fill-rule:nonzero;"/>
            </g>
            <g transform="matrix(0.717921,0,0,-0.717921,0.358961,317.68)">
                <path d="M231,221C231,219.69 230.936,218.383 230.807,217.079C230.679,215.776 230.487,214.481 230.231,213.196C229.976,211.912 229.658,210.642 229.278,209.389C228.897,208.135 228.457,206.903 227.955,205.693C227.454,204.482 226.894,203.3 226.277,202.144C225.659,200.989 224.987,199.866 224.259,198.777C223.531,197.688 222.752,196.637 221.92,195.624C221.089,194.612 220.211,193.642 219.284,192.716C218.358,191.789 217.388,190.911 216.376,190.08C215.363,189.249 214.312,188.469 213.223,187.741C212.134,187.013 211.011,186.341 209.856,185.723C208.7,185.106 207.518,184.546 206.307,184.045C205.097,183.544 203.865,183.103 202.611,182.722C201.358,182.342 200.088,182.024 198.804,181.769C197.519,181.513 196.224,181.321 194.921,181.193C193.617,181.064 192.31,181 191,181C189.69,181 188.383,181.064 187.079,181.193C185.776,181.321 184.481,181.513 183.196,181.769C181.912,182.024 180.642,182.342 179.389,182.722C178.135,183.103 176.903,183.544 175.693,184.045C174.482,184.546 173.299,185.106 172.144,185.723C170.989,186.341 169.866,187.013 168.777,187.741C167.688,188.469 166.637,189.249 165.624,190.08C164.612,190.911 163.642,191.789 162.716,192.716C161.789,193.642 160.911,194.612 160.08,195.624C159.248,196.637 158.469,197.688 157.741,198.777C157.013,199.866 156.341,200.989 155.723,202.144C155.106,203.299 154.546,204.482 154.045,205.693C153.543,206.903 153.103,208.135 152.722,209.389C152.342,210.642 152.024,211.912 151.769,213.196C151.513,214.481 151.321,215.776 151.193,217.079C151.064,218.383 151,219.69 151,221C151,222.31 151.064,223.617 151.193,224.921C151.321,226.224 151.513,227.519 151.769,228.804C152.024,230.089 152.342,231.358 152.722,232.611C153.103,233.865 153.543,235.097 154.045,236.307C154.546,237.518 155.106,238.701 155.723,239.856C156.341,241.011 157.013,242.134 157.741,243.223C158.469,244.312 159.248,245.363 160.08,246.376C160.911,247.388 161.789,248.358 162.716,249.284C163.642,250.211 164.612,251.089 165.624,251.92C166.637,252.752 167.688,253.531 168.777,254.259C169.866,254.987 170.989,255.659 172.144,256.277C173.299,256.894 174.482,257.454 175.693,257.955C176.903,258.457 178.135,258.897 179.389,259.278C180.642,259.658 181.912,259.976 183.196,260.231C184.481,260.487 185.776,260.679 187.079,260.807C188.383,260.936 189.69,261 191,261C192.31,261 193.617,260.936 194.921,260.807C196.224,260.679 197.519,260.487 198.804,260.231C200.088,259.976 201.358,259.658 202.611,259.278C203.865,258.897 205.097,258.457 206.307,257.955C207.518,257.454 208.7,256.894 209.856,256.277C211.011,255.659 212.134,254.987 213.223,254.259C214.312,253.531 215.363,252.752 216.376,251.92C217.388,251.089 218.358,250.211 219.284,249.284C220.211,248.358 221.089,247.388 221.92,246.376C222.752,245.363 223.531,244.312 224.259,243.223C224.987,242.134 225.659,241.011 226.277,239.856C226.894,238.701 227.454,237.518 227.955,236.307C228.457,235.097 228.897,233.865 229.278,232.611C229.658,231.358 229.976,230.089 230.231,228.804C230.487,227.519 230.679,226.224 230.807,224.921C230.936,223.617 231,222.31 231,221Z" style="fill:rgb(255,204,153);fill-rule:nonzero;stroke:rgb(54,57,61);stroke-width:1px;"/>
            </g>
            <g transform="matrix(15.7943,0,0,15.7943,455.251,29.4348)">
                <rect x="0.064" y="-0.72" width="0.149" height="0.72" style="fill-rule:nonzero;"/>
            </g>
            <g transform="matrix(15.7943,0,0,15.7943,459.625,29.4348)">
                <path d="M0.315,-0.429C0.268,-0.429 0.236,-0.409 0.218,-0.369C0.209,-0.348 0.205,-0.321 0.205,-0.288L0.205,-0L0.066,-0L0.066,-0.531L0.2,-0.531L0.2,-0.454C0.218,-0.481 0.235,-0.501 0.251,-0.513C0.28,-0.534 0.316,-0.545 0.36,-0.545C0.415,-0.545 0.46,-0.531 0.495,-0.502C0.53,-0.473 0.547,-0.425 0.547,-0.358L0.547,-0L0.405,-0L0.405,-0.324C0.405,-0.352 0.401,-0.373 0.394,-0.388C0.38,-0.416 0.354,-0.429 0.315,-0.429Z" style="fill-rule:nonzero;"/>
            </g>
            <g transform="matrix(15.7943,0,0,15.7943,469.26,29.4348)">
                <path d="M0.511,-0.475C0.554,-0.429 0.575,-0.362 0.575,-0.273C0.575,-0.179 0.554,-0.108 0.512,-0.059C0.47,-0.009 0.416,0.015 0.349,0.015C0.307,0.015 0.272,0.005 0.244,-0.017C0.228,-0.028 0.213,-0.045 0.199,-0.068L0.199,0.209L0.061,0.209L0.061,-0.532L0.194,-0.532L0.194,-0.454C0.209,-0.477 0.225,-0.495 0.242,-0.508C0.273,-0.532 0.31,-0.544 0.353,-0.544C0.415,-0.544 0.467,-0.521 0.511,-0.475ZM0.432,-0.266C0.432,-0.307 0.422,-0.343 0.404,-0.375C0.385,-0.407 0.354,-0.422 0.313,-0.422C0.262,-0.422 0.227,-0.398 0.208,-0.351C0.199,-0.325 0.194,-0.293 0.194,-0.254C0.194,-0.192 0.21,-0.149 0.243,-0.124C0.263,-0.109 0.286,-0.102 0.313,-0.102C0.351,-0.102 0.381,-0.117 0.401,-0.146C0.421,-0.176 0.432,-0.216 0.432,-0.266Z" style="fill-rule:nonzero;"/>
            </g>
            <g transform="matrix(15.7943,0,0,15.7943,478.895,29.4348)">
                <path d="M0.406,-0.075C0.405,-0.074 0.402,-0.069 0.396,-0.061C0.391,-0.052 0.385,-0.045 0.378,-0.039C0.356,-0.02 0.335,-0.006 0.315,0.001C0.294,0.008 0.271,0.012 0.243,0.012C0.164,0.012 0.111,-0.017 0.084,-0.073C0.069,-0.104 0.061,-0.151 0.061,-0.211L0.061,-0.532L0.204,-0.532L0.204,-0.211C0.204,-0.181 0.207,-0.158 0.214,-0.143C0.227,-0.116 0.252,-0.103 0.289,-0.103C0.337,-0.103 0.369,-0.122 0.387,-0.16C0.396,-0.181 0.4,-0.208 0.4,-0.243L0.4,-0.532L0.542,-0.532L0.542,-0L0.406,-0L0.406,-0.075Z" style="fill-rule:nonzero;"/>
            </g>
            <g transform="matrix(15.7943,0,0,15.7943,488.529,29.4348)">
                <path d="M0.309,-0.099L0.309,0.005L0.243,0.007C0.177,0.01 0.132,-0.002 0.108,-0.027C0.092,-0.043 0.084,-0.067 0.084,-0.101L0.084,-0.428L0.01,-0.428L0.01,-0.527L0.084,-0.527L0.084,-0.676L0.222,-0.676L0.222,-0.527L0.309,-0.527L0.309,-0.428L0.222,-0.428L0.222,-0.147C0.222,-0.125 0.225,-0.112 0.23,-0.106C0.236,-0.101 0.253,-0.098 0.281,-0.098C0.285,-0.098 0.29,-0.098 0.295,-0.098C0.299,-0.099 0.304,-0.099 0.309,-0.099Z" style="fill-rule:nonzero;"/>
            </g>
            <g>
                <g transform="matrix(8.61506,0,0,8.61506,297.454,99.7911)">
                    <path d="M0.01,-0.523C0.021,-0.527 0.038,-0.529 0.062,-0.53C0.105,-0.53 0.136,-0.511 0.155,-0.472L0.271,-0.263L0.424,-0.52L0.525,-0.52L0.32,-0.172L0.467,0.083C0.478,0.106 0.494,0.118 0.515,0.118C0.531,0.118 0.542,0.116 0.549,0.113L0.549,0.191C0.533,0.194 0.516,0.195 0.497,0.196C0.469,0.195 0.447,0.188 0.43,0.173C0.413,0.158 0.397,0.139 0.384,0.115L0.271,-0.09L0.108,0.186L0.007,0.186L0.223,-0.172L0.089,-0.414C0.082,-0.427 0.075,-0.437 0.068,-0.443C0.061,-0.449 0.049,-0.452 0.034,-0.452C0.026,-0.451 0.018,-0.45 0.01,-0.448L0.01,-0.523Z" style="fill-rule:nonzero;"/>
                </g>
                <g transform="matrix(8.61506,0,0,8.61506,302.244,99.7911)">
                    <path d="M0.096,-0.495L0.096,-0.563C0.159,-0.569 0.203,-0.579 0.229,-0.594C0.254,-0.608 0.272,-0.642 0.285,-0.696L0.354,-0.696L0.354,-0L0.26,-0L0.26,-0.495L0.096,-0.495Z" style="fill-rule:nonzero;"/>
                </g>
                <g transform="matrix(8.61506,0,0,8.61506,297.454,109.846)">
                    <path d="M0.331,-0.248L0.331,-0.564L0.106,-0.248L0.331,-0.248ZM0.332,-0L0.332,-0.171L0.025,-0.171L0.025,-0.257L0.346,-0.701L0.42,-0.701L0.42,-0.248L0.523,-0.248L0.523,-0.171L0.42,-0.171L0.42,-0L0.332,-0Z" style="fill-rule:nonzero;"/>
                </g>
                <g transform="matrix(8.61506,0,0,8.61506,302.244,109.846)">
                    <path d="M0.096,-0.495L0.096,-0.563C0.159,-0.569 0.203,-0.579 0.229,-0.594C0.254,-0.608 0.272,-0.642 0.285,-0.696L0.354,-0.696L0.354,-0L0.26,-0L0.26,-0.495L0.096,-0.495Z" style="fill-rule:nonzero;"/>
                </g>
            </g>
            <g>
                <g transform="matrix(8.61506,0,0,8.61506,383.604,99.7911)">
                    <path d="M0.01,-0.523C0.021,-0.527 0.038,-0.529 0.062,-0.53C0.105,-0.53 0.136,-0.511 0.155,-0.472L0.271,-0.263L0.424,-0.52L0.525,-0.52L0.32,-0.172L0.467,0.083C0.478,0.106 0.494,0.118 0.515,0.118C0.531,0.118 0.542,0.116 0.549,0.113L0.549,0.191C0.533,0.194 0.516,0.195 0.497,0.196C0.469,0.195 0.447,0.188 0.43,0.173C0.413,0.158 0.397,0.139 0.384,0.115L0.271,-0.09L0.108,0.186L0.007,0.186L0.223,-0.172L0.089,-0.414C0.082,-0.427 0.075,-0.437 0.068,-0.443C0.061,-0.449 0.049,-0.452 0.034,-0.452C0.026,-0.451 0.018,-0.45 0.01,-0.448L0.01,-0.523Z" style="fill-rule:nonzero;"/>
                </g>
                <g transform="matrix(8.61506,0,0,8.61506,388.394,99.7911)">
                    <path d="M0.031,-0C0.035,-0.06 0.047,-0.113 0.069,-0.157C0.09,-0.202 0.132,-0.242 0.195,-0.279L0.289,-0.333C0.331,-0.357 0.361,-0.378 0.377,-0.396C0.404,-0.423 0.417,-0.453 0.417,-0.488C0.417,-0.529 0.405,-0.561 0.381,-0.585C0.356,-0.609 0.324,-0.621 0.283,-0.621C0.223,-0.621 0.181,-0.598 0.158,-0.553C0.146,-0.528 0.139,-0.494 0.138,-0.451L0.048,-0.451C0.049,-0.512 0.061,-0.562 0.082,-0.6C0.12,-0.668 0.187,-0.702 0.284,-0.702C0.364,-0.702 0.422,-0.68 0.459,-0.637C0.496,-0.593 0.515,-0.545 0.515,-0.492C0.515,-0.436 0.495,-0.388 0.456,-0.349C0.433,-0.326 0.392,-0.298 0.333,-0.265L0.266,-0.228C0.234,-0.21 0.209,-0.193 0.191,-0.177C0.158,-0.149 0.138,-0.118 0.129,-0.083L0.511,-0.083L0.511,-0L0.031,-0Z" style="fill-rule:nonzero;"/>
                </g>
                <g transform="matrix(8.61506,0,0,8.61506,383.604,109.846)">
                    <path d="M0.26,0.019C0.177,0.019 0.117,-0.004 0.08,-0.049C0.043,-0.094 0.024,-0.15 0.024,-0.215L0.116,-0.215C0.12,-0.17 0.128,-0.137 0.141,-0.116C0.164,-0.079 0.205,-0.061 0.265,-0.061C0.311,-0.061 0.348,-0.073 0.376,-0.098C0.404,-0.123 0.418,-0.155 0.418,-0.194C0.418,-0.242 0.403,-0.276 0.374,-0.295C0.344,-0.314 0.303,-0.324 0.251,-0.324C0.245,-0.324 0.239,-0.324 0.233,-0.323C0.227,-0.323 0.221,-0.323 0.215,-0.323L0.215,-0.4C0.224,-0.399 0.232,-0.399 0.238,-0.398C0.244,-0.398 0.251,-0.398 0.258,-0.398C0.291,-0.398 0.318,-0.403 0.339,-0.414C0.376,-0.432 0.395,-0.464 0.395,-0.511C0.395,-0.546 0.382,-0.573 0.357,-0.592C0.333,-0.611 0.304,-0.62 0.271,-0.62C0.212,-0.62 0.172,-0.601 0.149,-0.562C0.137,-0.54 0.13,-0.509 0.128,-0.47L0.042,-0.47C0.042,-0.522 0.052,-0.566 0.073,-0.603C0.109,-0.668 0.172,-0.7 0.262,-0.7C0.333,-0.7 0.388,-0.684 0.427,-0.653C0.466,-0.621 0.486,-0.575 0.486,-0.515C0.486,-0.472 0.474,-0.437 0.451,-0.41C0.437,-0.394 0.418,-0.381 0.396,-0.371C0.432,-0.361 0.461,-0.342 0.482,-0.313C0.502,-0.284 0.513,-0.249 0.513,-0.207C0.513,-0.14 0.491,-0.086 0.447,-0.044C0.403,-0.002 0.34,0.019 0.26,0.019Z" style="fill-rule:nonzero;"/>
                </g>
                <g transform="matrix(8.61506,0,0,8.61506,388.394,109.846)">
                    <path d="M0.096,-0.495L0.096,-0.563C0.159,-0.569 0.203,-0.579 0.229,-0.594C0.254,-0.608 0.272,-0.642 0.285,-0.696L0.354,-0.696L0.354,-0L0.26,-0L0.26,-0.495L0.096,-0.495Z" style="fill-rule:nonzero;"/>
                </g>
            </g>
            <g>
                <g transform="matrix(8.61506,0,0,8.61506,469.755,99.7911)">
                    <path d="M0.01,-0.523C0.021,-0.527 0.038,-0.529 0.062,-0.53C0.105,-0.53 0.136,-0.511 0.155,-0.472L0.271,-0.263L0.424,-0.52L0.525,-0.52L0.32,-0.172L0.467,0.083C0.478,0.106 0.494,0.118 0.515,0.118C0.531,0.118 0.542,0.116 0.549,0.113L0.549,0.191C0.533,0.194 0.516,0.195 0.497,0.196C0.469,0.195 0.447,0.188 0.43,0.173C0.413,0.158 0.397,0.139 0.384,0.115L0.271,-0.09L0.108,0.186L0.007,0.186L0.223,-0.172L0.089,-0.414C0.082,-0.427 0.075,-0.437 0.068,-0.443C0.061,-0.449 0.049,-0.452 0.034,-0.452C0.026,-0.451 0.018,-0.45 0.01,-0.448L0.01,-0.523Z" style="fill-rule:nonzero;"/>
                </g>
                <g transform="matrix(8.61506,0,0,8.61506,474.545,99.7911)">
                    <path d="M0.26,0.019C0.177,0.019 0.117,-0.004 0.08,-0.049C0.043,-0.094 0.024,-0.15 0.024,-0.215L0.116,-0.215C0.12,-0.17 0.128,-0.137 0.141,-0.116C0.164,-0.079 0.205,-0.061 0.265,-0.061C0.311,-0.061 0.348,-0.073 0.376,-0.098C0.404,-0.123 0.418,-0.155 0.418,-0.194C0.418,-0.242 0.403,-0.276 0.374,-0.295C0.344,-0.314 0.303,-0.324 0.251,-0.324C0.245,-0.324 0.239,-0.324 0.233,-0.323C0.227,-0.323 0.221,-0.323 0.215,-0.323L0.215,-0.4C0.224,-0.399 0.232,-0.399 0.238,-0.398C0.244,-0.398 0.251,-0.398 0.258,-0.398C0.291,-0.398 0.318,-0.403 0.339,-0.414C0.376,-0.432 0.395,-0.464 0.395,-0.511C0.395,-0.546 0.382,-0.573 0.357,-0.592C0.333,-0.611 0.304,-0.62 0.271,-0.62C0.212,-0.62 0.172,-0.601 0.149,-0.562C0.137,-0.54 0.13,-0.509 0.128,-0.47L0.042,-0.47C0.042,-0.522 0.052,-0.566 0.073,-0.603C0.109,-0.668 0.172,-0.7 0.262,-0.7C0.333,-0.7 0.388,-0.684 0.427,-0.653C0.466,-0.621 0.486,-0.575 0.486,-0.515C0.486,-0.472 0.474,-0.437 0.451,-0.41C0.437,-0.394 0.418,-0.381 0.396,-0.371C0.432,-0.361 0.461,-0.342 0.482,-0.313C0.502,-0.284 0.513,-0.249 0.513,-0.207C0.513,-0.14 0.491,-0.086 0.447,-0.044C0.403,-0.002 0.34,0.019 0.26,0.019Z" style="fill-rule:nonzero;"/>
                </g>
                <g transform="matrix(8.61506,0,0,8.61506,469.755,109.846)">
                    <path d="M0.031,-0C0.035,-0.06 0.047,-0.113 0.069,-0.157C0.09,-0.202 0.132,-0.242 0.195,-0.279L0.289,-0.333C0.331,-0.357 0.361,-0.378 0.377,-0.396C0.404,-0.423 0.417,-0.453 0.417,-0.488C0.417,-0.529 0.405,-0.561 0.381,-0.585C0.356,-0.609 0.324,-0.621 0.283,-0.621C0.223,-0.621 0.181,-0.598 0.158,-0.553C0.146,-0.528 0.139,-0.494 0.138,-0.451L0.048,-0.451C0.049,-0.512 0.061,-0.562 0.082,-0.6C0.12,-0.668 0.187,-0.702 0.284,-0.702C0.364,-0.702 0.422,-0.68 0.459,-0.637C0.496,-0.593 0.515,-0.545 0.515,-0.492C0.515,-0.436 0.495,-0.388 0.456,-0.349C0.433,-0.326 0.392,-0.298 0.333,-0.265L0.266,-0.228C0.234,-0.21 0.209,-0.193 0.191,-0.177C0.158,-0.149 0.138,-0.118 0.129,-0.083L0.511,-0.083L0.511,-0L0.031,-0Z" style="fill-rule:nonzero;"/>
                </g>
                <g transform="matrix(8.61506,0,0,8.61506,474.545,109.846)">
                    <path d="M0.133,-0.169C0.135,-0.12 0.154,-0.087 0.189,-0.068C0.207,-0.059 0.227,-0.054 0.25,-0.054C0.292,-0.054 0.327,-0.071 0.357,-0.106C0.387,-0.141 0.408,-0.212 0.42,-0.319C0.4,-0.288 0.376,-0.267 0.347,-0.254C0.319,-0.242 0.288,-0.235 0.254,-0.235C0.187,-0.235 0.134,-0.256 0.094,-0.298C0.055,-0.34 0.036,-0.394 0.036,-0.46C0.036,-0.524 0.055,-0.58 0.094,-0.628C0.132,-0.676 0.19,-0.7 0.265,-0.7C0.367,-0.7 0.437,-0.654 0.476,-0.563C0.498,-0.512 0.508,-0.449 0.508,-0.373C0.508,-0.287 0.495,-0.212 0.47,-0.146C0.427,-0.035 0.355,0.02 0.253,0.02C0.185,0.02 0.133,0.002 0.097,-0.034C0.062,-0.07 0.044,-0.115 0.044,-0.169L0.133,-0.169ZM0.266,-0.313C0.301,-0.313 0.333,-0.324 0.362,-0.347C0.39,-0.37 0.405,-0.41 0.405,-0.467C0.405,-0.519 0.392,-0.557 0.366,-0.582C0.34,-0.608 0.307,-0.62 0.267,-0.62C0.224,-0.62 0.19,-0.606 0.165,-0.577C0.14,-0.548 0.127,-0.51 0.127,-0.461C0.127,-0.416 0.138,-0.38 0.16,-0.353C0.182,-0.326 0.218,-0.313 0.266,-0.313Z" style="fill-rule:nonzero;"/>
                </g>
            </g>
            <g>
                <g transform="matrix(8.61506,0,0,8.61506,555.905,99.7911)">
                    <path d="M0.01,-0.523C0.021,-0.527 0.038,-0.529 0.062,-0.53C0.105,-0.53 0.136,-0.511 0.155,-0.472L0.271,-0.263L0.424,-0.52L0.525,-0.52L0.32,-0.172L0.467,0.083C0.478,0.106 0.494,0.118 0.515,0.118C0.531,0.118 0.542,0.116 0.549,0.113L0.549,0.191C0.533,0.194 0.516,0.195 0.497,0.196C0.469,0.195 0.447,0.188 0.43,0.173C0.413,0.158 0.397,0.139 0.384,0.115L0.271,-0.09L0.108,0.186L0.007,0.186L0.223,-0.172L0.089,-0.414C0.082,-0.427 0.075,-0.437 0.068,-0.443C0.061,-0.449 0.049,-0.452 0.034,-0.452C0.026,-0.451 0.018,-0.45 0.01,-0.448L0.01,-0.523Z" style="fill-rule:nonzero;"/>
                </g>
                <g transform="matrix(8.61506,0,0,8.61506,560.695,99.7911)">
                    <path d="M0.331,-0.248L0.331,-0.564L0.106,-0.248L0.331,-0.248ZM0.332,-0L0.332,-0.171L0.025,-0.171L0.025,-0.257L0.346,-0.701L0.42,-0.701L0.42,-0.248L0.523,-0.248L0.523,-0.171L0.42,-0.171L0.42,-0L0.332,-0Z" style="fill-rule:nonzero;"/>
                </g>
                <g transform="matrix(8.61506,0,0,8.61506,555.905,109.846)">
                    <path d="M0.031,-0C0.035,-0.06 0.047,-0.113 0.069,-0.157C0.09,-0.202 0.132,-0.242 0.195,-0.279L0.289,-0.333C0.331,-0.357 0.361,-0.378 0.377,-0.396C0.404,-0.423 0.417,-0.453 0.417,-0.488C0.417,-0.529 0.405,-0.561 0.381,-0.585C0.356,-0.609 0.324,-0.621 0.283,-0.621C0.223,-0.621 0.181,-0.598 0.158,-0.553C0.146,-0.528 0.139,-0.494 0.138,-0.451L0.048,-0.451C0.049,-0.512 0.061,-0.562 0.082,-0.6C0.12,-0.668 0.187,-0.702 0.284,-0.702C0.364,-0.702 0.422,-0.68 0.459,-0.637C0.496,-0.593 0.515,-0.545 0.515,-0.492C0.515,-0.436 0.495,-0.388 0.456,-0.349C0.433,-0.326 0.392,-0.298 0.333,-0.265L0.266,-0.228C0.234,-0.21 0.209,-0.193 0.191,-0.177C0.158,-0.149 0.138,-0.118 0.129,-0.083L0.511,-0.083L0.511,-0L0.031,-0Z" style="fill-rule:nonzero;"/>
                </g>
                <g transform="matrix(8.61506,0,0,8.61506,560.695,109.846)">
                    <path d="M0.292,-0.702C0.371,-0.702 0.425,-0.682 0.456,-0.641C0.487,-0.601 0.502,-0.559 0.502,-0.516L0.415,-0.516C0.41,-0.544 0.402,-0.565 0.39,-0.581C0.369,-0.61 0.337,-0.625 0.294,-0.625C0.245,-0.625 0.206,-0.602 0.177,-0.557C0.148,-0.511 0.132,-0.446 0.128,-0.362C0.149,-0.391 0.174,-0.414 0.205,-0.428C0.233,-0.441 0.264,-0.448 0.298,-0.448C0.357,-0.448 0.408,-0.429 0.452,-0.392C0.495,-0.354 0.517,-0.298 0.517,-0.224C0.517,-0.161 0.496,-0.104 0.455,-0.055C0.414,-0.006 0.355,0.018 0.278,0.018C0.213,0.018 0.156,-0.007 0.109,-0.056C0.061,-0.106 0.038,-0.19 0.038,-0.307C0.038,-0.394 0.048,-0.468 0.069,-0.528C0.11,-0.644 0.184,-0.702 0.292,-0.702ZM0.286,-0.06C0.332,-0.06 0.367,-0.076 0.39,-0.107C0.413,-0.138 0.424,-0.174 0.424,-0.217C0.424,-0.253 0.414,-0.287 0.394,-0.319C0.373,-0.351 0.336,-0.368 0.282,-0.368C0.244,-0.368 0.211,-0.355 0.182,-0.33C0.154,-0.305 0.14,-0.267 0.14,-0.217C0.14,-0.173 0.153,-0.135 0.178,-0.105C0.204,-0.075 0.24,-0.06 0.286,-0.06Z" style="fill-rule:nonzero;"/>
                </g>
            </g>
            <g>
                <g transform="matrix(8.61506,0,0,8.61506,642.056,99.7911)">
                    <path d="M0.01,-0.523C0.021,-0.527 0.038,-0.529 0.062,-0.53C0.105,-0.53 0.136,-0.511 0.155,-0.472L0.271,-0.263L0.424,-0.52L0.525,-0.52L0.32,-0.172L0.467,0.083C0.478,0.106 0.494,0.118 0.515,0.118C0.531,0.118 0.542,0.116 0.549,0.113L0.549,0.191C0.533,0.194 0.516,0.195 0.497,0.196C0.469,0.195 0.447,0.188 0.43,0.173C0.413,0.158 0.397,0.139 0.384,0.115L0.271,-0.09L0.108,0.186L0.007,0.186L0.223,-0.172L0.089,-0.414C0.082,-0.427 0.075,-0.437 0.068,-0.443C0.061,-0.449 0.049,-0.452 0.034,-0.452C0.026,-0.451 0.018,-0.45 0.01,-0.448L0.01,-0.523Z" style="fill-rule:nonzero;"/>
                </g>
                <g transform="matrix(8.61506,0,0,8.61506,646.846,99.7911)">
                    <path d="M0.124,-0.178C0.129,-0.128 0.153,-0.093 0.193,-0.074C0.214,-0.064 0.238,-0.06 0.266,-0.06C0.318,-0.06 0.356,-0.076 0.381,-0.109C0.406,-0.143 0.419,-0.179 0.419,-0.22C0.419,-0.269 0.404,-0.306 0.374,-0.333C0.344,-0.36 0.309,-0.373 0.267,-0.373C0.237,-0.373 0.211,-0.367 0.189,-0.355C0.168,-0.344 0.149,-0.327 0.134,-0.307L0.058,-0.311L0.111,-0.688L0.474,-0.688L0.474,-0.603L0.177,-0.603L0.147,-0.408C0.163,-0.421 0.179,-0.43 0.193,-0.436C0.219,-0.447 0.25,-0.452 0.284,-0.452C0.348,-0.452 0.402,-0.431 0.447,-0.39C0.491,-0.349 0.514,-0.296 0.514,-0.233C0.514,-0.167 0.493,-0.109 0.452,-0.058C0.412,-0.008 0.346,0.018 0.257,0.018C0.2,0.018 0.149,0.002 0.106,-0.031C0.062,-0.063 0.037,-0.112 0.032,-0.178L0.124,-0.178Z" style="fill-rule:nonzero;"/>
                </g>
                <g transform="matrix(8.61506,0,0,8.61506,642.056,109.846)">
                    <path d="M0.031,-0C0.035,-0.06 0.047,-0.113 0.069,-0.157C0.09,-0.202 0.132,-0.242 0.195,-0.279L0.289,-0.333C0.331,-0.357 0.361,-0.378 0.377,-0.396C0.404,-0.423 0.417,-0.453 0.417,-0.488C0.417,-0.529 0.405,-0.561 0.381,-0.585C0.356,-0.609 0.324,-0.621 0.283,-0.621C0.223,-0.621 0.181,-0.598 0.158,-0.553C0.146,-0.528 0.139,-0.494 0.138,-0.451L0.048,-0.451C0.049,-0.512 0.061,-0.562 0.082,-0.6C0.12,-0.668 0.187,-0.702 0.284,-0.702C0.364,-0.702 0.422,-0.68 0.459,-0.637C0.496,-0.593 0.515,-0.545 0.515,-0.492C0.515,-0.436 0.495,-0.388 0.456,-0.349C0.433,-0.326 0.392,-0.298 0.333,-0.265L0.266,-0.228C0.234,-0.21 0.209,-0.193 0.191,-0.177C0.158,-0.149 0.138,-0.118 0.129,-0.083L0.511,-0.083L0.511,-0L0.031,-0Z" style="fill-rule:nonzero;"/>
                </g>
                <g transform="matrix(8.61506,0,0,8.61506,646.846,109.846)">
                    <path d="M0.26,0.019C0.177,0.019 0.117,-0.004 0.08,-0.049C0.043,-0.094 0.024,-0.15 0.024,-0.215L0.116,-0.215C0.12,-0.17 0.128,-0.137 0.141,-0.116C0.164,-0.079 0.205,-0.061 0.265,-0.061C0.311,-0.061 0.348,-0.073 0.376,-0.098C0.404,-0.123 0.418,-0.155 0.418,-0.194C0.418,-0.242 0.403,-0.276 0.374,-0.295C0.344,-0.314 0.303,-0.324 0.251,-0.324C0.245,-0.324 0.239,-0.324 0.233,-0.323C0.227,-0.323 0.221,-0.323 0.215,-0.323L0.215,-0.4C0.224,-0.399 0.232,-0.399 0.238,-0.398C0.244,-0.398 0.251,-0.398 0.258,-0.398C0.291,-0.398 0.318,-0.403 0.339,-0.414C0.376,-0.432 0.395,-0.464 0.395,-0.511C0.395,-0.546 0.382,-0.573 0.357,-0.592C0.333,-0.611 0.304,-0.62 0.271,-0.62C0.212,-0.62 0.172,-0.601 0.149,-0.562C0.137,-0.54 0.13,-0.509 0.128,-0.47L0.042,-0.47C0.042,-0.522 0.052,-0.566 0.073,-0.603C0.109,-0.668 0.172,-0.7 0.262,-0.7C0.333,-0.7 0.388,-0.684 0.427,-0.653C0.466,-0.621 0.486,-0.575 0.486,-0.515C0.486,-0.472 0.474,-0.437 0.451,-0.41C0.437,-0.394 0.418,-0.381 0.396,-0.371C0.432,-0.361 0.461,-0.342 0.482,-0.313C0.502,-0.284 0.513,-0.249 0.513,-0.207C0.513,-0.14 0.491,-0.086 0.447,-0.044C0.403,-0.002 0.34,0.019 0.26,0.019Z" style="fill-rule:nonzero;"/>
                </g>
            </g>
            <g>
                <g transform="matrix(8.61506,0,0,8.61506,296.739,185.942)">
                    <path d="M0.07,-0.52L0.16,-0.52L0.16,-0.24C0.16,-0.205 0.164,-0.177 0.173,-0.156C0.182,-0.135 0.193,-0.118 0.207,-0.106C0.221,-0.095 0.238,-0.087 0.257,-0.082C0.275,-0.077 0.295,-0.074 0.316,-0.072L0.316,-0.648L0.406,-0.648L0.406,-0.072C0.428,-0.074 0.449,-0.077 0.468,-0.082C0.487,-0.087 0.503,-0.095 0.517,-0.106C0.532,-0.118 0.543,-0.135 0.551,-0.156C0.558,-0.177 0.562,-0.205 0.562,-0.24L0.562,-0.52L0.652,-0.52L0.652,-0.213C0.651,-0.139 0.629,-0.086 0.584,-0.054C0.54,-0.021 0.481,-0.003 0.406,-0L0.406,0.196L0.316,0.196L0.316,-0C0.243,-0.003 0.184,-0.021 0.14,-0.054C0.094,-0.086 0.07,-0.139 0.07,-0.213L0.07,-0.52Z" style="fill-rule:nonzero;"/>
                </g>
                <g transform="matrix(8.61506,0,0,8.61506,302.959,185.942)">
                    <path d="M0.096,-0.495L0.096,-0.563C0.159,-0.569 0.203,-0.579 0.229,-0.594C0.254,-0.608 0.272,-0.642 0.285,-0.696L0.354,-0.696L0.354,-0L0.26,-0L0.26,-0.495L0.096,-0.495Z" style="fill-rule:nonzero;"/>
                </g>
                <g transform="matrix(8.61506,0,0,8.61506,297.454,195.997)">
                    <path d="M0.331,-0.248L0.331,-0.564L0.106,-0.248L0.331,-0.248ZM0.332,-0L0.332,-0.171L0.025,-0.171L0.025,-0.257L0.346,-0.701L0.42,-0.701L0.42,-0.248L0.523,-0.248L0.523,-0.171L0.42,-0.171L0.42,-0L0.332,-0Z" style="fill-rule:nonzero;"/>
                </g>
                <g transform="matrix(8.61506,0,0,8.61506,302.244,195.997)">
                    <path d="M0.26,0.019C0.177,0.019 0.117,-0.004 0.08,-0.049C0.043,-0.094 0.024,-0.15 0.024,-0.215L0.116,-0.215C0.12,-0.17 0.128,-0.137 0.141,-0.116C0.164,-0.079 0.205,-0.061 0.265,-0.061C0.311,-0.061 0.348,-0.073 0.376,-0.098C0.404,-0.123 0.418,-0.155 0.418,-0.194C0.418,-0.242 0.403,-0.276 0.374,-0.295C0.344,-0.314 0.303,-0.324 0.251,-0.324C0.245,-0.324 0.239,-0.324 0.233,-0.323C0.227,-0.323 0.221,-0.323 0.215,-0.323L0.215,-0.4C0.224,-0.399 0.232,-0.399 0.238,-0.398C0.244,-0.398 0.251,-0.398 0.258,-0.398C0.291,-0.398 0.318,-0.403 0.339,-0.414C0.376,-0.432 0.395,-0.464 0.395,-0.511C0.395,-0.546 0.382,-0.573 0.357,-0.592C0.333,-0.611 0.304,-0.62 0.271,-0.62C0.212,-0.62 0.172,-0.601 0.149,-0.562C0.137,-0.54 0.13,-0.509 0.128,-0.47L0.042,-0.47C0.042,-0.522 0.052,-0.566 0.073,-0.603C0.109,-0.668 0.172,-0.7 0.262,-0.7C0.333,-0.7 0.388,-0.684 0.427,-0.653C0.466,-0.621 0.486,-0.575 0.486,-0.515C0.486,-0.472 0.474,-0.437 0.451,-0.41C0.437,-0.394 0.418,-0.381 0.396,-0.371C0.432,-0.361 0.461,-0.342 0.482,-0.313C0.502,-0.284 0.513,-0.249 0.513,-0.207C0.513,-0.14 0.491,-0.086 0.447,-0.044C0.403,-0.002 0.34,0.019 0.26,0.019Z" style="fill-rule:nonzero;"/>
                </g>
            </g>
            <g>
                <g transform="matrix(8.61506,0,0,8.61506,382.889,185.942)">
                    <path d="M0.07,-0.52L0.16,-0.52L0.16,-0.24C0.16,-0.205 0.164,-0.177 0.173,-0.156C0.182,-0.135 0.193,-0.118 0.207,-0.106C0.221,-0.095 0.238,-0.087 0.257,-0.082C0.275,-0.077 0.295,-0.074 0.316,-0.072L0.316,-0.648L0.406,-0.648L0.406,-0.072C0.428,-0.074 0.449,-0.077 0.468,-0.082C0.487,-0.087 0.503,-0.095 0.517,-0.106C0.532,-0.118 0.543,-0.135 0.551,-0.156C0.558,-0.177 0.562,-0.205 0.562,-0.24L0.562,-0.52L0.652,-0.52L0.652,-0.213C0.651,-0.139 0.629,-0.086 0.584,-0.054C0.54,-0.021 0.481,-0.003 0.406,-0L0.406,0.196L0.316,0.196L0.316,-0C0.243,-0.003 0.184,-0.021 0.14,-0.054C0.094,-0.086 0.07,-0.139 0.07,-0.213L0.07,-0.52Z" style="fill-rule:nonzero;"/>
                </g>
                <g transform="matrix(8.61506,0,0,8.61506,389.109,185.942)">
                    <path d="M0.031,-0C0.035,-0.06 0.047,-0.113 0.069,-0.157C0.09,-0.202 0.132,-0.242 0.195,-0.279L0.289,-0.333C0.331,-0.357 0.361,-0.378 0.377,-0.396C0.404,-0.423 0.417,-0.453 0.417,-0.488C0.417,-0.529 0.405,-0.561 0.381,-0.585C0.356,-0.609 0.324,-0.621 0.283,-0.621C0.223,-0.621 0.181,-0.598 0.158,-0.553C0.146,-0.528 0.139,-0.494 0.138,-0.451L0.048,-0.451C0.049,-0.512 0.061,-0.562 0.082,-0.6C0.12,-0.668 0.187,-0.702 0.284,-0.702C0.364,-0.702 0.422,-0.68 0.459,-0.637C0.496,-0.593 0.515,-0.545 0.515,-0.492C0.515,-0.436 0.495,-0.388 0.456,-0.349C0.433,-0.326 0.392,-0.298 0.333,-0.265L0.266,-0.228C0.234,-0.21 0.209,-0.193 0.191,-0.177C0.158,-0.149 0.138,-0.118 0.129,-0.083L0.511,-0.083L0.511,-0L0.031,-0Z" style="fill-rule:nonzero;"/>
                </g>
                <g transform="matrix(8.61506,0,0,8.61506,383.604,195.997)">
                    <path d="M0.331,-0.248L0.331,-0.564L0.106,-0.248L0.331,-0.248ZM0.332,-0L0.332,-0.171L0.025,-0.171L0.025,-0.257L0.346,-0.701L0.42,-0.701L0.42,-0.248L0.523,-0.248L0.523,-0.171L0.42,-0.171L0.42,-0L0.332,-0Z" style="fill-rule:nonzero;"/>
                </g>
                <g transform="matrix(8.61506,0,0,8.61506,388.394,195.997)">
                    <path d="M0.523,-0.688L0.523,-0.611C0.5,-0.589 0.471,-0.551 0.433,-0.497C0.396,-0.443 0.363,-0.385 0.334,-0.322C0.306,-0.261 0.285,-0.206 0.27,-0.156C0.261,-0.124 0.248,-0.072 0.233,-0L0.136,-0C0.158,-0.133 0.207,-0.266 0.283,-0.398C0.327,-0.476 0.374,-0.543 0.423,-0.599L0.037,-0.599L0.037,-0.688L0.523,-0.688Z" style="fill-rule:nonzero;"/>
                </g>
            </g>
            <g>
                <g transform="matrix(8.61506,0,0,8.61506,469.04,185.942)">
                    <path d="M0.07,-0.52L0.16,-0.52L0.16,-0.24C0.16,-0.205 0.164,-0.177 0.173,-0.156C0.182,-0.135 0.193,-0.118 0.207,-0.106C0.221,-0.095 0.238,-0.087 0.257,-0.082C0.275,-0.077 0.295,-0.074 0.316,-0.072L0.316,-0.648L0.406,-0.648L0.406,-0.072C0.428,-0.074 0.449,-0.077 0.468,-0.082C0.487,-0.087 0.503,-0.095 0.517,-0.106C0.532,-0.118 0.543,-0.135 0.551,-0.156C0.558,-0.177 0.562,-0.205 0.562,-0.24L0.562,-0.52L0.652,-0.52L0.652,-0.213C0.651,-0.139 0.629,-0.086 0.584,-0.054C0.54,-0.021 0.481,-0.003 0.406,-0L0.406,0.196L0.316,0.196L0.316,-0C0.243,-0.003 0.184,-0.021 0.14,-0.054C0.094,-0.086 0.07,-0.139 0.07,-0.213L0.07,-0.52Z" style="fill-rule:nonzero;"/>
                </g>
                <g transform="matrix(8.61506,0,0,8.61506,475.26,185.942)">
                    <path d="M0.26,0.019C0.177,0.019 0.117,-0.004 0.08,-0.049C0.043,-0.094 0.024,-0.15 0.024,-0.215L0.116,-0.215C0.12,-0.17 0.128,-0.137 0.141,-0.116C0.164,-0.079 0.205,-0.061 0.265,-0.061C0.311,-0.061 0.348,-0.073 0.376,-0.098C0.404,-0.123 0.418,-0.155 0.418,-0.194C0.418,-0.242 0.403,-0.276 0.374,-0.295C0.344,-0.314 0.303,-0.324 0.251,-0.324C0.245,-0.324 0.239,-0.324 0.233,-0.323C0.227,-0.323 0.221,-0.323 0.215,-0.323L0.215,-0.4C0.224,-0.399 0.232,-0.399 0.238,-0.398C0.244,-0.398 0.251,-0.398 0.258,-0.398C0.291,-0.398 0.318,-0.403 0.339,-0.414C0.376,-0.432 0.395,-0.464 0.395,-0.511C0.395,-0.546 0.382,-0.573 0.357,-0.592C0.333,-0.611 0.304,-0.62 0.271,-0.62C0.212,-0.62 0.172,-0.601 0.149,-0.562C0.137,-0.54 0.13,-0.509 0.128,-0.47L0.042,-0.47C0.042,-0.522 0.052,-0.566 0.073,-0.603C0.109,-0.668 0.172,-0.7 0.262,-0.7C0.333,-0.7 0.388,-0.684 0.427,-0.653C0.466,-0.621 0.486,-0.575 0.486,-0.515C0.486,-0.472 0.474,-0.437 0.451,-0.41C0.437,-0.394 0.418,-0.381 0.396,-0.371C0.432,-0.361 0.461,-0.342 0.482,-0.313C0.502,-0.284 0.513,-0.249 0.513,-0.207C0.513,-0.14 0.491,-0.086 0.447,-0.044C0.403,-0.002 0.34,0.019 0.26,0.019Z" style="fill-rule:nonzero;"/>
                </g>
                <g transform="matrix(8.61506,0,0,8.61506,469.755,195.997)">
                    <path d="M0.124,-0.178C0.129,-0.128 0.153,-0.093 0.193,-0.074C0.214,-0.064 0.238,-0.06 0.266,-0.06C0.318,-0.06 0.356,-0.076 0.381,-0.109C0.406,-0.143 0.419,-0.179 0.419,-0.22C0.419,-0.269 0.404,-0.306 0.374,-0.333C0.344,-0.36 0.309,-0.373 0.267,-0.373C0.237,-0.373 0.211,-0.367 0.189,-0.355C0.168,-0.344 0.149,-0.327 0.134,-0.307L0.058,-0.311L0.111,-0.688L0.474,-0.688L0.474,-0.603L0.177,-0.603L0.147,-0.408C0.163,-0.421 0.179,-0.43 0.193,-0.436C0.219,-0.447 0.25,-0.452 0.284,-0.452C0.348,-0.452 0.402,-0.431 0.447,-0.39C0.491,-0.349 0.514,-0.296 0.514,-0.233C0.514,-0.167 0.493,-0.109 0.452,-0.058C0.412,-0.008 0.346,0.018 0.257,0.018C0.2,0.018 0.149,0.002 0.106,-0.031C0.062,-0.063 0.037,-0.112 0.032,-0.178L0.124,-0.178Z" style="fill-rule:nonzero;"/>
                </g>
                <g transform="matrix(8.61506,0,0,8.61506,474.545,195.997)">
                    <path d="M0.096,-0.495L0.096,-0.563C0.159,-0.569 0.203,-0.579 0.229,-0.594C0.254,-0.608 0.272,-0.642 0.285,-0.696L0.354,-0.696L0.354,-0L0.26,-0L0.26,-0.495L0.096,-0.495Z" style="fill-rule:nonzero;"/>
                </g>
            </g>
            <g>
                <g transform="matrix(8.61506,0,0,8.61506,555.19,185.942)">
                    <path d="M0.07,-0.52L0.16,-0.52L0.16,-0.24C0.16,-0.205 0.164,-0.177 0.173,-0.156C0.182,-0.135 0.193,-0.118 0.207,-0.106C0.221,-0.095 0.238,-0.087 0.257,-0.082C0.275,-0.077 0.295,-0.074 0.316,-0.072L0.316,-0.648L0.406,-0.648L0.406,-0.072C0.428,-0.074 0.449,-0.077 0.468,-0.082C0.487,-0.087 0.503,-0.095 0.517,-0.106C0.532,-0.118 0.543,-0.135 0.551,-0.156C0.558,-0.177 0.562,-0.205 0.562,-0.24L0.562,-0.52L0.652,-0.52L0.652,-0.213C0.651,-0.139 0.629,-0.086 0.584,-0.054C0.54,-0.021 0.481,-0.003 0.406,-0L0.406,0.196L0.316,0.196L0.316,-0C0.243,-0.003 0.184,-0.021 0.14,-0.054C0.094,-0.086 0.07,-0.139 0.07,-0.213L0.07,-0.52Z" style="fill-rule:nonzero;"/>
                </g>
                <g transform="matrix(8.61506,0,0,8.61506,561.41,185.942)">
                    <path d="M0.331,-0.248L0.331,-0.564L0.106,-0.248L0.331,-0.248ZM0.332,-0L0.332,-0.171L0.025,-0.171L0.025,-0.257L0.346,-0.701L0.42,-0.701L0.42,-0.248L0.523,-0.248L0.523,-0.171L0.42,-0.171L0.42,-0L0.332,-0Z" style="fill-rule:nonzero;"/>
                </g>
                <g transform="matrix(8.61506,0,0,8.61506,555.905,195.997)">
                    <path d="M0.124,-0.178C0.129,-0.128 0.153,-0.093 0.193,-0.074C0.214,-0.064 0.238,-0.06 0.266,-0.06C0.318,-0.06 0.356,-0.076 0.381,-0.109C0.406,-0.143 0.419,-0.179 0.419,-0.22C0.419,-0.269 0.404,-0.306 0.374,-0.333C0.344,-0.36 0.309,-0.373 0.267,-0.373C0.237,-0.373 0.211,-0.367 0.189,-0.355C0.168,-0.344 0.149,-0.327 0.134,-0.307L0.058,-0.311L0.111,-0.688L0.474,-0.688L0.474,-0.603L0.177,-0.603L0.147,-0.408C0.163,-0.421 0.179,-0.43 0.193,-0.436C0.219,-0.447 0.25,-0.452 0.284,-0.452C0.348,-0.452 0.402,-0.431 0.447,-0.39C0.491,-0.349 0.514,-0.296 0.514,-0.233C0.514,-0.167 0.493,-0.109 0.452,-0.058C0.412,-0.008 0.346,0.018 0.257,0.018C0.2,0.018 0.149,0.002 0.106,-0.031C0.062,-0.063 0.037,-0.112 0.032,-0.178L0.124,-0.178Z" style="fill-rule:nonzero;"/>
                </g>
                <g transform="matrix(8.61506,0,0,8.61506,560.695,195.997)">
                    <path d="M0.26,0.019C0.177,0.019 0.117,-0.004 0.08,-0.049C0.043,-0.094 0.024,-0.15 0.024,-0.215L0.116,-0.215C0.12,-0.17 0.128,-0.137 0.141,-0.116C0.164,-0.079 0.205,-0.061 0.265,-0.061C0.311,-0.061 0.348,-0.073 0.376,-0.098C0.404,-0.123 0.418,-0.155 0.418,-0.194C0.418,-0.242 0.403,-0.276 0.374,-0.295C0.344,-0.314 0.303,-0.324 0.251,-0.324C0.245,-0.324 0.239,-0.324 0.233,-0.323C0.227,-0.323 0.221,-0.323 0.215,-0.323L0.215,-0.4C0.224,-0.399 0.232,-0.399 0.238,-0.398C0.244,-0.398 0.251,-0.398 0.258,-0.398C0.291,-0.398 0.318,-0.403 0.339,-0.414C0.376,-0.432 0.395,-0.464 0.395,-0.511C0.395,-0.546 0.382,-0.573 0.357,-0.592C0.333,-0.611 0.304,-0.62 0.271,-0.62C0.212,-0.62 0.172,-0.601 0.149,-0.562C0.137,-0.54 0.13,-0.509 0.128,-0.47L0.042,-0.47C0.042,-0.522 0.052,-0.566 0.073,-0.603C0.109,-0.668 0.172,-0.7 0.262,-0.7C0.333,-0.7 0.388,-0.684 0.427,-0.653C0.466,-0.621 0.486,-0.575 0.486,-0.515C0.486,-0.472 0.474,-0.437 0.451,-0.41C0.437,-0.394 0.418,-0.381 0.396,-0.371C0.432,-0.361 0.461,-0.342 0.482,-0.313C0.502,-0.284 0.513,-0.249 0.513,-0.207C0.513,-0.14 0.491,-0.086 0.447,-0.044C0.403,-0.002 0.34,0.019 0.26,0.019Z" style="fill-rule:nonzero;"/>
                </g>
            </g>
            <g>
                <g transform="matrix(8.61506,0,0,8.61506,641.341,185.942)">
                    <path d="M0.07,-0.52L0.16,-0.52L0.16,-0.24C0.16,-0.205 0.164,-0.177 0.173,-0.156C0.182,-0.135 0.193,-0.118 0.207,-0.106C0.221,-0.095 0.238,-0.087 0.257,-0.082C0.275,-0.077 0.295,-0.074 0.316,-0.072L0.316,-0.648L0.406,-0.648L0.406,-0.072C0.428,-0.074 0.449,-0.077 0.468,-0.082C0.487,-0.087 0.503,-0.095 0.517,-0.106C0.532,-0.118 0.543,-0.135 0.551,-0.156C0.558,-0.177 0.562,-0.205 0.562,-0.24L0.562,-0.52L0.652,-0.52L0.652,-0.213C0.651,-0.139 0.629,-0.086 0.584,-0.054C0.54,-0.021 0.481,-0.003 0.406,-0L0.406,0.196L0.316,0.196L0.316,-0C0.243,-0.003 0.184,-0.021 0.14,-0.054C0.094,-0.086 0.07,-0.139 0.07,-0.213L0.07,-0.52Z" style="fill-rule:nonzero;"/>
                </g>
                <g transform="matrix(8.61506,0,0,8.61506,647.561,185.942)">
                    <path d="M0.124,-0.178C0.129,-0.128 0.153,-0.093 0.193,-0.074C0.214,-0.064 0.238,-0.06 0.266,-0.06C0.318,-0.06 0.356,-0.076 0.381,-0.109C0.406,-0.143 0.419,-0.179 0.419,-0.22C0.419,-0.269 0.404,-0.306 0.374,-0.333C0.344,-0.36 0.309,-0.373 0.267,-0.373C0.237,-0.373 0.211,-0.367 0.189,-0.355C0.168,-0.344 0.149,-0.327 0.134,-0.307L0.058,-0.311L0.111,-0.688L0.474,-0.688L0.474,-0.603L0.177,-0.603L0.147,-0.408C0.163,-0.421 0.179,-0.43 0.193,-0.436C0.219,-0.447 0.25,-0.452 0.284,-0.452C0.348,-0.452 0.402,-0.431 0.447,-0.39C0.491,-0.349 0.514,-0.296 0.514,-0.233C0.514,-0.167 0.493,-0.109 0.452,-0.058C0.412,-0.008 0.346,0.018 0.257,0.018C0.2,0.018 0.149,0.002 0.106,-0.031C0.062,-0.063 0.037,-0.112 0.032,-0.178L0.124,-0.178Z" style="fill-rule:nonzero;"/>
                </g>
                <g transform="matrix(8.61506,0,0,8.61506,642.056,195.997)">
                    <path d="M0.124,-0.178C0.129,-0.128 0.153,-0.093 0.193,-0.074C0.214,-0.064 0.238,-0.06 0.266,-0.06C0.318,-0.06 0.356,-0.076 0.381,-0.109C0.406,-0.143 0.419,-0.179 0.419,-0.22C0.419,-0.269 0.404,-0.306 0.374,-0.333C0.344,-0.36 0.309,-0.373 0.267,-0.373C0.237,-0.373 0.211,-0.367 0.189,-0.355C0.168,-0.344 0.149,-0.327 0.134,-0.307L0.058,-0.311L0.111,-0.688L0.474,-0.688L0.474,-0.603L0.177,-0.603L0.147,-0.408C0.163,-0.421 0.179,-0.43 0.193,-0.436C0.219,-0.447 0.25,-0.452 0.284,-0.452C0.348,-0.452 0.402,-0.431 0.447,-0.39C0.491,-0.349 0.514,-0.296 0.514,-0.233C0.514,-0.167 0.493,-0.109 0.452,-0.058C0.412,-0.008 0.346,0.018 0.257,0.018C0.2,0.018 0.149,0.002 0.106,-0.031C0.062,-0.063 0.037,-0.112 0.032,-0.178L0.124,-0.178Z" style="fill-rule:nonzero;"/>
                </g>
                <g transform="matrix(8.61506,0,0,8.61506,646.846,195.997)">
                    <path d="M0.133,-0.169C0.135,-0.12 0.154,-0.087 0.189,-0.068C0.207,-0.059 0.227,-0.054 0.25,-0.054C0.292,-0.054 0.327,-0.071 0.357,-0.106C0.387,-0.141 0.408,-0.212 0.42,-0.319C0.4,-0.288 0.376,-0.267 0.347,-0.254C0.319,-0.242 0.288,-0.235 0.254,-0.235C0.187,-0.235 0.134,-0.256 0.094,-0.298C0.055,-0.34 0.036,-0.394 0.036,-0.46C0.036,-0.524 0.055,-0.58 0.094,-0.628C0.132,-0.676 0.19,-0.7 0.265,-0.7C0.367,-0.7 0.437,-0.654 0.476,-0.563C0.498,-0.512 0.508,-0.449 0.508,-0.373C0.508,-0.287 0.495,-0.212 0.47,-0.146C0.427,-0.035 0.355,0.02 0.253,0.02C0.185,0.02 0.133,0.002 0.097,-0.034C0.062,-0.07 0.044,-0.115 0.044,-0.169L0.133,-0.169ZM0.266,-0.313C0.301,-0.313 0.333,-0.324 0.362,-0.347C0.39,-0.37 0.405,-0.41 0.405,-0.467C0.405,-0.519 0.392,-0.557 0.366,-0.582C0.34,-0.608 0.307,-0.62 0.267,-0.62C0.224,-0.62 0.19,-0.606 0.165,-0.577C0.14,-0.548 0.127,-0.51 0.127,-0.461C0.127,-0.416 0.138,-0.38 0.16,-0.353C0.182,-0.326 0.218,-0.313 0.266,-0.313Z" style="fill-rule:nonzero;"/>
                </g>
            </g>
            <g>
                <g transform="matrix(8.61506,0,0,8.61506,132.096,157.225)">
                    <path d="M0.09,-0.52L0.18,-0.52L0.18,-0.214C0.18,-0.169 0.188,-0.133 0.207,-0.108C0.225,-0.081 0.258,-0.068 0.305,-0.068C0.354,-0.068 0.387,-0.082 0.405,-0.109C0.422,-0.134 0.431,-0.169 0.431,-0.214L0.431,-0.52L0.521,-0.52L0.521,-0.126C0.519,-0.087 0.53,-0.068 0.554,-0.068C0.563,-0.068 0.573,-0.069 0.582,-0.071L0.582,-0C0.573,0.006 0.555,0.009 0.527,0.01C0.5,0.008 0.48,0.001 0.468,-0.01C0.455,-0.021 0.445,-0.037 0.438,-0.06C0.407,-0.015 0.363,0.008 0.307,0.01C0.259,0.01 0.217,-0.012 0.182,-0.056L0.18,-0.056L0.18,0.196L0.09,0.196L0.09,-0.52Z" style="fill-rule:nonzero;"/>
                </g>
                <g transform="matrix(8.61506,0,0,8.61506,137.351,157.225)">
                    <path d="M0.096,-0.495L0.096,-0.563C0.159,-0.569 0.203,-0.579 0.229,-0.594C0.254,-0.608 0.272,-0.642 0.285,-0.696L0.354,-0.696L0.354,-0L0.26,-0L0.26,-0.495L0.096,-0.495Z" style="fill-rule:nonzero;"/>
                </g>
                <g transform="matrix(8.61506,0,0,8.61506,132.332,167.28)">
                    <path d="M0.292,-0.702C0.371,-0.702 0.425,-0.682 0.456,-0.641C0.487,-0.601 0.502,-0.559 0.502,-0.516L0.415,-0.516C0.41,-0.544 0.402,-0.565 0.39,-0.581C0.369,-0.61 0.337,-0.625 0.294,-0.625C0.245,-0.625 0.206,-0.602 0.177,-0.557C0.148,-0.511 0.132,-0.446 0.128,-0.362C0.149,-0.391 0.174,-0.414 0.205,-0.428C0.233,-0.441 0.264,-0.448 0.298,-0.448C0.357,-0.448 0.408,-0.429 0.452,-0.392C0.495,-0.354 0.517,-0.298 0.517,-0.224C0.517,-0.161 0.496,-0.104 0.455,-0.055C0.414,-0.006 0.355,0.018 0.278,0.018C0.213,0.018 0.156,-0.007 0.109,-0.056C0.061,-0.106 0.038,-0.19 0.038,-0.307C0.038,-0.394 0.048,-0.468 0.069,-0.528C0.11,-0.644 0.184,-0.702 0.292,-0.702ZM0.286,-0.06C0.332,-0.06 0.367,-0.076 0.39,-0.107C0.413,-0.138 0.424,-0.174 0.424,-0.217C0.424,-0.253 0.414,-0.287 0.394,-0.319C0.373,-0.351 0.336,-0.368 0.282,-0.368C0.244,-0.368 0.211,-0.355 0.182,-0.33C0.154,-0.305 0.14,-0.267 0.14,-0.217C0.14,-0.173 0.153,-0.135 0.178,-0.105C0.204,-0.075 0.24,-0.06 0.286,-0.06Z" style="fill-rule:nonzero;"/>
                </g>
                <g transform="matrix(8.61506,0,0,8.61506,137.122,167.28)">
                    <path d="M0.096,-0.495L0.096,-0.563C0.159,-0.569 0.203,-0.579 0.229,-0.594C0.254,-0.608 0.272,-0.642 0.285,-0.696L0.354,-0.696L0.354,-0L0.26,-0L0.26,-0.495L0.096,-0.495Z" style="fill-rule:nonzero;"/>
                </g>
            </g>
            <g transform="matrix(0.717921,0,0,-0.717921,0,361.115)">
                <path d="M302,242L302,236L300,236L300,242L302,242ZM302,230L302,224L300,224L300,230L302,230ZM297,221L291,221L291,223L297,223L297,221ZM285,221L279,221L279,223L285,223L285,221ZM273,221L267,221L267,223L273,223L273,221ZM261,221L255,221L255,223L261,223L261,221ZM249,221L243,221L243,223L249,223L249,221ZM237,221L231,221L231,223L237,223L237,221ZM225,221L219,221L219,223L225,223L225,221ZM213,221L207,221L207,223L213,223L213,221ZM201,221L195,221L195,223L201,223L201,221ZM189,221L183,221L183,223L189,223L189,221ZM177,221L171,221L171,223L177,223L177,221ZM165,221L159,221L159,223L165,223L165,221ZM153,221L147,221L147,223L153,223L153,221ZM141,221L135,221L135,223L141,223L141,221ZM129,221L123,221L123,223L129,223L129,221ZM117,221L111,221L111,223L117,223L117,221ZM105,221L100,221L100,224L102,224L102,222L101,222L101,223L105,223L105,221ZM100,230L100,236L102,236L102,230L100,230ZM100,242L100,248L102,248L102,242L100,242ZM100,254L100,260L102,260L102,254L100,254ZM100,266L100,272L102,272L102,266L100,266ZM100,278L100,282L102,282L102,278L100,278Z" style="fill-rule:nonzero;"/>
            </g>
            <g transform="matrix(0.717921,0,0,-0.717921,0,346.038)">
                <path d="M341,262L347,262L347,260L341,260L341,262ZM353,262L359,262L359,260L353,260L353,262ZM362,257L362,251L360,251L360,257L362,257ZM362,245L362,239L360,239L360,245L362,245ZM362,233L362,227L360,227L360,233L362,233ZM361,222L367,222L367,220L361,220L361,222ZM373,222L379,222L379,220L373,220L373,222Z" style="fill-rule:nonzero;"/>
            </g>
            <g transform="matrix(0.717921,0,0,-0.717921,0.358961,317.68)">
                <path d="M341,221C341,219.69 340.936,218.383 340.807,217.079C340.679,215.776 340.487,214.481 340.231,213.196C339.976,211.912 339.658,210.642 339.278,209.389C338.897,208.135 338.456,206.903 337.955,205.693C337.454,204.482 336.894,203.3 336.277,202.144C335.659,200.989 334.987,199.866 334.259,198.777C333.531,197.688 332.751,196.637 331.92,195.624C331.089,194.612 330.211,193.642 329.284,192.716C328.358,191.789 327.388,190.911 326.376,190.08C325.363,189.249 324.312,188.469 323.223,187.741C322.134,187.013 321.011,186.341 319.856,185.723C318.7,185.106 317.518,184.546 316.307,184.045C315.097,183.544 313.865,183.103 312.611,182.722C311.358,182.342 310.088,182.024 308.804,181.769C307.519,181.513 306.224,181.321 304.921,181.193C303.617,181.064 302.31,181 301,181C299.69,181 298.383,181.064 297.079,181.193C295.776,181.321 294.481,181.513 293.196,181.769C291.911,182.024 290.642,182.342 289.389,182.722C288.135,183.103 286.903,183.544 285.693,184.045C284.482,184.546 283.299,185.106 282.144,185.723C280.989,186.341 279.866,187.013 278.777,187.741C277.688,188.469 276.637,189.249 275.624,190.08C274.612,190.911 273.642,191.789 272.716,192.716C271.789,193.642 270.911,194.612 270.08,195.624C269.248,196.637 268.469,197.688 267.741,198.777C267.013,199.866 266.341,200.989 265.723,202.144C265.106,203.299 264.546,204.482 264.045,205.693C263.543,206.903 263.103,208.135 262.722,209.389C262.342,210.642 262.024,211.912 261.769,213.196C261.513,214.481 261.321,215.776 261.193,217.079C261.064,218.383 261,219.69 261,221C261,222.31 261.064,223.617 261.193,224.921C261.321,226.224 261.513,227.519 261.769,228.804C262.024,230.089 262.342,231.358 262.722,232.611C263.103,233.865 263.543,235.097 264.045,236.307C264.546,237.518 265.106,238.701 265.723,239.856C266.341,241.011 267.013,242.134 267.741,243.223C268.469,244.312 269.248,245.363 270.08,246.376C270.911,247.388 271.789,248.358 272.716,249.284C273.642,250.211 274.612,251.089 275.624,251.92C276.637,252.752 277.688,253.531 278.777,254.259C279.866,254.987 280.989,255.659 282.144,256.277C283.299,256.894 284.482,257.454 285.693,257.955C286.903,258.457 288.135,258.897 289.389,259.278C290.642,259.658 291.911,259.976 293.196,260.231C294.481,260.487 295.776,260.679 297.079,260.807C298.383,260.936 299.69,261 301,261C302.31,261 303.617,260.936 304.921,260.807C306.224,260.679 307.519,260.487 308.804,260.231C310.088,259.976 311.358,259.658 312.611,259.278C313.865,258.897 315.097,258.457 316.307,257.955C317.518,257.454 318.7,256.894 319.856,256.277C321.011,255.659 322.133,254.987 323.223,254.259C324.312,253.531 325.363,252.752 326.376,251.92C327.388,251.089 328.358,250.211 329.284,249.284C330.211,248.358 331.089,247.388 331.92,246.376C332.751,245.363 333.531,244.312 334.259,243.223C334.987,242.134 335.659,241.011 336.277,239.856C336.894,238.701 337.454,237.518 337.955,236.307C338.456,235.097 338.897,233.865 339.278,232.611C339.658,231.358 339.976,230.089 340.231,228.804C340.487,227.519 340.679,226.224 340.807,224.921C340.936,223.617 341,222.31 341,221Z" style="fill:rgb(255,204,153);fill-rule:nonzero;stroke:rgb(54,57,61);stroke-width:1px;"/>
            </g>
            <g transform="matrix(0.717921,0,0,-0.717921,0.358961,533.057)">
                <rect x="381" y="341" width="560" height="60" style="fill:rgb(204,229,255);stroke:rgb(54,57,61);stroke-width:1px;"/>
            </g>
            <g>
                <g transform="matrix(8.61506,0,0,8.61506,211.068,157.225)">
                    <path d="M0.09,-0.52L0.18,-0.52L0.18,-0.214C0.18,-0.169 0.188,-0.133 0.207,-0.108C0.225,-0.081 0.258,-0.068 0.305,-0.068C0.354,-0.068 0.387,-0.082 0.405,-0.109C0.422,-0.134 0.431,-0.169 0.431,-0.214L0.431,-0.52L0.521,-0.52L0.521,-0.126C0.519,-0.087 0.53,-0.068 0.554,-0.068C0.563,-0.068 0.573,-0.069 0.582,-0.071L0.582,-0C0.573,0.006 0.555,0.009 0.527,0.01C0.5,0.008 0.48,0.001 0.468,-0.01C0.455,-0.021 0.445,-0.037 0.438,-0.06C0.407,-0.015 0.363,0.008 0.307,0.01C0.259,0.01 0.217,-0.012 0.182,-0.056L0.18,-0.056L0.18,0.196L0.09,0.196L0.09,-0.52Z" style="fill-rule:nonzero;"/>
                </g>
                <g transform="matrix(8.61506,0,0,8.61506,216.323,157.225)">
                    <path d="M0.031,-0C0.035,-0.06 0.047,-0.113 0.069,-0.157C0.09,-0.202 0.132,-0.242 0.195,-0.279L0.289,-0.333C0.331,-0.357 0.361,-0.378 0.377,-0.396C0.404,-0.423 0.417,-0.453 0.417,-0.488C0.417,-0.529 0.405,-0.561 0.381,-0.585C0.356,-0.609 0.324,-0.621 0.283,-0.621C0.223,-0.621 0.181,-0.598 0.158,-0.553C0.146,-0.528 0.139,-0.494 0.138,-0.451L0.048,-0.451C0.049,-0.512 0.061,-0.562 0.082,-0.6C0.12,-0.668 0.187,-0.702 0.284,-0.702C0.364,-0.702 0.422,-0.68 0.459,-0.637C0.496,-0.593 0.515,-0.545 0.515,-0.492C0.515,-0.436 0.495,-0.388 0.456,-0.349C0.433,-0.326 0.392,-0.298 0.333,-0.265L0.266,-0.228C0.234,-0.21 0.209,-0.193 0.191,-0.177C0.158,-0.149 0.138,-0.118 0.129,-0.083L0.511,-0.083L0.511,-0L0.031,-0Z" style="fill-rule:nonzero;"/>
                </g>
                <g transform="matrix(8.61506,0,0,8.61506,211.303,167.28)">
                    <path d="M0.26,0.019C0.177,0.019 0.117,-0.004 0.08,-0.049C0.043,-0.094 0.024,-0.15 0.024,-0.215L0.116,-0.215C0.12,-0.17 0.128,-0.137 0.141,-0.116C0.164,-0.079 0.205,-0.061 0.265,-0.061C0.311,-0.061 0.348,-0.073 0.376,-0.098C0.404,-0.123 0.418,-0.155 0.418,-0.194C0.418,-0.242 0.403,-0.276 0.374,-0.295C0.344,-0.314 0.303,-0.324 0.251,-0.324C0.245,-0.324 0.239,-0.324 0.233,-0.323C0.227,-0.323 0.221,-0.323 0.215,-0.323L0.215,-0.4C0.224,-0.399 0.232,-0.399 0.238,-0.398C0.244,-0.398 0.251,-0.398 0.258,-0.398C0.291,-0.398 0.318,-0.403 0.339,-0.414C0.376,-0.432 0.395,-0.464 0.395,-0.511C0.395,-0.546 0.382,-0.573 0.357,-0.592C0.333,-0.611 0.304,-0.62 0.271,-0.62C0.212,-0.62 0.172,-0.601 0.149,-0.562C0.137,-0.54 0.13,-0.509 0.128,-0.47L0.042,-0.47C0.042,-0.522 0.052,-0.566 0.073,-0.603C0.109,-0.668 0.172,-0.7 0.262,-0.7C0.333,-0.7 0.388,-0.684 0.427,-0.653C0.466,-0.621 0.486,-0.575 0.486,-0.515C0.486,-0.472 0.474,-0.437 0.451,-0.41C0.437,-0.394 0.418,-0.381 0.396,-0.371C0.432,-0.361 0.461,-0.342 0.482,-0.313C0.502,-0.284 0.513,-0.249 0.513,-0.207C0.513,-0.14 0.491,-0.086 0.447,-0.044C0.403,-0.002 0.34,0.019 0.26,0.019Z" style="fill-rule:nonzero;"/>
                </g>
                <g transform="matrix(8.61506,0,0,8.61506,216.093,167.28)">
                    <path d="M0.523,-0.688L0.523,-0.611C0.5,-0.589 0.471,-0.551 0.433,-0.497C0.396,-0.443 0.363,-0.385 0.334,-0.322C0.306,-0.261 0.285,-0.206 0.27,-0.156C0.261,-0.124 0.248,-0.072 0.233,-0L0.136,-0C0.158,-0.133 0.207,-0.266 0.283,-0.398C0.327,-0.476 0.374,-0.543 0.423,-0.599L0.037,-0.599L0.037,-0.688L0.523,-0.688Z" style="fill-rule:nonzero;"/>
                </g>
            </g>
            <g transform="matrix(15.7943,0,0,15.7943,448.672,273.528)">
                <path d="M0.395,0.02C0.292,0.02 0.213,-0.008 0.159,-0.064C0.086,-0.133 0.049,-0.232 0.049,-0.361C0.049,-0.493 0.086,-0.592 0.159,-0.658C0.213,-0.714 0.292,-0.742 0.395,-0.742C0.497,-0.742 0.576,-0.714 0.63,-0.658C0.703,-0.592 0.739,-0.493 0.739,-0.361C0.739,-0.232 0.703,-0.133 0.63,-0.064C0.576,-0.008 0.497,0.02 0.395,0.02ZM0.537,-0.173C0.571,-0.217 0.589,-0.28 0.589,-0.361C0.589,-0.442 0.571,-0.504 0.536,-0.548C0.501,-0.592 0.454,-0.614 0.395,-0.614C0.335,-0.614 0.287,-0.592 0.252,-0.548C0.216,-0.504 0.199,-0.442 0.199,-0.361C0.199,-0.28 0.216,-0.217 0.252,-0.173C0.287,-0.129 0.335,-0.107 0.395,-0.107C0.454,-0.107 0.501,-0.129 0.537,-0.173Z" style="fill-rule:nonzero;"/>
            </g>
            <g transform="matrix(15.7943,0,0,15.7943,460.947,273.528)">
                <path d="M0.406,-0.075C0.405,-0.074 0.402,-0.069 0.396,-0.061C0.391,-0.052 0.385,-0.045 0.378,-0.039C0.356,-0.02 0.335,-0.006 0.315,0.001C0.294,0.008 0.271,0.012 0.243,0.012C0.164,0.012 0.111,-0.017 0.084,-0.073C0.069,-0.104 0.061,-0.151 0.061,-0.211L0.061,-0.532L0.204,-0.532L0.204,-0.211C0.204,-0.181 0.207,-0.158 0.214,-0.143C0.227,-0.116 0.252,-0.103 0.289,-0.103C0.337,-0.103 0.369,-0.122 0.387,-0.16C0.396,-0.181 0.4,-0.208 0.4,-0.243L0.4,-0.532L0.542,-0.532L0.542,-0L0.406,-0L0.406,-0.075Z" style="fill-rule:nonzero;"/>
            </g>
            <g transform="matrix(15.7943,0,0,15.7943,470.584,273.528)">
                <path d="M0.309,-0.099L0.309,0.005L0.243,0.007C0.177,0.01 0.132,-0.002 0.108,-0.027C0.092,-0.043 0.084,-0.067 0.084,-0.101L0.084,-0.428L0.01,-0.428L0.01,-0.527L0.084,-0.527L0.084,-0.676L0.222,-0.676L0.222,-0.527L0.309,-0.527L0.309,-0.428L0.222,-0.428L0.222,-0.147C0.222,-0.125 0.225,-0.112 0.23,-0.106C0.236,-0.101 0.253,-0.098 0.281,-0.098C0.285,-0.098 0.29,-0.098 0.295,-0.098C0.299,-0.099 0.304,-0.099 0.309,-0.099Z" style="fill-rule:nonzero;"/>
            </g>
            <g transform="matrix(15.7943,0,0,15.7943,475.833,273.528)">
                <path d="M0.511,-0.475C0.554,-0.429 0.575,-0.362 0.575,-0.273C0.575,-0.179 0.554,-0.108 0.512,-0.059C0.47,-0.009 0.416,0.015 0.349,0.015C0.307,0.015 0.272,0.005 0.244,-0.017C0.228,-0.028 0.213,-0.045 0.199,-0.068L0.199,0.209L0.061,0.209L0.061,-0.532L0.194,-0.532L0.194,-0.454C0.209,-0.477 0.225,-0.495 0.242,-0.508C0.273,-0.532 0.31,-0.544 0.353,-0.544C0.415,-0.544 0.467,-0.521 0.511,-0.475ZM0.432,-0.266C0.432,-0.307 0.422,-0.343 0.404,-0.375C0.385,-0.407 0.354,-0.422 0.313,-0.422C0.262,-0.422 0.227,-0.398 0.208,-0.351C0.199,-0.325 0.194,-0.293 0.194,-0.254C0.194,-0.192 0.21,-0.149 0.243,-0.124C0.263,-0.109 0.286,-0.102 0.313,-0.102C0.351,-0.102 0.381,-0.117 0.401,-0.146C0.421,-0.176 0.432,-0.216 0.432,-0.266Z" style="fill-rule:nonzero;"/>
            </g>
            <g transform="matrix(15.7943,0,0,15.7943,485.47,273.528)">
                <path d="M0.406,-0.075C0.405,-0.074 0.402,-0.069 0.396,-0.061C0.391,-0.052 0.385,-0.045 0.378,-0.039C0.356,-0.02 0.335,-0.006 0.315,0.001C0.294,0.008 0.271,0.012 0.243,0.012C0.164,0.012 0.111,-0.017 0.084,-0.073C0.069,-0.104 0.061,-0.151 0.061,-0.211L0.061,-0.532L0.204,-0.532L0.204,-0.211C0.204,-0.181 0.207,-0.158 0.214,-0.143C0.227,-0.116 0.252,-0.103 0.289,-0.103C0.337,-0.103 0.369,-0.122 0.387,-0.16C0.396,-0.181 0.4,-0.208 0.4,-0.243L0.4,-0.532L0.542,-0.532L0.542,-0L0.406,-0L0.406,-0.075Z" style="fill-rule:nonzero;"/>
            </g>
            <g transform="matrix(15.7943,0,0,15.7943,495.107,273.528)">
                <path d="M0.309,-0.099L0.309,0.005L0.243,0.007C0.177,0.01 0.132,-0.002 0.108,-0.027C0.092,-0.043 0.084,-0.067 0.084,-0.101L0.084,-0.428L0.01,-0.428L0.01,-0.527L0.084,-0.527L0.084,-0.676L0.222,-0.676L0.222,-0.527L0.309,-0.527L0.309,-0.428L0.222,-0.428L0.222,-0.147C0.222,-0.125 0.225,-0.112 0.23,-0.106C0.236,-0.101 0.253,-0.098 0.281,-0.098C0.285,-0.098 0.29,-0.098 0.295,-0.098C0.299,-0.099 0.304,-0.099 0.309,-0.099Z" style="fill-rule:nonzero;"/>
            </g>
            <g transform="matrix(15.7943,0,0,15.7943,2.50116,162.25)">
                <path d="M0.386,-0L0.076,-0L0.076,-0.72L0.386,-0.72C0.431,-0.719 0.468,-0.714 0.498,-0.704C0.548,-0.688 0.589,-0.657 0.62,-0.613C0.645,-0.577 0.662,-0.538 0.671,-0.497C0.681,-0.455 0.685,-0.415 0.685,-0.377C0.685,-0.282 0.666,-0.201 0.627,-0.134C0.575,-0.045 0.495,-0 0.386,-0ZM0.498,-0.536C0.475,-0.575 0.429,-0.595 0.361,-0.595L0.222,-0.595L0.222,-0.125L0.361,-0.125C0.432,-0.125 0.481,-0.16 0.509,-0.23C0.525,-0.268 0.532,-0.314 0.532,-0.367C0.532,-0.44 0.521,-0.497 0.498,-0.536Z" style="fill-rule:nonzero;"/>
            </g>
            <g transform="matrix(15.7943,0,0,15.7943,13.9021,162.25)">
                <path d="M0.333,-0.404C0.277,-0.404 0.239,-0.386 0.22,-0.349C0.209,-0.329 0.204,-0.297 0.204,-0.254L0.204,-0L0.063,-0L0.063,-0.532L0.196,-0.532L0.196,-0.439C0.218,-0.475 0.236,-0.499 0.252,-0.512C0.278,-0.534 0.312,-0.545 0.354,-0.545L0.373,-0.544L0.373,-0.401C0.364,-0.402 0.356,-0.403 0.349,-0.403C0.342,-0.404 0.337,-0.404 0.333,-0.404Z" style="fill-rule:nonzero;"/>
            </g>
            <g transform="matrix(15.7943,0,0,15.7943,20.0434,162.25)">
                <path d="M0.208,-0.532L0.208,-0L0.067,-0L0.067,-0.532L0.208,-0.532ZM0.208,-0.724L0.208,-0.596L0.067,-0.596L0.067,-0.724L0.208,-0.724Z" style="fill-rule:nonzero;"/>
            </g>
            <g transform="matrix(15.7943,0,0,15.7943,24.4264,162.25)">
                <path d="M0.013,-0.532L0.169,-0.532L0.28,-0.14L0.393,-0.532L0.542,-0.532L0.351,-0L0.204,-0L0.013,-0.532Z" style="fill-rule:nonzero;"/>
            </g>
            <g transform="matrix(15.7943,0,0,15.7943,33.2052,162.25)">
                <path d="M0.521,-0.156C0.517,-0.125 0.5,-0.093 0.471,-0.06C0.426,-0.008 0.362,0.018 0.28,0.018C0.212,0.018 0.152,-0.004 0.101,-0.048C0.049,-0.091 0.023,-0.162 0.023,-0.261C0.023,-0.353 0.046,-0.424 0.093,-0.473C0.14,-0.522 0.2,-0.546 0.275,-0.546C0.319,-0.546 0.359,-0.538 0.395,-0.521C0.43,-0.505 0.459,-0.479 0.482,-0.443C0.503,-0.411 0.517,-0.375 0.523,-0.333C0.527,-0.309 0.528,-0.273 0.527,-0.228L0.163,-0.228C0.165,-0.174 0.182,-0.137 0.213,-0.115C0.233,-0.102 0.256,-0.095 0.283,-0.095C0.311,-0.095 0.335,-0.103 0.353,-0.12C0.362,-0.128 0.371,-0.141 0.378,-0.156L0.521,-0.156ZM0.383,-0.319C0.381,-0.356 0.369,-0.384 0.349,-0.403C0.329,-0.422 0.305,-0.432 0.275,-0.432C0.243,-0.432 0.218,-0.422 0.2,-0.401C0.182,-0.381 0.171,-0.354 0.167,-0.319L0.383,-0.319Z" style="fill-rule:nonzero;"/>
            </g>
            <g transform="matrix(0,0.717921,-0.717921,0,358.469,-246.021)">
                <path d="M404.185,77.815L437.815,77.815" style="fill:none;fill-rule:nonzero;stroke:black;stroke-width:1px;stroke-miterlimit:10;"/>
            </g>
            <g transform="matrix(-0.321064,-0.642129,0.642129,-0.321064,375.884,370.833)">
                <path d="M417.87,94.815L425.696,94.815L422.565,97.163L422.565,101.076L417.87,94.815Z" style="fill-rule:nonzero;stroke:black;stroke-width:1px;stroke-miterlimit:10;"/>
            </g>
            <g transform="matrix(0,0.717921,-0.717921,0,444.261,-331.813)">
                <path d="M523.685,77.815L557.315,77.815" style="fill:none;fill-rule:nonzero;stroke:black;stroke-width:1px;stroke-miterlimit:10;"/>
            </g>
            <g transform="matrix(-0.321064,-0.642129,0.642129,-0.321064,500.042,447.567)">
                <path d="M537.37,94.815L545.196,94.815L542.065,97.163L542.065,101.076L537.37,94.815Z" style="fill-rule:nonzero;stroke:black;stroke-width:1px;stroke-miterlimit:10;"/>
            </g>
            <g transform="matrix(0,0.717921,-0.717921,0,530.411,-417.963)">
                <path d="M643.685,77.815L677.315,77.815" style="fill:none;fill-rule:nonzero;stroke:black;stroke-width:1px;stroke-miterlimit:10;"/>
            </g>
            <g transform="matrix(-0.321064,-0.642129,0.642129,-0.321064,624.721,524.622)">
                <path d="M657.37,94.815L665.196,94.815L662.065,97.163L662.065,101.076L657.37,94.815Z" style="fill-rule:nonzero;stroke:black;stroke-width:1px;stroke-miterlimit:10;"/>
            </g>
            <g transform="matrix(0,0.717921,-0.717921,0,616.562,-504.114)">
                <path d="M763.685,77.815L797.315,77.815" style="fill:none;fill-rule:nonzero;stroke:black;stroke-width:1px;stroke-miterlimit:10;"/>
            </g>
            <g transform="matrix(-0.321064,-0.642129,0.642129,-0.321064,749.399,601.678)">
                <path d="M777.37,94.815L785.196,94.815L782.065,97.163L782.065,101.076L777.37,94.815Z" style="fill-rule:nonzero;stroke:black;stroke-width:1px;stroke-miterlimit:10;"/>
            </g>
            <g transform="matrix(0,0.717921,-0.717921,0,702.712,-590.264)">
                <path d="M883.685,77.815L917.315,77.815" style="fill:none;fill-rule:nonzero;stroke:black;stroke-width:1px;stroke-miterlimit:10;"/>
            </g>
            <g transform="matrix(-0.321064,-0.642129,0.642129,-0.321064,874.077,678.733)">
                <path d="M897.37,94.815L905.196,94.815L902.065,97.163L902.065,101.076L897.37,94.815Z" style="fill-rule:nonzero;stroke:black;stroke-width:1px;stroke-miterlimit:10;"/>
            </g>
            <g transform="matrix(0.717921,0,0,-0.717921,0,317.321)">
                <path d="M71,222L77,222L77,220L71,220M83,222L89,222L89,220L83,220M95,222L101,222L101,220L95,220M107,222L113,222L113,220L107,220M119,222L125,222L125,220L119,220M131,222L137,222L137,220L131,220" style="fill-rule:nonzero;"/>
            </g>
        </g>
    </g>
</svg>
