<?xml version="1.0" encoding="UTF-8" standalone="no"?>
<!DOCTYPE svg PUBLIC "-//W3C//DTD SVG 1.1//EN" "http://www.w3.org/Graphics/SVG/1.1/DTD/svg11.dtd">
<svg width="100%" height="100%" viewBox="0 0 552 237" version="1.1" xmlns="http://www.w3.org/2000/svg" xmlns:xlink="http://www.w3.org/1999/xlink" xml:space="preserve" xmlns:serif="http://www.serif.com/" style="fill-rule:evenodd;clip-rule:evenodd;">
    <g transform="matrix(0.717815,0,0,-0.717815,0,236.879)">
        <rect x="0" y="-0" width="769" height="330" style="fill:white;"/>
    </g>
    <g transform="matrix(0.717815,0,0,-0.717815,0.358908,235.802)">
        <rect x="4" y="4" width="760" height="320"/>
    </g>
    <g transform="matrix(0.717815,0,0,-0.717815,0,107.672)">
        <path d="M74,75C74,74.343 73.936,73.693 73.808,73.049C73.68,72.405 73.49,71.78 73.239,71.173C72.988,70.567 72.679,69.99 72.315,69.444C71.95,68.898 71.535,68.393 71.071,67.929C70.607,67.465 70.102,67.05 69.556,66.685C69.01,66.321 68.433,66.012 67.827,65.761C67.22,65.51 66.595,65.32 65.951,65.192C65.307,65.064 64.657,65 64,65C63.343,65 62.693,65.064 62.049,65.192C61.405,65.32 60.78,65.51 60.173,65.761C59.567,66.012 58.99,66.321 58.444,66.685C57.898,67.05 57.393,67.465 56.929,67.929C56.465,68.393 56.05,68.898 55.685,69.444C55.321,69.99 55.012,70.567 54.761,71.173C54.51,71.78 54.32,72.405 54.192,73.049C54.064,73.693 54,74.343 54,75C54,75.657 54.064,76.307 54.192,76.951C54.32,77.595 54.51,78.22 54.761,78.827C55.012,79.433 55.321,80.01 55.685,80.556C56.05,81.102 56.465,81.607 56.929,82.071C57.393,82.535 57.898,82.95 58.444,83.315C58.99,83.679 59.567,83.988 60.173,84.239C60.78,84.49 61.405,84.68 62.049,84.808C62.693,84.936 63.343,85 64,85C64.657,85 65.307,84.936 65.951,84.808C66.595,84.68 67.22,84.49 67.827,84.239C68.433,83.988 69.01,83.679 69.556,83.315C70.102,82.95 70.607,82.535 71.071,82.071C71.535,81.607 71.95,81.102 72.315,80.556C72.679,80.01 72.988,79.433 73.239,78.827C73.49,78.22 73.68,77.595 73.808,76.951C73.936,76.307 74,75.657 74,75Z" style="fill:none;fill-rule:nonzero;stroke:rgb(230,230,230);stroke-width:6px;"/>
    </g>
    <g transform="matrix(0.717815,0,0,-0.717815,0.358908,165.456)">
        <path d="M74,115C74,114.343 73.936,113.693 73.808,113.049C73.68,112.405 73.49,111.78 73.239,111.173C72.988,110.567 72.679,109.99 72.315,109.444C71.95,108.898 71.535,108.393 71.071,107.929C70.607,107.465 70.102,107.05 69.556,106.685C69.01,106.321 68.433,106.012 67.827,105.761C67.22,105.51 66.595,105.32 65.951,105.192C65.307,105.064 64.657,105 64,105C63.343,105 62.693,105.064 62.049,105.192C61.405,105.32 60.78,105.51 60.173,105.761C59.567,106.013 58.99,106.321 58.444,106.685C57.898,107.05 57.393,107.465 56.929,107.929C56.465,108.393 56.05,108.898 55.685,109.444C55.321,109.99 55.012,110.567 54.761,111.173C54.51,111.78 54.32,112.405 54.192,113.049C54.064,113.693 54,114.343 54,115C54,115.657 54.064,116.307 54.192,116.951C54.32,117.595 54.51,118.22 54.761,118.827C55.012,119.433 55.321,120.01 55.685,120.556C56.05,121.102 56.465,121.607 56.929,122.071C57.393,122.535 57.898,122.95 58.444,123.315C58.99,123.679 59.567,123.988 60.173,124.239C60.78,124.49 61.405,124.68 62.049,124.808C62.693,124.936 63.343,125 64,125C64.657,125 65.307,124.936 65.951,124.808C66.595,124.68 67.22,124.49 67.827,124.239C68.433,123.988 69.01,123.679 69.556,123.315C70.102,122.95 70.607,122.535 71.071,122.071C71.535,121.607 71.95,121.102 72.315,120.556C72.679,120.01 72.988,119.433 73.239,118.827C73.49,118.22 73.68,117.595 73.808,116.951C73.936,116.307 74,115.657 74,115Z" style="fill:none;fill-rule:nonzero;stroke:rgb(230,230,230);stroke-width:7px;"/>
    </g>
    <g transform="matrix(0.717815,0,0,-0.717815,0,107.672)">
        <path d="M234,75C234,74.343 233.936,73.693 233.808,73.049C233.68,72.405 233.49,71.78 233.239,71.173C232.987,70.567 232.679,69.99 232.315,69.444C231.95,68.898 231.535,68.393 231.071,67.929C230.607,67.465 230.102,67.05 229.556,66.685C229.01,66.321 228.433,66.012 227.827,65.761C227.22,65.51 226.595,65.32 225.951,65.192C225.307,65.064 224.657,65 224,65C223.343,65 222.693,65.064 222.049,65.192C221.405,65.32 220.78,65.51 220.173,65.761C219.567,66.012 218.99,66.321 218.444,66.685C217.898,67.05 217.393,67.465 216.929,67.929C216.465,68.393 216.05,68.898 215.685,69.444C215.321,69.99 215.012,70.567 214.761,71.173C214.51,71.78 214.32,72.405 214.192,73.049C214.064,73.693 214,74.343 214,75C214,75.657 214.064,76.307 214.192,76.951C214.32,77.595 214.51,78.22 214.761,78.827C215.012,79.433 215.321,80.01 215.685,80.556C216.05,81.102 216.465,81.607 216.929,82.071C217.393,82.535 217.898,82.95 218.444,83.315C218.99,83.679 219.567,83.988 220.173,84.239C220.78,84.49 221.405,84.68 222.049,84.808C222.693,84.936 223.343,85 224,85C224.657,85 225.307,84.936 225.951,84.808C226.595,84.68 227.22,84.49 227.827,84.239C228.433,83.988 229.01,83.679 229.556,83.315C230.102,82.95 230.607,82.535 231.071,82.071C231.535,81.607 231.95,81.102 232.315,80.556C232.679,80.01 232.987,79.433 233.239,78.827C233.49,78.22 233.68,77.595 233.808,76.951C233.936,76.307 234,75.657 234,75Z" style="fill:none;fill-rule:nonzero;stroke:rgb(230,230,230);stroke-width:6px;"/>
    </g>
    <g transform="matrix(0.717815,0,0,-0.717815,0.358908,165.456)">
        <path d="M234,115C234,114.343 233.936,113.693 233.808,113.049C233.68,112.405 233.49,111.78 233.239,111.173C232.987,110.567 232.679,109.99 232.315,109.444C231.95,108.898 231.535,108.393 231.071,107.929C230.607,107.465 230.102,107.05 229.556,106.685C229.01,106.321 228.433,106.012 227.827,105.761C227.22,105.51 226.595,105.32 225.951,105.192C225.307,105.064 224.657,105 224,105C223.343,105 222.693,105.064 222.049,105.192C221.405,105.32 220.78,105.51 220.173,105.761C219.567,106.013 218.99,106.321 218.444,106.685C217.898,107.05 217.393,107.465 216.929,107.929C216.465,108.393 216.05,108.898 215.685,109.444C215.321,109.99 215.012,110.567 214.761,111.173C214.51,111.78 214.32,112.405 214.192,113.049C214.064,113.693 214,114.343 214,115C214,115.657 214.064,116.307 214.192,116.951C214.32,117.595 214.51,118.22 214.761,118.827C215.012,119.433 215.321,120.01 215.685,120.556C216.05,121.102 216.465,121.607 216.929,122.071C217.393,122.535 217.898,122.95 218.444,123.315C218.99,123.679 219.567,123.988 220.173,124.239C220.78,124.49 221.405,124.68 222.049,124.808C222.693,124.936 223.343,125 224,125C224.657,125 225.307,124.936 225.951,124.808C226.595,124.68 227.22,124.49 227.827,124.239C228.433,123.988 229.01,123.679 229.556,123.315C230.102,122.95 230.607,122.535 231.071,122.071C231.535,121.607 231.95,121.102 232.315,120.556C232.679,120.01 232.987,119.433 233.239,118.827C233.49,118.22 233.68,117.595 233.808,116.951C233.936,116.307 234,115.657 234,115Z" style="fill:none;fill-rule:nonzero;stroke:rgb(230,230,230);stroke-width:7px;"/>
    </g>
    <g transform="matrix(0.717815,0,0,-0.717815,0,107.672)">
        <path d="M154,75C154,74.343 153.936,73.693 153.808,73.049C153.68,72.405 153.49,71.78 153.239,71.173C152.988,70.567 152.679,69.99 152.315,69.444C151.95,68.898 151.535,68.393 151.071,67.929C150.607,67.465 150.102,67.05 149.556,66.685C149.01,66.321 148.433,66.012 147.827,65.761C147.22,65.51 146.595,65.32 145.951,65.192C145.307,65.064 144.657,65 144,65C143.343,65 142.693,65.064 142.049,65.192C141.405,65.32 140.78,65.51 140.173,65.761C139.567,66.012 138.99,66.321 138.444,66.685C137.898,67.05 137.393,67.465 136.929,67.929C136.465,68.393 136.05,68.898 135.685,69.444C135.32,69.99 135.012,70.567 134.761,71.173C134.51,71.78 134.32,72.405 134.192,73.049C134.064,73.693 134,74.343 134,75C134,75.657 134.064,76.307 134.192,76.951C134.32,77.595 134.51,78.22 134.761,78.827C135.012,79.433 135.32,80.01 135.685,80.556C136.05,81.102 136.465,81.607 136.929,82.071C137.393,82.535 137.898,82.95 138.444,83.315C138.99,83.679 139.567,83.988 140.173,84.239C140.78,84.49 141.405,84.68 142.049,84.808C142.693,84.936 143.343,85 144,85C144.657,85 145.307,84.936 145.951,84.808C146.595,84.68 147.22,84.49 147.827,84.239C148.433,83.988 149.01,83.679 149.556,83.315C150.102,82.95 150.607,82.535 151.071,82.071C151.535,81.607 151.95,81.102 152.315,80.556C152.679,80.01 152.988,79.433 153.239,78.827C153.49,78.22 153.68,77.595 153.808,76.951C153.936,76.307 154,75.657 154,75Z" style="fill:none;fill-rule:nonzero;stroke:rgb(230,230,230);stroke-width:6px;"/>
    </g>
    <g transform="matrix(0.717815,0,0,-0.717815,0.358908,165.456)">
        <path d="M154,115C154,114.343 153.936,113.693 153.808,113.049C153.68,112.405 153.49,111.78 153.239,111.173C152.988,110.567 152.679,109.99 152.315,109.444C151.95,108.898 151.535,108.393 151.071,107.929C150.607,107.465 150.102,107.05 149.556,106.685C149.01,106.321 148.433,106.012 147.827,105.761C147.22,105.51 146.595,105.32 145.951,105.192C145.307,105.064 144.657,105 144,105C143.343,105 142.693,105.064 142.049,105.192C141.405,105.32 140.78,105.51 140.173,105.761C139.567,106.013 138.99,106.321 138.444,106.685C137.898,107.05 137.393,107.465 136.929,107.929C136.465,108.393 136.05,108.898 135.685,109.444C135.32,109.99 135.012,110.567 134.761,111.173C134.51,111.78 134.32,112.405 134.192,113.049C134.064,113.693 134,114.343 134,115C134,115.657 134.064,116.307 134.192,116.951C134.32,117.595 134.51,118.22 134.761,118.827C135.012,119.433 135.32,120.01 135.685,120.556C136.05,121.102 136.465,121.607 136.929,122.071C137.393,122.535 137.898,122.95 138.444,123.315C138.99,123.679 139.567,123.988 140.173,124.239C140.78,124.49 141.405,124.68 142.049,124.808C142.693,124.936 143.343,125 144,125C144.657,125 145.307,124.936 145.951,124.808C146.595,124.68 147.22,124.49 147.827,124.239C148.433,123.988 149.01,123.679 149.556,123.315C150.102,122.95 150.607,122.535 151.071,122.071C151.535,121.607 151.95,121.102 152.315,120.556C152.679,120.01 152.988,119.433 153.239,118.827C153.49,118.22 153.68,117.595 153.808,116.951C153.936,116.307 154,115.657 154,115Z" style="fill:none;fill-rule:nonzero;stroke:rgb(230,230,230);stroke-width:7px;"/>
    </g>
    <g transform="matrix(0.717815,0,0,-0.717815,0,107.672)">
        <path d="M314,75C314,74.343 313.936,73.693 313.808,73.049C313.68,72.405 313.49,71.78 313.239,71.173C312.987,70.567 312.679,69.99 312.315,69.444C311.95,68.898 311.535,68.393 311.071,67.929C310.607,67.465 310.102,67.05 309.556,66.685C309.01,66.321 308.433,66.012 307.827,65.761C307.22,65.51 306.595,65.32 305.951,65.192C305.307,65.064 304.657,65 304,65C303.343,65 302.693,65.064 302.049,65.192C301.405,65.32 300.78,65.51 300.173,65.761C299.566,66.012 298.99,66.321 298.444,66.685C297.898,67.05 297.393,67.465 296.929,67.929C296.465,68.393 296.05,68.898 295.685,69.444C295.321,69.99 295.012,70.567 294.761,71.173C294.51,71.78 294.32,72.405 294.192,73.049C294.064,73.693 294,74.343 294,75C294,75.657 294.064,76.307 294.192,76.951C294.32,77.595 294.51,78.22 294.761,78.827C295.012,79.433 295.321,80.01 295.685,80.556C296.05,81.102 296.465,81.607 296.929,82.071C297.393,82.535 297.898,82.95 298.444,83.315C298.99,83.679 299.566,83.988 300.173,84.239C300.78,84.49 301.405,84.68 302.049,84.808C302.693,84.936 303.343,85 304,85C304.657,85 305.307,84.936 305.951,84.808C306.595,84.68 307.22,84.49 307.827,84.239C308.433,83.988 309.01,83.679 309.556,83.315C310.102,82.95 310.607,82.535 311.071,82.071C311.535,81.607 311.95,81.102 312.315,80.556C312.679,80.01 312.987,79.433 313.239,78.827C313.49,78.22 313.68,77.595 313.808,76.951C313.936,76.307 314,75.657 314,75Z" style="fill:none;fill-rule:nonzero;stroke:rgb(230,230,230);stroke-width:6px;"/>
    </g>
    <g transform="matrix(0.717815,0,0,-0.717815,0.358908,165.456)">
        <path d="M314,115C314,114.343 313.936,113.693 313.808,113.049C313.68,112.405 313.49,111.78 313.239,111.173C312.987,110.567 312.679,109.99 312.315,109.444C311.95,108.898 311.535,108.393 311.071,107.929C310.607,107.465 310.102,107.05 309.556,106.685C309.01,106.321 308.433,106.012 307.827,105.761C307.22,105.51 306.595,105.32 305.951,105.192C305.307,105.064 304.657,105 304,105C303.343,105 302.693,105.064 302.049,105.192C301.405,105.32 300.78,105.51 300.173,105.761C299.566,106.013 298.99,106.321 298.444,106.685C297.898,107.05 297.393,107.465 296.929,107.929C296.465,108.393 296.05,108.898 295.685,109.444C295.321,109.99 295.012,110.567 294.761,111.173C294.51,111.78 294.32,112.405 294.192,113.049C294.064,113.693 294,114.343 294,115C294,115.657 294.064,116.307 294.192,116.951C294.32,117.595 294.51,118.22 294.761,118.827C295.012,119.433 295.321,120.01 295.685,120.556C296.05,121.102 296.465,121.607 296.929,122.071C297.393,122.535 297.898,122.95 298.444,123.315C298.99,123.679 299.566,123.988 300.173,124.239C300.78,124.49 301.405,124.68 302.049,124.808C302.693,124.936 303.343,125 304,125C304.657,125 305.307,124.936 305.951,124.808C306.595,124.68 307.22,124.49 307.827,124.239C308.433,123.988 309.01,123.679 309.556,123.315C310.102,122.95 310.607,122.535 311.071,122.071C311.535,121.607 311.95,121.102 312.315,120.556C312.679,120.01 312.987,119.433 313.239,118.827C313.49,118.22 313.68,117.595 313.808,116.951C313.936,116.307 314,115.657 314,115Z" style="fill:none;fill-rule:nonzero;stroke:rgb(230,230,230);stroke-width:7px;"/>
    </g>
    <g transform="matrix(0.717815,0,0,-0.717815,0,107.672)">
        <path d="M394,75C394,74.343 393.936,73.693 393.808,73.049C393.68,72.405 393.49,71.78 393.239,71.173C392.987,70.567 392.679,69.99 392.315,69.444C391.95,68.898 391.535,68.393 391.071,67.929C390.607,67.465 390.102,67.05 389.556,66.685C389.01,66.321 388.433,66.012 387.827,65.761C387.22,65.51 386.595,65.32 385.951,65.192C385.307,65.064 384.657,65 384,65C383.343,65 382.693,65.064 382.049,65.192C381.405,65.32 380.78,65.51 380.173,65.761C379.566,66.012 378.99,66.321 378.444,66.685C377.898,67.05 377.393,67.465 376.929,67.929C376.465,68.393 376.05,68.898 375.685,69.444C375.32,69.99 375.012,70.567 374.761,71.173C374.51,71.78 374.32,72.405 374.192,73.049C374.064,73.693 374,74.343 374,75C374,75.657 374.064,76.307 374.192,76.951C374.32,77.595 374.51,78.22 374.761,78.827C375.012,79.433 375.32,80.01 375.685,80.556C376.05,81.102 376.465,81.607 376.929,82.071C377.393,82.535 377.898,82.95 378.444,83.315C378.99,83.679 379.566,83.988 380.173,84.239C380.78,84.49 381.405,84.68 382.049,84.808C382.693,84.936 383.343,85 384,85C384.657,85 385.307,84.936 385.951,84.808C386.595,84.68 387.22,84.49 387.827,84.239C388.433,83.988 389.01,83.679 389.556,83.315C390.102,82.95 390.607,82.535 391.071,82.071C391.535,81.607 391.95,81.102 392.315,80.556C392.679,80.01 392.987,79.433 393.239,78.827C393.49,78.22 393.68,77.595 393.808,76.951C393.936,76.307 394,75.657 394,75Z" style="fill:none;fill-rule:nonzero;stroke:rgb(230,230,230);stroke-width:6px;"/>
    </g>
    <g transform="matrix(0.717815,0,0,-0.717815,0.358908,165.456)">
        <path d="M394,115C394,114.343 393.936,113.693 393.808,113.049C393.68,112.405 393.49,111.78 393.239,111.173C392.987,110.567 392.679,109.99 392.315,109.444C391.95,108.898 391.535,108.393 391.071,107.929C390.607,107.465 390.102,107.05 389.556,106.685C389.01,106.321 388.433,106.012 387.827,105.761C387.22,105.51 386.595,105.32 385.951,105.192C385.307,105.064 384.657,105 384,105C383.343,105 382.693,105.064 382.049,105.192C381.405,105.32 380.78,105.51 380.173,105.761C379.566,106.013 378.99,106.321 378.444,106.685C377.898,107.05 377.393,107.465 376.929,107.929C376.465,108.393 376.05,108.898 375.685,109.444C375.32,109.99 375.012,110.567 374.761,111.173C374.51,111.78 374.32,112.405 374.192,113.049C374.064,113.693 374,114.343 374,115C374,115.657 374.064,116.307 374.192,116.951C374.32,117.595 374.51,118.22 374.761,118.827C375.012,119.433 375.32,120.01 375.685,120.556C376.05,121.102 376.465,121.607 376.929,122.071C377.393,122.535 377.898,122.95 378.444,123.315C378.99,123.679 379.566,123.988 380.173,124.239C380.78,124.49 381.405,124.68 382.049,124.808C382.693,124.936 383.343,125 384,125C384.657,125 385.307,124.936 385.951,124.808C386.595,124.68 387.22,124.49 387.827,124.239C388.433,123.988 389.01,123.679 389.556,123.315C390.102,122.95 390.607,122.535 391.071,122.071C391.535,121.607 391.95,121.102 392.315,120.556C392.679,120.01 392.987,119.433 393.239,118.827C393.49,118.22 393.68,117.595 393.808,116.951C393.936,116.307 394,115.657 394,115Z" style="fill:none;fill-rule:nonzero;stroke:rgb(230,230,230);stroke-width:7px;"/>
    </g>
    <g transform="matrix(0.717815,0,0,-0.717815,0,107.672)">
        <path d="M474,75C474,74.343 473.936,73.693 473.808,73.049C473.68,72.405 473.49,71.78 473.239,71.173C472.987,70.567 472.679,69.99 472.315,69.444C471.95,68.898 471.535,68.393 471.071,67.929C470.607,67.465 470.102,67.05 469.556,66.685C469.01,66.321 468.433,66.012 467.827,65.761C467.22,65.51 466.595,65.32 465.951,65.192C465.307,65.064 464.657,65 464,65C463.343,65 462.693,65.064 462.049,65.192C461.405,65.32 460.78,65.51 460.173,65.761C459.566,66.012 458.99,66.321 458.444,66.685C457.898,67.05 457.393,67.465 456.929,67.929C456.465,68.393 456.05,68.898 455.685,69.444C455.321,69.99 455.012,70.567 454.761,71.173C454.51,71.78 454.32,72.405 454.192,73.049C454.064,73.693 454,74.343 454,75C454,75.657 454.064,76.307 454.192,76.951C454.32,77.595 454.51,78.22 454.761,78.827C455.012,79.433 455.321,80.01 455.685,80.556C456.05,81.102 456.465,81.607 456.929,82.071C457.393,82.535 457.898,82.95 458.444,83.315C458.99,83.679 459.566,83.988 460.173,84.239C460.78,84.49 461.405,84.68 462.049,84.808C462.693,84.936 463.343,85 464,85C464.657,85 465.307,84.936 465.951,84.808C466.595,84.68 467.22,84.49 467.827,84.239C468.433,83.988 469.01,83.679 469.556,83.315C470.102,82.95 470.607,82.535 471.071,82.071C471.535,81.607 471.95,81.102 472.315,80.556C472.679,80.01 472.987,79.433 473.239,78.827C473.49,78.22 473.68,77.595 473.808,76.951C473.936,76.307 474,75.657 474,75Z" style="fill:none;fill-rule:nonzero;stroke:rgb(230,230,230);stroke-width:6px;"/>
    </g>
    <g transform="matrix(0.717815,0,0,-0.717815,0.358908,165.456)">
        <path d="M474,115C474,114.343 473.936,113.693 473.808,113.049C473.68,112.405 473.49,111.78 473.239,111.173C472.987,110.567 472.679,109.99 472.315,109.444C471.95,108.898 471.535,108.393 471.071,107.929C470.607,107.465 470.102,107.05 469.556,106.685C469.01,106.321 468.433,106.012 467.827,105.761C467.22,105.51 466.595,105.32 465.951,105.192C465.307,105.064 464.657,105 464,105C463.343,105 462.693,105.064 462.049,105.192C461.405,105.32 460.78,105.51 460.173,105.761C459.566,106.013 458.99,106.321 458.444,106.685C457.898,107.05 457.393,107.465 456.929,107.929C456.465,108.393 456.05,108.898 455.685,109.444C455.321,109.99 455.012,110.567 454.761,111.173C454.51,111.78 454.32,112.405 454.192,113.049C454.064,113.693 454,114.343 454,115C454,115.657 454.064,116.307 454.192,116.951C454.32,117.595 454.51,118.22 454.761,118.827C455.012,119.433 455.321,120.01 455.685,120.556C456.05,121.102 456.465,121.607 456.929,122.071C457.393,122.535 457.898,122.95 458.444,123.315C458.99,123.679 459.566,123.988 460.173,124.239C460.78,124.49 461.405,124.68 462.049,124.808C462.693,124.936 463.343,125 464,125C464.657,125 465.307,124.936 465.951,124.808C466.595,124.68 467.22,124.49 467.827,124.239C468.433,123.988 469.01,123.679 469.556,123.315C470.102,122.95 470.607,122.535 471.071,122.071C471.535,121.607 471.95,121.102 472.315,120.556C472.679,120.01 472.987,119.433 473.239,118.827C473.49,118.22 473.68,117.595 473.808,116.951C473.936,116.307 474,115.657 474,115Z" style="fill:none;fill-rule:nonzero;stroke:rgb(230,230,230);stroke-width:7px;"/>
    </g>
    <g transform="matrix(0.717815,0,0,-0.717815,0,107.672)">
        <path d="M554,75C554,74.343 553.936,73.693 553.808,73.049C553.68,72.405 553.49,71.78 553.239,71.173C552.987,70.567 552.679,69.99 552.315,69.444C551.95,68.898 551.535,68.393 551.071,67.929C550.607,67.465 550.102,67.05 549.556,66.685C549.01,66.321 548.433,66.012 547.827,65.761C547.22,65.51 546.595,65.32 545.951,65.192C545.307,65.064 544.657,65 544,65C543.343,65 542.693,65.064 542.049,65.192C541.405,65.32 540.78,65.51 540.173,65.761C539.566,66.012 538.99,66.321 538.444,66.685C537.898,67.05 537.393,67.465 536.929,67.929C536.465,68.393 536.05,68.898 535.685,69.444C535.32,69.99 535.012,70.567 534.761,71.173C534.51,71.78 534.32,72.405 534.192,73.049C534.064,73.693 534,74.343 534,75C534,75.657 534.064,76.307 534.192,76.951C534.32,77.595 534.51,78.22 534.761,78.827C535.012,79.433 535.32,80.01 535.685,80.556C536.05,81.102 536.465,81.607 536.929,82.071C537.393,82.535 537.898,82.95 538.444,83.315C538.99,83.679 539.566,83.988 540.173,84.239C540.78,84.49 541.405,84.68 542.049,84.808C542.693,84.936 543.343,85 544,85C544.657,85 545.307,84.936 545.951,84.808C546.595,84.68 547.22,84.49 547.827,84.239C548.433,83.988 549.01,83.679 549.556,83.315C550.102,82.95 550.607,82.535 551.071,82.071C551.535,81.607 551.95,81.102 552.315,80.556C552.679,80.01 552.987,79.433 553.239,78.827C553.49,78.22 553.68,77.595 553.808,76.951C553.936,76.307 554,75.657 554,75Z" style="fill:none;fill-rule:nonzero;stroke:rgb(230,230,230);stroke-width:6px;"/>
    </g>
    <g transform="matrix(0.717815,0,0,-0.717815,0.358908,165.456)">
        <path d="M554,115C554,114.343 553.936,113.693 553.808,113.049C553.68,112.405 553.49,111.78 553.239,111.173C552.987,110.567 552.679,109.99 552.315,109.444C551.95,108.898 551.535,108.393 551.071,107.929C550.607,107.465 550.102,107.05 549.556,106.685C549.01,106.321 548.433,106.012 547.827,105.761C547.22,105.51 546.595,105.32 545.951,105.192C545.307,105.064 544.657,105 544,105C543.343,105 542.693,105.064 542.049,105.192C541.405,105.32 540.78,105.51 540.173,105.761C539.566,106.013 538.99,106.321 538.444,106.685C537.898,107.05 537.393,107.465 536.929,107.929C536.465,108.393 536.05,108.898 535.685,109.444C535.32,109.99 535.012,110.567 534.761,111.173C534.51,111.78 534.32,112.405 534.192,113.049C534.064,113.693 534,114.343 534,115C534,115.657 534.064,116.307 534.192,116.951C534.32,117.595 534.51,118.22 534.761,118.827C535.012,119.433 535.32,120.01 535.685,120.556C536.05,121.102 536.465,121.607 536.929,122.071C537.393,122.535 537.898,122.95 538.444,123.315C538.99,123.679 539.566,123.988 540.173,124.239C540.78,124.49 541.405,124.68 542.049,124.808C542.693,124.936 543.343,125 544,125C544.657,125 545.307,124.936 545.951,124.808C546.595,124.68 547.22,124.49 547.827,124.239C548.433,123.988 549.01,123.679 549.556,123.315C550.102,122.95 550.607,122.535 551.071,122.071C551.535,121.607 551.95,121.102 552.315,120.556C552.679,120.01 552.987,119.433 553.239,118.827C553.49,118.22 553.68,117.595 553.808,116.951C553.936,116.307 554,115.657 554,115Z" style="fill:none;fill-rule:nonzero;stroke:rgb(230,230,230);stroke-width:7px;"/>
    </g>
    <g transform="matrix(0.717815,0,0,-0.717815,0,107.672)">
        <path d="M634,75C634,74.343 633.936,73.693 633.808,73.049C633.68,72.405 633.49,71.78 633.239,71.173C632.987,70.567 632.679,69.99 632.315,69.444C631.95,68.898 631.535,68.393 631.071,67.929C630.607,67.465 630.102,67.05 629.556,66.685C629.01,66.321 628.433,66.012 627.827,65.761C627.22,65.51 626.595,65.32 625.951,65.192C625.307,65.064 624.657,65 624,65C623.343,65 622.693,65.064 622.049,65.192C621.405,65.32 620.78,65.51 620.173,65.761C619.566,66.012 618.99,66.321 618.444,66.685C617.898,67.05 617.393,67.465 616.929,67.929C616.465,68.393 616.05,68.898 615.685,69.444C615.32,69.99 615.012,70.567 614.761,71.173C614.51,71.78 614.32,72.405 614.192,73.049C614.064,73.693 614,74.343 614,75C614,75.657 614.064,76.307 614.192,76.951C614.32,77.595 614.51,78.22 614.761,78.827C615.012,79.433 615.32,80.01 615.685,80.556C616.05,81.102 616.465,81.607 616.929,82.071C617.393,82.535 617.898,82.95 618.444,83.315C618.99,83.679 619.566,83.988 620.173,84.239C620.78,84.49 621.405,84.68 622.049,84.808C622.693,84.936 623.343,85 624,85C624.657,85 625.307,84.936 625.951,84.808C626.595,84.68 627.22,84.49 627.827,84.239C628.433,83.988 629.01,83.679 629.556,83.315C630.102,82.95 630.607,82.535 631.071,82.071C631.535,81.607 631.95,81.102 632.315,80.556C632.679,80.01 632.987,79.433 633.239,78.827C633.49,78.22 633.68,77.595 633.808,76.951C633.936,76.307 634,75.657 634,75Z" style="fill:none;fill-rule:nonzero;stroke:rgb(230,230,230);stroke-width:6px;"/>
    </g>
    <g transform="matrix(0.717815,0,0,-0.717815,0.358908,165.456)">
        <path d="M634,115C634,114.343 633.936,113.693 633.808,113.049C633.68,112.405 633.49,111.78 633.239,111.173C632.987,110.567 632.679,109.99 632.315,109.444C631.95,108.898 631.535,108.393 631.071,107.929C630.607,107.465 630.102,107.05 629.556,106.685C629.01,106.321 628.433,106.012 627.827,105.761C627.22,105.51 626.595,105.32 625.951,105.192C625.307,105.064 624.657,105 624,105C623.343,105 622.693,105.064 622.049,105.192C621.405,105.32 620.78,105.51 620.173,105.761C619.566,106.013 618.99,106.321 618.444,106.685C617.898,107.05 617.393,107.465 616.929,107.929C616.465,108.393 616.05,108.898 615.685,109.444C615.32,109.99 615.012,110.567 614.761,111.173C614.51,111.78 614.32,112.405 614.192,113.049C614.064,113.693 614,114.343 614,115C614,115.657 614.064,116.307 614.192,116.951C614.32,117.595 614.51,118.22 614.761,118.827C615.012,119.433 615.32,120.01 615.685,120.556C616.05,121.102 616.465,121.607 616.929,122.071C617.393,122.535 617.898,122.95 618.444,123.315C618.99,123.679 619.566,123.988 620.173,124.239C620.78,124.49 621.405,124.68 622.049,124.808C622.693,124.936 623.343,125 624,125C624.657,125 625.307,124.936 625.951,124.808C626.595,124.68 627.22,124.49 627.827,124.239C628.433,123.988 629.01,123.679 629.556,123.315C630.102,122.95 630.607,122.535 631.071,122.071C631.535,121.607 631.95,121.102 632.315,120.556C632.679,120.01 632.987,119.433 633.239,118.827C633.49,118.22 633.68,117.595 633.808,116.951C633.936,116.307 634,115.657 634,115Z" style="fill:none;fill-rule:nonzero;stroke:rgb(230,230,230);stroke-width:7px;"/>
    </g>
    <g transform="matrix(0.717815,0,0,-0.717815,0,107.672)">
        <path d="M714,75C714,74.343 713.936,73.693 713.808,73.049C713.68,72.405 713.49,71.78 713.239,71.173C712.987,70.567 712.679,69.99 712.315,69.444C711.95,68.898 711.535,68.393 711.071,67.929C710.607,67.465 710.102,67.05 709.556,66.685C709.01,66.321 708.433,66.012 707.827,65.761C707.22,65.51 706.595,65.32 705.951,65.192C705.307,65.064 704.657,65 704,65C703.343,65 702.693,65.064 702.049,65.192C701.405,65.32 700.78,65.51 700.173,65.761C699.566,66.012 698.99,66.321 698.444,66.685C697.898,67.05 697.393,67.465 696.929,67.929C696.465,68.393 696.05,68.898 695.685,69.444C695.32,69.99 695.012,70.567 694.761,71.173C694.51,71.78 694.32,72.405 694.192,73.049C694.064,73.693 694,74.343 694,75C694,75.657 694.064,76.307 694.192,76.951C694.32,77.595 694.51,78.22 694.761,78.827C695.012,79.433 695.32,80.01 695.685,80.556C696.05,81.102 696.465,81.607 696.929,82.071C697.393,82.535 697.898,82.95 698.444,83.315C698.99,83.679 699.566,83.988 700.173,84.239C700.78,84.49 701.405,84.68 702.049,84.808C702.693,84.936 703.343,85 704,85C704.657,85 705.307,84.936 705.951,84.808C706.595,84.68 707.22,84.49 707.827,84.239C708.433,83.988 709.01,83.679 709.556,83.315C710.102,82.95 710.607,82.535 711.071,82.071C711.535,81.607 711.95,81.102 712.315,80.556C712.679,80.01 712.987,79.433 713.239,78.827C713.49,78.22 713.68,77.595 713.808,76.951C713.936,76.307 714,75.657 714,75Z" style="fill:none;fill-rule:nonzero;stroke:rgb(230,230,230);stroke-width:6px;"/>
    </g>
    <g transform="matrix(0.717815,0,0,-0.717815,0.358908,165.456)">
        <path d="M714,115C714,114.343 713.936,113.693 713.808,113.049C713.68,112.405 713.49,111.78 713.239,111.173C712.987,110.567 712.679,109.99 712.315,109.444C711.95,108.898 711.535,108.393 711.071,107.929C710.607,107.465 710.102,107.05 709.556,106.685C709.01,106.321 708.433,106.012 707.827,105.761C707.22,105.51 706.595,105.32 705.951,105.192C705.307,105.064 704.657,105 704,105C703.343,105 702.693,105.064 702.049,105.192C701.405,105.32 700.78,105.51 700.173,105.761C699.566,106.013 698.99,106.321 698.444,106.685C697.898,107.05 697.393,107.465 696.929,107.929C696.465,108.393 696.05,108.898 695.685,109.444C695.32,109.99 695.012,110.567 694.761,111.173C694.51,111.78 694.32,112.405 694.192,113.049C694.064,113.693 694,114.343 694,115C694,115.657 694.064,116.307 694.192,116.951C694.32,117.595 694.51,118.22 694.761,118.827C695.012,119.433 695.32,120.01 695.685,120.556C696.05,121.102 696.465,121.607 696.929,122.071C697.393,122.535 697.898,122.95 698.444,123.315C698.99,123.679 699.566,123.988 700.173,124.239C700.78,124.49 701.405,124.68 702.049,124.808C702.693,124.936 703.343,125 704,125C704.657,125 705.307,124.936 705.951,124.808C706.595,124.68 707.22,124.49 707.827,124.239C708.433,123.988 709.01,123.679 709.556,123.315C710.102,122.95 710.607,122.535 711.071,122.071C711.535,121.607 711.95,121.102 712.315,120.556C712.679,120.01 712.987,119.433 713.239,118.827C713.49,118.22 713.68,117.595 713.808,116.951C713.936,116.307 714,115.657 714,115Z" style="fill:none;fill-rule:nonzero;stroke:rgb(230,230,230);stroke-width:7px;"/>
    </g>
    <g transform="matrix(0.717815,0,0,-0.717815,0,222.523)">
        <path d="M114,155C114,154.343 113.936,153.693 113.808,153.049C113.68,152.405 113.49,151.78 113.239,151.173C112.988,150.567 112.679,149.99 112.315,149.444C111.95,148.898 111.535,148.393 111.071,147.929C110.607,147.465 110.102,147.05 109.556,146.685C109.01,146.321 108.433,146.012 107.827,145.761C107.22,145.51 106.595,145.32 105.951,145.192C105.307,145.064 104.657,145 104,145C103.343,145 102.693,145.064 102.049,145.192C101.405,145.32 100.78,145.51 100.173,145.761C99.567,146.012 98.99,146.321 98.444,146.685C97.898,147.05 97.393,147.465 96.929,147.929C96.465,148.393 96.05,148.898 95.685,149.444C95.32,149.99 95.012,150.567 94.761,151.173C94.51,151.78 94.32,152.405 94.192,153.049C94.064,153.693 94,154.343 94,155C94,155.657 94.064,156.307 94.192,156.951C94.32,157.595 94.51,158.22 94.761,158.827C95.012,159.433 95.32,160.01 95.685,160.556C96.05,161.102 96.465,161.607 96.929,162.071C97.393,162.535 97.898,162.95 98.444,163.315C98.99,163.68 99.567,163.988 100.173,164.239C100.78,164.49 101.405,164.68 102.049,164.808C102.693,164.936 103.343,165 104,165C104.657,165 105.307,164.936 105.951,164.808C106.595,164.68 107.22,164.49 107.827,164.239C108.433,163.988 109.01,163.68 109.556,163.315C110.102,162.95 110.607,162.535 111.071,162.071C111.535,161.607 111.95,161.102 112.315,160.556C112.679,160.01 112.988,159.433 113.239,158.827C113.49,158.22 113.68,157.595 113.808,156.951C113.936,156.307 114,155.657 114,155Z" style="fill-rule:nonzero;stroke:rgb(230,230,230);stroke-width:6px;"/>
    </g>
    <g transform="matrix(0.717815,0,0,-0.717815,0.358908,280.307)">
        <path d="M114,195C114,194.343 113.936,193.693 113.808,193.049C113.68,192.405 113.49,191.78 113.239,191.173C112.988,190.567 112.679,189.99 112.315,189.444C111.95,188.898 111.535,188.393 111.071,187.929C110.607,187.465 110.102,187.05 109.556,186.685C109.01,186.321 108.433,186.012 107.827,185.761C107.22,185.51 106.595,185.32 105.951,185.192C105.307,185.064 104.657,185 104,185C103.343,185 102.693,185.064 102.049,185.192C101.405,185.32 100.78,185.51 100.173,185.761C99.567,186.012 98.99,186.321 98.444,186.685C97.898,187.05 97.393,187.465 96.929,187.929C96.465,188.393 96.05,188.898 95.685,189.444C95.32,189.99 95.012,190.567 94.761,191.173C94.51,191.78 94.32,192.405 94.192,193.049C94.064,193.693 94,194.343 94,195C94,195.657 94.064,196.307 94.192,196.951C94.32,197.595 94.51,198.22 94.761,198.827C95.012,199.433 95.32,200.01 95.685,200.556C96.05,201.102 96.465,201.607 96.929,202.071C97.393,202.535 97.898,202.95 98.444,203.315C98.99,203.679 99.567,203.988 100.173,204.239C100.78,204.49 101.405,204.68 102.049,204.808C102.693,204.936 103.343,205 104,205C104.657,205 105.307,204.936 105.951,204.808C106.595,204.68 107.22,204.49 107.827,204.239C108.433,203.988 109.01,203.679 109.556,203.315C110.102,202.95 110.607,202.535 111.071,202.071C111.535,201.607 111.95,201.102 112.315,200.556C112.679,200.01 112.988,199.433 113.239,198.827C113.49,198.22 113.68,197.595 113.808,196.951C113.936,196.307 114,195.657 114,195Z" style="fill-rule:nonzero;stroke:rgb(230,230,230);stroke-width:7px;"/>
    </g>
    <g transform="matrix(0.717815,0,0,-0.717815,0,222.523)">
        <path d="M274,155C274,154.343 273.936,153.693 273.808,153.049C273.68,152.405 273.49,151.78 273.239,151.173C272.987,150.567 272.679,149.99 272.315,149.444C271.95,148.898 271.535,148.393 271.071,147.929C270.607,147.465 270.102,147.05 269.556,146.685C269.01,146.321 268.433,146.012 267.827,145.761C267.22,145.51 266.595,145.32 265.951,145.192C265.307,145.064 264.657,145 264,145C263.343,145 262.693,145.064 262.049,145.192C261.405,145.32 260.78,145.51 260.173,145.761C259.566,146.012 258.99,146.321 258.444,146.685C257.898,147.05 257.393,147.465 256.929,147.929C256.465,148.393 256.05,148.898 255.685,149.444C255.32,149.99 255.012,150.567 254.761,151.173C254.51,151.78 254.32,152.405 254.192,153.049C254.064,153.693 254,154.343 254,155C254,155.657 254.064,156.307 254.192,156.951C254.32,157.595 254.51,158.22 254.761,158.827C255.012,159.433 255.32,160.01 255.685,160.556C256.05,161.102 256.465,161.607 256.929,162.071C257.393,162.535 257.898,162.95 258.444,163.315C258.99,163.68 259.566,163.988 260.173,164.239C260.78,164.49 261.405,164.68 262.049,164.808C262.693,164.936 263.343,165 264,165C264.657,165 265.307,164.936 265.951,164.808C266.595,164.68 267.22,164.49 267.827,164.239C268.433,163.988 269.01,163.68 269.556,163.315C270.102,162.95 270.607,162.535 271.071,162.071C271.535,161.607 271.95,161.102 272.315,160.556C272.679,160.01 272.987,159.433 273.239,158.827C273.49,158.22 273.68,157.595 273.808,156.951C273.936,156.307 274,155.657 274,155Z" style="fill-rule:nonzero;stroke:rgb(230,230,230);stroke-width:6px;"/>
    </g>
    <g transform="matrix(0.717815,0,0,-0.717815,0.358908,280.307)">
        <path d="M274,195C274,194.343 273.936,193.693 273.808,193.049C273.68,192.405 273.49,191.78 273.239,191.173C272.987,190.567 272.679,189.99 272.315,189.444C271.95,188.898 271.535,188.393 271.071,187.929C270.607,187.465 270.102,187.05 269.556,186.685C269.01,186.321 268.433,186.012 267.827,185.761C267.22,185.51 266.595,185.32 265.951,185.192C265.307,185.064 264.657,185 264,185C263.343,185 262.693,185.064 262.049,185.192C261.405,185.32 260.78,185.51 260.173,185.761C259.566,186.012 258.99,186.321 258.444,186.685C257.898,187.05 257.393,187.465 256.929,187.929C256.465,188.393 256.05,188.898 255.685,189.444C255.32,189.99 255.012,190.567 254.761,191.173C254.51,191.78 254.32,192.405 254.192,193.049C254.064,193.693 254,194.343 254,195C254,195.657 254.064,196.307 254.192,196.951C254.32,197.595 254.51,198.22 254.761,198.827C255.012,199.433 255.32,200.01 255.685,200.556C256.05,201.102 256.465,201.607 256.929,202.071C257.393,202.535 257.898,202.95 258.444,203.315C258.99,203.679 259.566,203.988 260.173,204.239C260.78,204.49 261.405,204.68 262.049,204.808C262.693,204.936 263.343,205 264,205C264.657,205 265.307,204.936 265.951,204.808C266.595,204.68 267.22,204.49 267.827,204.239C268.433,203.988 269.01,203.679 269.556,203.315C270.102,202.95 270.607,202.535 271.071,202.071C271.535,201.607 271.95,201.102 272.315,200.556C272.679,200.01 272.987,199.433 273.239,198.827C273.49,198.22 273.68,197.595 273.808,196.951C273.936,196.307 274,195.657 274,195Z" style="fill-rule:nonzero;stroke:rgb(230,230,230);stroke-width:7px;"/>
    </g>
    <g transform="matrix(0.717815,0,0,-0.717815,0,222.523)">
        <path d="M194,155C194,154.343 193.936,153.693 193.808,153.049C193.68,152.405 193.49,151.78 193.239,151.173C192.987,150.567 192.679,149.99 192.315,149.444C191.95,148.898 191.535,148.393 191.071,147.929C190.607,147.465 190.102,147.05 189.556,146.685C189.01,146.321 188.433,146.012 187.827,145.761C187.22,145.51 186.595,145.32 185.951,145.192C185.307,145.064 184.657,145 184,145C183.343,145 182.693,145.064 182.049,145.192C181.405,145.32 180.78,145.51 180.173,145.761C179.567,146.012 178.99,146.321 178.444,146.685C177.898,147.05 177.393,147.465 176.929,147.929C176.465,148.393 176.05,148.898 175.685,149.444C175.32,149.99 175.012,150.567 174.761,151.173C174.51,151.78 174.32,152.405 174.192,153.049C174.064,153.693 174,154.343 174,155C174,155.657 174.064,156.307 174.192,156.951C174.32,157.595 174.51,158.22 174.761,158.827C175.012,159.433 175.32,160.01 175.685,160.556C176.05,161.102 176.465,161.607 176.929,162.071C177.393,162.535 177.898,162.95 178.444,163.315C178.99,163.68 179.567,163.988 180.173,164.239C180.78,164.49 181.405,164.68 182.049,164.808C182.693,164.936 183.343,165 184,165C184.657,165 185.307,164.936 185.951,164.808C186.595,164.68 187.22,164.49 187.827,164.239C188.433,163.988 189.01,163.68 189.556,163.315C190.102,162.95 190.607,162.535 191.071,162.071C191.535,161.607 191.95,161.102 192.315,160.556C192.679,160.01 192.988,159.433 193.239,158.827C193.49,158.22 193.68,157.595 193.808,156.951C193.936,156.307 194,155.657 194,155Z" style="fill-rule:nonzero;stroke:rgb(230,230,230);stroke-width:6px;"/>
    </g>
    <g transform="matrix(0.717815,0,0,-0.717815,0.358908,280.307)">
        <path d="M194,195C194,194.343 193.936,193.693 193.808,193.049C193.68,192.405 193.49,191.78 193.239,191.173C192.987,190.567 192.679,189.99 192.315,189.444C191.95,188.898 191.535,188.393 191.071,187.929C190.607,187.465 190.102,187.05 189.556,186.685C189.01,186.321 188.433,186.012 187.827,185.761C187.22,185.51 186.595,185.32 185.951,185.192C185.307,185.064 184.657,185 184,185C183.343,185 182.693,185.064 182.049,185.192C181.405,185.32 180.78,185.51 180.173,185.761C179.567,186.012 178.99,186.321 178.444,186.685C177.898,187.05 177.393,187.465 176.929,187.929C176.465,188.393 176.05,188.898 175.685,189.444C175.32,189.99 175.012,190.567 174.761,191.173C174.51,191.78 174.32,192.405 174.192,193.049C174.064,193.693 174,194.343 174,195C174,195.657 174.064,196.307 174.192,196.951C174.32,197.595 174.51,198.22 174.761,198.827C175.012,199.433 175.32,200.01 175.685,200.556C176.05,201.102 176.465,201.607 176.929,202.071C177.393,202.535 177.898,202.95 178.444,203.315C178.99,203.679 179.567,203.988 180.173,204.239C180.78,204.49 181.405,204.68 182.049,204.808C182.693,204.936 183.343,205 184,205C184.657,205 185.307,204.936 185.951,204.808C186.595,204.68 187.22,204.49 187.827,204.239C188.433,203.988 189.01,203.679 189.556,203.315C190.102,202.95 190.607,202.535 191.071,202.071C191.535,201.607 191.95,201.102 192.315,200.556C192.679,200.01 192.988,199.433 193.239,198.827C193.49,198.22 193.68,197.595 193.808,196.951C193.936,196.307 194,195.657 194,195Z" style="fill-rule:nonzero;stroke:rgb(230,230,230);stroke-width:7px;"/>
    </g>
    <g transform="matrix(0.717815,0,0,-0.717815,0,222.523)">
        <path d="M354,155C354,154.343 353.936,153.693 353.808,153.049C353.68,152.405 353.49,151.78 353.239,151.173C352.987,150.567 352.679,149.99 352.315,149.444C351.95,148.898 351.535,148.393 351.071,147.929C350.607,147.465 350.102,147.05 349.556,146.685C349.01,146.321 348.433,146.012 347.827,145.761C347.22,145.51 346.595,145.32 345.951,145.192C345.307,145.064 344.657,145 344,145C343.343,145 342.693,145.064 342.049,145.192C341.405,145.32 340.78,145.51 340.173,145.761C339.567,146.012 338.99,146.321 338.444,146.685C337.898,147.05 337.393,147.465 336.929,147.929C336.465,148.393 336.05,148.898 335.685,149.444C335.32,149.99 335.012,150.567 334.761,151.173C334.51,151.78 334.32,152.405 334.192,153.049C334.064,153.693 334,154.343 334,155C334,155.657 334.064,156.307 334.192,156.951C334.32,157.595 334.51,158.22 334.761,158.827C335.012,159.433 335.32,160.01 335.685,160.556C336.05,161.102 336.465,161.607 336.929,162.071C337.393,162.535 337.898,162.95 338.444,163.315C338.99,163.68 339.567,163.988 340.173,164.239C340.78,164.49 341.405,164.68 342.049,164.808C342.693,164.936 343.343,165 344,165C344.657,165 345.307,164.936 345.951,164.808C346.595,164.68 347.22,164.49 347.827,164.239C348.433,163.988 349.01,163.68 349.556,163.315C350.102,162.95 350.607,162.535 351.071,162.071C351.535,161.607 351.95,161.102 352.315,160.556C352.679,160.01 352.987,159.433 353.239,158.827C353.49,158.22 353.68,157.595 353.808,156.951C353.936,156.307 354,155.657 354,155Z" style="fill-rule:nonzero;stroke:rgb(230,230,230);stroke-width:6px;"/>
    </g>
    <g transform="matrix(0.717815,0,0,-0.717815,0.358908,280.307)">
        <path d="M354,195C354,194.343 353.936,193.693 353.808,193.049C353.68,192.405 353.49,191.78 353.239,191.173C352.987,190.567 352.679,189.99 352.315,189.444C351.95,188.898 351.535,188.393 351.071,187.929C350.607,187.465 350.102,187.05 349.556,186.685C349.01,186.321 348.433,186.012 347.827,185.761C347.22,185.51 346.595,185.32 345.951,185.192C345.307,185.064 344.657,185 344,185C343.343,185 342.693,185.064 342.049,185.192C341.405,185.32 340.78,185.51 340.173,185.761C339.567,186.012 338.99,186.321 338.444,186.685C337.898,187.05 337.393,187.465 336.929,187.929C336.465,188.393 336.05,188.898 335.685,189.444C335.32,189.99 335.012,190.567 334.761,191.173C334.51,191.78 334.32,192.405 334.192,193.049C334.064,193.693 334,194.343 334,195C334,195.657 334.064,196.307 334.192,196.951C334.32,197.595 334.51,198.22 334.761,198.827C335.012,199.433 335.32,200.01 335.685,200.556C336.05,201.102 336.465,201.607 336.929,202.071C337.393,202.535 337.898,202.95 338.444,203.315C338.99,203.679 339.567,203.988 340.173,204.239C340.78,204.49 341.405,204.68 342.049,204.808C342.693,204.936 343.343,205 344,205C344.657,205 345.307,204.936 345.951,204.808C346.595,204.68 347.22,204.49 347.827,204.239C348.433,203.988 349.01,203.679 349.556,203.315C350.102,202.95 350.607,202.535 351.071,202.071C351.535,201.607 351.95,201.102 352.315,200.556C352.679,200.01 352.987,199.433 353.239,198.827C353.49,198.22 353.68,197.595 353.808,196.951C353.936,196.307 354,195.657 354,195Z" style="fill-rule:nonzero;stroke:rgb(230,230,230);stroke-width:7px;"/>
    </g>
    <g transform="matrix(0.717815,0,0,-0.717815,0,222.523)">
        <path d="M434,155C434,154.343 433.936,153.693 433.808,153.049C433.68,152.405 433.49,151.78 433.239,151.173C432.987,150.567 432.679,149.99 432.315,149.444C431.95,148.898 431.535,148.393 431.071,147.929C430.607,147.465 430.102,147.05 429.556,146.685C429.01,146.321 428.433,146.012 427.827,145.761C427.22,145.51 426.595,145.32 425.951,145.192C425.307,145.064 424.657,145 424,145C423.343,145 422.693,145.064 422.049,145.192C421.405,145.32 420.78,145.51 420.173,145.761C419.566,146.012 418.99,146.321 418.444,146.685C417.898,147.05 417.393,147.465 416.929,147.929C416.465,148.393 416.05,148.898 415.685,149.444C415.32,149.99 415.012,150.567 414.761,151.173C414.51,151.78 414.32,152.405 414.192,153.049C414.064,153.693 414,154.343 414,155C414,155.657 414.064,156.307 414.192,156.951C414.32,157.595 414.51,158.22 414.761,158.827C415.012,159.433 415.32,160.01 415.685,160.556C416.05,161.102 416.465,161.607 416.929,162.071C417.393,162.535 417.898,162.95 418.444,163.315C418.99,163.68 419.566,163.988 420.173,164.239C420.78,164.49 421.405,164.68 422.049,164.808C422.693,164.936 423.343,165 424,165C424.657,165 425.307,164.936 425.951,164.808C426.595,164.68 427.22,164.49 427.827,164.239C428.433,163.988 429.01,163.68 429.556,163.315C430.102,162.95 430.607,162.535 431.071,162.071C431.535,161.607 431.95,161.102 432.315,160.556C432.679,160.01 432.987,159.433 433.239,158.827C433.49,158.22 433.68,157.595 433.808,156.951C433.936,156.307 434,155.657 434,155Z" style="fill-rule:nonzero;stroke:rgb(230,230,230);stroke-width:6px;"/>
    </g>
    <g transform="matrix(0.717815,0,0,-0.717815,0.358908,280.307)">
        <path d="M434,195C434,194.343 433.936,193.693 433.808,193.049C433.68,192.405 433.49,191.78 433.239,191.173C432.987,190.567 432.679,189.99 432.315,189.444C431.95,188.898 431.535,188.393 431.071,187.929C430.607,187.465 430.102,187.05 429.556,186.685C429.01,186.321 428.433,186.012 427.827,185.761C427.22,185.51 426.595,185.32 425.951,185.192C425.307,185.064 424.657,185 424,185C423.343,185 422.693,185.064 422.049,185.192C421.405,185.32 420.78,185.51 420.173,185.761C419.566,186.012 418.99,186.321 418.444,186.685C417.898,187.05 417.393,187.465 416.929,187.929C416.465,188.393 416.05,188.898 415.685,189.444C415.32,189.99 415.012,190.567 414.761,191.173C414.51,191.78 414.32,192.405 414.192,193.049C414.064,193.693 414,194.343 414,195C414,195.657 414.064,196.307 414.192,196.951C414.32,197.595 414.51,198.22 414.761,198.827C415.012,199.433 415.32,200.01 415.685,200.556C416.05,201.102 416.465,201.607 416.929,202.071C417.393,202.535 417.898,202.95 418.444,203.315C418.99,203.679 419.566,203.988 420.173,204.239C420.78,204.49 421.405,204.68 422.049,204.808C422.693,204.936 423.343,205 424,205C424.657,205 425.307,204.936 425.951,204.808C426.595,204.68 427.22,204.49 427.827,204.239C428.433,203.988 429.01,203.679 429.556,203.315C430.102,202.95 430.607,202.535 431.071,202.071C431.535,201.607 431.95,201.102 432.315,200.556C432.679,200.01 432.987,199.433 433.239,198.827C433.49,198.22 433.68,197.595 433.808,196.951C433.936,196.307 434,195.657 434,195Z" style="fill-rule:nonzero;stroke:rgb(230,230,230);stroke-width:7px;"/>
    </g>
    <g transform="matrix(0.717815,0,0,-0.717815,0,222.523)">
        <path d="M514,155C514,154.343 513.936,153.693 513.808,153.049C513.68,152.405 513.49,151.78 513.239,151.173C512.987,150.567 512.679,149.99 512.315,149.444C511.95,148.898 511.535,148.393 511.071,147.929C510.607,147.465 510.102,147.05 509.556,146.685C509.01,146.321 508.433,146.012 507.827,145.761C507.22,145.51 506.595,145.32 505.951,145.192C505.307,145.064 504.657,145 504,145C503.343,145 502.693,145.064 502.049,145.192C501.405,145.32 500.78,145.51 500.173,145.761C499.566,146.012 498.99,146.321 498.444,146.685C497.898,147.05 497.393,147.465 496.929,147.929C496.465,148.393 496.05,148.898 495.685,149.444C495.32,149.99 495.012,150.567 494.761,151.173C494.51,151.78 494.32,152.405 494.192,153.049C494.064,153.693 494,154.343 494,155C494,155.657 494.064,156.307 494.192,156.951C494.32,157.595 494.51,158.22 494.761,158.827C495.012,159.433 495.32,160.01 495.685,160.556C496.05,161.102 496.465,161.607 496.929,162.071C497.393,162.535 497.898,162.95 498.444,163.315C498.99,163.68 499.566,163.988 500.173,164.239C500.78,164.49 501.405,164.68 502.049,164.808C502.693,164.936 503.343,165 504,165C504.657,165 505.307,164.936 505.951,164.808C506.595,164.68 507.22,164.49 507.827,164.239C508.433,163.988 509.01,163.68 509.556,163.315C510.102,162.95 510.607,162.535 511.071,162.071C511.535,161.607 511.95,161.102 512.315,160.556C512.679,160.01 512.987,159.433 513.239,158.827C513.49,158.22 513.68,157.595 513.808,156.951C513.936,156.307 514,155.657 514,155Z" style="fill-rule:nonzero;stroke:rgb(230,230,230);stroke-width:6px;"/>
    </g>
    <g transform="matrix(0.717815,0,0,-0.717815,0.358908,280.307)">
        <path d="M514,195C514,194.343 513.936,193.693 513.808,193.049C513.68,192.405 513.49,191.78 513.239,191.173C512.987,190.567 512.679,189.99 512.315,189.444C511.95,188.898 511.535,188.393 511.071,187.929C510.607,187.465 510.102,187.05 509.556,186.685C509.01,186.321 508.433,186.012 507.827,185.761C507.22,185.51 506.595,185.32 505.951,185.192C505.307,185.064 504.657,185 504,185C503.343,185 502.693,185.064 502.049,185.192C501.405,185.32 500.78,185.51 500.173,185.761C499.566,186.012 498.99,186.321 498.444,186.685C497.898,187.05 497.393,187.465 496.929,187.929C496.465,188.393 496.05,188.898 495.685,189.444C495.32,189.99 495.012,190.567 494.761,191.173C494.51,191.78 494.32,192.405 494.192,193.049C494.064,193.693 494,194.343 494,195C494,195.657 494.064,196.307 494.192,196.951C494.32,197.595 494.51,198.22 494.761,198.827C495.012,199.433 495.32,200.01 495.685,200.556C496.05,201.102 496.465,201.607 496.929,202.071C497.393,202.535 497.898,202.95 498.444,203.315C498.99,203.679 499.566,203.988 500.173,204.239C500.78,204.49 501.405,204.68 502.049,204.808C502.693,204.936 503.343,205 504,205C504.657,205 505.307,204.936 505.951,204.808C506.595,204.68 507.22,204.49 507.827,204.239C508.433,203.988 509.01,203.679 509.556,203.315C510.102,202.95 510.607,202.535 511.071,202.071C511.535,201.607 511.95,201.102 512.315,200.556C512.679,200.01 512.987,199.433 513.239,198.827C513.49,198.22 513.68,197.595 513.808,196.951C513.936,196.307 514,195.657 514,195Z" style="fill-rule:nonzero;stroke:rgb(230,230,230);stroke-width:7px;"/>
    </g>
    <g transform="matrix(0.717815,0,0,-0.717815,0,222.523)">
        <path d="M594,155C594,154.343 593.936,153.693 593.808,153.049C593.68,152.405 593.49,151.78 593.239,151.173C592.987,150.567 592.679,149.99 592.315,149.444C591.95,148.898 591.535,148.393 591.071,147.929C590.607,147.465 590.102,147.05 589.556,146.685C589.01,146.321 588.433,146.012 587.827,145.761C587.22,145.51 586.595,145.32 585.951,145.192C585.307,145.064 584.657,145 584,145C583.343,145 582.693,145.064 582.049,145.192C581.405,145.32 580.78,145.51 580.173,145.761C579.566,146.012 578.99,146.321 578.444,146.685C577.898,147.05 577.393,147.465 576.929,147.929C576.465,148.393 576.05,148.898 575.685,149.444C575.32,149.99 575.012,150.567 574.761,151.173C574.51,151.78 574.32,152.405 574.192,153.049C574.064,153.693 574,154.343 574,155C574,155.657 574.064,156.307 574.192,156.951C574.32,157.595 574.51,158.22 574.761,158.827C575.012,159.433 575.32,160.01 575.685,160.556C576.05,161.102 576.465,161.607 576.929,162.071C577.393,162.535 577.898,162.95 578.444,163.315C578.99,163.68 579.566,163.988 580.173,164.239C580.78,164.49 581.405,164.68 582.049,164.808C582.693,164.936 583.343,165 584,165C584.657,165 585.307,164.936 585.951,164.808C586.595,164.68 587.22,164.49 587.827,164.239C588.433,163.988 589.01,163.68 589.556,163.315C590.102,162.95 590.607,162.535 591.071,162.071C591.535,161.607 591.95,161.102 592.315,160.556C592.679,160.01 592.987,159.433 593.239,158.827C593.49,158.22 593.68,157.595 593.808,156.951C593.936,156.307 594,155.657 594,155Z" style="fill-rule:nonzero;stroke:rgb(230,230,230);stroke-width:6px;"/>
    </g>
    <g transform="matrix(0.717815,0,0,-0.717815,0.358908,280.307)">
        <path d="M594,195C594,194.343 593.936,193.693 593.808,193.049C593.68,192.405 593.49,191.78 593.239,191.173C592.987,190.567 592.679,189.99 592.315,189.444C591.95,188.898 591.535,188.393 591.071,187.929C590.607,187.465 590.102,187.05 589.556,186.685C589.01,186.321 588.433,186.012 587.827,185.761C587.22,185.51 586.595,185.32 585.951,185.192C585.307,185.064 584.657,185 584,185C583.343,185 582.693,185.064 582.049,185.192C581.405,185.32 580.78,185.51 580.173,185.761C579.566,186.012 578.99,186.321 578.444,186.685C577.898,187.05 577.393,187.465 576.929,187.929C576.465,188.393 576.05,188.898 575.685,189.444C575.32,189.99 575.012,190.567 574.761,191.173C574.51,191.78 574.32,192.405 574.192,193.049C574.064,193.693 574,194.343 574,195C574,195.657 574.064,196.307 574.192,196.951C574.32,197.595 574.51,198.22 574.761,198.827C575.012,199.433 575.32,200.01 575.685,200.556C576.05,201.102 576.465,201.607 576.929,202.071C577.393,202.535 577.898,202.95 578.444,203.315C578.99,203.679 579.566,203.988 580.173,204.239C580.78,204.49 581.405,204.68 582.049,204.808C582.693,204.936 583.343,205 584,205C584.657,205 585.307,204.936 585.951,204.808C586.595,204.68 587.22,204.49 587.827,204.239C588.433,203.988 589.01,203.679 589.556,203.315C590.102,202.95 590.607,202.535 591.071,202.071C591.535,201.607 591.95,201.102 592.315,200.556C592.679,200.01 592.987,199.433 593.239,198.827C593.49,198.22 593.68,197.595 593.808,196.951C593.936,196.307 594,195.657 594,195Z" style="fill-rule:nonzero;stroke:rgb(230,230,230);stroke-width:7px;"/>
    </g>
    <g transform="matrix(0.717815,0,0,-0.717815,0,222.523)">
        <path d="M674,155C674,154.343 673.936,153.693 673.808,153.049C673.68,152.405 673.49,151.78 673.239,151.173C672.987,150.567 672.679,149.99 672.315,149.444C671.95,148.898 671.535,148.393 671.071,147.929C670.607,147.465 670.102,147.05 669.556,146.685C669.01,146.321 668.433,146.012 667.827,145.761C667.22,145.51 666.595,145.32 665.951,145.192C665.307,145.064 664.657,145 664,145C663.343,145 662.693,145.064 662.049,145.192C661.405,145.32 660.78,145.51 660.173,145.761C659.566,146.012 658.99,146.321 658.444,146.685C657.898,147.05 657.393,147.465 656.929,147.929C656.465,148.393 656.05,148.898 655.685,149.444C655.32,149.99 655.012,150.567 654.761,151.173C654.51,151.78 654.32,152.405 654.192,153.049C654.064,153.693 654,154.343 654,155C654,155.657 654.064,156.307 654.192,156.951C654.32,157.595 654.51,158.22 654.761,158.827C655.012,159.433 655.32,160.01 655.685,160.556C656.05,161.102 656.465,161.607 656.929,162.071C657.393,162.535 657.898,162.95 658.444,163.315C658.99,163.68 659.566,163.988 660.173,164.239C660.78,164.49 661.405,164.68 662.049,164.808C662.693,164.936 663.343,165 664,165C664.657,165 665.307,164.936 665.951,164.808C666.595,164.68 667.22,164.49 667.827,164.239C668.433,163.988 669.01,163.68 669.556,163.315C670.102,162.95 670.607,162.535 671.071,162.071C671.535,161.607 671.95,161.102 672.315,160.556C672.679,160.01 672.987,159.433 673.239,158.827C673.49,158.22 673.68,157.595 673.808,156.951C673.936,156.307 674,155.657 674,155Z" style="fill-rule:nonzero;stroke:rgb(230,230,230);stroke-width:6px;"/>
    </g>
    <g transform="matrix(0.717815,0,0,-0.717815,0.358908,280.307)">
        <path d="M674,195C674,194.343 673.936,193.693 673.808,193.049C673.68,192.405 673.49,191.78 673.239,191.173C672.987,190.567 672.679,189.99 672.315,189.444C671.95,188.898 671.535,188.393 671.071,187.929C670.607,187.465 670.102,187.05 669.556,186.685C669.01,186.321 668.433,186.012 667.827,185.761C667.22,185.51 666.595,185.32 665.951,185.192C665.307,185.064 664.657,185 664,185C663.343,185 662.693,185.064 662.049,185.192C661.405,185.32 660.78,185.51 660.173,185.761C659.566,186.012 658.99,186.321 658.444,186.685C657.898,187.05 657.393,187.465 656.929,187.929C656.465,188.393 656.05,188.898 655.685,189.444C655.32,189.99 655.012,190.567 654.761,191.173C654.51,191.78 654.32,192.405 654.192,193.049C654.064,193.693 654,194.343 654,195C654,195.657 654.064,196.307 654.192,196.951C654.32,197.595 654.51,198.22 654.761,198.827C655.012,199.433 655.32,200.01 655.685,200.556C656.05,201.102 656.465,201.607 656.929,202.071C657.393,202.535 657.898,202.95 658.444,203.315C658.99,203.679 659.566,203.988 660.173,204.239C660.78,204.49 661.405,204.68 662.049,204.808C662.693,204.936 663.343,205 664,205C664.657,205 665.307,204.936 665.951,204.808C666.595,204.68 667.22,204.49 667.827,204.239C668.433,203.988 669.01,203.679 669.556,203.315C670.102,202.95 670.607,202.535 671.071,202.071C671.535,201.607 671.95,201.102 672.315,200.556C672.679,200.01 672.987,199.433 673.239,198.827C673.49,198.22 673.68,197.595 673.808,196.951C673.936,196.307 674,195.657 674,195Z" style="fill-rule:nonzero;stroke:rgb(230,230,230);stroke-width:7px;"/>
    </g>
    <g transform="matrix(0.717815,0,0,-0.717815,0,337.373)">
        <path d="M74,235C74,234.343 73.936,233.693 73.808,233.049C73.68,232.405 73.49,231.78 73.239,231.173C72.988,230.567 72.679,229.99 72.315,229.444C71.95,228.898 71.535,228.393 71.071,227.929C70.607,227.465 70.102,227.05 69.556,226.685C69.01,226.321 68.433,226.013 67.827,225.761C67.22,225.51 66.595,225.32 65.951,225.192C65.307,225.064 64.657,225 64,225C63.343,225 62.693,225.064 62.049,225.192C61.405,225.32 60.78,225.51 60.173,225.761C59.567,226.013 58.99,226.321 58.444,226.685C57.898,227.05 57.393,227.465 56.929,227.929C56.465,228.393 56.05,228.898 55.685,229.444C55.321,229.99 55.012,230.567 54.761,231.173C54.51,231.78 54.32,232.405 54.192,233.049C54.064,233.693 54,234.343 54,235C54,235.657 54.064,236.307 54.192,236.951C54.32,237.595 54.51,238.22 54.761,238.827C55.012,239.433 55.321,240.01 55.685,240.556C56.05,241.102 56.465,241.607 56.929,242.071C57.393,242.535 57.898,242.95 58.444,243.315C58.99,243.68 59.567,243.988 60.173,244.239C60.78,244.49 61.405,244.68 62.049,244.808C62.693,244.936 63.343,245 64,245C64.657,245 65.307,244.936 65.951,244.808C66.595,244.68 67.22,244.49 67.827,244.239C68.433,243.988 69.01,243.679 69.556,243.315C70.102,242.95 70.607,242.535 71.071,242.071C71.535,241.607 71.95,241.102 72.315,240.556C72.679,240.01 72.988,239.433 73.239,238.827C73.49,238.22 73.68,237.595 73.808,236.951C73.936,236.307 74,235.657 74,235Z" style="fill-rule:nonzero;stroke:rgb(230,230,230);stroke-width:6px;"/>
    </g>
    <g transform="matrix(0.717815,0,0,-0.717815,0.358908,395.157)">
        <path d="M74,275C74,274.343 73.936,273.693 73.808,273.049C73.68,272.405 73.49,271.78 73.239,271.173C72.988,270.567 72.679,269.99 72.315,269.444C71.95,268.898 71.535,268.393 71.071,267.929C70.607,267.465 70.102,267.05 69.556,266.685C69.01,266.321 68.433,266.013 67.827,265.761C67.22,265.51 66.595,265.32 65.951,265.192C65.307,265.064 64.657,265 64,265C63.343,265 62.693,265.064 62.049,265.192C61.405,265.32 60.78,265.51 60.173,265.761C59.567,266.013 58.99,266.321 58.444,266.685C57.898,267.05 57.393,267.465 56.929,267.929C56.465,268.393 56.05,268.898 55.685,269.444C55.321,269.99 55.012,270.567 54.761,271.173C54.51,271.78 54.32,272.405 54.192,273.049C54.064,273.693 54,274.343 54,275C54,275.657 54.064,276.307 54.192,276.951C54.32,277.595 54.51,278.22 54.761,278.827C55.012,279.434 55.321,280.01 55.685,280.556C56.05,281.102 56.465,281.607 56.929,282.071C57.393,282.535 57.898,282.95 58.444,283.315C58.99,283.68 59.567,283.988 60.173,284.239C60.78,284.49 61.405,284.68 62.049,284.808C62.693,284.936 63.343,285 64,285C64.657,285 65.307,284.936 65.951,284.808C66.595,284.68 67.22,284.49 67.827,284.239C68.433,283.988 69.01,283.68 69.556,283.315C70.102,282.95 70.607,282.535 71.071,282.071C71.535,281.607 71.95,281.102 72.315,280.556C72.679,280.01 72.988,279.434 73.239,278.827C73.49,278.22 73.68,277.595 73.808,276.951C73.936,276.307 74,275.657 74,275Z" style="fill-rule:nonzero;stroke:rgb(230,230,230);stroke-width:7px;"/>
    </g>
    <g transform="matrix(0.717815,0,0,-0.717815,0,337.373)">
        <path d="M234,235C234,234.343 233.936,233.693 233.808,233.049C233.68,232.405 233.49,231.78 233.239,231.173C232.987,230.567 232.679,229.99 232.315,229.444C231.95,228.898 231.535,228.393 231.071,227.929C230.607,227.465 230.102,227.05 229.556,226.685C229.01,226.321 228.433,226.013 227.827,225.761C227.22,225.51 226.595,225.32 225.951,225.192C225.307,225.064 224.657,225 224,225C223.343,225 222.693,225.064 222.049,225.192C221.405,225.32 220.78,225.51 220.173,225.761C219.567,226.013 218.99,226.321 218.444,226.685C217.898,227.05 217.393,227.465 216.929,227.929C216.465,228.393 216.05,228.898 215.685,229.444C215.321,229.99 215.012,230.567 214.761,231.173C214.51,231.78 214.32,232.405 214.192,233.049C214.064,233.693 214,234.343 214,235C214,235.657 214.064,236.307 214.192,236.951C214.32,237.595 214.51,238.22 214.761,238.827C215.012,239.433 215.321,240.01 215.685,240.556C216.05,241.102 216.465,241.607 216.929,242.071C217.393,242.535 217.898,242.95 218.444,243.315C218.99,243.68 219.567,243.988 220.173,244.239C220.78,244.49 221.405,244.68 222.049,244.808C222.693,244.936 223.343,245 224,245C224.657,245 225.307,244.936 225.951,244.808C226.595,244.68 227.22,244.49 227.827,244.239C228.433,243.988 229.01,243.679 229.556,243.315C230.102,242.95 230.607,242.535 231.071,242.071C231.535,241.607 231.95,241.102 232.315,240.556C232.679,240.01 232.987,239.433 233.239,238.827C233.49,238.22 233.68,237.595 233.808,236.951C233.936,236.307 234,235.657 234,235Z" style="fill-rule:nonzero;stroke:rgb(230,230,230);stroke-width:6px;"/>
    </g>
    <g transform="matrix(0.717815,0,0,-0.717815,0.358908,395.157)">
        <path d="M234,275C234,274.343 233.936,273.693 233.808,273.049C233.68,272.405 233.49,271.78 233.239,271.173C232.987,270.567 232.679,269.99 232.315,269.444C231.95,268.898 231.535,268.393 231.071,267.929C230.607,267.465 230.102,267.05 229.556,266.685C229.01,266.321 228.433,266.013 227.827,265.761C227.22,265.51 226.595,265.32 225.951,265.192C225.307,265.064 224.657,265 224,265C223.343,265 222.693,265.064 222.049,265.192C221.405,265.32 220.78,265.51 220.173,265.761C219.567,266.013 218.99,266.321 218.444,266.685C217.898,267.05 217.393,267.465 216.929,267.929C216.465,268.393 216.05,268.898 215.685,269.444C215.321,269.99 215.012,270.567 214.761,271.173C214.51,271.78 214.32,272.405 214.192,273.049C214.064,273.693 214,274.343 214,275C214,275.657 214.064,276.307 214.192,276.951C214.32,277.595 214.51,278.22 214.761,278.827C215.012,279.434 215.321,280.01 215.685,280.556C216.05,281.102 216.465,281.607 216.929,282.071C217.393,282.535 217.898,282.95 218.444,283.315C218.99,283.68 219.567,283.988 220.173,284.239C220.78,284.49 221.405,284.68 222.049,284.808C222.693,284.936 223.343,285 224,285C224.657,285 225.307,284.936 225.951,284.808C226.595,284.68 227.22,284.49 227.827,284.239C228.433,283.988 229.01,283.68 229.556,283.315C230.102,282.95 230.607,282.535 231.071,282.071C231.535,281.607 231.95,281.102 232.315,280.556C232.679,280.01 232.987,279.434 233.239,278.827C233.49,278.22 233.68,277.595 233.808,276.951C233.936,276.307 234,275.657 234,275Z" style="fill-rule:nonzero;stroke:rgb(230,230,230);stroke-width:7px;"/>
    </g>
    <g transform="matrix(0.717815,0,0,-0.717815,0,337.373)">
        <path d="M154,235C154,234.343 153.936,233.693 153.808,233.049C153.68,232.405 153.49,231.78 153.239,231.173C152.988,230.567 152.679,229.99 152.315,229.444C151.95,228.898 151.535,228.393 151.071,227.929C150.607,227.465 150.102,227.05 149.556,226.685C149.01,226.321 148.433,226.013 147.827,225.761C147.22,225.51 146.595,225.32 145.951,225.192C145.307,225.064 144.657,225 144,225C143.343,225 142.693,225.064 142.049,225.192C141.405,225.32 140.78,225.51 140.173,225.761C139.567,226.013 138.99,226.321 138.444,226.685C137.898,227.05 137.393,227.465 136.929,227.929C136.465,228.393 136.05,228.898 135.685,229.444C135.32,229.99 135.012,230.567 134.761,231.173C134.51,231.78 134.32,232.405 134.192,233.049C134.064,233.693 134,234.343 134,235C134,235.657 134.064,236.307 134.192,236.951C134.32,237.595 134.51,238.22 134.761,238.827C135.012,239.433 135.32,240.01 135.685,240.556C136.05,241.102 136.465,241.607 136.929,242.071C137.393,242.535 137.898,242.95 138.444,243.315C138.99,243.68 139.567,243.988 140.173,244.239C140.78,244.49 141.405,244.68 142.049,244.808C142.693,244.936 143.343,245 144,245C144.657,245 145.307,244.936 145.951,244.808C146.595,244.68 147.22,244.49 147.827,244.239C148.433,243.988 149.01,243.679 149.556,243.315C150.102,242.95 150.607,242.535 151.071,242.071C151.535,241.607 151.95,241.102 152.315,240.556C152.679,240.01 152.988,239.433 153.239,238.827C153.49,238.22 153.68,237.595 153.808,236.951C153.936,236.307 154,235.657 154,235Z" style="fill-rule:nonzero;stroke:rgb(230,230,230);stroke-width:6px;"/>
    </g>
    <g transform="matrix(0.717815,0,0,-0.717815,0.358908,395.157)">
        <path d="M154,275C154,274.343 153.936,273.693 153.808,273.049C153.68,272.405 153.49,271.78 153.239,271.173C152.988,270.567 152.679,269.99 152.315,269.444C151.95,268.898 151.535,268.393 151.071,267.929C150.607,267.465 150.102,267.05 149.556,266.685C149.01,266.321 148.433,266.013 147.827,265.761C147.22,265.51 146.595,265.32 145.951,265.192C145.307,265.064 144.657,265 144,265C143.343,265 142.693,265.064 142.049,265.192C141.405,265.32 140.78,265.51 140.173,265.761C139.567,266.013 138.99,266.321 138.444,266.685C137.898,267.05 137.393,267.465 136.929,267.929C136.465,268.393 136.05,268.898 135.685,269.444C135.32,269.99 135.012,270.567 134.761,271.173C134.51,271.78 134.32,272.405 134.192,273.049C134.064,273.693 134,274.343 134,275C134,275.657 134.064,276.307 134.192,276.951C134.32,277.595 134.51,278.22 134.761,278.827C135.012,279.434 135.32,280.01 135.685,280.556C136.05,281.102 136.465,281.607 136.929,282.071C137.393,282.535 137.898,282.95 138.444,283.315C138.99,283.68 139.567,283.988 140.173,284.239C140.78,284.49 141.405,284.68 142.049,284.808C142.693,284.936 143.343,285 144,285C144.657,285 145.307,284.936 145.951,284.808C146.595,284.68 147.22,284.49 147.827,284.239C148.433,283.988 149.01,283.68 149.556,283.315C150.102,282.95 150.607,282.535 151.071,282.071C151.535,281.607 151.95,281.102 152.315,280.556C152.679,280.01 152.988,279.434 153.239,278.827C153.49,278.22 153.68,277.595 153.808,276.951C153.936,276.307 154,275.657 154,275Z" style="fill-rule:nonzero;stroke:rgb(230,230,230);stroke-width:7px;"/>
    </g>
    <g transform="matrix(0.717815,0,0,-0.717815,0,337.373)">
        <path d="M314,235C314,234.343 313.936,233.693 313.808,233.049C313.68,232.405 313.49,231.78 313.239,231.173C312.987,230.567 312.679,229.99 312.315,229.444C311.95,228.898 311.535,228.393 311.071,227.929C310.607,227.465 310.102,227.05 309.556,226.685C309.01,226.321 308.433,226.013 307.827,225.761C307.22,225.51 306.595,225.32 305.951,225.192C305.307,225.064 304.657,225 304,225C303.343,225 302.693,225.064 302.049,225.192C301.405,225.32 300.78,225.51 300.173,225.761C299.566,226.013 298.99,226.321 298.444,226.685C297.898,227.05 297.393,227.465 296.929,227.929C296.465,228.393 296.05,228.898 295.685,229.444C295.321,229.99 295.012,230.567 294.761,231.173C294.51,231.78 294.32,232.405 294.192,233.049C294.064,233.693 294,234.343 294,235C294,235.657 294.064,236.307 294.192,236.951C294.32,237.595 294.51,238.22 294.761,238.827C295.012,239.433 295.321,240.01 295.685,240.556C296.05,241.102 296.465,241.607 296.929,242.071C297.393,242.535 297.898,242.95 298.444,243.315C298.99,243.68 299.566,243.988 300.173,244.239C300.78,244.49 301.405,244.68 302.049,244.808C302.693,244.936 303.343,245 304,245C304.657,245 305.307,244.936 305.951,244.808C306.595,244.68 307.22,244.49 307.827,244.239C308.433,243.988 309.01,243.679 309.556,243.315C310.102,242.95 310.607,242.535 311.071,242.071C311.535,241.607 311.95,241.102 312.315,240.556C312.679,240.01 312.987,239.433 313.239,238.827C313.49,238.22 313.68,237.595 313.808,236.951C313.936,236.307 314,235.657 314,235Z" style="fill-rule:nonzero;stroke:rgb(230,230,230);stroke-width:6px;"/>
    </g>
    <g transform="matrix(0.717815,0,0,-0.717815,0.358908,395.157)">
        <path d="M314,275C314,274.343 313.936,273.693 313.808,273.049C313.68,272.405 313.49,271.78 313.239,271.173C312.987,270.567 312.679,269.99 312.315,269.444C311.95,268.898 311.535,268.393 311.071,267.929C310.607,267.465 310.102,267.05 309.556,266.685C309.01,266.321 308.433,266.013 307.827,265.761C307.22,265.51 306.595,265.32 305.951,265.192C305.307,265.064 304.657,265 304,265C303.343,265 302.693,265.064 302.049,265.192C301.405,265.32 300.78,265.51 300.173,265.761C299.566,266.013 298.99,266.321 298.444,266.685C297.898,267.05 297.393,267.465 296.929,267.929C296.465,268.393 296.05,268.898 295.685,269.444C295.321,269.99 295.012,270.567 294.761,271.173C294.51,271.78 294.32,272.405 294.192,273.049C294.064,273.693 294,274.343 294,275C294,275.657 294.064,276.307 294.192,276.951C294.32,277.595 294.51,278.22 294.761,278.827C295.012,279.434 295.321,280.01 295.685,280.556C296.05,281.102 296.465,281.607 296.929,282.071C297.393,282.535 297.898,282.95 298.444,283.315C298.99,283.68 299.566,283.988 300.173,284.239C300.78,284.49 301.405,284.68 302.049,284.808C302.693,284.936 303.343,285 304,285C304.657,285 305.307,284.936 305.951,284.808C306.595,284.68 307.22,284.49 307.827,284.239C308.433,283.988 309.01,283.68 309.556,283.315C310.102,282.95 310.607,282.535 311.071,282.071C311.535,281.607 311.95,281.102 312.315,280.556C312.679,280.01 312.987,279.434 313.239,278.827C313.49,278.22 313.68,277.595 313.808,276.951C313.936,276.307 314,275.657 314,275Z" style="fill-rule:nonzero;stroke:rgb(230,230,230);stroke-width:7px;"/>
    </g>
    <g transform="matrix(0.717815,0,0,-0.717815,0,337.373)">
        <path d="M394,235C394,234.343 393.936,233.693 393.808,233.049C393.68,232.405 393.49,231.78 393.239,231.173C392.987,230.567 392.679,229.99 392.315,229.444C391.95,228.898 391.535,228.393 391.071,227.929C390.607,227.465 390.102,227.05 389.556,226.685C389.01,226.321 388.433,226.013 387.827,225.761C387.22,225.51 386.595,225.32 385.951,225.192C385.307,225.064 384.657,225 384,225C383.343,225 382.693,225.064 382.049,225.192C381.405,225.32 380.78,225.51 380.173,225.761C379.566,226.013 378.99,226.321 378.444,226.685C377.898,227.05 377.393,227.465 376.929,227.929C376.465,228.393 376.05,228.898 375.685,229.444C375.32,229.99 375.012,230.567 374.761,231.173C374.51,231.78 374.32,232.405 374.192,233.049C374.064,233.693 374,234.343 374,235C374,235.657 374.064,236.307 374.192,236.951C374.32,237.595 374.51,238.22 374.761,238.827C375.012,239.433 375.32,240.01 375.685,240.556C376.05,241.102 376.465,241.607 376.929,242.071C377.393,242.535 377.898,242.95 378.444,243.315C378.99,243.68 379.566,243.988 380.173,244.239C380.78,244.49 381.405,244.68 382.049,244.808C382.693,244.936 383.343,245 384,245C384.657,245 385.307,244.936 385.951,244.808C386.595,244.68 387.22,244.49 387.827,244.239C388.433,243.988 389.01,243.679 389.556,243.315C390.102,242.95 390.607,242.535 391.071,242.071C391.535,241.607 391.95,241.102 392.315,240.556C392.679,240.01 392.987,239.433 393.239,238.827C393.49,238.22 393.68,237.595 393.808,236.951C393.936,236.307 394,235.657 394,235Z" style="fill-rule:nonzero;stroke:rgb(230,230,230);stroke-width:6px;"/>
    </g>
    <g transform="matrix(0.717815,0,0,-0.717815,0.358908,395.157)">
        <path d="M394,275C394,274.343 393.936,273.693 393.808,273.049C393.68,272.405 393.49,271.78 393.239,271.173C392.987,270.567 392.679,269.99 392.315,269.444C391.95,268.898 391.535,268.393 391.071,267.929C390.607,267.465 390.102,267.05 389.556,266.685C389.01,266.321 388.433,266.013 387.827,265.761C387.22,265.51 386.595,265.32 385.951,265.192C385.307,265.064 384.657,265 384,265C383.343,265 382.693,265.064 382.049,265.192C381.405,265.32 380.78,265.51 380.173,265.761C379.566,266.013 378.99,266.321 378.444,266.685C377.898,267.05 377.393,267.465 376.929,267.929C376.465,268.393 376.05,268.898 375.685,269.444C375.32,269.99 375.012,270.567 374.761,271.173C374.51,271.78 374.32,272.405 374.192,273.049C374.064,273.693 374,274.343 374,275C374,275.657 374.064,276.307 374.192,276.951C374.32,277.595 374.51,278.22 374.761,278.827C375.012,279.434 375.32,280.01 375.685,280.556C376.05,281.102 376.465,281.607 376.929,282.071C377.393,282.535 377.898,282.95 378.444,283.315C378.99,283.68 379.566,283.988 380.173,284.239C380.78,284.49 381.405,284.68 382.049,284.808C382.693,284.936 383.343,285 384,285C384.657,285 385.307,284.936 385.951,284.808C386.595,284.68 387.22,284.49 387.827,284.239C388.433,283.988 389.01,283.68 389.556,283.315C390.102,282.95 390.607,282.535 391.071,282.071C391.535,281.607 391.95,281.102 392.315,280.556C392.679,280.01 392.987,279.434 393.239,278.827C393.49,278.22 393.68,277.595 393.808,276.951C393.936,276.307 394,275.657 394,275Z" style="fill-rule:nonzero;stroke:rgb(230,230,230);stroke-width:7px;"/>
    </g>
    <g transform="matrix(0.717815,0,0,-0.717815,0,337.373)">
        <path d="M474,235C474,234.343 473.936,233.693 473.808,233.049C473.68,232.405 473.49,231.78 473.239,231.173C472.987,230.567 472.679,229.99 472.315,229.444C471.95,228.898 471.535,228.393 471.071,227.929C470.607,227.465 470.102,227.05 469.556,226.685C469.01,226.321 468.433,226.013 467.827,225.761C467.22,225.51 466.595,225.32 465.951,225.192C465.307,225.064 464.657,225 464,225C463.343,225 462.693,225.064 462.049,225.192C461.405,225.32 460.78,225.51 460.173,225.761C459.566,226.013 458.99,226.321 458.444,226.685C457.898,227.05 457.393,227.465 456.929,227.929C456.465,228.393 456.05,228.898 455.685,229.444C455.321,229.99 455.012,230.567 454.761,231.173C454.51,231.78 454.32,232.405 454.192,233.049C454.064,233.693 454,234.343 454,235C454,235.657 454.064,236.307 454.192,236.951C454.32,237.595 454.51,238.22 454.761,238.827C455.012,239.433 455.321,240.01 455.685,240.556C456.05,241.102 456.465,241.607 456.929,242.071C457.393,242.535 457.898,242.95 458.444,243.315C458.99,243.68 459.566,243.988 460.173,244.239C460.78,244.49 461.405,244.68 462.049,244.808C462.693,244.936 463.343,245 464,245C464.657,245 465.307,244.936 465.951,244.808C466.595,244.68 467.22,244.49 467.827,244.239C468.433,243.988 469.01,243.679 469.556,243.315C470.102,242.95 470.607,242.535 471.071,242.071C471.535,241.607 471.95,241.102 472.315,240.556C472.679,240.01 472.987,239.433 473.239,238.827C473.49,238.22 473.68,237.595 473.808,236.951C473.936,236.307 474,235.657 474,235Z" style="fill-rule:nonzero;stroke:rgb(230,230,230);stroke-width:6px;"/>
    </g>
    <g transform="matrix(0.717815,0,0,-0.717815,0.358908,395.157)">
        <path d="M474,275C474,274.343 473.936,273.693 473.808,273.049C473.68,272.405 473.49,271.78 473.239,271.173C472.987,270.567 472.679,269.99 472.315,269.444C471.95,268.898 471.535,268.393 471.071,267.929C470.607,267.465 470.102,267.05 469.556,266.685C469.01,266.321 468.433,266.013 467.827,265.761C467.22,265.51 466.595,265.32 465.951,265.192C465.307,265.064 464.657,265 464,265C463.343,265 462.693,265.064 462.049,265.192C461.405,265.32 460.78,265.51 460.173,265.761C459.566,266.013 458.99,266.321 458.444,266.685C457.898,267.05 457.393,267.465 456.929,267.929C456.465,268.393 456.05,268.898 455.685,269.444C455.321,269.99 455.012,270.567 454.761,271.173C454.51,271.78 454.32,272.405 454.192,273.049C454.064,273.693 454,274.343 454,275C454,275.657 454.064,276.307 454.192,276.951C454.32,277.595 454.51,278.22 454.761,278.827C455.012,279.434 455.321,280.01 455.685,280.556C456.05,281.102 456.465,281.607 456.929,282.071C457.393,282.535 457.898,282.95 458.444,283.315C458.99,283.68 459.566,283.988 460.173,284.239C460.78,284.49 461.405,284.68 462.049,284.808C462.693,284.936 463.343,285 464,285C464.657,285 465.307,284.936 465.951,284.808C466.595,284.68 467.22,284.49 467.827,284.239C468.433,283.988 469.01,283.68 469.556,283.315C470.102,282.95 470.607,282.535 471.071,282.071C471.535,281.607 471.95,281.102 472.315,280.556C472.679,280.01 472.987,279.434 473.239,278.827C473.49,278.22 473.68,277.595 473.808,276.951C473.936,276.307 474,275.657 474,275Z" style="fill-rule:nonzero;stroke:rgb(230,230,230);stroke-width:7px;"/>
    </g>
    <g transform="matrix(0.717815,0,0,-0.717815,0,337.373)">
        <path d="M554,235C554,234.343 553.936,233.693 553.808,233.049C553.68,232.405 553.49,231.78 553.239,231.173C552.987,230.567 552.679,229.99 552.315,229.444C551.95,228.898 551.535,228.393 551.071,227.929C550.607,227.465 550.102,227.05 549.556,226.685C549.01,226.321 548.433,226.013 547.827,225.761C547.22,225.51 546.595,225.32 545.951,225.192C545.307,225.064 544.657,225 544,225C543.343,225 542.693,225.064 542.049,225.192C541.405,225.32 540.78,225.51 540.173,225.761C539.566,226.013 538.99,226.321 538.444,226.685C537.898,227.05 537.393,227.465 536.929,227.929C536.465,228.393 536.05,228.898 535.685,229.444C535.32,229.99 535.012,230.567 534.761,231.173C534.51,231.78 534.32,232.405 534.192,233.049C534.064,233.693 534,234.343 534,235C534,235.657 534.064,236.307 534.192,236.951C534.32,237.595 534.51,238.22 534.761,238.827C535.012,239.433 535.32,240.01 535.685,240.556C536.05,241.102 536.465,241.607 536.929,242.071C537.393,242.535 537.898,242.95 538.444,243.315C538.99,243.68 539.566,243.988 540.173,244.239C540.78,244.49 541.405,244.68 542.049,244.808C542.693,244.936 543.343,245 544,245C544.657,245 545.307,244.936 545.951,244.808C546.595,244.68 547.22,244.49 547.827,244.239C548.433,243.988 549.01,243.679 549.556,243.315C550.102,242.95 550.607,242.535 551.071,242.071C551.535,241.607 551.95,241.102 552.315,240.556C552.679,240.01 552.987,239.433 553.239,238.827C553.49,238.22 553.68,237.595 553.808,236.951C553.936,236.307 554,235.657 554,235Z" style="fill-rule:nonzero;stroke:rgb(230,230,230);stroke-width:6px;"/>
    </g>
    <g transform="matrix(0.717815,0,0,-0.717815,0.358908,395.157)">
        <path d="M554,275C554,274.343 553.936,273.693 553.808,273.049C553.68,272.405 553.49,271.78 553.239,271.173C552.987,270.567 552.679,269.99 552.315,269.444C551.95,268.898 551.535,268.393 551.071,267.929C550.607,267.465 550.102,267.05 549.556,266.685C549.01,266.321 548.433,266.013 547.827,265.761C547.22,265.51 546.595,265.32 545.951,265.192C545.307,265.064 544.657,265 544,265C543.343,265 542.693,265.064 542.049,265.192C541.405,265.32 540.78,265.51 540.173,265.761C539.566,266.013 538.99,266.321 538.444,266.685C537.898,267.05 537.393,267.465 536.929,267.929C536.465,268.393 536.05,268.898 535.685,269.444C535.32,269.99 535.012,270.567 534.761,271.173C534.51,271.78 534.32,272.405 534.192,273.049C534.064,273.693 534,274.343 534,275C534,275.657 534.064,276.307 534.192,276.951C534.32,277.595 534.51,278.22 534.761,278.827C535.012,279.434 535.32,280.01 535.685,280.556C536.05,281.102 536.465,281.607 536.929,282.071C537.393,282.535 537.898,282.95 538.444,283.315C538.99,283.68 539.566,283.988 540.173,284.239C540.78,284.49 541.405,284.68 542.049,284.808C542.693,284.936 543.343,285 544,285C544.657,285 545.307,284.936 545.951,284.808C546.595,284.68 547.22,284.49 547.827,284.239C548.433,283.988 549.01,283.68 549.556,283.315C550.102,282.95 550.607,282.535 551.071,282.071C551.535,281.607 551.95,281.102 552.315,280.556C552.679,280.01 552.987,279.434 553.239,278.827C553.49,278.22 553.68,277.595 553.808,276.951C553.936,276.307 554,275.657 554,275Z" style="fill-rule:nonzero;stroke:rgb(230,230,230);stroke-width:7px;"/>
    </g>
    <g transform="matrix(0.717815,0,0,-0.717815,0,337.373)">
        <path d="M634,235C634,234.343 633.936,233.693 633.808,233.049C633.68,232.405 633.49,231.78 633.239,231.173C632.987,230.567 632.679,229.99 632.315,229.444C631.95,228.898 631.535,228.393 631.071,227.929C630.607,227.465 630.102,227.05 629.556,226.685C629.01,226.321 628.433,226.013 627.827,225.761C627.22,225.51 626.595,225.32 625.951,225.192C625.307,225.064 624.657,225 624,225C623.343,225 622.693,225.064 622.049,225.192C621.405,225.32 620.78,225.51 620.173,225.761C619.566,226.013 618.99,226.321 618.444,226.685C617.898,227.05 617.393,227.465 616.929,227.929C616.465,228.393 616.05,228.898 615.685,229.444C615.32,229.99 615.012,230.567 614.761,231.173C614.51,231.78 614.32,232.405 614.192,233.049C614.064,233.693 614,234.343 614,235C614,235.657 614.064,236.307 614.192,236.951C614.32,237.595 614.51,238.22 614.761,238.827C615.012,239.433 615.32,240.01 615.685,240.556C616.05,241.102 616.465,241.607 616.929,242.071C617.393,242.535 617.898,242.95 618.444,243.315C618.99,243.68 619.566,243.988 620.173,244.239C620.78,244.49 621.405,244.68 622.049,244.808C622.693,244.936 623.343,245 624,245C624.657,245 625.307,244.936 625.951,244.808C626.595,244.68 627.22,244.49 627.827,244.239C628.433,243.988 629.01,243.679 629.556,243.315C630.102,242.95 630.607,242.535 631.071,242.071C631.535,241.607 631.95,241.102 632.315,240.556C632.679,240.01 632.987,239.433 633.239,238.827C633.49,238.22 633.68,237.595 633.808,236.951C633.936,236.307 634,235.657 634,235Z" style="fill-rule:nonzero;stroke:rgb(230,230,230);stroke-width:6px;"/>
    </g>
    <g transform="matrix(0.717815,0,0,-0.717815,0.358908,395.157)">
        <path d="M634,275C634,274.343 633.936,273.693 633.808,273.049C633.68,272.405 633.49,271.78 633.239,271.173C632.987,270.567 632.679,269.99 632.315,269.444C631.95,268.898 631.535,268.393 631.071,267.929C630.607,267.465 630.102,267.05 629.556,266.685C629.01,266.321 628.433,266.013 627.827,265.761C627.22,265.51 626.595,265.32 625.951,265.192C625.307,265.064 624.657,265 624,265C623.343,265 622.693,265.064 622.049,265.192C621.405,265.32 620.78,265.51 620.173,265.761C619.566,266.013 618.99,266.321 618.444,266.685C617.898,267.05 617.393,267.465 616.929,267.929C616.465,268.393 616.05,268.898 615.685,269.444C615.32,269.99 615.012,270.567 614.761,271.173C614.51,271.78 614.32,272.405 614.192,273.049C614.064,273.693 614,274.343 614,275C614,275.657 614.064,276.307 614.192,276.951C614.32,277.595 614.51,278.22 614.761,278.827C615.012,279.434 615.32,280.01 615.685,280.556C616.05,281.102 616.465,281.607 616.929,282.071C617.393,282.535 617.898,282.95 618.444,283.315C618.99,283.68 619.566,283.988 620.173,284.239C620.78,284.49 621.405,284.68 622.049,284.808C622.693,284.936 623.343,285 624,285C624.657,285 625.307,284.936 625.951,284.808C626.595,284.68 627.22,284.49 627.827,284.239C628.433,283.988 629.01,283.68 629.556,283.315C630.102,282.95 630.607,282.535 631.071,282.071C631.535,281.607 631.95,281.102 632.315,280.556C632.679,280.01 632.987,279.434 633.239,278.827C633.49,278.22 633.68,277.595 633.808,276.951C633.936,276.307 634,275.657 634,275Z" style="fill-rule:nonzero;stroke:rgb(230,230,230);stroke-width:7px;"/>
    </g>
    <g transform="matrix(0.717815,0,0,-0.717815,0,337.373)">
        <path d="M714,235C714,234.343 713.936,233.693 713.808,233.049C713.68,232.405 713.49,231.78 713.239,231.173C712.987,230.567 712.679,229.99 712.315,229.444C711.95,228.898 711.535,228.393 711.071,227.929C710.607,227.465 710.102,227.05 709.556,226.685C709.01,226.321 708.433,226.013 707.827,225.761C707.22,225.51 706.595,225.32 705.951,225.192C705.307,225.064 704.657,225 704,225C703.343,225 702.693,225.064 702.049,225.192C701.405,225.32 700.78,225.51 700.173,225.761C699.566,226.013 698.99,226.321 698.444,226.685C697.898,227.05 697.393,227.465 696.929,227.929C696.465,228.393 696.05,228.898 695.685,229.444C695.32,229.99 695.012,230.567 694.761,231.173C694.51,231.78 694.32,232.405 694.192,233.049C694.064,233.693 694,234.343 694,235C694,235.657 694.064,236.307 694.192,236.951C694.32,237.595 694.51,238.22 694.761,238.827C695.012,239.433 695.32,240.01 695.685,240.556C696.05,241.102 696.465,241.607 696.929,242.071C697.393,242.535 697.898,242.95 698.444,243.315C698.99,243.68 699.566,243.988 700.173,244.239C700.78,244.49 701.405,244.68 702.049,244.808C702.693,244.936 703.343,245 704,245C704.657,245 705.307,244.936 705.951,244.808C706.595,244.68 707.22,244.49 707.827,244.239C708.433,243.988 709.01,243.679 709.556,243.315C710.102,242.95 710.607,242.535 711.071,242.071C711.535,241.607 711.95,241.102 712.315,240.556C712.679,240.01 712.987,239.433 713.239,238.827C713.49,238.22 713.68,237.595 713.808,236.951C713.936,236.307 714,235.657 714,235Z" style="fill-rule:nonzero;stroke:rgb(230,230,230);stroke-width:6px;"/>
    </g>
    <g transform="matrix(0.717815,0,0,-0.717815,0.358908,395.157)">
        <path d="M714,275C714,274.343 713.936,273.693 713.808,273.049C713.68,272.405 713.49,271.78 713.239,271.173C712.987,270.567 712.679,269.99 712.315,269.444C711.95,268.898 711.535,268.393 711.071,267.929C710.607,267.465 710.102,267.05 709.556,266.685C709.01,266.321 708.433,266.013 707.827,265.761C707.22,265.51 706.595,265.32 705.951,265.192C705.307,265.064 704.657,265 704,265C703.343,265 702.693,265.064 702.049,265.192C701.405,265.32 700.78,265.51 700.173,265.761C699.566,266.013 698.99,266.321 698.444,266.685C697.898,267.05 697.393,267.465 696.929,267.929C696.465,268.393 696.05,268.898 695.685,269.444C695.32,269.99 695.012,270.567 694.761,271.173C694.51,271.78 694.32,272.405 694.192,273.049C694.064,273.693 694,274.343 694,275C694,275.657 694.064,276.307 694.192,276.951C694.32,277.595 694.51,278.22 694.761,278.827C695.012,279.434 695.32,280.01 695.685,280.556C696.05,281.102 696.465,281.607 696.929,282.071C697.393,282.535 697.898,282.95 698.444,283.315C698.99,283.68 699.566,283.988 700.173,284.239C700.78,284.49 701.405,284.68 702.049,284.808C702.693,284.936 703.343,285 704,285C704.657,285 705.307,284.936 705.951,284.808C706.595,284.68 707.22,284.49 707.827,284.239C708.433,283.988 709.01,283.68 709.556,283.315C710.102,282.95 710.607,282.535 711.071,282.071C711.535,281.607 711.95,281.102 712.315,280.556C712.679,280.01 712.987,279.434 713.239,278.827C713.49,278.22 713.68,277.595 713.808,276.951C713.936,276.307 714,275.657 714,275Z" style="fill-rule:nonzero;stroke:rgb(230,230,230);stroke-width:7px;"/>
    </g>
    <g transform="matrix(18.6632,0,0,18.6632,38.6818,37.3264)">
        <path d="M0.509,0.004C0.477,0.015 0.438,0.02 0.393,0.02C0.299,0.02 0.222,-0.008 0.161,-0.064C0.086,-0.131 0.049,-0.23 0.049,-0.361C0.049,-0.492 0.087,-0.592 0.164,-0.659C0.226,-0.714 0.303,-0.742 0.396,-0.742C0.489,-0.742 0.567,-0.713 0.63,-0.654C0.703,-0.587 0.739,-0.493 0.739,-0.372C0.739,-0.307 0.731,-0.254 0.716,-0.21C0.703,-0.169 0.684,-0.135 0.66,-0.107L0.743,-0.03L0.664,0.052L0.577,-0.03C0.551,-0.014 0.528,-0.003 0.509,0.004ZM0.477,-0.126L0.404,-0.195L0.481,-0.276L0.554,-0.207C0.566,-0.23 0.574,-0.251 0.578,-0.269C0.585,-0.295 0.589,-0.326 0.589,-0.361C0.589,-0.442 0.572,-0.504 0.539,-0.548C0.506,-0.592 0.458,-0.614 0.395,-0.614C0.335,-0.614 0.287,-0.593 0.252,-0.551C0.216,-0.508 0.199,-0.445 0.199,-0.361C0.199,-0.262 0.224,-0.192 0.275,-0.149C0.308,-0.121 0.347,-0.107 0.393,-0.107C0.41,-0.107 0.427,-0.11 0.443,-0.114C0.452,-0.116 0.463,-0.12 0.477,-0.126Z" style="fill:white;fill-rule:nonzero;"/>
    </g>
    <g transform="matrix(18.6632,0,0,18.6632,94.5578,37.3264)">
        <path d="M0.776,-0.72L0.929,-0.72L0.727,-0L0.583,-0L0.496,-0.421L0.471,-0.56L0.445,-0.421L0.358,-0L0.219,-0L0.015,-0.72L0.174,-0.72L0.27,-0.308L0.29,-0.193L0.311,-0.305L0.392,-0.72L0.551,-0.72L0.636,-0.308L0.658,-0.193L0.68,-0.303L0.776,-0.72Z" style="fill:white;fill-rule:nonzero;"/>
    </g>
    <g transform="matrix(18.6632,0,0,18.6632,154.567,37.3264)">
        <path d="M0.577,-0.314L0.228,-0.314L0.228,-0.129L0.626,-0.129L0.626,-0L0.081,-0L0.081,-0.72L0.608,-0.72L0.608,-0.592L0.228,-0.592L0.228,-0.439L0.577,-0.439L0.577,-0.314Z" style="fill:white;fill-rule:nonzero;"/>
    </g>
    <g transform="matrix(18.6632,0,0,18.6632,211.477,37.3264)">
        <path d="M0.382,-0.282L0.227,-0.282L0.227,-0L0.08,-0L0.08,-0.72L0.433,-0.72C0.483,-0.719 0.522,-0.713 0.549,-0.701C0.576,-0.69 0.599,-0.673 0.618,-0.651C0.634,-0.633 0.646,-0.612 0.655,-0.59C0.664,-0.568 0.669,-0.543 0.669,-0.515C0.669,-0.48 0.66,-0.447 0.643,-0.414C0.626,-0.381 0.597,-0.357 0.558,-0.344C0.591,-0.33 0.614,-0.311 0.628,-0.287C0.642,-0.262 0.649,-0.225 0.649,-0.174L0.649,-0.126C0.649,-0.093 0.65,-0.071 0.653,-0.059C0.657,-0.041 0.666,-0.027 0.68,-0.018L0.68,-0L0.515,-0C0.51,-0.016 0.507,-0.029 0.505,-0.039C0.501,-0.059 0.499,-0.079 0.499,-0.101L0.498,-0.167C0.497,-0.213 0.489,-0.244 0.472,-0.259C0.456,-0.275 0.426,-0.282 0.382,-0.282ZM0.473,-0.413C0.503,-0.427 0.518,-0.454 0.518,-0.494C0.518,-0.538 0.504,-0.567 0.475,-0.582C0.458,-0.59 0.434,-0.595 0.401,-0.595L0.227,-0.595L0.227,-0.401L0.397,-0.401C0.431,-0.401 0.456,-0.405 0.473,-0.413Z" style="fill:white;fill-rule:nonzero;"/>
    </g>
    <g transform="matrix(18.6632,0,0,18.6632,269.941,37.3264)">
        <path d="M0.599,-0.72L0.599,-0.592L0.384,-0.592L0.384,-0L0.232,-0L0.232,-0.592L0.016,-0.592L0.016,-0.72L0.599,-0.72Z" style="fill:white;fill-rule:nonzero;"/>
    </g>
    <g transform="matrix(18.6632,0,0,18.6632,327.366,37.3264)">
        <path d="M0.585,-0L0.025,-0L0.025,-0.127L0.397,-0.592L0.035,-0.592L0.035,-0.72L0.584,-0.72L0.584,-0.599L0.208,-0.127L0.585,-0.127L0.585,-0Z" style="fill:white;fill-rule:nonzero;"/>
    </g>
    <g transform="matrix(18.6632,0,0,18.6632,383.753,37.3264)">
        <path d="M0.502,-0.277L0.502,-0.72L0.655,-0.72L0.655,-0.277C0.655,-0.201 0.643,-0.141 0.619,-0.099C0.575,-0.021 0.49,0.019 0.366,0.019C0.241,0.019 0.156,-0.021 0.112,-0.099C0.088,-0.141 0.076,-0.201 0.076,-0.277L0.076,-0.72L0.229,-0.72L0.229,-0.277C0.229,-0.228 0.235,-0.192 0.247,-0.169C0.265,-0.129 0.305,-0.108 0.366,-0.108C0.427,-0.108 0.466,-0.129 0.484,-0.169C0.496,-0.192 0.502,-0.228 0.502,-0.277Z" style="fill:white;fill-rule:nonzero;"/>
    </g>
    <g transform="matrix(18.6632,0,0,18.6632,445.324,37.3264)">
        <rect x="0.064" y="-0.72" width="0.149" height="0.72" style="fill:white;fill-rule:nonzero;"/>
    </g>
    <g transform="matrix(18.6632,0,0,18.6632,498.084,37.3264)">
        <path d="M0.395,0.02C0.292,0.02 0.213,-0.008 0.159,-0.064C0.086,-0.133 0.049,-0.232 0.049,-0.361C0.049,-0.493 0.086,-0.592 0.159,-0.658C0.213,-0.714 0.292,-0.742 0.395,-0.742C0.497,-0.742 0.576,-0.714 0.63,-0.658C0.703,-0.592 0.739,-0.493 0.739,-0.361C0.739,-0.232 0.703,-0.133 0.63,-0.064C0.576,-0.008 0.497,0.02 0.395,0.02ZM0.537,-0.173C0.571,-0.217 0.589,-0.28 0.589,-0.361C0.589,-0.442 0.571,-0.504 0.536,-0.548C0.501,-0.592 0.454,-0.614 0.395,-0.614C0.335,-0.614 0.287,-0.592 0.252,-0.548C0.216,-0.504 0.199,-0.442 0.199,-0.361C0.199,-0.28 0.216,-0.217 0.252,-0.173C0.287,-0.129 0.335,-0.107 0.395,-0.107C0.454,-0.107 0.501,-0.129 0.537,-0.173Z" style="fill:white;fill-rule:nonzero;"/>
    </g>
    <g transform="matrix(18.6632,0,0,18.6632,67.9138,94.7516)">
        <path d="M0.498,-0.148L0.232,-0.148L0.183,-0L0.025,-0L0.282,-0.72L0.452,-0.72L0.707,-0L0.544,-0L0.498,-0.148ZM0.456,-0.272L0.366,-0.555L0.273,-0.272L0.456,-0.272Z" style="fill:white;fill-rule:nonzero;"/>
    </g>
    <g transform="matrix(18.6632,0,0,18.6632,125.854,94.7516)">
        <path d="M0.337,-0.104C0.373,-0.104 0.402,-0.108 0.424,-0.116C0.466,-0.131 0.487,-0.159 0.487,-0.199C0.487,-0.223 0.476,-0.241 0.456,-0.254C0.435,-0.267 0.402,-0.278 0.357,-0.288L0.281,-0.305C0.206,-0.322 0.155,-0.34 0.126,-0.36C0.077,-0.394 0.053,-0.445 0.053,-0.516C0.053,-0.581 0.077,-0.634 0.124,-0.677C0.17,-0.719 0.239,-0.741 0.33,-0.741C0.406,-0.741 0.471,-0.721 0.524,-0.68C0.578,-0.64 0.606,-0.582 0.608,-0.505L0.464,-0.505C0.461,-0.549 0.442,-0.579 0.407,-0.598C0.384,-0.61 0.355,-0.616 0.32,-0.616C0.281,-0.616 0.25,-0.608 0.227,-0.592C0.204,-0.577 0.192,-0.555 0.192,-0.527C0.192,-0.501 0.204,-0.482 0.227,-0.469C0.241,-0.461 0.272,-0.451 0.32,-0.439L0.444,-0.41C0.499,-0.397 0.54,-0.379 0.567,-0.357C0.61,-0.324 0.632,-0.275 0.632,-0.21C0.632,-0.145 0.607,-0.09 0.556,-0.047C0.506,-0.003 0.435,0.019 0.343,0.019C0.25,0.019 0.176,-0.003 0.122,-0.046C0.068,-0.088 0.042,-0.147 0.042,-0.222L0.185,-0.222C0.19,-0.189 0.199,-0.165 0.212,-0.148C0.236,-0.119 0.278,-0.104 0.337,-0.104Z" style="fill:white;fill-rule:nonzero;"/>
    </g>
    <g transform="matrix(18.6632,0,0,18.6632,182.764,94.7516)">
        <path d="M0.386,-0L0.076,-0L0.076,-0.72L0.386,-0.72C0.431,-0.719 0.468,-0.714 0.498,-0.704C0.548,-0.688 0.589,-0.657 0.62,-0.613C0.645,-0.577 0.662,-0.538 0.671,-0.497C0.681,-0.455 0.685,-0.415 0.685,-0.377C0.685,-0.282 0.666,-0.201 0.627,-0.134C0.575,-0.045 0.495,-0 0.386,-0ZM0.498,-0.536C0.475,-0.575 0.429,-0.595 0.361,-0.595L0.222,-0.595L0.222,-0.125L0.361,-0.125C0.432,-0.125 0.481,-0.16 0.509,-0.23C0.525,-0.268 0.532,-0.314 0.532,-0.367C0.532,-0.44 0.521,-0.497 0.498,-0.536Z" style="fill:white;fill-rule:nonzero;"/>
    </g>
    <g transform="matrix(18.6632,0,0,18.6632,241.228,94.7516)">
        <path d="M0.586,-0.592L0.226,-0.592L0.226,-0.427L0.542,-0.427L0.542,-0.302L0.226,-0.302L0.226,-0L0.076,-0L0.076,-0.719L0.586,-0.719L0.586,-0.592Z" style="fill:white;fill-rule:nonzero;"/>
    </g>
    <g transform="matrix(18.6632,0,0,18.6632,297.095,94.7516)">
        <path d="M0.518,-0.018C0.478,0.007 0.429,0.019 0.371,0.019C0.276,0.019 0.198,-0.014 0.137,-0.08C0.073,-0.146 0.042,-0.237 0.042,-0.353C0.042,-0.469 0.074,-0.563 0.138,-0.633C0.202,-0.703 0.287,-0.738 0.392,-0.738C0.484,-0.738 0.557,-0.715 0.613,-0.669C0.668,-0.622 0.7,-0.564 0.708,-0.495L0.56,-0.495C0.549,-0.544 0.521,-0.579 0.477,-0.598C0.452,-0.609 0.424,-0.614 0.394,-0.614C0.336,-0.614 0.288,-0.592 0.251,-0.549C0.214,-0.505 0.195,-0.439 0.195,-0.351C0.195,-0.263 0.215,-0.2 0.256,-0.163C0.296,-0.126 0.342,-0.108 0.394,-0.108C0.444,-0.108 0.485,-0.122 0.518,-0.152C0.55,-0.181 0.57,-0.219 0.577,-0.266L0.411,-0.266L0.411,-0.386L0.71,-0.386L0.71,-0L0.611,-0L0.596,-0.09C0.567,-0.056 0.541,-0.032 0.518,-0.018Z" style="fill:white;fill-rule:nonzero;"/>
    </g>
    <g transform="matrix(18.6632,0,0,18.6632,355.04,94.7516)">
        <path d="M0.505,-0L0.505,-0.321L0.224,-0.321L0.224,-0L0.075,-0L0.075,-0.72L0.224,-0.72L0.224,-0.445L0.505,-0.445L0.505,-0.72L0.655,-0.72L0.655,-0L0.505,-0Z" style="fill:white;fill-rule:nonzero;"/>
    </g>
    <g transform="matrix(18.6632,0,0,18.6632,414.014,94.7516)">
        <path d="M0.333,-0.216L0.333,-0.72L0.483,-0.72L0.483,-0.219C0.483,-0.158 0.473,-0.109 0.452,-0.073C0.416,-0.013 0.351,0.018 0.258,0.018C0.164,0.018 0.102,-0.007 0.07,-0.056C0.038,-0.105 0.022,-0.172 0.022,-0.256L0.022,-0.273L0.164,-0.273L0.164,-0.256C0.165,-0.201 0.171,-0.162 0.182,-0.139C0.193,-0.116 0.217,-0.105 0.252,-0.105C0.288,-0.105 0.311,-0.117 0.323,-0.142C0.33,-0.157 0.333,-0.181 0.333,-0.216Z" style="fill:white;fill-rule:nonzero;"/>
    </g>
    <g transform="matrix(18.6632,0,0,18.6632,469.89,94.7516)">
        <path d="M0.714,-0L0.521,-0L0.298,-0.314L0.227,-0.241L0.227,-0L0.079,-0L0.079,-0.72L0.227,-0.72L0.227,-0.423L0.504,-0.72L0.699,-0.72L0.404,-0.423L0.714,-0Z" style="fill:white;fill-rule:nonzero;"/>
    </g>
    <g transform="matrix(18.6632,0,0,18.6632,39.7161,152.177)">
        <path d="M0.382,-0.259L0.229,-0.259L0.229,-0L0.08,-0L0.08,-0.72L0.393,-0.72C0.465,-0.72 0.523,-0.701 0.566,-0.664C0.609,-0.627 0.63,-0.569 0.63,-0.492C0.63,-0.407 0.609,-0.347 0.566,-0.312C0.523,-0.276 0.462,-0.259 0.382,-0.259ZM0.452,-0.409C0.472,-0.426 0.481,-0.453 0.481,-0.491C0.481,-0.528 0.472,-0.555 0.452,-0.571C0.432,-0.587 0.405,-0.595 0.369,-0.595L0.229,-0.595L0.229,-0.383L0.369,-0.383C0.405,-0.383 0.432,-0.391 0.452,-0.409Z" style="fill:white;fill-rule:nonzero;"/>
    </g>
    <g transform="matrix(18.6632,0,0,18.6632,97.1413,152.177)">
        <path d="M0.657,-0.72L0.417,-0.271L0.417,-0L0.266,-0L0.266,-0.271L0.017,-0.72L0.194,-0.72L0.344,-0.406L0.487,-0.72L0.657,-0.72Z" style="fill:white;fill-rule:nonzero;"/>
    </g>
    <g transform="matrix(18.6632,0,0,18.6632,154.567,152.177)">
        <path d="M0.655,-0L0.472,-0L0.335,-0.245L0.191,-0L0.016,-0L0.248,-0.367L0.027,-0.72L0.207,-0.72L0.335,-0.486L0.467,-0.72L0.641,-0.72L0.421,-0.373L0.655,-0Z" style="fill:white;fill-rule:nonzero;"/>
    </g>
    <g transform="matrix(18.6632,0,0,18.6632,211.477,152.177)">
        <path d="M0.584,-0.054C0.53,-0.005 0.462,0.02 0.378,0.02C0.274,0.02 0.193,-0.013 0.134,-0.08C0.075,-0.146 0.045,-0.238 0.045,-0.354C0.045,-0.48 0.079,-0.576 0.146,-0.645C0.205,-0.704 0.279,-0.733 0.37,-0.733C0.491,-0.733 0.579,-0.694 0.635,-0.614C0.666,-0.57 0.683,-0.525 0.685,-0.48L0.535,-0.48C0.525,-0.514 0.512,-0.541 0.497,-0.558C0.47,-0.589 0.429,-0.605 0.375,-0.605C0.321,-0.605 0.278,-0.583 0.246,-0.539C0.215,-0.495 0.199,-0.432 0.199,-0.352C0.199,-0.271 0.215,-0.21 0.249,-0.17C0.282,-0.13 0.325,-0.11 0.376,-0.11C0.429,-0.11 0.469,-0.127 0.497,-0.162C0.512,-0.18 0.525,-0.208 0.535,-0.245L0.684,-0.245C0.671,-0.167 0.637,-0.103 0.584,-0.054Z" style="fill:white;fill-rule:nonzero;"/>
    </g>
    <g transform="matrix(18.6632,0,0,18.6632,269.417,152.177)">
        <path d="M0.023,-0.72L0.184,-0.72L0.34,-0.173L0.498,-0.72L0.654,-0.72L0.408,-0L0.266,-0L0.023,-0.72Z" style="fill:white;fill-rule:nonzero;"/>
    </g>
    <g transform="matrix(18.6632,0,0,18.6632,326.327,152.177)">
        <path d="M0.405,-0L0.079,-0L0.079,-0.72L0.428,-0.72C0.516,-0.718 0.579,-0.693 0.616,-0.643C0.638,-0.612 0.649,-0.576 0.649,-0.533C0.649,-0.489 0.638,-0.454 0.616,-0.427C0.603,-0.412 0.585,-0.399 0.561,-0.386C0.598,-0.373 0.626,-0.352 0.644,-0.323C0.663,-0.294 0.672,-0.259 0.672,-0.217C0.672,-0.175 0.662,-0.136 0.64,-0.103C0.626,-0.08 0.609,-0.061 0.589,-0.046C0.566,-0.028 0.538,-0.016 0.507,-0.01C0.476,-0.003 0.442,-0 0.405,-0ZM0.401,-0.317L0.222,-0.317L0.222,-0.125L0.399,-0.125C0.431,-0.125 0.455,-0.129 0.473,-0.138C0.505,-0.153 0.521,-0.183 0.521,-0.228C0.521,-0.265 0.505,-0.291 0.474,-0.305C0.457,-0.313 0.433,-0.317 0.401,-0.317ZM0.476,-0.454C0.496,-0.466 0.505,-0.487 0.505,-0.517C0.505,-0.551 0.492,-0.573 0.466,-0.583C0.444,-0.591 0.415,-0.595 0.38,-0.595L0.222,-0.595L0.222,-0.436L0.399,-0.436C0.431,-0.436 0.456,-0.442 0.476,-0.454Z" style="fill:white;fill-rule:nonzero;"/>
    </g>
    <g transform="matrix(18.6632,0,0,18.6632,383.753,152.177)">
        <path d="M0.658,-0L0.508,-0L0.214,-0.511L0.214,-0L0.074,-0L0.074,-0.72L0.231,-0.72L0.518,-0.217L0.518,-0.72L0.658,-0.72L0.658,-0Z" style="fill:white;fill-rule:nonzero;"/>
    </g>
    <g transform="matrix(18.6632,0,0,18.6632,440.143,152.177)">
        <path d="M0.214,-0L0.074,-0L0.074,-0.72L0.292,-0.72L0.423,-0.154L0.553,-0.72L0.77,-0.72L0.77,-0L0.629,-0L0.629,-0.487C0.629,-0.501 0.63,-0.52 0.63,-0.546C0.63,-0.571 0.63,-0.59 0.63,-0.604L0.494,-0L0.348,-0L0.213,-0.604C0.213,-0.59 0.213,-0.571 0.213,-0.546C0.214,-0.52 0.214,-0.501 0.214,-0.487L0.214,-0Z" style="fill:white;fill-rule:nonzero;"/>
    </g>
    <g transform="matrix(18.6632,0,0,18.6632,499.642,152.177)">
        <path d="M0.076,-0.72L0.227,-0.72L0.227,-0.129L0.583,-0.129L0.583,-0L0.076,-0L0.076,-0.72Z" style="fill:white;fill-rule:nonzero;"/>
    </g>
    <g transform="matrix(0.717815,0,0,-0.717815,0.358908,27.6359)">
        <path d="M24,19C24,18.337 23.873,17.699 23.619,17.087C23.366,16.474 23.004,15.933 22.536,15.464C22.067,14.996 21.526,14.634 20.913,14.381C20.301,14.127 19.663,14 19,14C18.337,14 17.699,14.127 17.087,14.381C16.474,14.634 15.933,14.996 15.464,15.464C14.996,15.933 14.634,16.474 14.381,17.087C14.127,17.699 14,18.337 14,19C14,19.663 14.127,20.301 14.381,20.913C14.634,21.526 14.996,22.067 15.464,22.536C15.933,23.004 16.474,23.366 17.087,23.619C17.699,23.873 18.337,24 19,24C19.663,24 20.301,23.873 20.913,23.619C21.526,23.366 22.067,23.004 22.536,22.536C23.004,22.067 23.366,21.526 23.619,20.913C23.873,20.301 24,19.663 24,19Z" style="fill:rgb(230,230,230);fill-rule:nonzero;stroke:rgb(230,230,230);stroke-width:7px;"/>
    </g>
    <g transform="matrix(0.507572,-0.507572,-0.507572,-0.507572,13.935,33.1272)">
        <rect x="10.28" y="18.16" width="17.86" height="1.25"/>
    </g>
    <g transform="matrix(0.717815,0,0,-0.717815,0.358908,27.6359)">
        <path d="M754.03,19C754.03,18.337 753.903,17.699 753.649,17.087C753.396,16.474 753.034,15.933 752.565,15.464C752.097,14.996 751.556,14.634 750.943,14.381C750.331,14.127 749.693,14 749.03,14C748.367,14 747.729,14.127 747.117,14.381C746.504,14.634 745.963,14.996 745.494,15.464C745.026,15.933 744.664,16.474 744.411,17.087C744.157,17.699 744.03,18.337 744.03,19C744.03,19.663 744.157,20.301 744.411,20.913C744.664,21.526 745.026,22.067 745.494,22.536C745.963,23.004 746.504,23.366 747.117,23.619C747.729,23.873 748.367,24 749.03,24C749.693,24 750.331,23.873 750.943,23.619C751.556,23.366 752.097,23.004 752.565,22.536C753.034,22.067 753.396,21.526 753.649,20.913C753.903,20.301 754.03,19.663 754.03,19Z" style="fill:rgb(230,230,230);fill-rule:nonzero;stroke:rgb(230,230,230);stroke-width:7px;"/>
    </g>
    <g transform="matrix(0.507572,-0.507572,-0.507572,-0.507572,167.419,403.67)">
        <rect x="740.31" y="18.16" width="17.86" height="1.25"/>
    </g>
    <g transform="matrix(0.717815,0,0,-0.717815,0.358908,443.969)">
        <path d="M754.03,309C754.03,308.337 753.903,307.699 753.649,307.087C753.396,306.474 753.034,305.933 752.565,305.465C752.097,304.996 751.556,304.634 750.943,304.381C750.331,304.127 749.693,304 749.03,304C748.367,304 747.729,304.127 747.117,304.381C746.504,304.634 745.963,304.996 745.494,305.465C745.026,305.933 744.664,306.474 744.411,307.087C744.157,307.699 744.03,308.337 744.03,309C744.03,309.663 744.157,310.301 744.411,310.913C744.664,311.526 745.026,312.067 745.494,312.536C745.963,313.004 746.504,313.366 747.117,313.619C747.729,313.873 748.367,314 749.03,314C749.693,314 750.331,313.873 750.943,313.619C751.556,313.366 752.097,313.004 752.565,312.536C753.034,312.067 753.396,311.526 753.649,310.913C753.903,310.301 754.03,309.663 754.03,309Z" style="fill:rgb(230,230,230);fill-rule:nonzero;stroke:rgb(230,230,230);stroke-width:7px;"/>
    </g>
    <g transform="matrix(0.507572,-0.507572,-0.507572,-0.507572,314.61,759.034)">
        <rect x="740.31" y="308.16" width="17.86" height="1.25"/>
    </g>
    <g transform="matrix(0.717815,0,0,-0.717815,0.358908,443.969)">
        <path d="M24,309C24,308.337 23.873,307.699 23.619,307.087C23.366,306.474 23.004,305.933 22.536,305.465C22.067,304.996 21.526,304.634 20.913,304.381C20.301,304.127 19.663,304 19,304C18.337,304 17.699,304.127 17.087,304.381C16.474,304.634 15.933,304.996 15.464,305.465C14.996,305.933 14.634,306.474 14.381,307.087C14.127,307.699 14,308.337 14,309C14,309.663 14.127,310.301 14.381,310.913C14.634,311.526 14.996,312.067 15.464,312.536C15.933,313.004 16.474,313.366 17.087,313.619C17.699,313.873 18.337,314 19,314C19.663,314 20.301,313.873 20.913,313.619C21.526,313.366 22.067,313.004 22.536,312.536C23.004,312.067 23.366,311.526 23.619,310.913C23.873,310.301 24,309.663 24,309Z" style="fill:rgb(230,230,230);fill-rule:nonzero;stroke:rgb(230,230,230);stroke-width:7px;"/>
    </g>
    <g transform="matrix(0.507572,-0.507572,-0.507572,-0.507572,161.126,388.492)">
        <rect x="10.28" y="308.16" width="17.86" height="1.25"/>
    </g>
</svg>
