<?xml version="1.0" encoding="UTF-8" standalone="no"?>
<!DOCTYPE svg PUBLIC "-//W3C//DTD SVG 1.1//EN" "http://www.w3.org/Graphics/SVG/1.1/DTD/svg11.dtd">
<svg width="100%" height="100%" viewBox="0 0 424 212" version="1.1" xmlns="http://www.w3.org/2000/svg" xmlns:xlink="http://www.w3.org/1999/xlink" xml:space="preserve" xmlns:serif="http://www.serif.com/" style="fill-rule:evenodd;clip-rule:evenodd;stroke-miterlimit:10;">
    <g transform="matrix(1.36323,0,0,1,-19.7205,0)">
        <rect x="-1.092" y="-3.821" width="330.292" height="217.891" style="fill:white;"/>
    </g>
    <g transform="matrix(0.713004,0,0,-0.713004,132,211.762)">
        <rect x="0" y="-0" width="223" height="297" style="fill:white;"/>
    </g>
    <g transform="matrix(1,0,0,1,132,0)">
        <g>
            <g transform="matrix(0.274232,-0.658158,0.658158,0.274232,-47.3874,137.116)">
                <path d="M-19,146L241,146" style="fill:none;fill-rule:nonzero;stroke:black;stroke-width:6px;"/>
            </g>
            <g transform="matrix(0.713004,0,0,-0.713004,0.356502,379.675)">
                <path d="M4,276L58,276C58.398,276 58.781,275.924 59.148,275.772C59.516,275.619 59.84,275.403 60.121,275.121C60.403,274.84 60.619,274.516 60.772,274.148C60.924,273.781 61,273.398 61,273L61,259C61,258.602 60.924,258.22 60.772,257.852C60.619,257.484 60.403,257.16 60.121,256.879C59.84,256.597 59.516,256.381 59.148,256.228C58.781,256.076 58.398,256 58,256L4,256C3.602,256 3.219,256.076 2.852,256.228C2.484,256.381 2.16,256.597 1.879,256.879C1.597,257.16 1.381,257.484 1.228,257.852C1.076,258.22 1,258.602 1,259L1,273C1,273.398 1.076,273.781 1.228,274.148C1.381,274.516 1.597,274.84 1.879,275.121C2.16,275.403 2.484,275.619 2.852,275.772C3.219,275.924 3.602,276 4,276Z" style="fill:rgb(255,255,136);fill-rule:nonzero;stroke:rgb(54,57,61);stroke-width:1px;stroke-miterlimit:4;"/>
            </g>
            <g transform="matrix(0.682934,0.20488,-0.20488,0.682934,54.7627,-15.1941)">
                <path d="M58.798,251L163.202,251" style="fill:none;fill-rule:nonzero;stroke:black;stroke-width:6px;"/>
            </g>
            <g transform="matrix(0.713004,0,0,-0.713004,0.356502,336.895)">
                <path d="M4,246L58,246C58.398,246 58.781,245.924 59.148,245.772C59.516,245.619 59.84,245.403 60.121,245.121C60.403,244.84 60.619,244.516 60.772,244.148C60.924,243.781 61,243.398 61,243L61,229C61,228.602 60.924,228.22 60.772,227.852C60.619,227.484 60.403,227.16 60.121,226.879C59.84,226.597 59.516,226.381 59.148,226.228C58.781,226.076 58.398,226 58,226L4,226C3.602,226 3.219,226.076 2.852,226.228C2.484,226.381 2.16,226.597 1.879,226.879C1.597,227.16 1.381,227.484 1.228,227.852C1.076,228.22 1,228.602 1,229L1,243C1,243.398 1.076,243.781 1.228,244.148C1.381,244.516 1.597,244.84 1.879,245.121C2.16,245.403 2.484,245.619 2.852,245.772C3.219,245.924 3.602,246 4,246Z" style="fill:rgb(255,255,136);fill-rule:nonzero;stroke:rgb(54,57,61);stroke-width:1px;stroke-miterlimit:4;"/>
            </g>
            <g transform="matrix(0.529972,-0.476975,0.476975,0.529972,-56.4763,82.4124)">
                <path d="M43.732,161L178.268,161" style="fill:none;fill-rule:nonzero;stroke:black;stroke-width:6px;"/>
            </g>
            <g transform="matrix(0.713004,0,0,-0.713004,0.356502,294.114)">
                <path d="M4,216L58,216C58.398,216 58.781,215.924 59.148,215.772C59.516,215.619 59.84,215.403 60.121,215.121C60.403,214.84 60.619,214.516 60.772,214.148C60.924,213.781 61,213.398 61,213L61,199C61,198.602 60.924,198.22 60.772,197.852C60.619,197.484 60.403,197.16 60.121,196.879C59.84,196.597 59.516,196.381 59.148,196.228C58.781,196.076 58.398,196 58,196L4,196C3.602,196 3.219,196.076 2.852,196.228C2.484,196.381 2.16,196.597 1.879,196.879C1.597,197.16 1.381,197.484 1.228,197.852C1.076,198.22 1,198.602 1,199L1,213C1,213.398 1.076,213.781 1.228,214.148C1.381,214.516 1.597,214.84 1.879,215.121C2.16,215.403 2.484,215.619 2.852,215.772C3.219,215.924 3.602,216 4,216Z" style="fill:rgb(255,255,136);fill-rule:nonzero;stroke:rgb(54,57,61);stroke-width:1px;stroke-miterlimit:4;"/>
            </g>
            <g transform="matrix(0.543266,-0.461776,0.461776,0.543266,-40.4973,73.0685)">
                <path d="M45.378,128.5L176.622,128.5" style="fill:none;fill-rule:nonzero;stroke:black;stroke-width:6px;"/>
            </g>
            <g transform="matrix(0.713004,0,0,-0.713004,0.356502,251.334)">
                <path d="M4,186L58,186C58.398,186 58.781,185.924 59.148,185.772C59.516,185.619 59.84,185.403 60.121,185.121C60.403,184.84 60.619,184.516 60.772,184.148C60.924,183.781 61,183.398 61,183L61,169C61,168.602 60.924,168.22 60.772,167.852C60.619,167.484 60.403,167.16 60.121,166.879C59.84,166.597 59.516,166.381 59.148,166.228C58.781,166.076 58.398,166 58,166L4,166C3.602,166 3.219,166.076 2.852,166.228C2.484,166.381 2.16,166.597 1.879,166.879C1.597,167.16 1.381,167.484 1.228,167.852C1.076,168.22 1,168.602 1,169L1,183C1,183.398 1.076,183.781 1.228,184.148C1.381,184.516 1.597,184.84 1.879,185.121C2.16,185.403 2.484,185.619 2.852,185.772C3.219,185.924 3.602,186 4,186Z" style="fill:rgb(255,255,136);fill-rule:nonzero;stroke:rgb(54,57,61);stroke-width:1px;stroke-miterlimit:4;"/>
            </g>
            <g transform="matrix(0.543266,0.461776,-0.461776,0.543266,105.886,-19.2615)">
                <path d="M45.378,188.5L176.622,188.5" style="fill:none;fill-rule:nonzero;stroke:black;stroke-width:6px;"/>
            </g>
            <g transform="matrix(0.713004,0,0,-0.713004,0.356502,208.554)">
                <path d="M4,156L58,156C58.398,156 58.781,155.924 59.148,155.772C59.516,155.619 59.84,155.403 60.121,155.121C60.403,154.84 60.619,154.516 60.772,154.148C60.924,153.781 61,153.398 61,153L61,139C61,138.602 60.924,138.22 60.772,137.852C60.619,137.484 60.403,137.16 60.121,136.879C59.84,136.597 59.516,136.381 59.148,136.228C58.781,136.076 58.398,136 58,136L4,136C3.602,136 3.219,136.076 2.852,136.228C2.484,136.381 2.16,136.597 1.879,136.879C1.597,137.16 1.381,137.484 1.228,137.852C1.076,138.22 1,138.602 1,139L1,153C1,153.398 1.076,153.781 1.228,154.148C1.381,154.516 1.597,154.84 1.879,155.121C2.16,155.403 2.484,155.619 2.852,155.772C3.219,155.924 3.602,156 4,156Z" style="fill:rgb(255,255,136);fill-rule:nonzero;stroke:rgb(54,57,61);stroke-width:1px;stroke-miterlimit:4;"/>
            </g>
            <g transform="matrix(0.597814,0.388579,-0.388579,0.597814,68.5472,-26.6025)">
                <path d="M51.366,143.5L170.634,143.5" style="fill:none;fill-rule:nonzero;stroke:black;stroke-width:6px;"/>
            </g>
            <g transform="matrix(0.713004,0,0,-0.713004,0.356502,165.774)">
                <path d="M4,126L58,126C58.398,126 58.781,125.924 59.148,125.772C59.516,125.619 59.84,125.403 60.121,125.121C60.403,124.84 60.619,124.516 60.772,124.148C60.924,123.781 61,123.398 61,123L61,109C61,108.602 60.924,108.22 60.772,107.852C60.619,107.484 60.403,107.16 60.121,106.879C59.84,106.597 59.516,106.381 59.148,106.228C58.781,106.076 58.398,106 58,106L4,106C3.602,106 3.219,106.076 2.852,106.228C2.484,106.381 2.16,106.597 1.879,106.879C1.597,107.16 1.381,107.484 1.228,107.852C1.076,108.22 1,108.602 1,109L1,123C1,123.398 1.076,123.781 1.228,124.148C1.381,124.516 1.597,124.84 1.879,125.121C2.16,125.403 2.484,125.619 2.852,125.772C3.219,125.924 3.602,126 4,126Z" style="fill:rgb(255,255,136);fill-rule:nonzero;stroke:rgb(54,57,61);stroke-width:1px;stroke-miterlimit:4;"/>
            </g>
            <g transform="matrix(0.456454,0.547745,-0.547745,0.456454,105.709,-24.6261)">
                <path d="M32.898,141L189.102,141" style="fill:none;fill-rule:nonzero;stroke:black;stroke-width:6px;"/>
            </g>
            <g transform="matrix(0.713004,0,0,-0.713004,0.356502,122.993)">
                <path d="M4,96L58,96C58.398,96 58.781,95.924 59.148,95.772C59.516,95.619 59.84,95.403 60.121,95.121C60.403,94.84 60.619,94.516 60.772,94.148C60.924,93.781 61,93.398 61,93L61,79C61,78.602 60.924,78.219 60.772,77.852C60.619,77.484 60.403,77.16 60.121,76.879C59.84,76.597 59.516,76.381 59.148,76.228C58.781,76.076 58.398,76 58,76L4,76C3.602,76 3.219,76.076 2.852,76.228C2.484,76.381 2.16,76.597 1.879,76.879C1.597,77.16 1.381,77.484 1.228,77.852C1.076,78.219 1,78.602 1,79L1,93C1,93.398 1.076,93.781 1.228,94.148C1.381,94.516 1.597,94.84 1.879,95.121C2.16,95.403 2.484,95.619 2.852,95.772C3.219,95.924 3.602,96 4,96Z" style="fill:rgb(255,255,136);fill-rule:nonzero;stroke:rgb(54,57,61);stroke-width:1px;stroke-miterlimit:4;"/>
            </g>
            <g transform="matrix(0.712115,-0.0356057,0.0356057,0.712115,-1.98419,4.00428)">
                <path d="M60.938,58.5L161.062,58.5" style="fill:none;fill-rule:nonzero;stroke:black;stroke-width:6px;"/>
            </g>
            <g transform="matrix(0.713004,0,0,-0.713004,0.356502,80.213)">
                <path d="M4,66L58,66C58.398,66 58.781,65.924 59.148,65.772C59.516,65.619 59.84,65.403 60.121,65.121C60.403,64.84 60.619,64.516 60.772,64.148C60.924,63.781 61,63.398 61,63L61,49C61,48.602 60.924,48.219 60.772,47.852C60.619,47.484 60.403,47.16 60.121,46.879C59.84,46.597 59.516,46.381 59.148,46.228C58.781,46.076 58.398,46 58,46L4,46C3.602,46 3.219,46.076 2.852,46.228C2.484,46.381 2.16,46.597 1.879,46.879C1.597,47.16 1.381,47.484 1.228,47.852C1.076,48.219 1,48.602 1,49L1,63C1,63.398 1.076,63.781 1.228,64.148C1.381,64.516 1.597,64.84 1.879,65.121C2.16,65.403 2.484,65.619 2.852,65.772C3.219,65.924 3.602,66 4,66Z" style="fill:rgb(255,255,136);fill-rule:nonzero;stroke:rgb(54,57,61);stroke-width:1px;stroke-miterlimit:4;"/>
            </g>
            <g transform="matrix(0.456454,0.547745,-0.547745,0.456454,75.5831,-38.7364)">
                <path d="M32.898,86L189.102,86" style="fill:none;fill-rule:nonzero;stroke:black;stroke-width:6px;"/>
            </g>
            <g transform="matrix(0.713004,0,0,-0.713004,0.356502,37.4327)">
                <path d="M4,36L58,36C58.398,36 58.781,35.924 59.148,35.772C59.516,35.619 59.84,35.403 60.121,35.121C60.403,34.84 60.619,34.516 60.772,34.148C60.924,33.781 61,33.398 61,33L61,19C61,18.602 60.924,18.219 60.772,17.852C60.619,17.484 60.403,17.16 60.121,16.879C59.84,16.597 59.516,16.381 59.148,16.228C58.781,16.076 58.398,16 58,16L4,16C3.602,16 3.219,16.076 2.852,16.228C2.484,16.381 2.16,16.597 1.879,16.879C1.597,17.16 1.381,17.484 1.228,17.852C1.076,18.219 1,18.602 1,19L1,33C1,33.398 1.076,33.781 1.228,34.148C1.381,34.516 1.597,34.84 1.879,35.121C2.16,35.403 2.484,35.619 2.852,35.772C3.219,35.924 3.602,36 4,36Z" style="fill:rgb(255,255,136);fill-rule:nonzero;stroke:rgb(54,57,61);stroke-width:1px;stroke-miterlimit:4;"/>
            </g>
            <g transform="matrix(0.713004,0,0,-0.713004,0.356502,379.675)">
                <path d="M164,276L218,276C218.398,276 218.78,275.924 219.148,275.772C219.516,275.619 219.84,275.403 220.121,275.121C220.403,274.84 220.619,274.516 220.772,274.148C220.924,273.781 221,273.398 221,273L221,259C221,258.602 220.924,258.22 220.772,257.852C220.619,257.484 220.403,257.16 220.121,256.879C219.84,256.597 219.516,256.381 219.148,256.228C218.78,256.076 218.398,256 218,256L164,256C163.602,256 163.219,256.076 162.852,256.228C162.484,256.381 162.16,256.597 161.879,256.879C161.597,257.16 161.381,257.484 161.228,257.852C161.076,258.22 161,258.602 161,259L161,273C161,273.398 161.076,273.781 161.228,274.148C161.381,274.516 161.597,274.84 161.879,275.121C162.16,275.403 162.484,275.619 162.852,275.772C163.219,275.924 163.602,276 164,276Z" style="fill:rgb(255,255,136);fill-rule:nonzero;stroke:rgb(54,57,61);stroke-width:1px;stroke-miterlimit:4;"/>
            </g>
            <g transform="matrix(0.713004,0,0,-0.713004,0.356502,336.895)">
                <path d="M164,246L218,246C218.398,246 218.78,245.924 219.148,245.772C219.516,245.619 219.84,245.403 220.121,245.121C220.403,244.84 220.619,244.516 220.772,244.148C220.924,243.781 221,243.398 221,243L221,229C221,228.602 220.924,228.22 220.772,227.852C220.619,227.484 220.403,227.16 220.121,226.879C219.84,226.597 219.516,226.381 219.148,226.228C218.78,226.076 218.398,226 218,226L164,226C163.602,226 163.219,226.076 162.852,226.228C162.484,226.381 162.16,226.597 161.879,226.879C161.597,227.16 161.381,227.484 161.228,227.852C161.076,228.22 161,228.602 161,229L161,243C161,243.398 161.076,243.781 161.228,244.148C161.381,244.516 161.597,244.84 161.879,245.121C162.16,245.403 162.484,245.619 162.852,245.772C163.219,245.924 163.602,246 164,246Z" style="fill:rgb(255,255,136);fill-rule:nonzero;stroke:rgb(54,57,61);stroke-width:1px;stroke-miterlimit:4;"/>
            </g>
            <g transform="matrix(0.713004,0,0,-0.713004,0.356502,294.114)">
                <path d="M164,216L218,216C218.398,216 218.78,215.924 219.148,215.772C219.516,215.619 219.84,215.403 220.121,215.121C220.403,214.84 220.619,214.516 220.772,214.148C220.924,213.781 221,213.398 221,213L221,199C221,198.602 220.924,198.22 220.772,197.852C220.619,197.484 220.403,197.16 220.121,196.879C219.84,196.597 219.516,196.381 219.148,196.228C218.78,196.076 218.398,196 218,196L164,196C163.602,196 163.219,196.076 162.852,196.228C162.484,196.381 162.16,196.597 161.879,196.879C161.597,197.16 161.381,197.484 161.228,197.852C161.076,198.22 161,198.602 161,199L161,213C161,213.398 161.076,213.781 161.228,214.148C161.381,214.516 161.597,214.84 161.879,215.121C162.16,215.403 162.484,215.619 162.852,215.772C163.219,215.924 163.602,216 164,216Z" style="fill:rgb(255,255,136);fill-rule:nonzero;stroke:rgb(54,57,61);stroke-width:1px;stroke-miterlimit:4;"/>
            </g>
            <g transform="matrix(0.713004,0,0,-0.713004,0.356502,251.334)">
                <path d="M164,186L218,186C218.398,186 218.78,185.924 219.148,185.772C219.516,185.619 219.84,185.403 220.121,185.121C220.403,184.84 220.619,184.516 220.772,184.148C220.924,183.781 221,183.398 221,183L221,169C221,168.602 220.924,168.22 220.772,167.852C220.619,167.484 220.403,167.16 220.121,166.879C219.84,166.597 219.516,166.381 219.148,166.228C218.78,166.076 218.398,166 218,166L164,166C163.602,166 163.219,166.076 162.852,166.228C162.484,166.381 162.16,166.597 161.879,166.879C161.597,167.16 161.381,167.484 161.228,167.852C161.076,168.22 161,168.602 161,169L161,183C161,183.398 161.076,183.781 161.228,184.148C161.381,184.516 161.597,184.84 161.879,185.121C162.16,185.403 162.484,185.619 162.852,185.772C163.219,185.924 163.602,186 164,186Z" style="fill:rgb(255,255,136);fill-rule:nonzero;stroke:rgb(54,57,61);stroke-width:1px;stroke-miterlimit:4;"/>
            </g>
            <g transform="matrix(0.713004,0,0,-0.713004,0.356502,208.554)">
                <path d="M164,156L218,156C218.398,156 218.78,155.924 219.148,155.772C219.516,155.619 219.84,155.403 220.121,155.121C220.403,154.84 220.619,154.516 220.772,154.148C220.924,153.781 221,153.398 221,153L221,139C221,138.602 220.924,138.22 220.772,137.852C220.619,137.484 220.403,137.16 220.121,136.879C219.84,136.597 219.516,136.381 219.148,136.228C218.78,136.076 218.398,136 218,136L164,136C163.602,136 163.219,136.076 162.852,136.228C162.484,136.381 162.16,136.597 161.879,136.879C161.597,137.16 161.381,137.484 161.228,137.852C161.076,138.22 161,138.602 161,139L161,153C161,153.398 161.076,153.781 161.228,154.148C161.381,154.516 161.597,154.84 161.879,155.121C162.16,155.403 162.484,155.619 162.852,155.772C163.219,155.924 163.602,156 164,156Z" style="fill:rgb(255,255,136);fill-rule:nonzero;stroke:rgb(54,57,61);stroke-width:1px;stroke-miterlimit:4;"/>
            </g>
            <g transform="matrix(0.713004,0,0,-0.713004,0.356502,165.774)">
                <path d="M164,126L218,126C218.398,126 218.78,125.924 219.148,125.772C219.516,125.619 219.84,125.403 220.121,125.121C220.403,124.84 220.619,124.516 220.772,124.148C220.924,123.781 221,123.398 221,123L221,109C221,108.602 220.924,108.22 220.772,107.852C220.619,107.484 220.403,107.16 220.121,106.879C219.84,106.597 219.516,106.381 219.148,106.228C218.78,106.076 218.398,106 218,106L164,106C163.602,106 163.219,106.076 162.852,106.228C162.484,106.381 162.16,106.597 161.879,106.879C161.597,107.16 161.381,107.484 161.228,107.852C161.076,108.22 161,108.602 161,109L161,123C161,123.398 161.076,123.781 161.228,124.148C161.381,124.516 161.597,124.84 161.879,125.121C162.16,125.403 162.484,125.619 162.852,125.772C163.219,125.924 163.602,126 164,126Z" style="fill:rgb(255,255,136);fill-rule:nonzero;stroke:rgb(54,57,61);stroke-width:1px;stroke-miterlimit:4;"/>
            </g>
            <g transform="matrix(0.713004,0,0,-0.713004,0.356502,122.993)">
                <path d="M164,96L218,96C218.398,96 218.78,95.924 219.148,95.772C219.516,95.619 219.84,95.403 220.121,95.121C220.403,94.84 220.619,94.516 220.772,94.148C220.924,93.781 221,93.398 221,93L221,79C221,78.602 220.924,78.219 220.772,77.852C220.619,77.484 220.403,77.16 220.121,76.879C219.84,76.597 219.516,76.381 219.148,76.228C218.78,76.076 218.398,76 218,76L164,76C163.602,76 163.219,76.076 162.852,76.228C162.484,76.381 162.16,76.597 161.879,76.879C161.597,77.16 161.381,77.484 161.228,77.852C161.076,78.219 161,78.602 161,79L161,93C161,93.398 161.076,93.781 161.228,94.148C161.381,94.516 161.597,94.84 161.879,95.121C162.16,95.403 162.484,95.619 162.852,95.772C163.219,95.924 163.602,96 164,96Z" style="fill:rgb(255,255,136);fill-rule:nonzero;stroke:rgb(54,57,61);stroke-width:1px;stroke-miterlimit:4;"/>
            </g>
            <g transform="matrix(0.713004,0,0,-0.713004,0.356502,80.213)">
                <path d="M164,66L218,66C218.398,66 218.78,65.924 219.148,65.772C219.516,65.619 219.84,65.403 220.121,65.121C220.403,64.84 220.619,64.516 220.772,64.148C220.924,63.781 221,63.398 221,63L221,49C221,48.602 220.924,48.219 220.772,47.852C220.619,47.484 220.403,47.16 220.121,46.879C219.84,46.597 219.516,46.381 219.148,46.228C218.78,46.076 218.398,46 218,46L164,46C163.602,46 163.219,46.076 162.852,46.228C162.484,46.381 162.16,46.597 161.879,46.879C161.597,47.16 161.381,47.484 161.228,47.852C161.076,48.219 161,48.602 161,49L161,63C161,63.398 161.076,63.781 161.228,64.148C161.381,64.516 161.597,64.84 161.879,65.121C162.16,65.403 162.484,65.619 162.852,65.772C163.219,65.924 163.602,66 164,66Z" style="fill:rgb(255,255,136);fill-rule:nonzero;stroke:rgb(54,57,61);stroke-width:1px;stroke-miterlimit:4;"/>
            </g>
            <g transform="matrix(0.713004,0,0,-0.713004,0.356502,37.4327)">
                <path d="M164,36L218,36C218.398,36 218.78,35.924 219.148,35.772C219.516,35.619 219.84,35.403 220.121,35.121C220.403,34.84 220.619,34.516 220.772,34.148C220.924,33.781 221,33.398 221,33L221,19C221,18.602 220.924,18.219 220.772,17.852C220.619,17.484 220.403,17.16 220.121,16.879C219.84,16.597 219.516,16.381 219.148,16.228C218.78,16.076 218.398,16 218,16L164,16C163.602,16 163.219,16.076 162.852,16.228C162.484,16.381 162.16,16.597 161.879,16.879C161.597,17.16 161.381,17.484 161.228,17.852C161.076,18.219 161,18.602 161,19L161,33C161,33.398 161.076,33.781 161.228,34.148C161.381,34.516 161.597,34.84 161.879,35.121C162.16,35.403 162.484,35.619 162.852,35.772C163.219,35.924 163.602,36 164,36Z" style="fill:rgb(255,255,136);fill-rule:nonzero;stroke:rgb(54,57,61);stroke-width:1px;stroke-miterlimit:4;"/>
            </g>
            <g transform="matrix(0.713004,0,0,-0.713004,0.356502,208.554)">
                <path d="M17,291L45,291C45.394,291 45.784,290.962 46.171,290.885C46.557,290.808 46.932,290.694 47.296,290.543C47.66,290.393 48.006,290.208 48.333,289.989C48.661,289.77 48.964,289.521 49.243,289.243C49.521,288.964 49.77,288.661 49.989,288.333C50.208,288.006 50.393,287.66 50.543,287.296C50.694,286.932 50.808,286.557 50.885,286.171C50.962,285.784 51,285.394 51,285L51,7C51,6.606 50.962,6.216 50.885,5.829C50.808,5.443 50.694,5.068 50.543,4.704C50.393,4.34 50.208,3.994 49.989,3.667C49.77,3.339 49.521,3.036 49.243,2.757C48.964,2.479 48.661,2.23 48.333,2.011C48.006,1.792 47.66,1.608 47.296,1.457C46.932,1.306 46.557,1.192 46.171,1.115C45.784,1.038 45.394,1 45,1L17,1C16.606,1 16.216,1.038 15.829,1.115C15.443,1.192 15.068,1.306 14.704,1.457C14.34,1.608 13.994,1.792 13.667,2.011C13.339,2.23 13.036,2.479 12.757,2.757C12.479,3.036 12.23,3.339 12.011,3.667C11.792,3.994 11.607,4.34 11.457,4.704C11.306,5.068 11.192,5.443 11.115,5.829C11.038,6.216 11,6.606 11,7L11,285C11,285.394 11.038,285.784 11.115,286.171C11.192,286.557 11.306,286.932 11.457,287.296C11.607,287.66 11.792,288.006 12.011,288.333C12.23,288.661 12.479,288.964 12.757,289.243C13.036,289.521 13.339,289.77 13.667,289.989C13.994,290.208 14.34,290.393 14.704,290.543C15.068,290.694 15.443,290.808 15.829,290.885C16.216,290.962 16.606,291 17,291Z" style="fill:rgb(238,238,238);fill-rule:nonzero;stroke:rgb(54,57,61);stroke-width:1px;stroke-miterlimit:4;"/>
            </g>
            <g transform="matrix(0.713004,0,0,-0.713004,0.356502,208.554)">
                <path d="M177,291L205,291C205.394,291 205.784,290.962 206.171,290.885C206.557,290.808 206.932,290.694 207.296,290.543C207.66,290.393 208.006,290.208 208.333,289.989C208.661,289.77 208.964,289.521 209.243,289.243C209.521,288.964 209.77,288.661 209.989,288.333C210.208,288.006 210.392,287.66 210.543,287.296C210.694,286.932 210.808,286.557 210.885,286.171C210.962,285.784 211,285.394 211,285L211,7C211,6.606 210.962,6.216 210.885,5.829C210.808,5.443 210.694,5.068 210.543,4.704C210.392,4.34 210.208,3.994 209.989,3.667C209.77,3.339 209.521,3.036 209.243,2.757C208.964,2.479 208.661,2.23 208.333,2.011C208.006,1.792 207.66,1.608 207.296,1.457C206.932,1.306 206.557,1.192 206.171,1.115C205.784,1.038 205.394,1 205,1L177,1C176.606,1 176.216,1.038 175.829,1.115C175.443,1.192 175.068,1.306 174.704,1.457C174.34,1.608 173.994,1.792 173.667,2.011C173.339,2.23 173.036,2.479 172.757,2.757C172.479,3.036 172.23,3.339 172.011,3.667C171.792,3.994 171.607,4.34 171.457,4.704C171.306,5.068 171.192,5.443 171.115,5.829C171.038,6.216 171,6.606 171,7L171,285C171,285.394 171.038,285.784 171.115,286.171C171.192,286.557 171.306,286.932 171.457,287.296C171.607,287.66 171.792,288.006 172.011,288.333C172.23,288.661 172.479,288.964 172.757,289.243C173.036,289.521 173.339,289.77 173.667,289.989C173.994,290.208 174.34,290.393 174.704,290.543C175.068,290.694 175.443,290.808 175.829,290.885C176.216,290.962 176.606,291 177,291Z" style="fill:rgb(238,238,238);fill-rule:nonzero;stroke:rgb(54,57,61);stroke-width:1px;stroke-miterlimit:4;"/>
            </g>
        </g>
    </g>
</svg>
