<?xml version="1.0" encoding="UTF-8" standalone="no"?>
<!DOCTYPE svg PUBLIC "-//W3C//DTD SVG 1.1//EN" "http://www.w3.org/Graphics/SVG/1.1/DTD/svg11.dtd">
<svg width="100%" height="100%" viewBox="0 0 3350 668" version="1.1" xmlns="http://www.w3.org/2000/svg" xmlns:xlink="http://www.w3.org/1999/xlink" xml:space="preserve" xmlns:serif="http://www.serif.com/" style="fill-rule:evenodd;clip-rule:evenodd;stroke-linejoin:round;stroke-miterlimit:2;">
    <g transform="matrix(1.33333,0,0,1.33333,-1150.39,-8979.12)">
        <g transform="matrix(1.02682,0,0,1.26612,-90.5266,-1856.73)">
            <rect x="928.413" y="6785.33" width="2446.43" height="395.167" style="fill:white;"/>
        </g>
        <g transform="matrix(2.37817,0,0,2.37817,3695.21,1229.1)">
            <g id="Layer-1" serif:id="Layer 1">
                <g id="g3862">
                </g>
            </g>
        </g>
        <g id="Layer1">
        </g>
        <g id="g862">
        </g>
        <g>
            <g transform="matrix(150,0,0,150,1422.33,6909.83)">
                <path d="M0.365,-0.588L0.365,-0L0.169,-0L0.169,-0.588L0.008,-0.588L0.008,-0.754L0.526,-0.754L0.526,-0.588L0.365,-0.588Z" style="fill-rule:nonzero;"/>
            </g>
            <g transform="matrix(150,0,0,150,1502.43,6909.83)">
                <path d="M0.062,-0.83L0.243,-0.83L0.243,-0.448C0.268,-0.478 0.293,-0.498 0.318,-0.509C0.343,-0.519 0.373,-0.524 0.407,-0.524C0.472,-0.524 0.521,-0.506 0.554,-0.471C0.587,-0.435 0.603,-0.387 0.603,-0.326L0.603,-0L0.422,-0L0.422,-0.259C0.422,-0.285 0.42,-0.306 0.416,-0.322C0.412,-0.338 0.405,-0.35 0.396,-0.359C0.38,-0.373 0.361,-0.38 0.338,-0.38C0.307,-0.38 0.284,-0.371 0.268,-0.353C0.251,-0.334 0.243,-0.308 0.243,-0.274L0.243,-0L0.062,-0L0.062,-0.83Z" style="fill-rule:nonzero;"/>
            </g>
            <g transform="matrix(150,0,0,150,1602.03,6909.83)">
                <path d="M0.437,-0.331C0.431,-0.356 0.419,-0.377 0.4,-0.392C0.381,-0.407 0.359,-0.415 0.332,-0.415C0.304,-0.415 0.281,-0.408 0.264,-0.393C0.246,-0.378 0.235,-0.358 0.23,-0.331L0.437,-0.331ZM0.225,-0.226C0.225,-0.148 0.262,-0.109 0.335,-0.109C0.374,-0.109 0.404,-0.125 0.424,-0.157L0.599,-0.157C0.564,-0.04 0.475,0.019 0.334,0.019C0.291,0.019 0.251,0.012 0.215,-0.001C0.179,-0.014 0.148,-0.032 0.123,-0.056C0.097,-0.08 0.077,-0.109 0.063,-0.142C0.049,-0.175 0.042,-0.213 0.042,-0.254C0.042,-0.297 0.049,-0.335 0.062,-0.37C0.075,-0.404 0.094,-0.433 0.119,-0.457C0.144,-0.481 0.173,-0.5 0.209,-0.513C0.244,-0.526 0.283,-0.532 0.327,-0.532C0.37,-0.532 0.409,-0.526 0.444,-0.513C0.479,-0.5 0.508,-0.481 0.532,-0.456C0.556,-0.431 0.574,-0.401 0.587,-0.366C0.6,-0.33 0.606,-0.29 0.606,-0.245L0.606,-0.226L0.225,-0.226Z" style="fill-rule:nonzero;"/>
            </g>
            <g transform="matrix(150,0,0,150,1750.08,6909.83)">
                <path d="M0.511,-0.588L0.275,-0.588L0.275,-0.462L0.49,-0.462L0.49,-0.296L0.275,-0.296L0.275,-0L0.079,-0L0.079,-0.754L0.511,-0.754L0.511,-0.588Z" style="fill-rule:nonzero;"/>
            </g>
            <g transform="matrix(150,0,0,150,1831.53,6909.83)">
                <path d="M0.243,-0.513L0.243,-0.224C0.243,-0.161 0.274,-0.129 0.335,-0.129C0.396,-0.129 0.427,-0.161 0.427,-0.224L0.427,-0.513L0.608,-0.513L0.608,-0.189C0.608,-0.12 0.585,-0.068 0.54,-0.033C0.494,0.002 0.426,0.019 0.335,0.019C0.244,0.019 0.176,0.002 0.131,-0.033C0.085,-0.068 0.062,-0.12 0.062,-0.189L0.062,-0.513L0.243,-0.513Z" style="fill-rule:nonzero;"/>
            </g>
            <g transform="matrix(150,0,0,150,1931.88,6909.83)">
                <path d="M0.264,-0.362L0.264,-0L0.083,-0L0.083,-0.362L0.023,-0.362L0.023,-0.513L0.083,-0.513L0.083,-0.667L0.264,-0.667L0.264,-0.513L0.367,-0.513L0.367,-0.362L0.264,-0.362Z" style="fill-rule:nonzero;"/>
            </g>
            <g transform="matrix(150,0,0,150,1987.83,6909.83)">
                <path d="M0.243,-0.513L0.243,-0.224C0.243,-0.161 0.274,-0.129 0.335,-0.129C0.396,-0.129 0.427,-0.161 0.427,-0.224L0.427,-0.513L0.608,-0.513L0.608,-0.189C0.608,-0.12 0.585,-0.068 0.54,-0.033C0.494,0.002 0.426,0.019 0.335,0.019C0.244,0.019 0.176,0.002 0.131,-0.033C0.085,-0.068 0.062,-0.12 0.062,-0.189L0.062,-0.513L0.243,-0.513Z" style="fill-rule:nonzero;"/>
            </g>
            <g transform="matrix(150,0,0,150,2088.18,6909.83)">
                <path d="M0.062,-0.513L0.243,-0.513L0.243,-0.429C0.262,-0.46 0.286,-0.483 0.314,-0.5C0.342,-0.516 0.375,-0.524 0.412,-0.524L0.428,-0.524C0.433,-0.524 0.44,-0.523 0.447,-0.522L0.447,-0.349C0.423,-0.361 0.397,-0.367 0.369,-0.367C0.327,-0.367 0.296,-0.355 0.275,-0.33C0.254,-0.305 0.243,-0.268 0.243,-0.22L0.243,-0L0.062,-0L0.062,-0.513Z" style="fill-rule:nonzero;"/>
            </g>
            <g transform="matrix(150,0,0,150,2158.98,6909.83)">
                <path d="M0.23,-0.258C0.23,-0.241 0.233,-0.226 0.239,-0.212C0.245,-0.197 0.253,-0.185 0.264,-0.174C0.274,-0.163 0.286,-0.155 0.301,-0.149C0.315,-0.143 0.33,-0.14 0.347,-0.14C0.363,-0.14 0.378,-0.143 0.393,-0.149C0.407,-0.155 0.419,-0.163 0.43,-0.174C0.44,-0.185 0.448,-0.197 0.455,-0.211C0.461,-0.225 0.464,-0.24 0.464,-0.256C0.464,-0.272 0.461,-0.287 0.455,-0.302C0.448,-0.316 0.44,-0.328 0.43,-0.339C0.419,-0.35 0.407,-0.358 0.393,-0.364C0.378,-0.37 0.363,-0.373 0.347,-0.373C0.33,-0.373 0.315,-0.37 0.301,-0.364C0.286,-0.358 0.274,-0.35 0.264,-0.339C0.253,-0.328 0.245,-0.316 0.239,-0.303C0.233,-0.289 0.23,-0.274 0.23,-0.258ZM0.458,-0.513L0.64,-0.513L0.64,-0L0.458,-0L0.458,-0.057C0.419,-0.008 0.367,0.016 0.301,0.016C0.264,0.016 0.229,0.009 0.198,-0.005C0.167,-0.018 0.139,-0.037 0.116,-0.062C0.093,-0.087 0.075,-0.116 0.062,-0.149C0.049,-0.182 0.042,-0.219 0.042,-0.258C0.042,-0.295 0.048,-0.329 0.061,-0.363C0.074,-0.396 0.091,-0.424 0.114,-0.449C0.137,-0.474 0.164,-0.493 0.195,-0.508C0.226,-0.522 0.261,-0.529 0.299,-0.529C0.363,-0.529 0.416,-0.507 0.458,-0.462L0.458,-0.513Z" style="fill-rule:nonzero;"/>
            </g>
            <g transform="matrix(150,0,0,150,2315.13,6909.83)">
                <path d="M0.243,-0.513L0.243,-0L0.062,-0L0.062,-0.513L0.243,-0.513ZM0.05,-0.71C0.05,-0.724 0.053,-0.737 0.058,-0.75C0.063,-0.762 0.071,-0.773 0.08,-0.782C0.089,-0.791 0.1,-0.799 0.113,-0.804C0.125,-0.809 0.138,-0.812 0.152,-0.812C0.166,-0.812 0.179,-0.809 0.192,-0.804C0.204,-0.799 0.215,-0.791 0.224,-0.782C0.233,-0.773 0.241,-0.762 0.246,-0.75C0.251,-0.737 0.254,-0.724 0.254,-0.71C0.254,-0.696 0.251,-0.683 0.246,-0.671C0.241,-0.658 0.233,-0.647 0.224,-0.638C0.215,-0.629 0.204,-0.621 0.192,-0.616C0.179,-0.611 0.166,-0.608 0.152,-0.608C0.138,-0.608 0.125,-0.611 0.113,-0.616C0.1,-0.621 0.089,-0.629 0.08,-0.638C0.071,-0.647 0.063,-0.658 0.058,-0.671C0.053,-0.683 0.05,-0.696 0.05,-0.71Z" style="fill-rule:nonzero;"/>
            </g>
            <g transform="matrix(150,0,0,150,2360.88,6909.83)">
                <path d="M0.402,-0.381C0.369,-0.398 0.336,-0.407 0.304,-0.407C0.287,-0.407 0.274,-0.404 0.264,-0.397C0.253,-0.39 0.248,-0.381 0.248,-0.37C0.248,-0.364 0.249,-0.359 0.251,-0.356C0.252,-0.352 0.256,-0.348 0.262,-0.345C0.267,-0.342 0.276,-0.339 0.287,-0.336C0.298,-0.333 0.312,-0.33 0.33,-0.326C0.38,-0.316 0.417,-0.298 0.442,-0.273C0.467,-0.247 0.479,-0.214 0.479,-0.174C0.479,-0.144 0.473,-0.117 0.461,-0.093C0.449,-0.069 0.432,-0.049 0.411,-0.033C0.39,-0.016 0.364,-0.004 0.334,0.006C0.304,0.014 0.271,0.019 0.235,0.019C0.166,0.019 0.097,-0.001 0.03,-0.04L0.096,-0.168C0.147,-0.133 0.195,-0.116 0.24,-0.116C0.257,-0.116 0.27,-0.12 0.281,-0.127C0.292,-0.134 0.297,-0.144 0.297,-0.155C0.297,-0.162 0.296,-0.167 0.295,-0.172C0.293,-0.176 0.289,-0.18 0.284,-0.184C0.279,-0.187 0.271,-0.191 0.261,-0.194C0.25,-0.197 0.237,-0.2 0.22,-0.203C0.164,-0.214 0.125,-0.231 0.103,-0.254C0.08,-0.276 0.069,-0.307 0.069,-0.346C0.069,-0.375 0.074,-0.401 0.085,-0.424C0.096,-0.447 0.111,-0.466 0.131,-0.482C0.151,-0.498 0.175,-0.51 0.204,-0.519C0.232,-0.528 0.263,-0.532 0.298,-0.532C0.355,-0.532 0.41,-0.521 0.463,-0.499L0.402,-0.381Z" style="fill-rule:nonzero;"/>
            </g>
            <g transform="matrix(150,0,0,150,2488.23,6909.83)">
                <path d="M0.079,-0L0.079,-0.754L0.275,-0.754L0.637,-0.293L0.637,-0.754L0.832,-0.754L0.832,-0L0.637,-0L0.275,-0.461L0.275,-0L0.079,-0Z" style="fill-rule:nonzero;"/>
            </g>
            <g transform="matrix(150,0,0,150,2626.08,6909.83)">
                <path d="M0.233,-0.259C0.233,-0.242 0.236,-0.226 0.243,-0.212C0.249,-0.197 0.257,-0.185 0.268,-0.174C0.278,-0.163 0.29,-0.155 0.305,-0.149C0.319,-0.143 0.334,-0.14 0.35,-0.14C0.366,-0.14 0.381,-0.143 0.396,-0.149C0.41,-0.155 0.422,-0.163 0.433,-0.174C0.443,-0.185 0.451,-0.197 0.458,-0.212C0.464,-0.226 0.467,-0.241 0.467,-0.258C0.467,-0.274 0.464,-0.289 0.458,-0.304C0.451,-0.318 0.443,-0.33 0.433,-0.341C0.422,-0.352 0.41,-0.36 0.396,-0.366C0.381,-0.372 0.366,-0.375 0.35,-0.375C0.334,-0.375 0.319,-0.372 0.305,-0.366C0.29,-0.36 0.278,-0.352 0.268,-0.341C0.257,-0.33 0.249,-0.318 0.243,-0.304C0.236,-0.29 0.233,-0.275 0.233,-0.259ZM0.042,-0.261C0.042,-0.299 0.05,-0.335 0.065,-0.368C0.08,-0.401 0.102,-0.429 0.129,-0.454C0.156,-0.478 0.189,-0.497 0.227,-0.511C0.264,-0.525 0.305,-0.532 0.35,-0.532C0.394,-0.532 0.435,-0.525 0.473,-0.512C0.51,-0.498 0.543,-0.479 0.571,-0.455C0.598,-0.43 0.62,-0.401 0.635,-0.368C0.65,-0.334 0.658,-0.297 0.658,-0.256C0.658,-0.215 0.65,-0.178 0.635,-0.145C0.619,-0.111 0.597,-0.082 0.57,-0.058C0.543,-0.033 0.51,-0.014 0.472,-0.001C0.433,0.012 0.392,0.019 0.347,0.019C0.303,0.019 0.262,0.012 0.225,-0.001C0.188,-0.014 0.156,-0.033 0.129,-0.058C0.101,-0.083 0.08,-0.112 0.065,-0.147C0.05,-0.181 0.042,-0.219 0.042,-0.261Z" style="fill-rule:nonzero;"/>
            </g>
            <g transform="matrix(150,0,0,150,2727.18,6909.83)">
                <path d="M0.202,-0.513L0.325,-0.243L0.453,-0.513L0.567,-0.513L0.695,-0.235L0.824,-0.513L1.025,-0.513L0.757,-0L0.636,-0L0.508,-0.281L0.386,-0L0.263,-0L0,-0.513L0.202,-0.513Z" style="fill-rule:nonzero;"/>
            </g>
            <g transform="matrix(150,0,0,150,928.413,7114.3)">
                <path d="M0.35,-0.469L0.252,-0.507L0.391,-0.787L0.465,-0.756L0.35,-0.469ZM0.155,-0.469L0.057,-0.507L0.196,-0.787L0.27,-0.756L0.155,-0.469Z" style="fill-rule:nonzero;"/>
            </g>
            <g transform="matrix(150,0,0,150,1009.57,7114.3)">
                <path d="M0.298,-0.647L0.298,-0L0.185,-0L0.185,-0.647L0.011,-0.647L0.011,-0.754L0.471,-0.754L0.471,-0.647L0.298,-0.647Z" style="fill-rule:nonzero;"/>
            </g>
            <g transform="matrix(150,0,0,150,1081.93,7114.3)">
                <path d="M0.069,-0.825L0.179,-0.825L0.179,-0.436C0.218,-0.471 0.261,-0.489 0.309,-0.489C0.362,-0.489 0.405,-0.471 0.438,-0.437C0.465,-0.406 0.479,-0.358 0.479,-0.292L0.479,-0L0.369,-0L0.369,-0.281C0.369,-0.319 0.362,-0.347 0.348,-0.364C0.335,-0.381 0.313,-0.39 0.283,-0.39C0.245,-0.39 0.218,-0.378 0.202,-0.354C0.187,-0.33 0.179,-0.289 0.179,-0.23L0.179,-0L0.069,-0L0.069,-0.825Z" style="fill-rule:nonzero;"/>
            </g>
            <g transform="matrix(150,0,0,150,1164.18,7114.3)">
                <path d="M0.502,-0.212L0.162,-0.212C0.165,-0.173 0.177,-0.142 0.2,-0.119C0.222,-0.096 0.251,-0.084 0.286,-0.084C0.313,-0.084 0.336,-0.091 0.354,-0.104C0.372,-0.117 0.392,-0.141 0.414,-0.176L0.507,-0.125C0.493,-0.1 0.477,-0.079 0.461,-0.062C0.445,-0.044 0.428,-0.03 0.41,-0.019C0.392,-0.008 0.372,0.001 0.351,0.006C0.33,0.011 0.307,0.014 0.282,0.014C0.211,0.014 0.154,-0.009 0.111,-0.055C0.068,-0.101 0.047,-0.161 0.047,-0.237C0.047,-0.313 0.068,-0.373 0.109,-0.42C0.151,-0.466 0.207,-0.489 0.276,-0.489C0.346,-0.489 0.402,-0.466 0.442,-0.422C0.483,-0.378 0.503,-0.316 0.503,-0.238L0.502,-0.212ZM0.39,-0.302C0.374,-0.36 0.337,-0.39 0.279,-0.39C0.265,-0.39 0.253,-0.388 0.241,-0.384C0.229,-0.379 0.219,-0.374 0.209,-0.366C0.2,-0.358 0.191,-0.349 0.185,-0.338C0.178,-0.328 0.173,-0.315 0.169,-0.302L0.39,-0.302Z" style="fill-rule:nonzero;"/>
            </g>
            <g transform="matrix(150,0,0,150,1293.45,7114.3)">
                <path d="M0.183,-0.373L0.183,-0L0.073,-0L0.073,-0.373L0.026,-0.373L0.026,-0.476L0.073,-0.476L0.073,-0.65L0.183,-0.65L0.183,-0.476L0.268,-0.476L0.268,-0.373L0.183,-0.373Z" style="fill-rule:nonzero;"/>
            </g>
            <g transform="matrix(150,0,0,150,1334.47,7114.3)">
                <path d="M0.219,-0.088L0.005,-0.476L0.133,-0.476L0.278,-0.202L0.414,-0.476L0.538,-0.476L0.159,0.259L0.034,0.259L0.219,-0.088Z" style="fill-rule:nonzero;"/>
            </g>
            <g transform="matrix(150,0,0,150,1415.99,7114.3)">
                <path d="M0.179,0.259L0.069,0.259L0.069,-0.476L0.179,-0.476L0.179,-0.424C0.222,-0.467 0.272,-0.489 0.327,-0.489C0.392,-0.489 0.446,-0.465 0.488,-0.417C0.531,-0.369 0.553,-0.308 0.553,-0.235C0.553,-0.164 0.531,-0.105 0.489,-0.057C0.446,-0.01 0.393,0.014 0.329,0.014C0.273,0.014 0.223,-0.009 0.179,-0.053L0.179,0.259ZM0.44,-0.235C0.44,-0.28 0.428,-0.318 0.403,-0.346C0.378,-0.375 0.347,-0.39 0.309,-0.39C0.268,-0.39 0.236,-0.376 0.21,-0.348C0.185,-0.32 0.173,-0.283 0.173,-0.237C0.173,-0.193 0.185,-0.156 0.21,-0.127C0.235,-0.099 0.268,-0.084 0.308,-0.084C0.346,-0.084 0.378,-0.099 0.402,-0.127C0.428,-0.156 0.44,-0.192 0.44,-0.235Z" style="fill-rule:nonzero;"/>
            </g>
            <g transform="matrix(150,0,0,150,1505.93,7114.3)">
                <path d="M0.502,-0.212L0.162,-0.212C0.165,-0.173 0.177,-0.142 0.2,-0.119C0.222,-0.096 0.251,-0.084 0.286,-0.084C0.313,-0.084 0.336,-0.091 0.354,-0.104C0.372,-0.117 0.392,-0.141 0.414,-0.176L0.507,-0.125C0.493,-0.1 0.477,-0.079 0.461,-0.062C0.445,-0.044 0.428,-0.03 0.41,-0.019C0.392,-0.008 0.372,0.001 0.351,0.006C0.33,0.011 0.307,0.014 0.282,0.014C0.211,0.014 0.154,-0.009 0.111,-0.055C0.068,-0.101 0.047,-0.161 0.047,-0.237C0.047,-0.313 0.068,-0.373 0.109,-0.42C0.151,-0.466 0.207,-0.489 0.276,-0.489C0.346,-0.489 0.402,-0.466 0.442,-0.422C0.483,-0.378 0.503,-0.316 0.503,-0.238L0.502,-0.212ZM0.39,-0.302C0.374,-0.36 0.337,-0.39 0.279,-0.39C0.265,-0.39 0.253,-0.388 0.241,-0.384C0.229,-0.379 0.219,-0.374 0.209,-0.366C0.2,-0.358 0.191,-0.349 0.185,-0.338C0.178,-0.328 0.173,-0.315 0.169,-0.302L0.39,-0.302Z" style="fill-rule:nonzero;"/>
            </g>
            <g transform="matrix(150,0,0,150,1635.2,7114.3)">
                <path d="M0.047,-0.241C0.047,-0.31 0.071,-0.368 0.121,-0.417C0.17,-0.465 0.23,-0.489 0.3,-0.489C0.371,-0.489 0.431,-0.465 0.481,-0.416C0.53,-0.368 0.554,-0.308 0.554,-0.237C0.554,-0.166 0.53,-0.106 0.48,-0.058C0.431,-0.01 0.37,0.014 0.298,0.014C0.227,0.014 0.167,-0.011 0.119,-0.06C0.071,-0.108 0.047,-0.168 0.047,-0.241ZM0.159,-0.239C0.159,-0.192 0.172,-0.154 0.197,-0.126C0.223,-0.098 0.258,-0.084 0.3,-0.084C0.343,-0.084 0.378,-0.098 0.403,-0.126C0.429,-0.154 0.442,-0.191 0.442,-0.237C0.442,-0.283 0.429,-0.32 0.403,-0.348C0.377,-0.376 0.343,-0.39 0.3,-0.39C0.258,-0.39 0.224,-0.376 0.198,-0.348C0.172,-0.32 0.159,-0.284 0.159,-0.239Z" style="fill-rule:nonzero;"/>
            </g>
            <g transform="matrix(150,0,0,150,1725.36,7114.3)">
                <path d="M0.183,-0.373L0.183,-0L0.073,-0L0.073,-0.373L0.034,-0.373L0.034,-0.476L0.073,-0.476L0.073,-0.659C0.073,-0.719 0.083,-0.761 0.104,-0.786C0.133,-0.821 0.174,-0.838 0.229,-0.838C0.249,-0.838 0.273,-0.832 0.303,-0.821L0.303,-0.708L0.292,-0.714C0.268,-0.726 0.248,-0.732 0.233,-0.732C0.213,-0.732 0.2,-0.725 0.193,-0.711C0.187,-0.698 0.183,-0.671 0.183,-0.632L0.183,-0.476L0.303,-0.476L0.303,-0.373L0.183,-0.373Z" style="fill-rule:nonzero;"/>
            </g>
            <g transform="matrix(150,0,0,150,1816.18,7114.3)">
                <path d="M0.183,-0.373L0.183,-0L0.073,-0L0.073,-0.373L0.026,-0.373L0.026,-0.476L0.073,-0.476L0.073,-0.65L0.183,-0.65L0.183,-0.476L0.268,-0.476L0.268,-0.373L0.183,-0.373Z" style="fill-rule:nonzero;"/>
            </g>
            <g transform="matrix(150,0,0,150,1858.22,7114.3)">
                <path d="M0.047,-0.241C0.047,-0.31 0.071,-0.368 0.121,-0.417C0.17,-0.465 0.23,-0.489 0.3,-0.489C0.371,-0.489 0.431,-0.465 0.481,-0.416C0.53,-0.368 0.554,-0.308 0.554,-0.237C0.554,-0.166 0.53,-0.106 0.48,-0.058C0.431,-0.01 0.37,0.014 0.298,0.014C0.227,0.014 0.167,-0.011 0.119,-0.06C0.071,-0.108 0.047,-0.168 0.047,-0.241ZM0.159,-0.239C0.159,-0.192 0.172,-0.154 0.197,-0.126C0.223,-0.098 0.258,-0.084 0.3,-0.084C0.343,-0.084 0.378,-0.098 0.403,-0.126C0.429,-0.154 0.442,-0.191 0.442,-0.237C0.442,-0.283 0.429,-0.32 0.403,-0.348C0.377,-0.376 0.343,-0.39 0.3,-0.39C0.258,-0.39 0.224,-0.376 0.198,-0.348C0.172,-0.32 0.159,-0.284 0.159,-0.239Z" style="fill-rule:nonzero;"/>
            </g>
            <g transform="matrix(150,0,0,150,1948.38,7114.3)">
                <path d="M0.42,-0.825L0.53,-0.825L0.53,-0L0.42,-0L0.42,-0.05C0.377,-0.007 0.328,0.014 0.273,0.014C0.208,0.014 0.154,-0.01 0.111,-0.058C0.068,-0.106 0.047,-0.167 0.047,-0.239C0.047,-0.31 0.068,-0.369 0.111,-0.417C0.153,-0.465 0.206,-0.489 0.271,-0.489C0.326,-0.489 0.376,-0.466 0.42,-0.42L0.42,-0.825ZM0.159,-0.239C0.159,-0.194 0.171,-0.157 0.196,-0.128C0.221,-0.099 0.252,-0.084 0.291,-0.084C0.331,-0.084 0.364,-0.098 0.389,-0.126C0.414,-0.155 0.427,-0.192 0.427,-0.237C0.427,-0.281 0.414,-0.318 0.389,-0.347C0.364,-0.375 0.332,-0.39 0.292,-0.39C0.254,-0.39 0.222,-0.375 0.197,-0.347C0.172,-0.318 0.159,-0.282 0.159,-0.239Z" style="fill-rule:nonzero;"/>
            </g>
            <g transform="matrix(150,0,0,150,2038.33,7114.3)">
                <path d="M0.42,-0.476L0.53,-0.476L0.53,-0L0.42,-0L0.42,-0.05C0.375,-0.007 0.326,0.014 0.274,0.014C0.208,0.014 0.154,-0.01 0.111,-0.058C0.068,-0.106 0.047,-0.167 0.047,-0.239C0.047,-0.311 0.068,-0.37 0.111,-0.417C0.153,-0.465 0.207,-0.489 0.271,-0.489C0.326,-0.489 0.376,-0.466 0.42,-0.42L0.42,-0.476ZM0.159,-0.239C0.159,-0.194 0.171,-0.157 0.196,-0.128C0.221,-0.099 0.252,-0.084 0.291,-0.084C0.331,-0.084 0.364,-0.098 0.389,-0.126C0.414,-0.155 0.427,-0.192 0.427,-0.237C0.427,-0.281 0.414,-0.318 0.389,-0.347C0.364,-0.375 0.332,-0.39 0.292,-0.39C0.254,-0.39 0.222,-0.375 0.197,-0.347C0.172,-0.318 0.159,-0.282 0.159,-0.239Z" style="fill-rule:nonzero;"/>
            </g>
            <g transform="matrix(150,0,0,150,2129.59,7114.3)">
                <path d="M0.219,-0.088L0.005,-0.476L0.133,-0.476L0.278,-0.202L0.414,-0.476L0.538,-0.476L0.159,0.259L0.034,0.259L0.219,-0.088Z" style="fill-rule:nonzero;"/>
            </g>
            <g transform="matrix(150,0,0,150,2257.39,7114.3)">
                <path d="M0.42,-0.476L0.53,-0.476L0.53,-0L0.42,-0L0.42,-0.05C0.375,-0.007 0.326,0.014 0.274,0.014C0.208,0.014 0.154,-0.01 0.111,-0.058C0.068,-0.106 0.047,-0.167 0.047,-0.239C0.047,-0.311 0.068,-0.37 0.111,-0.417C0.153,-0.465 0.207,-0.489 0.271,-0.489C0.326,-0.489 0.376,-0.466 0.42,-0.42L0.42,-0.476ZM0.159,-0.239C0.159,-0.194 0.171,-0.157 0.196,-0.128C0.221,-0.099 0.252,-0.084 0.291,-0.084C0.331,-0.084 0.364,-0.098 0.389,-0.126C0.414,-0.155 0.427,-0.192 0.427,-0.237C0.427,-0.281 0.414,-0.318 0.389,-0.347C0.364,-0.375 0.332,-0.39 0.292,-0.39C0.254,-0.39 0.222,-0.375 0.197,-0.347C0.172,-0.318 0.159,-0.282 0.159,-0.239Z" style="fill-rule:nonzero;"/>
            </g>
            <g transform="matrix(150,0,0,150,2347.33,7114.3)">
                <path d="M0.069,-0.476L0.18,-0.476L0.18,-0.432C0.218,-0.47 0.261,-0.489 0.31,-0.489C0.365,-0.489 0.408,-0.471 0.439,-0.437C0.466,-0.407 0.479,-0.359 0.479,-0.292L0.479,-0L0.369,-0L0.369,-0.266C0.369,-0.313 0.362,-0.345 0.349,-0.363C0.336,-0.381 0.313,-0.39 0.28,-0.39C0.243,-0.39 0.217,-0.378 0.202,-0.354C0.187,-0.33 0.18,-0.289 0.18,-0.229L0.18,-0L0.069,-0L0.069,-0.476Z" style="fill-rule:nonzero;"/>
            </g>
            <g transform="matrix(150,0,0,150,2429.59,7114.3)">
                <path d="M0.42,-0.825L0.53,-0.825L0.53,-0L0.42,-0L0.42,-0.05C0.377,-0.007 0.328,0.014 0.273,0.014C0.208,0.014 0.154,-0.01 0.111,-0.058C0.068,-0.106 0.047,-0.167 0.047,-0.239C0.047,-0.31 0.068,-0.369 0.111,-0.417C0.153,-0.465 0.206,-0.489 0.271,-0.489C0.326,-0.489 0.376,-0.466 0.42,-0.42L0.42,-0.825ZM0.159,-0.239C0.159,-0.194 0.171,-0.157 0.196,-0.128C0.221,-0.099 0.252,-0.084 0.291,-0.084C0.331,-0.084 0.364,-0.098 0.389,-0.126C0.414,-0.155 0.427,-0.192 0.427,-0.237C0.427,-0.281 0.414,-0.318 0.389,-0.347C0.364,-0.375 0.332,-0.39 0.292,-0.39C0.254,-0.39 0.222,-0.375 0.197,-0.347C0.172,-0.318 0.159,-0.282 0.159,-0.239Z" style="fill-rule:nonzero;"/>
            </g>
            <g transform="matrix(150,0,0,150,2565.82,7114.3)">
                <path d="M0.183,-0.373L0.183,-0L0.073,-0L0.073,-0.373L0.026,-0.373L0.026,-0.476L0.073,-0.476L0.073,-0.65L0.183,-0.65L0.183,-0.476L0.268,-0.476L0.268,-0.373L0.183,-0.373Z" style="fill-rule:nonzero;"/>
            </g>
            <g transform="matrix(150,0,0,150,2607.86,7114.3)">
                <path d="M0.047,-0.241C0.047,-0.31 0.071,-0.368 0.121,-0.417C0.17,-0.465 0.23,-0.489 0.3,-0.489C0.371,-0.489 0.431,-0.465 0.481,-0.416C0.53,-0.368 0.554,-0.308 0.554,-0.237C0.554,-0.166 0.53,-0.106 0.48,-0.058C0.431,-0.01 0.37,0.014 0.298,0.014C0.227,0.014 0.167,-0.011 0.119,-0.06C0.071,-0.108 0.047,-0.168 0.047,-0.241ZM0.159,-0.239C0.159,-0.192 0.172,-0.154 0.197,-0.126C0.223,-0.098 0.258,-0.084 0.3,-0.084C0.343,-0.084 0.378,-0.098 0.403,-0.126C0.429,-0.154 0.442,-0.191 0.442,-0.237C0.442,-0.283 0.429,-0.32 0.403,-0.348C0.377,-0.376 0.343,-0.39 0.3,-0.39C0.258,-0.39 0.224,-0.376 0.198,-0.348C0.172,-0.32 0.159,-0.284 0.159,-0.239Z" style="fill-rule:nonzero;"/>
            </g>
            <g transform="matrix(150,0,0,150,2698.02,7114.3)">
                <path d="M0.069,-0.476L0.179,-0.476L0.179,-0.432C0.2,-0.454 0.218,-0.469 0.233,-0.477C0.249,-0.485 0.269,-0.489 0.293,-0.489C0.347,-0.489 0.39,-0.465 0.421,-0.418C0.455,-0.465 0.502,-0.489 0.561,-0.489C0.668,-0.489 0.722,-0.424 0.722,-0.294L0.722,-0L0.611,-0L0.611,-0.264C0.611,-0.31 0.606,-0.342 0.595,-0.361C0.583,-0.38 0.565,-0.39 0.539,-0.39C0.508,-0.39 0.486,-0.378 0.472,-0.355C0.459,-0.333 0.452,-0.296 0.452,-0.246L0.452,-0L0.341,-0L0.341,-0.263C0.341,-0.347 0.317,-0.39 0.268,-0.39C0.237,-0.39 0.215,-0.378 0.2,-0.355C0.186,-0.332 0.179,-0.295 0.179,-0.246L0.179,-0L0.069,-0L0.069,-0.476Z" style="fill-rule:nonzero;"/>
            </g>
            <g transform="matrix(150,0,0,150,2816.67,7114.3)">
                <path d="M0.047,-0.241C0.047,-0.31 0.071,-0.368 0.121,-0.417C0.17,-0.465 0.23,-0.489 0.3,-0.489C0.371,-0.489 0.431,-0.465 0.481,-0.416C0.53,-0.368 0.554,-0.308 0.554,-0.237C0.554,-0.166 0.53,-0.106 0.48,-0.058C0.431,-0.01 0.37,0.014 0.298,0.014C0.227,0.014 0.167,-0.011 0.119,-0.06C0.071,-0.108 0.047,-0.168 0.047,-0.241ZM0.159,-0.239C0.159,-0.192 0.172,-0.154 0.197,-0.126C0.223,-0.098 0.258,-0.084 0.3,-0.084C0.343,-0.084 0.378,-0.098 0.403,-0.126C0.429,-0.154 0.442,-0.191 0.442,-0.237C0.442,-0.283 0.429,-0.32 0.403,-0.348C0.377,-0.376 0.343,-0.39 0.3,-0.39C0.258,-0.39 0.224,-0.376 0.198,-0.348C0.172,-0.32 0.159,-0.284 0.159,-0.239Z" style="fill-rule:nonzero;"/>
            </g>
            <g transform="matrix(150,0,0,150,2906.83,7114.3)">
                <path d="M0.069,-0.476L0.179,-0.476L0.179,-0.433C0.199,-0.454 0.217,-0.469 0.233,-0.477C0.249,-0.485 0.268,-0.489 0.29,-0.489C0.319,-0.489 0.349,-0.479 0.38,-0.46L0.33,-0.36C0.309,-0.375 0.289,-0.382 0.269,-0.382C0.209,-0.382 0.179,-0.337 0.179,-0.247L0.179,-0L0.069,-0L0.069,-0.476Z" style="fill-rule:nonzero;"/>
            </g>
            <g transform="matrix(150,0,0,150,2965.21,7114.3)">
                <path d="M0.069,-0.476L0.179,-0.476L0.179,-0.433C0.199,-0.454 0.217,-0.469 0.233,-0.477C0.249,-0.485 0.268,-0.489 0.29,-0.489C0.319,-0.489 0.349,-0.479 0.38,-0.46L0.33,-0.36C0.309,-0.375 0.289,-0.382 0.269,-0.382C0.209,-0.382 0.179,-0.337 0.179,-0.247L0.179,-0L0.069,-0L0.069,-0.476Z" style="fill-rule:nonzero;"/>
            </g>
            <g transform="matrix(150,0,0,150,3019.99,7114.3)">
                <path d="M0.047,-0.241C0.047,-0.31 0.071,-0.368 0.121,-0.417C0.17,-0.465 0.23,-0.489 0.3,-0.489C0.371,-0.489 0.431,-0.465 0.481,-0.416C0.53,-0.368 0.554,-0.308 0.554,-0.237C0.554,-0.166 0.53,-0.106 0.48,-0.058C0.431,-0.01 0.37,0.014 0.298,0.014C0.227,0.014 0.167,-0.011 0.119,-0.06C0.071,-0.108 0.047,-0.168 0.047,-0.241ZM0.159,-0.239C0.159,-0.192 0.172,-0.154 0.197,-0.126C0.223,-0.098 0.258,-0.084 0.3,-0.084C0.343,-0.084 0.378,-0.098 0.403,-0.126C0.429,-0.154 0.442,-0.191 0.442,-0.237C0.442,-0.283 0.429,-0.32 0.403,-0.348C0.377,-0.376 0.343,-0.39 0.3,-0.39C0.258,-0.39 0.224,-0.376 0.198,-0.348C0.172,-0.32 0.159,-0.284 0.159,-0.239Z" style="fill-rule:nonzero;"/>
            </g>
            <g transform="matrix(150,0,0,150,3107.3,7114.3)">
                <path d="M0.129,-0.476L0.253,-0.204L0.388,-0.519L0.523,-0.204L0.646,-0.476L0.769,-0.476L0.52,0.036L0.388,-0.271L0.254,0.036L0.005,-0.476L0.129,-0.476Z" style="fill-rule:nonzero;"/>
            </g>
            <g transform="matrix(150,0,0,150,3223.38,7114.3)">
                <path d="M0.172,-0.787L0.27,-0.749L0.131,-0.469L0.057,-0.5L0.172,-0.787ZM0.368,-0.787L0.465,-0.749L0.326,-0.469L0.252,-0.5L0.368,-0.787Z" style="fill-rule:nonzero;"/>
            </g>
        </g>
    </g>
</svg>
