<?xml version="1.0" encoding="UTF-8" standalone="no"?>
<!DOCTYPE svg PUBLIC "-//W3C//DTD SVG 1.1//EN" "http://www.w3.org/Graphics/SVG/1.1/DTD/svg11.dtd">
<svg width="100%" height="100%" viewBox="0 0 4358 1735" version="1.1" xmlns="http://www.w3.org/2000/svg" xmlns:xlink="http://www.w3.org/1999/xlink" xml:space="preserve" xmlns:serif="http://www.serif.com/" style="fill-rule:evenodd;clip-rule:evenodd;stroke-linejoin:round;stroke-miterlimit:2;">
    <g transform="matrix(1.33333,0,0,1.33333,-2739.73,-14613.9)">
        <g transform="matrix(2.37817,0,0,2.37817,3695.21,1229.1)">
            <g id="Layer-1" serif:id="Layer 1">
                <g id="g3862">
                </g>
            </g>
        </g>
        <g transform="matrix(1,0,0,1,-8,1.81899e-12)">
            <rect x="2062.8" y="10960.4" width="3267.91" height="1300.57" style="fill:white;"/>
        </g>
        <g transform="matrix(1,0,0,1,732.939,533.206)">
            <g transform="matrix(0.95,0,0,1,159.28,0)">
                <g transform="matrix(400,0,0,400,3185.59,10766.6)">
                    <path d="M0.191,-0.682L0.596,-0.206L0.596,-0.682L0.725,-0.682L0.725,-0L0.612,-0L0.204,-0.484L0.204,-0L0.075,-0L0.075,-0.682L0.191,-0.682Z" style="fill-rule:nonzero;"/>
                </g>
            </g>
            <g transform="matrix(0.95,0,0,1,172.196,0)">
                <g transform="matrix(400,0,0,400,3443.92,10766.6)">
                    <path d="M0.286,-0.465C0.334,-0.465 0.377,-0.455 0.416,-0.435C0.454,-0.415 0.484,-0.387 0.505,-0.352C0.527,-0.316 0.537,-0.275 0.537,-0.23C0.537,-0.183 0.527,-0.141 0.507,-0.106C0.486,-0.07 0.456,-0.042 0.417,-0.022C0.377,-0.001 0.334,0.009 0.286,0.009C0.238,0.009 0.195,-0.001 0.156,-0.022C0.117,-0.042 0.087,-0.07 0.067,-0.106C0.046,-0.141 0.036,-0.183 0.036,-0.23C0.036,-0.276 0.047,-0.317 0.068,-0.352C0.09,-0.388 0.12,-0.416 0.158,-0.435C0.197,-0.455 0.239,-0.465 0.286,-0.465ZM0.162,-0.23C0.162,-0.184 0.173,-0.148 0.196,-0.121C0.218,-0.094 0.248,-0.08 0.285,-0.08C0.324,-0.08 0.355,-0.093 0.377,-0.119C0.4,-0.145 0.411,-0.182 0.411,-0.231C0.411,-0.277 0.4,-0.313 0.377,-0.338C0.355,-0.363 0.324,-0.376 0.285,-0.376C0.249,-0.376 0.219,-0.363 0.196,-0.336C0.174,-0.309 0.162,-0.274 0.162,-0.23Z" style="fill-rule:nonzero;"/>
                </g>
            </g>
            <g transform="matrix(0.95,0,0,1,181.188,0)">
                <g transform="matrix(400,0,0,400,3623.75,10766.6)">
                    <path d="M0.18,-0.682L0.18,-0.427C0.216,-0.452 0.256,-0.465 0.301,-0.465C0.341,-0.465 0.377,-0.455 0.41,-0.435C0.443,-0.416 0.468,-0.388 0.486,-0.352C0.504,-0.317 0.513,-0.277 0.513,-0.233C0.513,-0.158 0.491,-0.099 0.446,-0.056C0.402,-0.013 0.341,0.009 0.263,0.009C0.194,0.009 0.126,-0.004 0.06,-0.03L0.06,-0.682L0.18,-0.682ZM0.18,-0.095C0.206,-0.086 0.236,-0.082 0.27,-0.082C0.307,-0.082 0.336,-0.095 0.358,-0.122C0.379,-0.149 0.39,-0.186 0.39,-0.234C0.39,-0.277 0.379,-0.311 0.357,-0.337C0.336,-0.362 0.307,-0.375 0.271,-0.375C0.254,-0.375 0.239,-0.372 0.225,-0.366C0.211,-0.36 0.196,-0.35 0.18,-0.337L0.18,-0.095Z" style="fill-rule:nonzero;"/>
                </g>
                <g transform="matrix(400,0,0,400,3811.28,10766.6)">
                    <path d="M0.286,-0.465C0.334,-0.465 0.377,-0.455 0.416,-0.435C0.454,-0.415 0.484,-0.387 0.505,-0.352C0.527,-0.316 0.537,-0.275 0.537,-0.23C0.537,-0.183 0.527,-0.141 0.507,-0.106C0.486,-0.07 0.456,-0.042 0.417,-0.022C0.377,-0.001 0.334,0.009 0.286,0.009C0.238,0.009 0.195,-0.001 0.156,-0.022C0.117,-0.042 0.087,-0.07 0.067,-0.106C0.046,-0.141 0.036,-0.183 0.036,-0.23C0.036,-0.276 0.047,-0.317 0.068,-0.352C0.09,-0.388 0.12,-0.416 0.158,-0.435C0.197,-0.455 0.239,-0.465 0.286,-0.465ZM0.162,-0.23C0.162,-0.184 0.173,-0.148 0.196,-0.121C0.218,-0.094 0.248,-0.08 0.285,-0.08C0.324,-0.08 0.355,-0.093 0.377,-0.119C0.4,-0.145 0.411,-0.182 0.411,-0.231C0.411,-0.277 0.4,-0.313 0.377,-0.338C0.355,-0.363 0.324,-0.376 0.285,-0.376C0.249,-0.376 0.219,-0.363 0.196,-0.336C0.174,-0.309 0.162,-0.274 0.162,-0.23Z" style="fill-rule:nonzero;"/>
                </g>
            </g>
            <g transform="matrix(0.95,0,0,1,199.467,0)">
                <g transform="matrix(400,0,0,400,3989.34,10766.6)">
                    <path d="M0.368,-0.446L0.368,-0.682L0.488,-0.682L0.488,-0L0.277,-0C0.204,-0 0.146,-0.021 0.102,-0.063C0.058,-0.105 0.036,-0.162 0.036,-0.235C0.036,-0.278 0.046,-0.317 0.067,-0.352C0.087,-0.387 0.115,-0.415 0.151,-0.435C0.186,-0.455 0.225,-0.465 0.266,-0.465C0.298,-0.465 0.332,-0.458 0.368,-0.446ZM0.305,-0.092L0.368,-0.092L0.368,-0.356C0.343,-0.369 0.318,-0.375 0.291,-0.375C0.251,-0.375 0.219,-0.362 0.195,-0.337C0.171,-0.312 0.159,-0.279 0.159,-0.239C0.159,-0.141 0.208,-0.092 0.305,-0.092Z" style="fill-rule:nonzero;"/>
                </g>
            </g>
            <g transform="matrix(0.95,0,0,1,208.546,0)">
                <g transform="matrix(400,0,0,400,4170.92,10766.6)">
                    <path d="M0.131,-0.456L0.239,-0.211L0.348,-0.456L0.477,-0.456L0.162,0.23L0.033,0.23L0.178,-0.084L0.001,-0.456L0.131,-0.456Z" style="fill-rule:nonzero;"/>
                </g>
            </g>
            <g transform="matrix(0.95,0,0,1,216.489,0)">
                <g transform="matrix(400,0,0,400,4329.77,10766.6)">
                    <path d="M0.12,-0.691C0.146,-0.691 0.167,-0.681 0.183,-0.662C0.198,-0.642 0.206,-0.617 0.206,-0.585C0.206,-0.542 0.192,-0.504 0.163,-0.47C0.134,-0.437 0.099,-0.417 0.057,-0.411L0.057,-0.437C0.088,-0.463 0.104,-0.498 0.104,-0.54L0.103,-0.555C0.066,-0.562 0.048,-0.584 0.048,-0.622C0.048,-0.641 0.055,-0.658 0.069,-0.671C0.082,-0.684 0.1,-0.691 0.12,-0.691Z" style="fill-rule:nonzero;"/>
                </g>
            </g>
            <g transform="matrix(0.95,0,0,1,218.508,0)">
                <g transform="matrix(400,0,0,400,4370.16,10766.6)">
                    <path d="M0.208,-0.465C0.233,-0.465 0.257,-0.462 0.279,-0.456C0.301,-0.451 0.324,-0.442 0.349,-0.429L0.349,-0.333C0.326,-0.348 0.302,-0.359 0.276,-0.368C0.25,-0.377 0.227,-0.382 0.206,-0.382C0.189,-0.382 0.175,-0.379 0.166,-0.372C0.156,-0.366 0.151,-0.356 0.151,-0.344C0.151,-0.337 0.155,-0.331 0.163,-0.324C0.171,-0.317 0.194,-0.304 0.23,-0.286C0.282,-0.26 0.319,-0.235 0.34,-0.213C0.361,-0.191 0.371,-0.164 0.371,-0.133C0.371,-0.089 0.356,-0.054 0.325,-0.029C0.295,-0.004 0.253,0.009 0.201,0.009C0.169,0.009 0.138,0.005 0.11,-0.002C0.082,-0.009 0.059,-0.018 0.04,-0.028L0.04,-0.128C0.099,-0.095 0.148,-0.079 0.188,-0.079C0.208,-0.079 0.225,-0.083 0.238,-0.09C0.25,-0.097 0.257,-0.107 0.257,-0.119C0.257,-0.126 0.255,-0.133 0.25,-0.139C0.245,-0.145 0.239,-0.151 0.229,-0.157C0.22,-0.163 0.192,-0.178 0.144,-0.201C0.107,-0.219 0.08,-0.238 0.063,-0.259C0.045,-0.279 0.036,-0.304 0.036,-0.332C0.036,-0.372 0.052,-0.405 0.083,-0.429C0.115,-0.453 0.157,-0.465 0.208,-0.465Z" style="fill-rule:nonzero;"/>
                </g>
            </g>
            <g transform="matrix(0.95,0,0,1,164.922,0)">
                <g transform="matrix(400,0,0,400,3298.44,11083.3)">
                    <path d="M0.295,-0.465C0.36,-0.465 0.413,-0.443 0.452,-0.399C0.492,-0.356 0.512,-0.299 0.512,-0.229C0.512,-0.183 0.503,-0.142 0.484,-0.106C0.465,-0.07 0.439,-0.042 0.404,-0.021C0.37,-0.001 0.331,0.009 0.287,0.009C0.252,0.009 0.216,-0 0.18,-0.018L0.18,0.23L0.06,0.23L0.06,-0.456L0.179,-0.456L0.179,-0.427C0.215,-0.452 0.254,-0.465 0.295,-0.465ZM0.18,-0.106C0.21,-0.089 0.238,-0.08 0.264,-0.08C0.302,-0.08 0.332,-0.094 0.355,-0.121C0.378,-0.148 0.389,-0.182 0.389,-0.225C0.389,-0.272 0.379,-0.308 0.359,-0.334C0.338,-0.361 0.309,-0.374 0.272,-0.374C0.258,-0.374 0.244,-0.372 0.231,-0.367C0.218,-0.362 0.201,-0.352 0.18,-0.337L0.18,-0.106Z" style="fill-rule:nonzero;"/>
                </g>
            </g>
            <g transform="matrix(0.95,0,0,1,173.811,0)">
                <g transform="matrix(400,0,0,400,3476.22,11083.3)">
                    <path d="M0.264,-0.465C0.331,-0.465 0.384,-0.443 0.423,-0.4C0.462,-0.357 0.482,-0.298 0.482,-0.222L0.482,-0.204L0.159,-0.204C0.164,-0.163 0.179,-0.132 0.205,-0.11C0.23,-0.088 0.265,-0.077 0.31,-0.077C0.339,-0.077 0.366,-0.082 0.393,-0.092C0.419,-0.102 0.447,-0.117 0.475,-0.137L0.475,-0.048C0.422,-0.01 0.357,0.009 0.281,0.009C0.209,0.009 0.15,-0.013 0.104,-0.056C0.059,-0.099 0.036,-0.157 0.036,-0.229C0.036,-0.298 0.057,-0.355 0.099,-0.399C0.142,-0.443 0.196,-0.465 0.264,-0.465ZM0.369,-0.277C0.366,-0.31 0.356,-0.336 0.339,-0.355C0.322,-0.373 0.299,-0.383 0.269,-0.383C0.239,-0.383 0.214,-0.374 0.196,-0.356C0.178,-0.338 0.166,-0.312 0.161,-0.277L0.369,-0.277Z" style="fill-rule:nonzero;"/>
                </g>
            </g>
            <g transform="matrix(0.95,0,0,1,181.717,0)">
                <g transform="matrix(400,0,0,400,3634.35,11083.3)">
                    <path d="M0.321,-0.465C0.337,-0.465 0.352,-0.461 0.368,-0.454C0.383,-0.447 0.401,-0.435 0.422,-0.418L0.379,-0.313C0.344,-0.339 0.316,-0.352 0.295,-0.352C0.276,-0.352 0.258,-0.345 0.24,-0.331C0.222,-0.317 0.207,-0.299 0.197,-0.276C0.186,-0.254 0.18,-0.231 0.18,-0.208L0.18,-0L0.06,-0L0.06,-0.456L0.18,-0.456L0.18,-0.34L0.182,-0.34C0.204,-0.384 0.226,-0.416 0.248,-0.435C0.27,-0.455 0.294,-0.465 0.321,-0.465Z" style="fill-rule:nonzero;"/>
                </g>
            </g>
            <g transform="matrix(0.95,0,0,1,189.659,0)">
                <g transform="matrix(400,0,0,400,3793.17,11083.3)">
                    <path d="M0.252,-0.691C0.266,-0.691 0.28,-0.69 0.295,-0.687C0.31,-0.684 0.322,-0.681 0.331,-0.677L0.331,-0.579C0.314,-0.584 0.296,-0.586 0.277,-0.586C0.248,-0.586 0.226,-0.578 0.212,-0.563C0.198,-0.549 0.191,-0.524 0.191,-0.489L0.191,-0.456L0.269,-0.456L0.269,-0.365L0.191,-0.365L0.191,-0L0.071,-0L0.071,-0.365L0.006,-0.365L0.006,-0.456L0.071,-0.456L0.071,-0.49C0.071,-0.552 0.087,-0.601 0.12,-0.637C0.153,-0.673 0.197,-0.691 0.252,-0.691Z" style="fill-rule:nonzero;"/>
                </g>
                <g transform="matrix(400,0,0,400,3874.35,11083.3)">
                    <path d="M0.264,-0.465C0.331,-0.465 0.384,-0.443 0.423,-0.4C0.462,-0.357 0.482,-0.298 0.482,-0.222L0.482,-0.204L0.159,-0.204C0.164,-0.163 0.179,-0.132 0.205,-0.11C0.23,-0.088 0.265,-0.077 0.31,-0.077C0.339,-0.077 0.366,-0.082 0.393,-0.092C0.419,-0.102 0.447,-0.117 0.475,-0.137L0.475,-0.048C0.422,-0.01 0.357,0.009 0.281,0.009C0.209,0.009 0.15,-0.013 0.104,-0.056C0.059,-0.099 0.036,-0.157 0.036,-0.229C0.036,-0.298 0.057,-0.355 0.099,-0.399C0.142,-0.443 0.196,-0.465 0.264,-0.465ZM0.369,-0.277C0.366,-0.31 0.356,-0.336 0.339,-0.355C0.322,-0.373 0.299,-0.383 0.269,-0.383C0.239,-0.383 0.214,-0.374 0.196,-0.356C0.178,-0.338 0.166,-0.312 0.161,-0.277L0.369,-0.277Z" style="fill-rule:nonzero;"/>
                </g>
            </g>
            <g transform="matrix(0.95,0,0,1,201.991,0)">
                <g transform="matrix(400,0,0,400,4039.82,11083.3)">
                    <path d="M0.279,-0.465C0.332,-0.465 0.38,-0.455 0.423,-0.434L0.423,-0.332C0.38,-0.357 0.34,-0.369 0.302,-0.369C0.261,-0.369 0.227,-0.356 0.201,-0.331C0.175,-0.305 0.162,-0.271 0.162,-0.227C0.162,-0.184 0.175,-0.15 0.201,-0.124C0.228,-0.098 0.263,-0.085 0.306,-0.085C0.339,-0.085 0.38,-0.096 0.431,-0.117L0.431,-0.02C0.384,-0.001 0.335,0.009 0.285,0.009C0.211,0.009 0.151,-0.012 0.105,-0.055C0.059,-0.097 0.036,-0.153 0.036,-0.223C0.036,-0.296 0.059,-0.354 0.104,-0.398C0.149,-0.443 0.207,-0.465 0.279,-0.465Z" style="fill-rule:nonzero;"/>
                </g>
            </g>
            <g transform="matrix(0.95,0,0,1,209.609,0)">
                <g transform="matrix(400,0,0,400,4192.17,11083.3)">
                    <path d="M0.185,-0.577L0.195,-0.577L0.195,-0.456L0.351,-0.456L0.351,-0.365L0.195,-0.365L0.195,-0.155C0.195,-0.134 0.201,-0.118 0.213,-0.105C0.226,-0.092 0.243,-0.086 0.264,-0.086C0.292,-0.086 0.324,-0.096 0.361,-0.116L0.361,-0.02C0.318,-0.001 0.277,0.009 0.239,0.009C0.187,0.009 0.147,-0.005 0.118,-0.033C0.09,-0.061 0.075,-0.099 0.075,-0.147L0.075,-0.365L0.004,-0.365L0.004,-0.385L0.185,-0.577Z" style="fill-rule:nonzero;"/>
                </g>
            </g>
            <g transform="matrix(0.95,0,0,1,215.862,0)">
                <g transform="matrix(400,0,0,400,4317.25,11083.3)">
                    <path d="M0.123,-0.141C0.143,-0.141 0.16,-0.134 0.176,-0.119C0.191,-0.104 0.198,-0.087 0.198,-0.066C0.198,-0.046 0.191,-0.028 0.176,-0.013C0.162,0.001 0.144,0.009 0.123,0.009C0.103,0.009 0.085,0.001 0.07,-0.013C0.055,-0.028 0.048,-0.046 0.048,-0.066C0.048,-0.087 0.055,-0.104 0.07,-0.119C0.085,-0.134 0.103,-0.141 0.123,-0.141Z" style="fill-rule:nonzero;"/>
                </g>
            </g>
        </g>
        <g transform="matrix(1,0,0,1,-1099.47,533.206)">
            <g transform="matrix(0.95,0,0,1,160.675,0)">
                <g transform="matrix(400,0,0,400,3213.5,10779.3)">
                    <path d="M0.069,-0.714L0.069,-0L0.216,-0L0.216,-0.478L0.218,-0.478L0.515,-0L0.672,-0L0.672,-0.714L0.525,-0.714L0.525,-0.235L0.523,-0.235L0.225,-0.714L0.069,-0.714Z" style="fill-rule:nonzero;"/>
                </g>
            </g>
            <g transform="matrix(0.95,0,0,1,172.683,0)">
                <g transform="matrix(400,0,0,400,3453.66,10779.3)">
                    <path d="M0.18,-0.258C0.18,-0.279 0.182,-0.299 0.186,-0.319C0.19,-0.339 0.197,-0.357 0.207,-0.372C0.216,-0.387 0.229,-0.4 0.245,-0.41C0.261,-0.419 0.281,-0.424 0.305,-0.424C0.329,-0.424 0.349,-0.419 0.366,-0.41C0.382,-0.4 0.395,-0.387 0.405,-0.372C0.414,-0.357 0.421,-0.339 0.425,-0.319C0.429,-0.299 0.431,-0.279 0.431,-0.258C0.431,-0.237 0.429,-0.217 0.425,-0.198C0.421,-0.178 0.414,-0.16 0.405,-0.145C0.395,-0.129 0.382,-0.116 0.366,-0.107C0.349,-0.098 0.329,-0.093 0.305,-0.093C0.281,-0.093 0.261,-0.098 0.245,-0.107C0.229,-0.116 0.216,-0.129 0.207,-0.145C0.197,-0.16 0.19,-0.178 0.186,-0.198C0.182,-0.217 0.18,-0.237 0.18,-0.258ZM0.038,-0.258C0.038,-0.217 0.044,-0.179 0.057,-0.146C0.07,-0.113 0.088,-0.084 0.111,-0.061C0.134,-0.037 0.162,-0.019 0.195,-0.006C0.228,0.007 0.264,0.013 0.305,0.013C0.346,0.013 0.383,0.007 0.416,-0.006C0.449,-0.019 0.477,-0.037 0.5,-0.061C0.523,-0.084 0.541,-0.113 0.554,-0.146C0.567,-0.179 0.573,-0.217 0.573,-0.258C0.573,-0.299 0.567,-0.337 0.554,-0.371C0.541,-0.404 0.523,-0.433 0.5,-0.457C0.477,-0.48 0.449,-0.499 0.416,-0.512C0.383,-0.525 0.346,-0.531 0.305,-0.531C0.264,-0.531 0.228,-0.525 0.195,-0.512C0.162,-0.499 0.134,-0.48 0.111,-0.457C0.088,-0.433 0.07,-0.404 0.057,-0.371C0.044,-0.337 0.038,-0.299 0.038,-0.258Z" style="fill-rule:nonzero;"/>
                </g>
            </g>
            <g transform="matrix(0.95,0,0,1,182.411,0)">
                <g transform="matrix(400,0,0,400,3648.22,10779.3)">
                    <path d="M0.433,-0.258C0.433,-0.237 0.431,-0.216 0.426,-0.196C0.421,-0.176 0.414,-0.158 0.404,-0.143C0.394,-0.128 0.382,-0.115 0.367,-0.107C0.352,-0.097 0.333,-0.093 0.312,-0.093C0.291,-0.093 0.273,-0.097 0.258,-0.107C0.243,-0.115 0.23,-0.128 0.22,-0.143C0.21,-0.158 0.203,-0.176 0.198,-0.196C0.193,-0.216 0.191,-0.237 0.191,-0.258C0.191,-0.28 0.193,-0.301 0.198,-0.321C0.203,-0.341 0.21,-0.359 0.22,-0.374C0.23,-0.389 0.243,-0.402 0.258,-0.411C0.273,-0.42 0.291,-0.424 0.312,-0.424C0.333,-0.424 0.352,-0.42 0.367,-0.411C0.382,-0.402 0.394,-0.389 0.404,-0.374C0.414,-0.359 0.421,-0.341 0.426,-0.321C0.431,-0.301 0.433,-0.28 0.433,-0.258ZM0.054,-0.714L0.054,-0L0.189,-0L0.189,-0.066L0.191,-0.066C0.206,-0.037 0.229,-0.017 0.259,-0.005C0.289,0.007 0.323,0.013 0.361,0.013C0.387,0.013 0.413,0.008 0.438,-0.003C0.463,-0.014 0.486,-0.03 0.507,-0.052C0.527,-0.074 0.543,-0.102 0.556,-0.137C0.569,-0.171 0.575,-0.212 0.575,-0.259C0.575,-0.306 0.569,-0.347 0.556,-0.382C0.543,-0.416 0.527,-0.444 0.507,-0.466C0.486,-0.488 0.463,-0.504 0.438,-0.515C0.413,-0.526 0.387,-0.531 0.361,-0.531C0.329,-0.531 0.298,-0.525 0.269,-0.513C0.239,-0.5 0.215,-0.481 0.198,-0.454L0.196,-0.454L0.196,-0.714L0.054,-0.714Z" style="fill-rule:nonzero;"/>
                </g>
            </g>
            <g transform="matrix(0.95,0,0,1,192.519,0)">
                <g transform="matrix(400,0,0,400,3850.38,10779.3)">
                    <path d="M0.18,-0.258C0.18,-0.279 0.182,-0.299 0.186,-0.319C0.19,-0.339 0.197,-0.357 0.207,-0.372C0.216,-0.387 0.229,-0.4 0.245,-0.41C0.261,-0.419 0.281,-0.424 0.305,-0.424C0.329,-0.424 0.349,-0.419 0.366,-0.41C0.382,-0.4 0.395,-0.387 0.405,-0.372C0.414,-0.357 0.421,-0.339 0.425,-0.319C0.429,-0.299 0.431,-0.279 0.431,-0.258C0.431,-0.237 0.429,-0.217 0.425,-0.198C0.421,-0.178 0.414,-0.16 0.405,-0.145C0.395,-0.129 0.382,-0.116 0.366,-0.107C0.349,-0.098 0.329,-0.093 0.305,-0.093C0.281,-0.093 0.261,-0.098 0.245,-0.107C0.229,-0.116 0.216,-0.129 0.207,-0.145C0.197,-0.16 0.19,-0.178 0.186,-0.198C0.182,-0.217 0.18,-0.237 0.18,-0.258ZM0.038,-0.258C0.038,-0.217 0.044,-0.179 0.057,-0.146C0.07,-0.113 0.088,-0.084 0.111,-0.061C0.134,-0.037 0.162,-0.019 0.195,-0.006C0.228,0.007 0.264,0.013 0.305,0.013C0.346,0.013 0.383,0.007 0.416,-0.006C0.449,-0.019 0.477,-0.037 0.5,-0.061C0.523,-0.084 0.541,-0.113 0.554,-0.146C0.567,-0.179 0.573,-0.217 0.573,-0.258C0.573,-0.299 0.567,-0.337 0.554,-0.371C0.541,-0.404 0.523,-0.433 0.5,-0.457C0.477,-0.48 0.449,-0.499 0.416,-0.512C0.383,-0.525 0.346,-0.531 0.305,-0.531C0.264,-0.531 0.228,-0.525 0.195,-0.512C0.162,-0.499 0.134,-0.48 0.111,-0.457C0.088,-0.433 0.07,-0.404 0.057,-0.371C0.044,-0.337 0.038,-0.299 0.038,-0.258Z" style="fill-rule:nonzero;"/>
                </g>
            </g>
            <g transform="matrix(0.95,0,0,1,202.608,0)">
                <g transform="matrix(400,0,0,400,4052.16,10779.3)">
                    <path d="M0.421,-0.26C0.421,-0.239 0.419,-0.218 0.415,-0.198C0.411,-0.178 0.404,-0.16 0.395,-0.145C0.386,-0.129 0.373,-0.116 0.358,-0.107C0.342,-0.098 0.322,-0.093 0.299,-0.093C0.277,-0.093 0.258,-0.098 0.243,-0.108C0.227,-0.117 0.214,-0.13 0.204,-0.146C0.193,-0.161 0.186,-0.179 0.181,-0.199C0.176,-0.219 0.174,-0.239 0.174,-0.259C0.174,-0.28 0.176,-0.301 0.181,-0.321C0.185,-0.34 0.192,-0.358 0.202,-0.373C0.211,-0.388 0.224,-0.401 0.24,-0.41C0.256,-0.419 0.276,-0.424 0.299,-0.424C0.322,-0.424 0.342,-0.419 0.357,-0.41C0.372,-0.401 0.385,-0.389 0.395,-0.374C0.404,-0.359 0.411,-0.341 0.415,-0.322C0.419,-0.302 0.421,-0.281 0.421,-0.26ZM0.423,-0.066L0.423,-0L0.558,-0L0.558,-0.714L0.416,-0.714L0.416,-0.454L0.414,-0.454C0.398,-0.479 0.376,-0.499 0.349,-0.512C0.321,-0.525 0.292,-0.531 0.261,-0.531C0.223,-0.531 0.19,-0.524 0.161,-0.509C0.132,-0.494 0.109,-0.474 0.09,-0.449C0.07,-0.424 0.056,-0.396 0.047,-0.364C0.037,-0.331 0.032,-0.298 0.032,-0.263C0.032,-0.227 0.037,-0.192 0.047,-0.159C0.056,-0.126 0.07,-0.096 0.09,-0.071C0.109,-0.045 0.133,-0.024 0.162,-0.01C0.191,0.006 0.225,0.013 0.264,0.013C0.298,0.013 0.329,0.007 0.356,-0.006C0.383,-0.018 0.404,-0.038 0.421,-0.066L0.423,-0.066Z" style="fill-rule:nonzero;"/>
                </g>
                <g transform="matrix(400,0,0,400,4272.56,10779.3)">
                    <path d="M0.309,0.064L0.525,-0.517L0.378,-0.517L0.265,-0.163L0.263,-0.163L0.146,-0.517L-0.005,-0.517L0.176,-0.032C0.18,-0.022 0.182,-0.011 0.182,-0C0.182,0.015 0.178,0.029 0.169,0.042C0.16,0.055 0.146,0.062 0.127,0.064C0.113,0.065 0.099,0.064 0.085,0.063C0.071,0.062 0.057,0.06 0.044,0.059L0.044,0.176C0.059,0.177 0.073,0.179 0.088,0.18C0.102,0.181 0.116,0.181 0.131,0.181C0.18,0.181 0.218,0.172 0.245,0.154C0.272,0.136 0.294,0.106 0.309,0.064Z" style="fill-rule:nonzero;"/>
                </g>
                <g transform="matrix(400,0,0,400,4456.16,10779.3)">
                    <path d="M0.068,-0.714L0.068,-0.56L0.134,-0.56C0.134,-0.535 0.129,-0.515 0.12,-0.498C0.111,-0.481 0.093,-0.468 0.068,-0.459L0.068,-0.393C0.089,-0.396 0.108,-0.402 0.126,-0.412C0.143,-0.421 0.158,-0.433 0.171,-0.448C0.184,-0.463 0.194,-0.48 0.201,-0.499C0.208,-0.518 0.211,-0.539 0.21,-0.561L0.21,-0.714L0.068,-0.714Z" style="fill-rule:nonzero;"/>
                </g>
                <g transform="matrix(400,0,0,400,4513.76,10779.3)">
                    <path d="M0.164,-0.168L0.029,-0.168C0.03,-0.133 0.038,-0.105 0.053,-0.082C0.067,-0.058 0.085,-0.04 0.108,-0.026C0.13,-0.012 0.155,-0.002 0.184,0.004C0.213,0.01 0.242,0.013 0.272,0.013C0.301,0.013 0.33,0.01 0.359,0.005C0.387,-0.001 0.412,-0.011 0.434,-0.025C0.456,-0.039 0.474,-0.057 0.488,-0.081C0.501,-0.103 0.508,-0.132 0.508,-0.166C0.508,-0.19 0.503,-0.21 0.494,-0.227C0.485,-0.243 0.472,-0.257 0.457,-0.268C0.442,-0.279 0.424,-0.287 0.405,-0.294C0.385,-0.301 0.365,-0.306 0.344,-0.311C0.324,-0.316 0.304,-0.32 0.285,-0.324C0.266,-0.328 0.249,-0.333 0.234,-0.338C0.219,-0.343 0.206,-0.349 0.197,-0.357C0.188,-0.365 0.183,-0.375 0.183,-0.388C0.183,-0.399 0.186,-0.407 0.191,-0.414C0.196,-0.42 0.203,-0.425 0.211,-0.428C0.218,-0.431 0.227,-0.434 0.236,-0.435C0.245,-0.436 0.254,-0.436 0.262,-0.436C0.287,-0.436 0.309,-0.431 0.328,-0.422C0.347,-0.412 0.357,-0.393 0.359,-0.366L0.494,-0.366C0.491,-0.398 0.483,-0.425 0.47,-0.446C0.456,-0.467 0.439,-0.483 0.418,-0.496C0.397,-0.509 0.374,-0.518 0.348,-0.523C0.321,-0.528 0.294,-0.531 0.266,-0.531C0.238,-0.531 0.211,-0.529 0.184,-0.524C0.157,-0.519 0.133,-0.51 0.112,-0.498C0.091,-0.485 0.074,-0.468 0.061,-0.447C0.048,-0.426 0.041,-0.398 0.041,-0.365C0.041,-0.342 0.046,-0.323 0.055,-0.308C0.064,-0.292 0.077,-0.279 0.092,-0.269C0.107,-0.258 0.125,-0.25 0.145,-0.244C0.164,-0.237 0.184,-0.232 0.205,-0.227C0.256,-0.216 0.295,-0.206 0.324,-0.195C0.352,-0.184 0.366,-0.168 0.366,-0.147C0.366,-0.134 0.363,-0.124 0.357,-0.116C0.351,-0.107 0.343,-0.1 0.335,-0.096C0.326,-0.09 0.316,-0.087 0.305,-0.085C0.294,-0.082 0.283,-0.081 0.273,-0.081C0.259,-0.081 0.246,-0.083 0.233,-0.086C0.22,-0.089 0.208,-0.094 0.198,-0.102C0.188,-0.109 0.18,-0.118 0.174,-0.129C0.167,-0.139 0.164,-0.153 0.164,-0.168Z" style="fill-rule:nonzero;"/>
                </g>
            </g>
            <g transform="matrix(0.95,0,0,1,166.593,0)">
                <g transform="matrix(400,0,0,400,3331.87,11096)">
                    <path d="M0.315,-0.093C0.292,-0.093 0.273,-0.098 0.257,-0.107C0.241,-0.116 0.228,-0.129 0.219,-0.144C0.209,-0.159 0.202,-0.176 0.198,-0.196C0.193,-0.216 0.191,-0.236 0.191,-0.257C0.191,-0.278 0.193,-0.299 0.197,-0.319C0.201,-0.339 0.208,-0.357 0.218,-0.372C0.227,-0.387 0.24,-0.4 0.256,-0.41C0.271,-0.419 0.291,-0.424 0.314,-0.424C0.337,-0.424 0.356,-0.419 0.372,-0.41C0.387,-0.4 0.4,-0.387 0.41,-0.372C0.42,-0.356 0.427,-0.338 0.432,-0.318C0.436,-0.298 0.438,-0.278 0.438,-0.257C0.438,-0.236 0.436,-0.216 0.432,-0.196C0.428,-0.176 0.421,-0.159 0.412,-0.144C0.402,-0.129 0.389,-0.116 0.374,-0.107C0.358,-0.098 0.338,-0.093 0.315,-0.093ZM0.054,-0.517L0.054,0.181L0.196,0.181L0.196,-0.064L0.198,-0.064C0.215,-0.039 0.238,-0.02 0.265,-0.007C0.292,0.007 0.321,0.013 0.353,0.013C0.391,0.013 0.424,0.006 0.453,-0.009C0.481,-0.024 0.505,-0.043 0.524,-0.068C0.543,-0.093 0.557,-0.121 0.566,-0.153C0.575,-0.185 0.58,-0.218 0.58,-0.253C0.58,-0.29 0.575,-0.325 0.566,-0.359C0.557,-0.392 0.542,-0.422 0.523,-0.447C0.504,-0.472 0.479,-0.493 0.45,-0.508C0.421,-0.523 0.386,-0.531 0.345,-0.531C0.313,-0.531 0.284,-0.525 0.257,-0.512C0.23,-0.499 0.208,-0.479 0.191,-0.451L0.189,-0.451L0.189,-0.517L0.054,-0.517Z" style="fill-rule:nonzero;"/>
                </g>
            </g>
            <g transform="matrix(0.95,0,0,1,176.872,0)">
                <g transform="matrix(400,0,0,400,3537.45,11096)">
                    <path d="M0.402,-0.314L0.171,-0.314C0.172,-0.324 0.174,-0.335 0.178,-0.348C0.181,-0.361 0.188,-0.373 0.197,-0.384C0.206,-0.395 0.218,-0.405 0.233,-0.413C0.248,-0.42 0.266,-0.424 0.289,-0.424C0.324,-0.424 0.349,-0.415 0.367,-0.396C0.384,-0.377 0.395,-0.35 0.402,-0.314ZM0.171,-0.224L0.544,-0.224C0.547,-0.264 0.543,-0.302 0.534,-0.339C0.525,-0.376 0.509,-0.408 0.489,-0.437C0.468,-0.466 0.441,-0.489 0.408,-0.506C0.375,-0.523 0.337,-0.531 0.293,-0.531C0.254,-0.531 0.218,-0.524 0.186,-0.51C0.153,-0.496 0.125,-0.477 0.102,-0.453C0.079,-0.428 0.061,-0.399 0.048,-0.366C0.035,-0.333 0.029,-0.297 0.029,-0.258C0.029,-0.218 0.035,-0.181 0.048,-0.148C0.06,-0.115 0.077,-0.086 0.1,-0.062C0.123,-0.038 0.15,-0.02 0.183,-0.007C0.216,0.007 0.252,0.013 0.293,0.013C0.352,0.013 0.402,-0 0.443,-0.027C0.484,-0.054 0.515,-0.098 0.535,-0.16L0.41,-0.16C0.405,-0.144 0.393,-0.129 0.372,-0.115C0.351,-0.1 0.327,-0.093 0.298,-0.093C0.258,-0.093 0.227,-0.103 0.206,-0.124C0.185,-0.145 0.173,-0.178 0.171,-0.224Z" style="fill-rule:nonzero;"/>
                </g>
            </g>
            <g transform="matrix(0.95,0,0,1,186.068,0)">
                <g transform="matrix(400,0,0,400,3721.37,11096)">
                    <path d="M0.054,-0.517L0.054,-0L0.196,-0L0.196,-0.233C0.196,-0.256 0.198,-0.278 0.203,-0.298C0.208,-0.318 0.216,-0.335 0.227,-0.351C0.238,-0.366 0.252,-0.377 0.27,-0.386C0.288,-0.395 0.31,-0.399 0.336,-0.399C0.345,-0.399 0.354,-0.399 0.363,-0.398C0.372,-0.397 0.38,-0.395 0.387,-0.394L0.387,-0.526C0.376,-0.529 0.365,-0.531 0.356,-0.531C0.338,-0.531 0.321,-0.528 0.304,-0.523C0.287,-0.518 0.272,-0.51 0.257,-0.501C0.242,-0.491 0.229,-0.479 0.218,-0.466C0.207,-0.452 0.198,-0.437 0.191,-0.421L0.189,-0.421L0.189,-0.517L0.054,-0.517Z" style="fill-rule:nonzero;"/>
                </g>
            </g>
            <g transform="matrix(0.95,0,0,1,193.649,0)">
                <g transform="matrix(400,0,0,400,3872.99,11096)">
                    <path d="M0.085,-0.422L0.085,-0L0.227,-0L0.227,-0.422L0.325,-0.422L0.325,-0.517L0.227,-0.517L0.227,-0.548C0.227,-0.569 0.231,-0.584 0.24,-0.594C0.248,-0.603 0.262,-0.607 0.281,-0.607C0.299,-0.607 0.316,-0.606 0.333,-0.604L0.333,-0.71C0.321,-0.711 0.309,-0.712 0.296,-0.713C0.283,-0.713 0.271,-0.714 0.258,-0.714C0.2,-0.714 0.157,-0.699 0.128,-0.67C0.099,-0.641 0.085,-0.603 0.085,-0.557L0.085,-0.517L0,-0.517L0,-0.422L0.085,-0.422Z" style="fill-rule:nonzero;"/>
                </g>
                <g transform="matrix(400,0,0,400,3978.19,11096)">
                    <path d="M0.402,-0.314L0.171,-0.314C0.172,-0.324 0.174,-0.335 0.178,-0.348C0.181,-0.361 0.188,-0.373 0.197,-0.384C0.206,-0.395 0.218,-0.405 0.233,-0.413C0.248,-0.42 0.266,-0.424 0.289,-0.424C0.324,-0.424 0.349,-0.415 0.367,-0.396C0.384,-0.377 0.395,-0.35 0.402,-0.314ZM0.171,-0.224L0.544,-0.224C0.547,-0.264 0.543,-0.302 0.534,-0.339C0.525,-0.376 0.509,-0.408 0.489,-0.437C0.468,-0.466 0.441,-0.489 0.408,-0.506C0.375,-0.523 0.337,-0.531 0.293,-0.531C0.254,-0.531 0.218,-0.524 0.186,-0.51C0.153,-0.496 0.125,-0.477 0.102,-0.453C0.079,-0.428 0.061,-0.399 0.048,-0.366C0.035,-0.333 0.029,-0.297 0.029,-0.258C0.029,-0.218 0.035,-0.181 0.048,-0.148C0.06,-0.115 0.077,-0.086 0.1,-0.062C0.123,-0.038 0.15,-0.02 0.183,-0.007C0.216,0.007 0.252,0.013 0.293,0.013C0.352,0.013 0.402,-0 0.443,-0.027C0.484,-0.054 0.515,-0.098 0.535,-0.16L0.41,-0.16C0.405,-0.144 0.393,-0.129 0.372,-0.115C0.351,-0.1 0.327,-0.093 0.298,-0.093C0.258,-0.093 0.227,-0.103 0.206,-0.124C0.185,-0.145 0.173,-0.178 0.171,-0.224Z" style="fill-rule:nonzero;"/>
                </g>
            </g>
            <g transform="matrix(0.95,0,0,1,208.222,0)">
                <g transform="matrix(400,0,0,400,4164.45,11096)">
                    <path d="M0.406,-0.335L0.545,-0.335C0.543,-0.368 0.535,-0.397 0.521,-0.422C0.507,-0.446 0.489,-0.466 0.467,-0.483C0.444,-0.499 0.419,-0.511 0.391,-0.519C0.362,-0.527 0.333,-0.531 0.302,-0.531C0.26,-0.531 0.223,-0.524 0.19,-0.51C0.157,-0.496 0.13,-0.476 0.107,-0.452C0.084,-0.427 0.067,-0.397 0.056,-0.363C0.044,-0.328 0.038,-0.291 0.038,-0.251C0.038,-0.212 0.044,-0.177 0.057,-0.145C0.07,-0.112 0.087,-0.084 0.11,-0.061C0.133,-0.038 0.16,-0.02 0.193,-0.007C0.225,0.007 0.26,0.013 0.299,0.013C0.368,0.013 0.424,-0.005 0.468,-0.041C0.512,-0.077 0.539,-0.129 0.548,-0.198L0.411,-0.198C0.406,-0.166 0.395,-0.14 0.377,-0.122C0.358,-0.102 0.332,-0.093 0.298,-0.093C0.276,-0.093 0.257,-0.098 0.242,-0.108C0.227,-0.118 0.215,-0.131 0.206,-0.147C0.197,-0.162 0.19,-0.18 0.186,-0.199C0.182,-0.218 0.18,-0.237 0.18,-0.256C0.18,-0.275 0.182,-0.295 0.186,-0.315C0.19,-0.334 0.197,-0.352 0.207,-0.369C0.216,-0.385 0.229,-0.398 0.244,-0.409C0.259,-0.419 0.278,-0.424 0.301,-0.424C0.362,-0.424 0.397,-0.394 0.406,-0.335Z" style="fill-rule:nonzero;"/>
                </g>
                <g transform="matrix(400,0,0,400,4370.05,11096)">
                    <path d="M0.234,-0.517L0.234,-0.672L0.092,-0.672L0.092,-0.517L0.006,-0.517L0.006,-0.422L0.092,-0.422L0.092,-0.117C0.092,-0.091 0.096,-0.07 0.105,-0.054C0.114,-0.038 0.126,-0.026 0.141,-0.017C0.156,-0.008 0.173,-0.003 0.193,0.001C0.212,0.004 0.233,0.005 0.255,0.005C0.269,0.005 0.283,0.005 0.298,0.004C0.313,0.003 0.326,0.002 0.338,-0L0.338,-0.11C0.331,-0.109 0.324,-0.108 0.317,-0.107C0.31,-0.106 0.302,-0.106 0.294,-0.106C0.27,-0.106 0.254,-0.11 0.246,-0.118C0.238,-0.126 0.234,-0.142 0.234,-0.166L0.234,-0.422L0.338,-0.422L0.338,-0.517L0.234,-0.517Z" style="fill-rule:nonzero;"/>
                </g>
                <g transform="matrix(400,0,0,400,4486.85,11096)">
                    <rect x="0.06" y="-0.154" width="0.157" height="0.154" style="fill-rule:nonzero;"/>
                </g>
            </g>
        </g>
        <g transform="matrix(0.95,0,0,1,-908.618,1370.07)">
            <g transform="matrix(400,0,0,400,3816.94,10779.3)">
                <path d="M0.226,-0.391L0.226,-0.592L0.398,-0.592C0.434,-0.592 0.461,-0.584 0.479,-0.569C0.497,-0.553 0.506,-0.528 0.506,-0.493C0.506,-0.457 0.497,-0.431 0.479,-0.415C0.461,-0.399 0.434,-0.391 0.398,-0.391L0.226,-0.391ZM0.069,-0.714L0.069,-0L0.226,-0L0.226,-0.279L0.383,-0.279C0.422,-0.279 0.451,-0.27 0.468,-0.253C0.485,-0.236 0.497,-0.208 0.502,-0.171C0.506,-0.142 0.509,-0.112 0.511,-0.081C0.513,-0.05 0.518,-0.023 0.527,-0L0.684,-0C0.677,-0.01 0.671,-0.022 0.668,-0.037C0.664,-0.051 0.661,-0.066 0.66,-0.082C0.658,-0.098 0.657,-0.114 0.656,-0.129C0.655,-0.144 0.655,-0.158 0.654,-0.169C0.653,-0.187 0.65,-0.205 0.647,-0.223C0.643,-0.241 0.637,-0.258 0.629,-0.273C0.621,-0.288 0.611,-0.301 0.598,-0.312C0.585,-0.323 0.569,-0.331 0.55,-0.336L0.55,-0.338C0.59,-0.354 0.619,-0.377 0.637,-0.408C0.654,-0.439 0.663,-0.475 0.663,-0.517C0.663,-0.544 0.658,-0.57 0.649,-0.594C0.639,-0.617 0.625,-0.638 0.607,-0.656C0.588,-0.674 0.566,-0.688 0.541,-0.699C0.515,-0.709 0.486,-0.714 0.454,-0.714L0.069,-0.714Z" style="fill-rule:nonzero;"/>
            </g>
        </g>
        <g transform="matrix(0.95,0,0,1,775.33,1370.07)">
            <g transform="matrix(400,0,0,400,3811.99,10766.4)">
                <path d="M0.74,-0L0.521,-0L0.468,-0.12C0.448,-0.164 0.431,-0.196 0.415,-0.217C0.399,-0.237 0.384,-0.25 0.369,-0.256C0.355,-0.261 0.335,-0.264 0.312,-0.264L0.289,-0.264L0.289,-0L0.085,-0L0.085,-0.677L0.432,-0.677C0.488,-0.677 0.534,-0.665 0.57,-0.643C0.606,-0.62 0.631,-0.592 0.647,-0.56C0.663,-0.527 0.671,-0.496 0.671,-0.467C0.671,-0.433 0.664,-0.404 0.651,-0.38C0.638,-0.357 0.624,-0.339 0.609,-0.329C0.595,-0.318 0.578,-0.308 0.56,-0.298C0.582,-0.285 0.6,-0.27 0.614,-0.253C0.628,-0.235 0.647,-0.2 0.672,-0.147L0.74,-0ZM0.463,-0.463C0.463,-0.494 0.453,-0.516 0.432,-0.528C0.412,-0.541 0.378,-0.547 0.332,-0.547L0.289,-0.547L0.289,-0.384L0.333,-0.384C0.383,-0.384 0.417,-0.389 0.435,-0.4C0.454,-0.411 0.463,-0.432 0.463,-0.463Z" style="fill-rule:nonzero;"/>
            </g>
        </g>
        <g id="Layer1">
        </g>
        <g id="g862">
        </g>
    </g>
</svg>
