<?xml version="1.0" encoding="UTF-8" standalone="no"?>
<!DOCTYPE svg PUBLIC "-//W3C//DTD SVG 1.1//EN" "http://www.w3.org/Graphics/SVG/1.1/DTD/svg11.dtd">
<svg width="100%" height="100%" viewBox="0 0 846 107" version="1.1" xmlns="http://www.w3.org/2000/svg" xmlns:xlink="http://www.w3.org/1999/xlink" xml:space="preserve" xmlns:serif="http://www.serif.com/" style="fill-rule:evenodd;clip-rule:evenodd;stroke-linejoin:round;stroke-miterlimit:2;">
    <g transform="matrix(1,0,0,1,-930.979,-806.396)">
        <rect x="930.979" y="806.396" width="845.31" height="106.499" style="fill:white;"/>
        <g>
            <g transform="matrix(50,0,0,50,934.848,847.426)">
                <path d="M0.05,-0L0.05,-0.121L0.14,-0.121L0.14,-0.577L0.05,-0.577L0.05,-0.698L0.382,-0.698L0.382,-0.577L0.292,-0.577L0.292,-0.121L0.382,-0.121L0.382,-0L0.05,-0Z" style="fill-rule:nonzero;"/>
            </g>
            <g transform="matrix(50,0,0,50,956.448,847.426)">
                <path d="M0.069,-0L0.069,-0.525L0.217,-0.525L0.217,-0.436L0.223,-0.436C0.232,-0.463 0.249,-0.487 0.272,-0.507C0.295,-0.527 0.328,-0.537 0.369,-0.537C0.423,-0.537 0.464,-0.519 0.492,-0.483C0.519,-0.447 0.533,-0.396 0.533,-0.329L0.533,-0L0.385,-0L0.385,-0.317C0.385,-0.351 0.38,-0.376 0.369,-0.393C0.358,-0.409 0.339,-0.417 0.312,-0.417C0.3,-0.417 0.288,-0.416 0.277,-0.413C0.266,-0.41 0.256,-0.405 0.247,-0.398C0.238,-0.391 0.23,-0.383 0.225,-0.374C0.22,-0.364 0.217,-0.353 0.217,-0.34L0.217,-0L0.069,-0Z" style="fill-rule:nonzero;"/>
            </g>
            <g transform="matrix(50,0,0,50,986.248,847.426)">
                <path d="M0.253,-0C0.202,-0 0.163,-0.013 0.137,-0.039C0.11,-0.065 0.097,-0.103 0.097,-0.153L0.097,-0.41L0.023,-0.41L0.023,-0.525L0.06,-0.525C0.08,-0.525 0.094,-0.53 0.101,-0.54C0.108,-0.549 0.112,-0.563 0.112,-0.581L0.112,-0.667L0.245,-0.667L0.245,-0.525L0.349,-0.525L0.349,-0.41L0.245,-0.41L0.245,-0.115L0.341,-0.115L0.341,-0L0.253,-0Z" style="fill-rule:nonzero;"/>
            </g>
            <g transform="matrix(50,0,0,50,1005.4,847.426)">
                <path d="M0.069,-0L0.069,-0.525L0.217,-0.525L0.217,-0.411L0.222,-0.411C0.225,-0.426 0.229,-0.44 0.236,-0.454C0.243,-0.467 0.252,-0.479 0.263,-0.49C0.274,-0.501 0.287,-0.509 0.302,-0.516C0.317,-0.522 0.335,-0.525 0.356,-0.525L0.382,-0.525L0.382,-0.387L0.345,-0.387C0.302,-0.387 0.27,-0.381 0.249,-0.37C0.228,-0.359 0.217,-0.338 0.217,-0.307L0.217,-0L0.069,-0Z" style="fill-rule:nonzero;"/>
            </g>
            <g transform="matrix(50,0,0,50,1025.35,847.426)">
                <path d="M0.282,0.012C0.243,0.012 0.209,0.006 0.179,-0.007C0.148,-0.02 0.123,-0.038 0.102,-0.062C0.081,-0.086 0.064,-0.115 0.053,-0.149C0.042,-0.183 0.036,-0.221 0.036,-0.263C0.036,-0.305 0.042,-0.343 0.053,-0.377C0.064,-0.411 0.081,-0.44 0.102,-0.464C0.123,-0.487 0.148,-0.505 0.179,-0.518C0.209,-0.531 0.243,-0.537 0.282,-0.537C0.321,-0.537 0.355,-0.531 0.386,-0.518C0.416,-0.505 0.442,-0.487 0.463,-0.464C0.484,-0.44 0.5,-0.411 0.511,-0.377C0.522,-0.343 0.528,-0.305 0.528,-0.263C0.528,-0.221 0.522,-0.183 0.511,-0.149C0.5,-0.115 0.484,-0.086 0.463,-0.062C0.442,-0.038 0.416,-0.02 0.386,-0.007C0.355,0.006 0.321,0.012 0.282,0.012ZM0.282,-0.105C0.311,-0.105 0.334,-0.114 0.35,-0.132C0.366,-0.15 0.374,-0.176 0.374,-0.209L0.374,-0.316C0.374,-0.349 0.366,-0.375 0.35,-0.393C0.334,-0.411 0.311,-0.42 0.282,-0.42C0.253,-0.42 0.23,-0.411 0.214,-0.393C0.198,-0.375 0.19,-0.349 0.19,-0.316L0.19,-0.209C0.19,-0.176 0.198,-0.15 0.214,-0.132C0.23,-0.114 0.253,-0.105 0.282,-0.105Z" style="fill-rule:nonzero;"/>
            </g>
            <g transform="matrix(50,0,0,50,1053.55,847.426)">
                <path d="M0.391,-0.088L0.386,-0.088C0.382,-0.074 0.376,-0.061 0.367,-0.049C0.358,-0.036 0.348,-0.025 0.336,-0.017C0.323,-0.008 0.309,-0 0.294,0.005C0.278,0.01 0.262,0.012 0.245,0.012C0.178,0.012 0.128,-0.012 0.094,-0.059C0.06,-0.106 0.043,-0.174 0.043,-0.263C0.043,-0.352 0.06,-0.42 0.094,-0.467C0.128,-0.514 0.178,-0.537 0.245,-0.537C0.279,-0.537 0.309,-0.528 0.336,-0.509C0.362,-0.49 0.379,-0.466 0.386,-0.437L0.391,-0.437L0.391,-0.74L0.539,-0.74L0.539,-0L0.391,-0L0.391,-0.088ZM0.294,-0.108C0.322,-0.108 0.345,-0.115 0.364,-0.129C0.382,-0.142 0.391,-0.161 0.391,-0.185L0.391,-0.34C0.391,-0.364 0.382,-0.383 0.364,-0.397C0.345,-0.41 0.322,-0.417 0.294,-0.417C0.266,-0.417 0.243,-0.407 0.225,-0.388C0.206,-0.368 0.197,-0.341 0.197,-0.308L0.197,-0.217C0.197,-0.184 0.206,-0.157 0.225,-0.138C0.243,-0.118 0.266,-0.108 0.294,-0.108Z" style="fill-rule:nonzero;"/>
            </g>
            <g transform="matrix(50,0,0,50,1083.95,847.426)">
                <path d="M0.379,-0.088L0.374,-0.088C0.369,-0.075 0.363,-0.062 0.356,-0.05C0.348,-0.038 0.338,-0.027 0.326,-0.018C0.314,-0.009 0.3,-0.001 0.284,0.004C0.267,0.009 0.248,0.012 0.227,0.012C0.173,0.012 0.132,-0.006 0.105,-0.042C0.077,-0.077 0.063,-0.128 0.063,-0.195L0.063,-0.525L0.211,-0.525L0.211,-0.208C0.211,-0.176 0.217,-0.151 0.228,-0.134C0.239,-0.117 0.259,-0.108 0.286,-0.108C0.297,-0.108 0.309,-0.11 0.32,-0.113C0.331,-0.116 0.341,-0.121 0.35,-0.128C0.359,-0.134 0.366,-0.142 0.371,-0.151C0.376,-0.16 0.379,-0.171 0.379,-0.184L0.379,-0.525L0.527,-0.525L0.527,-0L0.379,-0L0.379,-0.088Z" style="fill-rule:nonzero;"/>
            </g>
            <g transform="matrix(50,0,0,50,1113.75,847.426)">
                <path d="M0.281,0.012C0.242,0.012 0.207,0.006 0.176,-0.008C0.145,-0.021 0.12,-0.039 0.099,-0.063C0.078,-0.086 0.063,-0.115 0.052,-0.149C0.041,-0.183 0.036,-0.221 0.036,-0.263C0.036,-0.305 0.041,-0.343 0.052,-0.377C0.063,-0.41 0.078,-0.439 0.099,-0.463C0.12,-0.487 0.145,-0.505 0.176,-0.518C0.207,-0.531 0.242,-0.537 0.281,-0.537C0.334,-0.537 0.379,-0.525 0.415,-0.501C0.45,-0.477 0.476,-0.443 0.491,-0.4L0.371,-0.348C0.366,-0.368 0.357,-0.385 0.342,-0.399C0.327,-0.413 0.307,-0.42 0.281,-0.42C0.251,-0.42 0.228,-0.41 0.213,-0.391C0.198,-0.371 0.19,-0.344 0.19,-0.311L0.19,-0.213C0.19,-0.18 0.198,-0.153 0.213,-0.134C0.228,-0.115 0.251,-0.105 0.281,-0.105C0.308,-0.105 0.329,-0.112 0.345,-0.127C0.36,-0.141 0.372,-0.16 0.379,-0.183L0.494,-0.133C0.477,-0.083 0.45,-0.046 0.414,-0.023C0.377,0 0.333,0.012 0.281,0.012Z" style="fill-rule:nonzero;"/>
            </g>
            <g transform="matrix(50,0,0,50,1139.6,847.426)">
                <path d="M0.253,-0C0.202,-0 0.163,-0.013 0.137,-0.039C0.11,-0.065 0.097,-0.103 0.097,-0.153L0.097,-0.41L0.023,-0.41L0.023,-0.525L0.06,-0.525C0.08,-0.525 0.094,-0.53 0.101,-0.54C0.108,-0.549 0.112,-0.563 0.112,-0.581L0.112,-0.667L0.245,-0.667L0.245,-0.525L0.349,-0.525L0.349,-0.41L0.245,-0.41L0.245,-0.115L0.341,-0.115L0.341,-0L0.253,-0Z" style="fill-rule:nonzero;"/>
            </g>
            <g transform="matrix(50,0,0,50,1158.75,847.426)">
                <path d="M0.143,-0.581C0.113,-0.581 0.091,-0.588 0.078,-0.602C0.064,-0.615 0.057,-0.633 0.057,-0.654L0.057,-0.676C0.057,-0.697 0.064,-0.715 0.078,-0.729C0.091,-0.742 0.113,-0.749 0.143,-0.749C0.173,-0.749 0.195,-0.742 0.209,-0.729C0.222,-0.715 0.229,-0.697 0.229,-0.676L0.229,-0.654C0.229,-0.633 0.222,-0.615 0.209,-0.602C0.195,-0.588 0.173,-0.581 0.143,-0.581ZM0.069,-0.525L0.217,-0.525L0.217,-0L0.069,-0L0.069,-0.525Z" style="fill-rule:nonzero;"/>
            </g>
            <g transform="matrix(50,0,0,50,1173.05,847.426)">
                <path d="M0.282,0.012C0.243,0.012 0.209,0.006 0.179,-0.007C0.148,-0.02 0.123,-0.038 0.102,-0.062C0.081,-0.086 0.064,-0.115 0.053,-0.149C0.042,-0.183 0.036,-0.221 0.036,-0.263C0.036,-0.305 0.042,-0.343 0.053,-0.377C0.064,-0.411 0.081,-0.44 0.102,-0.464C0.123,-0.487 0.148,-0.505 0.179,-0.518C0.209,-0.531 0.243,-0.537 0.282,-0.537C0.321,-0.537 0.355,-0.531 0.386,-0.518C0.416,-0.505 0.442,-0.487 0.463,-0.464C0.484,-0.44 0.5,-0.411 0.511,-0.377C0.522,-0.343 0.528,-0.305 0.528,-0.263C0.528,-0.221 0.522,-0.183 0.511,-0.149C0.5,-0.115 0.484,-0.086 0.463,-0.062C0.442,-0.038 0.416,-0.02 0.386,-0.007C0.355,0.006 0.321,0.012 0.282,0.012ZM0.282,-0.105C0.311,-0.105 0.334,-0.114 0.35,-0.132C0.366,-0.15 0.374,-0.176 0.374,-0.209L0.374,-0.316C0.374,-0.349 0.366,-0.375 0.35,-0.393C0.334,-0.411 0.311,-0.42 0.282,-0.42C0.253,-0.42 0.23,-0.411 0.214,-0.393C0.198,-0.375 0.19,-0.349 0.19,-0.316L0.19,-0.209C0.19,-0.176 0.198,-0.15 0.214,-0.132C0.23,-0.114 0.253,-0.105 0.282,-0.105Z" style="fill-rule:nonzero;"/>
            </g>
            <g transform="matrix(50,0,0,50,1201.25,847.426)">
                <path d="M0.069,-0L0.069,-0.525L0.217,-0.525L0.217,-0.436L0.223,-0.436C0.232,-0.463 0.249,-0.487 0.272,-0.507C0.295,-0.527 0.328,-0.537 0.369,-0.537C0.423,-0.537 0.464,-0.519 0.492,-0.483C0.519,-0.447 0.533,-0.396 0.533,-0.329L0.533,-0L0.385,-0L0.385,-0.317C0.385,-0.351 0.38,-0.376 0.369,-0.393C0.358,-0.409 0.339,-0.417 0.312,-0.417C0.3,-0.417 0.288,-0.416 0.277,-0.413C0.266,-0.41 0.256,-0.405 0.247,-0.398C0.238,-0.391 0.23,-0.383 0.225,-0.374C0.22,-0.364 0.217,-0.353 0.217,-0.34L0.217,-0L0.069,-0Z" style="fill-rule:nonzero;"/>
            </g>
            <g transform="matrix(50,0,0,50,1242.85,847.426)">
                <path d="M0.253,-0C0.202,-0 0.163,-0.013 0.137,-0.039C0.11,-0.065 0.097,-0.103 0.097,-0.153L0.097,-0.41L0.023,-0.41L0.023,-0.525L0.06,-0.525C0.08,-0.525 0.094,-0.53 0.101,-0.54C0.108,-0.549 0.112,-0.563 0.112,-0.581L0.112,-0.667L0.245,-0.667L0.245,-0.525L0.349,-0.525L0.349,-0.41L0.245,-0.41L0.245,-0.115L0.341,-0.115L0.341,-0L0.253,-0Z" style="fill-rule:nonzero;"/>
            </g>
            <g transform="matrix(50,0,0,50,1261.8,847.426)">
                <path d="M0.282,0.012C0.243,0.012 0.209,0.006 0.179,-0.007C0.148,-0.02 0.123,-0.038 0.102,-0.062C0.081,-0.086 0.064,-0.115 0.053,-0.149C0.042,-0.183 0.036,-0.221 0.036,-0.263C0.036,-0.305 0.042,-0.343 0.053,-0.377C0.064,-0.411 0.081,-0.44 0.102,-0.464C0.123,-0.487 0.148,-0.505 0.179,-0.518C0.209,-0.531 0.243,-0.537 0.282,-0.537C0.321,-0.537 0.355,-0.531 0.386,-0.518C0.416,-0.505 0.442,-0.487 0.463,-0.464C0.484,-0.44 0.5,-0.411 0.511,-0.377C0.522,-0.343 0.528,-0.305 0.528,-0.263C0.528,-0.221 0.522,-0.183 0.511,-0.149C0.5,-0.115 0.484,-0.086 0.463,-0.062C0.442,-0.038 0.416,-0.02 0.386,-0.007C0.355,0.006 0.321,0.012 0.282,0.012ZM0.282,-0.105C0.311,-0.105 0.334,-0.114 0.35,-0.132C0.366,-0.15 0.374,-0.176 0.374,-0.209L0.374,-0.316C0.374,-0.349 0.366,-0.375 0.35,-0.393C0.334,-0.411 0.311,-0.42 0.282,-0.42C0.253,-0.42 0.23,-0.411 0.214,-0.393C0.198,-0.375 0.19,-0.349 0.19,-0.316L0.19,-0.209C0.19,-0.176 0.198,-0.15 0.214,-0.132C0.23,-0.114 0.253,-0.105 0.282,-0.105Z" style="fill-rule:nonzero;"/>
            </g>
            <g transform="matrix(50,0,0,50,1301.8,847.426)">
                <path d="M0.253,-0C0.202,-0 0.163,-0.013 0.137,-0.039C0.11,-0.065 0.097,-0.103 0.097,-0.153L0.097,-0.41L0.023,-0.41L0.023,-0.525L0.06,-0.525C0.08,-0.525 0.094,-0.53 0.101,-0.54C0.108,-0.549 0.112,-0.563 0.112,-0.581L0.112,-0.667L0.245,-0.667L0.245,-0.525L0.349,-0.525L0.349,-0.41L0.245,-0.41L0.245,-0.115L0.341,-0.115L0.341,-0L0.253,-0Z" style="fill-rule:nonzero;"/>
            </g>
            <g transform="matrix(50,0,0,50,1320.95,847.426)">
                <path d="M0.069,-0.74L0.217,-0.74L0.217,-0.436L0.223,-0.436C0.232,-0.463 0.249,-0.487 0.272,-0.507C0.295,-0.527 0.328,-0.537 0.369,-0.537C0.423,-0.537 0.464,-0.519 0.492,-0.483C0.519,-0.447 0.533,-0.396 0.533,-0.329L0.533,-0L0.385,-0L0.385,-0.317C0.385,-0.351 0.38,-0.376 0.369,-0.393C0.358,-0.409 0.339,-0.417 0.312,-0.417C0.3,-0.417 0.288,-0.416 0.277,-0.413C0.266,-0.41 0.256,-0.405 0.247,-0.398C0.238,-0.391 0.23,-0.383 0.225,-0.374C0.22,-0.364 0.217,-0.353 0.217,-0.34L0.217,-0L0.069,-0L0.069,-0.74Z" style="fill-rule:nonzero;"/>
            </g>
            <g transform="matrix(50,0,0,50,1350.75,847.426)">
                <path d="M0.288,0.012C0.248,0.012 0.212,0.006 0.181,-0.008C0.15,-0.021 0.123,-0.039 0.102,-0.063C0.08,-0.086 0.064,-0.115 0.053,-0.149C0.042,-0.183 0.036,-0.221 0.036,-0.263C0.036,-0.304 0.041,-0.342 0.052,-0.376C0.063,-0.409 0.079,-0.438 0.1,-0.462C0.121,-0.486 0.146,-0.505 0.177,-0.518C0.208,-0.531 0.243,-0.537 0.282,-0.537C0.325,-0.537 0.363,-0.53 0.394,-0.515C0.425,-0.5 0.45,-0.481 0.47,-0.456C0.489,-0.431 0.503,-0.403 0.513,-0.371C0.522,-0.338 0.526,-0.304 0.526,-0.269L0.526,-0.225L0.189,-0.225L0.189,-0.217C0.189,-0.182 0.198,-0.155 0.217,-0.135C0.236,-0.114 0.265,-0.104 0.305,-0.104C0.336,-0.104 0.361,-0.11 0.38,-0.123C0.399,-0.135 0.417,-0.15 0.434,-0.167L0.508,-0.075C0.485,-0.048 0.454,-0.026 0.417,-0.011C0.379,0.004 0.336,0.012 0.288,0.012ZM0.285,-0.428C0.255,-0.428 0.232,-0.418 0.215,-0.399C0.198,-0.379 0.189,-0.353 0.189,-0.32L0.189,-0.312L0.373,-0.312L0.373,-0.321C0.373,-0.353 0.366,-0.379 0.352,-0.399C0.337,-0.418 0.315,-0.428 0.285,-0.428Z" style="fill-rule:nonzero;"/>
            </g>
            <g transform="matrix(50,0,0,50,1390.65,847.426)">
                <path d="M0.077,-0L0.077,-0.698L0.407,-0.698C0.44,-0.698 0.469,-0.693 0.495,-0.682C0.521,-0.671 0.543,-0.655 0.562,-0.636C0.58,-0.617 0.594,-0.593 0.604,-0.566C0.614,-0.538 0.619,-0.508 0.619,-0.475C0.619,-0.442 0.614,-0.411 0.604,-0.384C0.594,-0.357 0.58,-0.333 0.562,-0.314C0.543,-0.295 0.521,-0.28 0.495,-0.269C0.469,-0.258 0.44,-0.252 0.407,-0.252L0.229,-0.252L0.229,-0L0.077,-0ZM0.229,-0.384L0.389,-0.384C0.412,-0.384 0.43,-0.39 0.443,-0.402C0.456,-0.413 0.462,-0.43 0.462,-0.453L0.462,-0.497C0.462,-0.52 0.456,-0.537 0.443,-0.549C0.43,-0.56 0.412,-0.566 0.389,-0.566L0.229,-0.566L0.229,-0.384Z" style="fill-rule:nonzero;"/>
            </g>
            <g transform="matrix(50,0,0,50,1423.45,847.426)">
                <path d="M0.069,-0.74L0.217,-0.74L0.217,-0.436L0.223,-0.436C0.232,-0.463 0.249,-0.487 0.272,-0.507C0.295,-0.527 0.328,-0.537 0.369,-0.537C0.423,-0.537 0.464,-0.519 0.492,-0.483C0.519,-0.447 0.533,-0.396 0.533,-0.329L0.533,-0L0.385,-0L0.385,-0.317C0.385,-0.351 0.38,-0.376 0.369,-0.393C0.358,-0.409 0.339,-0.417 0.312,-0.417C0.3,-0.417 0.288,-0.416 0.277,-0.413C0.266,-0.41 0.256,-0.405 0.247,-0.398C0.238,-0.391 0.23,-0.383 0.225,-0.374C0.22,-0.364 0.217,-0.353 0.217,-0.34L0.217,-0L0.069,-0L0.069,-0.74Z" style="fill-rule:nonzero;"/>
            </g>
            <g transform="matrix(50,0,0,50,1452.85,847.426)">
                <path d="M0.39,-0.525L0.528,-0.525L0.326,0.081C0.313,0.122 0.294,0.152 0.27,0.171C0.245,0.19 0.21,0.2 0.165,0.2L0.073,0.2L0.073,0.085L0.172,0.085L0.19,0.027L0.006,-0.525L0.153,-0.525L0.23,-0.28L0.268,-0.128L0.274,-0.128L0.313,-0.28L0.39,-0.525Z" style="fill-rule:nonzero;"/>
            </g>
            <g transform="matrix(50,0,0,50,1479.1,847.426)">
                <path d="M0.247,0.012C0.196,0.012 0.154,0.004 0.119,-0.013C0.084,-0.029 0.053,-0.052 0.026,-0.082L0.113,-0.17C0.132,-0.149 0.152,-0.133 0.175,-0.121C0.198,-0.109 0.223,-0.103 0.252,-0.103C0.281,-0.103 0.302,-0.108 0.313,-0.117C0.324,-0.126 0.33,-0.138 0.33,-0.153C0.33,-0.178 0.312,-0.192 0.277,-0.197L0.22,-0.204C0.102,-0.219 0.043,-0.273 0.043,-0.366C0.043,-0.391 0.048,-0.415 0.058,-0.436C0.067,-0.456 0.081,-0.474 0.099,-0.49C0.116,-0.505 0.137,-0.516 0.163,-0.525C0.188,-0.533 0.216,-0.537 0.247,-0.537C0.274,-0.537 0.299,-0.535 0.32,-0.532C0.341,-0.528 0.359,-0.523 0.376,-0.516C0.392,-0.509 0.407,-0.5 0.421,-0.49C0.434,-0.479 0.448,-0.468 0.461,-0.455L0.376,-0.368C0.359,-0.385 0.341,-0.398 0.32,-0.408C0.299,-0.417 0.277,-0.422 0.255,-0.422C0.23,-0.422 0.212,-0.418 0.201,-0.41C0.19,-0.402 0.185,-0.391 0.185,-0.378C0.185,-0.364 0.189,-0.353 0.197,-0.346C0.204,-0.338 0.219,-0.332 0.24,-0.329L0.299,-0.321C0.414,-0.306 0.472,-0.253 0.472,-0.163C0.472,-0.138 0.467,-0.114 0.456,-0.093C0.445,-0.072 0.43,-0.053 0.411,-0.038C0.391,-0.022 0.367,-0.01 0.34,-0.001C0.312,0.008 0.281,0.012 0.247,0.012Z" style="fill-rule:nonzero;"/>
            </g>
            <g transform="matrix(50,0,0,50,1504.3,847.426)">
                <path d="M0.143,-0.581C0.113,-0.581 0.091,-0.588 0.078,-0.602C0.064,-0.615 0.057,-0.633 0.057,-0.654L0.057,-0.676C0.057,-0.697 0.064,-0.715 0.078,-0.729C0.091,-0.742 0.113,-0.749 0.143,-0.749C0.173,-0.749 0.195,-0.742 0.209,-0.729C0.222,-0.715 0.229,-0.697 0.229,-0.676L0.229,-0.654C0.229,-0.633 0.222,-0.615 0.209,-0.602C0.195,-0.588 0.173,-0.581 0.143,-0.581ZM0.069,-0.525L0.217,-0.525L0.217,-0L0.069,-0L0.069,-0.525Z" style="fill-rule:nonzero;"/>
            </g>
            <g transform="matrix(50,0,0,50,1518.6,847.426)">
                <path d="M0.281,0.012C0.242,0.012 0.207,0.006 0.176,-0.008C0.145,-0.021 0.12,-0.039 0.099,-0.063C0.078,-0.086 0.063,-0.115 0.052,-0.149C0.041,-0.183 0.036,-0.221 0.036,-0.263C0.036,-0.305 0.041,-0.343 0.052,-0.377C0.063,-0.41 0.078,-0.439 0.099,-0.463C0.12,-0.487 0.145,-0.505 0.176,-0.518C0.207,-0.531 0.242,-0.537 0.281,-0.537C0.334,-0.537 0.379,-0.525 0.415,-0.501C0.45,-0.477 0.476,-0.443 0.491,-0.4L0.371,-0.348C0.366,-0.368 0.357,-0.385 0.342,-0.399C0.327,-0.413 0.307,-0.42 0.281,-0.42C0.251,-0.42 0.228,-0.41 0.213,-0.391C0.198,-0.371 0.19,-0.344 0.19,-0.311L0.19,-0.213C0.19,-0.18 0.198,-0.153 0.213,-0.134C0.228,-0.115 0.251,-0.105 0.281,-0.105C0.308,-0.105 0.329,-0.112 0.345,-0.127C0.36,-0.141 0.372,-0.16 0.379,-0.183L0.494,-0.133C0.477,-0.083 0.45,-0.046 0.414,-0.023C0.377,0 0.333,0.012 0.281,0.012Z" style="fill-rule:nonzero;"/>
            </g>
            <g transform="matrix(50,0,0,50,1544.45,847.426)">
                <path d="M0.457,-0C0.43,-0 0.408,-0.008 0.391,-0.025C0.373,-0.042 0.362,-0.064 0.357,-0.092L0.351,-0.092C0.343,-0.058 0.325,-0.032 0.298,-0.015C0.271,0.003 0.237,0.012 0.197,0.012C0.144,0.012 0.104,-0.002 0.076,-0.03C0.048,-0.058 0.034,-0.095 0.034,-0.141C0.034,-0.196 0.054,-0.238 0.095,-0.265C0.135,-0.292 0.19,-0.305 0.259,-0.305L0.342,-0.305L0.342,-0.338C0.342,-0.363 0.335,-0.384 0.322,-0.399C0.309,-0.413 0.286,-0.421 0.255,-0.421C0.226,-0.421 0.202,-0.415 0.185,-0.402C0.168,-0.389 0.153,-0.375 0.142,-0.359L0.054,-0.437C0.075,-0.468 0.102,-0.493 0.135,-0.511C0.167,-0.528 0.211,-0.537 0.266,-0.537C0.341,-0.537 0.397,-0.521 0.434,-0.488C0.471,-0.455 0.49,-0.408 0.49,-0.345L0.49,-0.115L0.539,-0.115L0.539,-0L0.457,-0ZM0.252,-0.091C0.277,-0.091 0.298,-0.096 0.316,-0.107C0.333,-0.118 0.342,-0.135 0.342,-0.159L0.342,-0.221L0.27,-0.221C0.212,-0.221 0.183,-0.201 0.183,-0.162L0.183,-0.147C0.183,-0.128 0.189,-0.114 0.201,-0.105C0.213,-0.095 0.23,-0.091 0.252,-0.091Z" style="fill-rule:nonzero;"/>
            </g>
            <g transform="matrix(50,0,0,50,1572.9,847.426)">
                <path d="M0.216,-0C0.165,-0 0.128,-0.012 0.105,-0.037C0.081,-0.062 0.069,-0.097 0.069,-0.144L0.069,-0.74L0.217,-0.74L0.217,-0.115L0.283,-0.115L0.283,-0L0.216,-0Z" style="fill-rule:nonzero;"/>
            </g>
            <g transform="matrix(50,0,0,50,934.848,897.426)">
                <path d="M0.599,-0.458L0.596,-0.458L0.545,-0.356L0.409,-0.109L0.276,-0.355L0.223,-0.465L0.22,-0.465L0.22,-0L0.077,-0L0.077,-0.698L0.238,-0.698L0.409,-0.371L0.411,-0.371L0.58,-0.698L0.742,-0.698L0.742,-0L0.599,-0L0.599,-0.458Z" style="fill-rule:nonzero;"/>
            </g>
            <g transform="matrix(50,0,0,50,975.798,897.426)">
                <path d="M0.457,-0C0.43,-0 0.408,-0.008 0.391,-0.025C0.373,-0.042 0.362,-0.064 0.357,-0.092L0.351,-0.092C0.343,-0.058 0.325,-0.032 0.298,-0.015C0.271,0.003 0.237,0.012 0.197,0.012C0.144,0.012 0.104,-0.002 0.076,-0.03C0.048,-0.058 0.034,-0.095 0.034,-0.141C0.034,-0.196 0.054,-0.238 0.095,-0.265C0.135,-0.292 0.19,-0.305 0.259,-0.305L0.342,-0.305L0.342,-0.338C0.342,-0.363 0.335,-0.384 0.322,-0.399C0.309,-0.413 0.286,-0.421 0.255,-0.421C0.226,-0.421 0.202,-0.415 0.185,-0.402C0.168,-0.389 0.153,-0.375 0.142,-0.359L0.054,-0.437C0.075,-0.468 0.102,-0.493 0.135,-0.511C0.167,-0.528 0.211,-0.537 0.266,-0.537C0.341,-0.537 0.397,-0.521 0.434,-0.488C0.471,-0.455 0.49,-0.408 0.49,-0.345L0.49,-0.115L0.539,-0.115L0.539,-0L0.457,-0ZM0.252,-0.091C0.277,-0.091 0.298,-0.096 0.316,-0.107C0.333,-0.118 0.342,-0.135 0.342,-0.159L0.342,-0.221L0.27,-0.221C0.212,-0.221 0.183,-0.201 0.183,-0.162L0.183,-0.147C0.183,-0.128 0.189,-0.114 0.201,-0.105C0.213,-0.095 0.23,-0.091 0.252,-0.091Z" style="fill-rule:nonzero;"/>
            </g>
            <g transform="matrix(50,0,0,50,1004.25,897.426)">
                <path d="M0.069,-0L0.069,-0.525L0.217,-0.525L0.217,-0.436L0.223,-0.436C0.232,-0.463 0.249,-0.487 0.272,-0.507C0.295,-0.527 0.328,-0.537 0.369,-0.537C0.423,-0.537 0.464,-0.519 0.492,-0.483C0.519,-0.447 0.533,-0.396 0.533,-0.329L0.533,-0L0.385,-0L0.385,-0.317C0.385,-0.351 0.38,-0.376 0.369,-0.393C0.358,-0.409 0.339,-0.417 0.312,-0.417C0.3,-0.417 0.288,-0.416 0.277,-0.413C0.266,-0.41 0.256,-0.405 0.247,-0.398C0.238,-0.391 0.23,-0.383 0.225,-0.374C0.22,-0.364 0.217,-0.353 0.217,-0.34L0.217,-0L0.069,-0Z" style="fill-rule:nonzero;"/>
            </g>
            <g transform="matrix(50,0,0,50,1034.05,897.426)">
                <path d="M0.143,-0.581C0.113,-0.581 0.091,-0.588 0.078,-0.602C0.064,-0.615 0.057,-0.633 0.057,-0.654L0.057,-0.676C0.057,-0.697 0.064,-0.715 0.078,-0.729C0.091,-0.742 0.113,-0.749 0.143,-0.749C0.173,-0.749 0.195,-0.742 0.209,-0.729C0.222,-0.715 0.229,-0.697 0.229,-0.676L0.229,-0.654C0.229,-0.633 0.222,-0.615 0.209,-0.602C0.195,-0.588 0.173,-0.581 0.143,-0.581ZM0.069,-0.525L0.217,-0.525L0.217,-0L0.069,-0L0.069,-0.525Z" style="fill-rule:nonzero;"/>
            </g>
            <g transform="matrix(50,0,0,50,1048.35,897.426)">
                <path d="M0.095,-0.41L0.021,-0.41L0.021,-0.525L0.095,-0.525L0.095,-0.587C0.095,-0.638 0.108,-0.676 0.135,-0.702C0.162,-0.727 0.201,-0.74 0.252,-0.74L0.348,-0.74L0.348,-0.625L0.243,-0.625L0.243,-0.525L0.348,-0.525L0.348,-0.41L0.243,-0.41L0.243,-0L0.095,-0L0.095,-0.41Z" style="fill-rule:nonzero;"/>
            </g>
            <g transform="matrix(50,0,0,50,1066.2,897.426)">
                <path d="M0.288,0.012C0.248,0.012 0.212,0.006 0.181,-0.008C0.15,-0.021 0.123,-0.039 0.102,-0.063C0.08,-0.086 0.064,-0.115 0.053,-0.149C0.042,-0.183 0.036,-0.221 0.036,-0.263C0.036,-0.304 0.041,-0.342 0.052,-0.376C0.063,-0.409 0.079,-0.438 0.1,-0.462C0.121,-0.486 0.146,-0.505 0.177,-0.518C0.208,-0.531 0.243,-0.537 0.282,-0.537C0.325,-0.537 0.363,-0.53 0.394,-0.515C0.425,-0.5 0.45,-0.481 0.47,-0.456C0.489,-0.431 0.503,-0.403 0.513,-0.371C0.522,-0.338 0.526,-0.304 0.526,-0.269L0.526,-0.225L0.189,-0.225L0.189,-0.217C0.189,-0.182 0.198,-0.155 0.217,-0.135C0.236,-0.114 0.265,-0.104 0.305,-0.104C0.336,-0.104 0.361,-0.11 0.38,-0.123C0.399,-0.135 0.417,-0.15 0.434,-0.167L0.508,-0.075C0.485,-0.048 0.454,-0.026 0.417,-0.011C0.379,0.004 0.336,0.012 0.288,0.012ZM0.285,-0.428C0.255,-0.428 0.232,-0.418 0.215,-0.399C0.198,-0.379 0.189,-0.353 0.189,-0.32L0.189,-0.312L0.373,-0.312L0.373,-0.321C0.373,-0.353 0.366,-0.379 0.352,-0.399C0.337,-0.418 0.315,-0.428 0.285,-0.428Z" style="fill-rule:nonzero;"/>
            </g>
            <g transform="matrix(50,0,0,50,1094.3,897.426)">
                <path d="M0.247,0.012C0.196,0.012 0.154,0.004 0.119,-0.013C0.084,-0.029 0.053,-0.052 0.026,-0.082L0.113,-0.17C0.132,-0.149 0.152,-0.133 0.175,-0.121C0.198,-0.109 0.223,-0.103 0.252,-0.103C0.281,-0.103 0.302,-0.108 0.313,-0.117C0.324,-0.126 0.33,-0.138 0.33,-0.153C0.33,-0.178 0.312,-0.192 0.277,-0.197L0.22,-0.204C0.102,-0.219 0.043,-0.273 0.043,-0.366C0.043,-0.391 0.048,-0.415 0.058,-0.436C0.067,-0.456 0.081,-0.474 0.099,-0.49C0.116,-0.505 0.137,-0.516 0.163,-0.525C0.188,-0.533 0.216,-0.537 0.247,-0.537C0.274,-0.537 0.299,-0.535 0.32,-0.532C0.341,-0.528 0.359,-0.523 0.376,-0.516C0.392,-0.509 0.407,-0.5 0.421,-0.49C0.434,-0.479 0.448,-0.468 0.461,-0.455L0.376,-0.368C0.359,-0.385 0.341,-0.398 0.32,-0.408C0.299,-0.417 0.277,-0.422 0.255,-0.422C0.23,-0.422 0.212,-0.418 0.201,-0.41C0.19,-0.402 0.185,-0.391 0.185,-0.378C0.185,-0.364 0.189,-0.353 0.197,-0.346C0.204,-0.338 0.219,-0.332 0.24,-0.329L0.299,-0.321C0.414,-0.306 0.472,-0.253 0.472,-0.163C0.472,-0.138 0.467,-0.114 0.456,-0.093C0.445,-0.072 0.43,-0.053 0.411,-0.038C0.391,-0.022 0.367,-0.01 0.34,-0.001C0.312,0.008 0.281,0.012 0.247,0.012Z" style="fill-rule:nonzero;"/>
            </g>
            <g transform="matrix(50,0,0,50,1119.1,897.426)">
                <path d="M0.253,-0C0.202,-0 0.163,-0.013 0.137,-0.039C0.11,-0.065 0.097,-0.103 0.097,-0.153L0.097,-0.41L0.023,-0.41L0.023,-0.525L0.06,-0.525C0.08,-0.525 0.094,-0.53 0.101,-0.54C0.108,-0.549 0.112,-0.563 0.112,-0.581L0.112,-0.667L0.245,-0.667L0.245,-0.525L0.349,-0.525L0.349,-0.41L0.245,-0.41L0.245,-0.115L0.341,-0.115L0.341,-0L0.253,-0Z" style="fill-rule:nonzero;"/>
            </g>
            <g transform="matrix(50,0,0,50,1138.25,897.426)">
                <path d="M0.457,-0C0.43,-0 0.408,-0.008 0.391,-0.025C0.373,-0.042 0.362,-0.064 0.357,-0.092L0.351,-0.092C0.343,-0.058 0.325,-0.032 0.298,-0.015C0.271,0.003 0.237,0.012 0.197,0.012C0.144,0.012 0.104,-0.002 0.076,-0.03C0.048,-0.058 0.034,-0.095 0.034,-0.141C0.034,-0.196 0.054,-0.238 0.095,-0.265C0.135,-0.292 0.19,-0.305 0.259,-0.305L0.342,-0.305L0.342,-0.338C0.342,-0.363 0.335,-0.384 0.322,-0.399C0.309,-0.413 0.286,-0.421 0.255,-0.421C0.226,-0.421 0.202,-0.415 0.185,-0.402C0.168,-0.389 0.153,-0.375 0.142,-0.359L0.054,-0.437C0.075,-0.468 0.102,-0.493 0.135,-0.511C0.167,-0.528 0.211,-0.537 0.266,-0.537C0.341,-0.537 0.397,-0.521 0.434,-0.488C0.471,-0.455 0.49,-0.408 0.49,-0.345L0.49,-0.115L0.539,-0.115L0.539,-0L0.457,-0ZM0.252,-0.091C0.277,-0.091 0.298,-0.096 0.316,-0.107C0.333,-0.118 0.342,-0.135 0.342,-0.159L0.342,-0.221L0.27,-0.221C0.212,-0.221 0.183,-0.201 0.183,-0.162L0.183,-0.147C0.183,-0.128 0.189,-0.114 0.201,-0.105C0.213,-0.095 0.23,-0.091 0.252,-0.091Z" style="fill-rule:nonzero;"/>
            </g>
            <g transform="matrix(50,0,0,50,1166.4,897.426)">
                <path d="M0.253,-0C0.202,-0 0.163,-0.013 0.137,-0.039C0.11,-0.065 0.097,-0.103 0.097,-0.153L0.097,-0.41L0.023,-0.41L0.023,-0.525L0.06,-0.525C0.08,-0.525 0.094,-0.53 0.101,-0.54C0.108,-0.549 0.112,-0.563 0.112,-0.581L0.112,-0.667L0.245,-0.667L0.245,-0.525L0.349,-0.525L0.349,-0.41L0.245,-0.41L0.245,-0.115L0.341,-0.115L0.341,-0L0.253,-0Z" style="fill-rule:nonzero;"/>
            </g>
            <g transform="matrix(50,0,0,50,1185.55,897.426)">
                <path d="M0.143,-0.581C0.113,-0.581 0.091,-0.588 0.078,-0.602C0.064,-0.615 0.057,-0.633 0.057,-0.654L0.057,-0.676C0.057,-0.697 0.064,-0.715 0.078,-0.729C0.091,-0.742 0.113,-0.749 0.143,-0.749C0.173,-0.749 0.195,-0.742 0.209,-0.729C0.222,-0.715 0.229,-0.697 0.229,-0.676L0.229,-0.654C0.229,-0.633 0.222,-0.615 0.209,-0.602C0.195,-0.588 0.173,-0.581 0.143,-0.581ZM0.069,-0.525L0.217,-0.525L0.217,-0L0.069,-0L0.069,-0.525Z" style="fill-rule:nonzero;"/>
            </g>
            <g transform="matrix(50,0,0,50,1199.85,897.426)">
                <path d="M0.282,0.012C0.243,0.012 0.209,0.006 0.179,-0.007C0.148,-0.02 0.123,-0.038 0.102,-0.062C0.081,-0.086 0.064,-0.115 0.053,-0.149C0.042,-0.183 0.036,-0.221 0.036,-0.263C0.036,-0.305 0.042,-0.343 0.053,-0.377C0.064,-0.411 0.081,-0.44 0.102,-0.464C0.123,-0.487 0.148,-0.505 0.179,-0.518C0.209,-0.531 0.243,-0.537 0.282,-0.537C0.321,-0.537 0.355,-0.531 0.386,-0.518C0.416,-0.505 0.442,-0.487 0.463,-0.464C0.484,-0.44 0.5,-0.411 0.511,-0.377C0.522,-0.343 0.528,-0.305 0.528,-0.263C0.528,-0.221 0.522,-0.183 0.511,-0.149C0.5,-0.115 0.484,-0.086 0.463,-0.062C0.442,-0.038 0.416,-0.02 0.386,-0.007C0.355,0.006 0.321,0.012 0.282,0.012ZM0.282,-0.105C0.311,-0.105 0.334,-0.114 0.35,-0.132C0.366,-0.15 0.374,-0.176 0.374,-0.209L0.374,-0.316C0.374,-0.349 0.366,-0.375 0.35,-0.393C0.334,-0.411 0.311,-0.42 0.282,-0.42C0.253,-0.42 0.23,-0.411 0.214,-0.393C0.198,-0.375 0.19,-0.349 0.19,-0.316L0.19,-0.209C0.19,-0.176 0.198,-0.15 0.214,-0.132C0.23,-0.114 0.253,-0.105 0.282,-0.105Z" style="fill-rule:nonzero;"/>
            </g>
            <g transform="matrix(50,0,0,50,1228.05,897.426)">
                <path d="M0.069,-0L0.069,-0.525L0.217,-0.525L0.217,-0.436L0.223,-0.436C0.232,-0.463 0.249,-0.487 0.272,-0.507C0.295,-0.527 0.328,-0.537 0.369,-0.537C0.423,-0.537 0.464,-0.519 0.492,-0.483C0.519,-0.447 0.533,-0.396 0.533,-0.329L0.533,-0L0.385,-0L0.385,-0.317C0.385,-0.351 0.38,-0.376 0.369,-0.393C0.358,-0.409 0.339,-0.417 0.312,-0.417C0.3,-0.417 0.288,-0.416 0.277,-0.413C0.266,-0.41 0.256,-0.405 0.247,-0.398C0.238,-0.391 0.23,-0.383 0.225,-0.374C0.22,-0.364 0.217,-0.353 0.217,-0.34L0.217,-0L0.069,-0Z" style="fill-rule:nonzero;"/>
            </g>
            <g transform="matrix(50,0,0,50,1269.65,897.426)">
                <path d="M0.282,0.012C0.243,0.012 0.209,0.006 0.179,-0.007C0.148,-0.02 0.123,-0.038 0.102,-0.062C0.081,-0.086 0.064,-0.115 0.053,-0.149C0.042,-0.183 0.036,-0.221 0.036,-0.263C0.036,-0.305 0.042,-0.343 0.053,-0.377C0.064,-0.411 0.081,-0.44 0.102,-0.464C0.123,-0.487 0.148,-0.505 0.179,-0.518C0.209,-0.531 0.243,-0.537 0.282,-0.537C0.321,-0.537 0.355,-0.531 0.386,-0.518C0.416,-0.505 0.442,-0.487 0.463,-0.464C0.484,-0.44 0.5,-0.411 0.511,-0.377C0.522,-0.343 0.528,-0.305 0.528,-0.263C0.528,-0.221 0.522,-0.183 0.511,-0.149C0.5,-0.115 0.484,-0.086 0.463,-0.062C0.442,-0.038 0.416,-0.02 0.386,-0.007C0.355,0.006 0.321,0.012 0.282,0.012ZM0.282,-0.105C0.311,-0.105 0.334,-0.114 0.35,-0.132C0.366,-0.15 0.374,-0.176 0.374,-0.209L0.374,-0.316C0.374,-0.349 0.366,-0.375 0.35,-0.393C0.334,-0.411 0.311,-0.42 0.282,-0.42C0.253,-0.42 0.23,-0.411 0.214,-0.393C0.198,-0.375 0.19,-0.349 0.19,-0.316L0.19,-0.209C0.19,-0.176 0.198,-0.15 0.214,-0.132C0.23,-0.114 0.253,-0.105 0.282,-0.105Z" style="fill-rule:nonzero;"/>
            </g>
            <g transform="matrix(50,0,0,50,1297.55,897.426)">
                <path d="M0.095,-0.41L0.021,-0.41L0.021,-0.525L0.095,-0.525L0.095,-0.587C0.095,-0.638 0.108,-0.676 0.135,-0.702C0.162,-0.727 0.201,-0.74 0.252,-0.74L0.348,-0.74L0.348,-0.625L0.243,-0.625L0.243,-0.525L0.348,-0.525L0.348,-0.41L0.243,-0.41L0.243,-0L0.095,-0L0.095,-0.41Z" style="fill-rule:nonzero;"/>
            </g>
            <g transform="matrix(50,0,0,50,1327.4,897.426)">
                <path d="M0.495,-0.286L0.229,-0.286L0.229,-0L0.077,-0L0.077,-0.698L0.229,-0.698L0.229,-0.42L0.495,-0.42L0.495,-0.698L0.647,-0.698L0.647,-0L0.495,-0L0.495,-0.286Z" style="fill-rule:nonzero;"/>
            </g>
            <g transform="matrix(50,0,0,50,1363.6,897.426)">
                <path d="M0.39,-0.525L0.528,-0.525L0.326,0.081C0.313,0.122 0.294,0.152 0.27,0.171C0.245,0.19 0.21,0.2 0.165,0.2L0.073,0.2L0.073,0.085L0.172,0.085L0.19,0.027L0.006,-0.525L0.153,-0.525L0.23,-0.28L0.268,-0.128L0.274,-0.128L0.313,-0.28L0.39,-0.525Z" style="fill-rule:nonzero;"/>
            </g>
            <g transform="matrix(50,0,0,50,1390.3,897.426)">
                <path d="M0.069,-0.525L0.217,-0.525L0.217,-0.437L0.222,-0.437C0.229,-0.466 0.246,-0.49 0.273,-0.509C0.299,-0.528 0.329,-0.537 0.363,-0.537C0.43,-0.537 0.48,-0.514 0.514,-0.467C0.548,-0.42 0.565,-0.352 0.565,-0.263C0.565,-0.174 0.548,-0.106 0.514,-0.059C0.48,-0.012 0.43,0.012 0.363,0.012C0.346,0.012 0.329,0.01 0.314,0.005C0.299,-0 0.285,-0.008 0.273,-0.017C0.26,-0.025 0.25,-0.036 0.241,-0.049C0.232,-0.061 0.226,-0.074 0.222,-0.088L0.217,-0.088L0.217,0.2L0.069,0.2L0.069,-0.525ZM0.314,-0.108C0.342,-0.108 0.365,-0.118 0.384,-0.138C0.402,-0.157 0.411,-0.184 0.411,-0.217L0.411,-0.308C0.411,-0.341 0.402,-0.368 0.384,-0.388C0.365,-0.407 0.342,-0.417 0.314,-0.417C0.286,-0.417 0.263,-0.41 0.245,-0.397C0.226,-0.383 0.217,-0.364 0.217,-0.34L0.217,-0.185C0.217,-0.161 0.226,-0.142 0.245,-0.129C0.263,-0.115 0.286,-0.108 0.314,-0.108Z" style="fill-rule:nonzero;"/>
            </g>
            <g transform="matrix(50,0,0,50,1420.7,897.426)">
                <path d="M0.288,0.012C0.248,0.012 0.212,0.006 0.181,-0.008C0.15,-0.021 0.123,-0.039 0.102,-0.063C0.08,-0.086 0.064,-0.115 0.053,-0.149C0.042,-0.183 0.036,-0.221 0.036,-0.263C0.036,-0.304 0.041,-0.342 0.052,-0.376C0.063,-0.409 0.079,-0.438 0.1,-0.462C0.121,-0.486 0.146,-0.505 0.177,-0.518C0.208,-0.531 0.243,-0.537 0.282,-0.537C0.325,-0.537 0.363,-0.53 0.394,-0.515C0.425,-0.5 0.45,-0.481 0.47,-0.456C0.489,-0.431 0.503,-0.403 0.513,-0.371C0.522,-0.338 0.526,-0.304 0.526,-0.269L0.526,-0.225L0.189,-0.225L0.189,-0.217C0.189,-0.182 0.198,-0.155 0.217,-0.135C0.236,-0.114 0.265,-0.104 0.305,-0.104C0.336,-0.104 0.361,-0.11 0.38,-0.123C0.399,-0.135 0.417,-0.15 0.434,-0.167L0.508,-0.075C0.485,-0.048 0.454,-0.026 0.417,-0.011C0.379,0.004 0.336,0.012 0.288,0.012ZM0.285,-0.428C0.255,-0.428 0.232,-0.418 0.215,-0.399C0.198,-0.379 0.189,-0.353 0.189,-0.32L0.189,-0.312L0.373,-0.312L0.373,-0.321C0.373,-0.353 0.366,-0.379 0.352,-0.399C0.337,-0.418 0.315,-0.428 0.285,-0.428Z" style="fill-rule:nonzero;"/>
            </g>
            <g transform="matrix(50,0,0,50,1448.8,897.426)">
                <path d="M0.069,-0L0.069,-0.525L0.217,-0.525L0.217,-0.411L0.222,-0.411C0.225,-0.426 0.229,-0.44 0.236,-0.454C0.243,-0.467 0.252,-0.479 0.263,-0.49C0.274,-0.501 0.287,-0.509 0.302,-0.516C0.317,-0.522 0.335,-0.525 0.356,-0.525L0.382,-0.525L0.382,-0.387L0.345,-0.387C0.302,-0.387 0.27,-0.381 0.249,-0.37C0.228,-0.359 0.217,-0.338 0.217,-0.307L0.217,-0L0.069,-0Z" style="fill-rule:nonzero;"/>
            </g>
            <g transform="matrix(50,0,0,50,1469,897.426)">
                <path d="M0.247,0.012C0.196,0.012 0.154,0.004 0.119,-0.013C0.084,-0.029 0.053,-0.052 0.026,-0.082L0.113,-0.17C0.132,-0.149 0.152,-0.133 0.175,-0.121C0.198,-0.109 0.223,-0.103 0.252,-0.103C0.281,-0.103 0.302,-0.108 0.313,-0.117C0.324,-0.126 0.33,-0.138 0.33,-0.153C0.33,-0.178 0.312,-0.192 0.277,-0.197L0.22,-0.204C0.102,-0.219 0.043,-0.273 0.043,-0.366C0.043,-0.391 0.048,-0.415 0.058,-0.436C0.067,-0.456 0.081,-0.474 0.099,-0.49C0.116,-0.505 0.137,-0.516 0.163,-0.525C0.188,-0.533 0.216,-0.537 0.247,-0.537C0.274,-0.537 0.299,-0.535 0.32,-0.532C0.341,-0.528 0.359,-0.523 0.376,-0.516C0.392,-0.509 0.407,-0.5 0.421,-0.49C0.434,-0.479 0.448,-0.468 0.461,-0.455L0.376,-0.368C0.359,-0.385 0.341,-0.398 0.32,-0.408C0.299,-0.417 0.277,-0.422 0.255,-0.422C0.23,-0.422 0.212,-0.418 0.201,-0.41C0.19,-0.402 0.185,-0.391 0.185,-0.378C0.185,-0.364 0.189,-0.353 0.197,-0.346C0.204,-0.338 0.219,-0.332 0.24,-0.329L0.299,-0.321C0.414,-0.306 0.472,-0.253 0.472,-0.163C0.472,-0.138 0.467,-0.114 0.456,-0.093C0.445,-0.072 0.43,-0.053 0.411,-0.038C0.391,-0.022 0.367,-0.01 0.34,-0.001C0.312,0.008 0.281,0.012 0.247,0.012Z" style="fill-rule:nonzero;"/>
            </g>
            <g transform="matrix(50,0,0,50,1494.2,897.426)">
                <path d="M0.282,0.012C0.243,0.012 0.209,0.006 0.179,-0.007C0.148,-0.02 0.123,-0.038 0.102,-0.062C0.081,-0.086 0.064,-0.115 0.053,-0.149C0.042,-0.183 0.036,-0.221 0.036,-0.263C0.036,-0.305 0.042,-0.343 0.053,-0.377C0.064,-0.411 0.081,-0.44 0.102,-0.464C0.123,-0.487 0.148,-0.505 0.179,-0.518C0.209,-0.531 0.243,-0.537 0.282,-0.537C0.321,-0.537 0.355,-0.531 0.386,-0.518C0.416,-0.505 0.442,-0.487 0.463,-0.464C0.484,-0.44 0.5,-0.411 0.511,-0.377C0.522,-0.343 0.528,-0.305 0.528,-0.263C0.528,-0.221 0.522,-0.183 0.511,-0.149C0.5,-0.115 0.484,-0.086 0.463,-0.062C0.442,-0.038 0.416,-0.02 0.386,-0.007C0.355,0.006 0.321,0.012 0.282,0.012ZM0.282,-0.105C0.311,-0.105 0.334,-0.114 0.35,-0.132C0.366,-0.15 0.374,-0.176 0.374,-0.209L0.374,-0.316C0.374,-0.349 0.366,-0.375 0.35,-0.393C0.334,-0.411 0.311,-0.42 0.282,-0.42C0.253,-0.42 0.23,-0.411 0.214,-0.393C0.198,-0.375 0.19,-0.349 0.19,-0.316L0.19,-0.209C0.19,-0.176 0.198,-0.15 0.214,-0.132C0.23,-0.114 0.253,-0.105 0.282,-0.105Z" style="fill-rule:nonzero;"/>
            </g>
            <g transform="matrix(50,0,0,50,1522.4,897.426)">
                <path d="M0.069,-0L0.069,-0.525L0.217,-0.525L0.217,-0.436L0.223,-0.436C0.232,-0.463 0.249,-0.487 0.272,-0.507C0.295,-0.527 0.328,-0.537 0.369,-0.537C0.423,-0.537 0.464,-0.519 0.492,-0.483C0.519,-0.447 0.533,-0.396 0.533,-0.329L0.533,-0L0.385,-0L0.385,-0.317C0.385,-0.351 0.38,-0.376 0.369,-0.393C0.358,-0.409 0.339,-0.417 0.312,-0.417C0.3,-0.417 0.288,-0.416 0.277,-0.413C0.266,-0.41 0.256,-0.405 0.247,-0.398C0.238,-0.391 0.23,-0.383 0.225,-0.374C0.22,-0.364 0.217,-0.353 0.217,-0.34L0.217,-0L0.069,-0Z" style="fill-rule:nonzero;"/>
            </g>
            <g transform="matrix(50,0,0,50,1552.2,897.426)">
                <path d="M0.143,-0.581C0.113,-0.581 0.091,-0.588 0.078,-0.602C0.064,-0.615 0.057,-0.633 0.057,-0.654L0.057,-0.676C0.057,-0.697 0.064,-0.715 0.078,-0.729C0.091,-0.742 0.113,-0.749 0.143,-0.749C0.173,-0.749 0.195,-0.742 0.209,-0.729C0.222,-0.715 0.229,-0.697 0.229,-0.676L0.229,-0.654C0.229,-0.633 0.222,-0.615 0.209,-0.602C0.195,-0.588 0.173,-0.581 0.143,-0.581ZM0.069,-0.525L0.217,-0.525L0.217,-0L0.069,-0L0.069,-0.525Z" style="fill-rule:nonzero;"/>
            </g>
            <g transform="matrix(50,0,0,50,1566.5,897.426)">
                <path d="M0.281,0.012C0.242,0.012 0.207,0.006 0.176,-0.008C0.145,-0.021 0.12,-0.039 0.099,-0.063C0.078,-0.086 0.063,-0.115 0.052,-0.149C0.041,-0.183 0.036,-0.221 0.036,-0.263C0.036,-0.305 0.041,-0.343 0.052,-0.377C0.063,-0.41 0.078,-0.439 0.099,-0.463C0.12,-0.487 0.145,-0.505 0.176,-0.518C0.207,-0.531 0.242,-0.537 0.281,-0.537C0.334,-0.537 0.379,-0.525 0.415,-0.501C0.45,-0.477 0.476,-0.443 0.491,-0.4L0.371,-0.348C0.366,-0.368 0.357,-0.385 0.342,-0.399C0.327,-0.413 0.307,-0.42 0.281,-0.42C0.251,-0.42 0.228,-0.41 0.213,-0.391C0.198,-0.371 0.19,-0.344 0.19,-0.311L0.19,-0.213C0.19,-0.18 0.198,-0.153 0.213,-0.134C0.228,-0.115 0.251,-0.105 0.281,-0.105C0.308,-0.105 0.329,-0.112 0.345,-0.127C0.36,-0.141 0.372,-0.16 0.379,-0.183L0.494,-0.133C0.477,-0.083 0.45,-0.046 0.414,-0.023C0.377,0 0.333,0.012 0.281,0.012Z" style="fill-rule:nonzero;"/>
            </g>
            <g transform="matrix(50,0,0,50,1604.15,897.426)">
                <path d="M0.077,-0.698L0.416,-0.698C0.474,-0.698 0.519,-0.682 0.552,-0.649C0.584,-0.616 0.6,-0.573 0.6,-0.519C0.6,-0.492 0.596,-0.47 0.59,-0.451C0.583,-0.432 0.573,-0.417 0.562,-0.405C0.55,-0.393 0.536,-0.384 0.521,-0.379C0.505,-0.373 0.488,-0.37 0.47,-0.369L0.47,-0.363C0.487,-0.363 0.504,-0.36 0.523,-0.354C0.541,-0.348 0.558,-0.339 0.573,-0.326C0.588,-0.313 0.601,-0.296 0.612,-0.275C0.622,-0.254 0.627,-0.229 0.627,-0.199C0.627,-0.172 0.623,-0.146 0.614,-0.122C0.604,-0.097 0.592,-0.076 0.576,-0.058C0.56,-0.04 0.541,-0.026 0.519,-0.016C0.497,-0.005 0.473,-0 0.447,-0L0.077,-0L0.077,-0.698ZM0.229,-0.128L0.404,-0.128C0.424,-0.128 0.44,-0.133 0.452,-0.145C0.463,-0.156 0.469,-0.171 0.469,-0.191L0.469,-0.225C0.469,-0.245 0.463,-0.261 0.452,-0.272C0.44,-0.283 0.424,-0.288 0.404,-0.288L0.229,-0.288L0.229,-0.128ZM0.229,-0.412L0.38,-0.412C0.4,-0.412 0.416,-0.418 0.427,-0.429C0.438,-0.44 0.444,-0.456 0.444,-0.476L0.444,-0.506C0.444,-0.526 0.438,-0.542 0.427,-0.553C0.416,-0.564 0.4,-0.57 0.38,-0.57L0.229,-0.57L0.229,-0.412Z" style="fill-rule:nonzero;"/>
            </g>
            <g transform="matrix(50,0,0,50,1637.5,897.426)">
                <path d="M0.288,0.012C0.248,0.012 0.212,0.006 0.181,-0.008C0.15,-0.021 0.123,-0.039 0.102,-0.063C0.08,-0.086 0.064,-0.115 0.053,-0.149C0.042,-0.183 0.036,-0.221 0.036,-0.263C0.036,-0.304 0.041,-0.342 0.052,-0.376C0.063,-0.409 0.079,-0.438 0.1,-0.462C0.121,-0.486 0.146,-0.505 0.177,-0.518C0.208,-0.531 0.243,-0.537 0.282,-0.537C0.325,-0.537 0.363,-0.53 0.394,-0.515C0.425,-0.5 0.45,-0.481 0.47,-0.456C0.489,-0.431 0.503,-0.403 0.513,-0.371C0.522,-0.338 0.526,-0.304 0.526,-0.269L0.526,-0.225L0.189,-0.225L0.189,-0.217C0.189,-0.182 0.198,-0.155 0.217,-0.135C0.236,-0.114 0.265,-0.104 0.305,-0.104C0.336,-0.104 0.361,-0.11 0.38,-0.123C0.399,-0.135 0.417,-0.15 0.434,-0.167L0.508,-0.075C0.485,-0.048 0.454,-0.026 0.417,-0.011C0.379,0.004 0.336,0.012 0.288,0.012ZM0.285,-0.428C0.255,-0.428 0.232,-0.418 0.215,-0.399C0.198,-0.379 0.189,-0.353 0.189,-0.32L0.189,-0.312L0.373,-0.312L0.373,-0.321C0.373,-0.353 0.366,-0.379 0.352,-0.399C0.337,-0.418 0.315,-0.428 0.285,-0.428Z" style="fill-rule:nonzero;"/>
            </g>
            <g transform="matrix(50,0,0,50,1665.6,897.426)">
                <path d="M0.143,-0.581C0.113,-0.581 0.091,-0.588 0.078,-0.602C0.064,-0.615 0.057,-0.633 0.057,-0.654L0.057,-0.676C0.057,-0.697 0.064,-0.715 0.078,-0.729C0.091,-0.742 0.113,-0.749 0.143,-0.749C0.173,-0.749 0.195,-0.742 0.209,-0.729C0.222,-0.715 0.229,-0.697 0.229,-0.676L0.229,-0.654C0.229,-0.633 0.222,-0.615 0.209,-0.602C0.195,-0.588 0.173,-0.581 0.143,-0.581ZM0.069,-0.525L0.217,-0.525L0.217,-0L0.069,-0L0.069,-0.525Z" style="fill-rule:nonzero;"/>
            </g>
            <g transform="matrix(50,0,0,50,1679.9,897.426)">
                <path d="M0.069,-0L0.069,-0.525L0.217,-0.525L0.217,-0.436L0.223,-0.436C0.232,-0.463 0.249,-0.487 0.272,-0.507C0.295,-0.527 0.328,-0.537 0.369,-0.537C0.423,-0.537 0.464,-0.519 0.492,-0.483C0.519,-0.447 0.533,-0.396 0.533,-0.329L0.533,-0L0.385,-0L0.385,-0.317C0.385,-0.351 0.38,-0.376 0.369,-0.393C0.358,-0.409 0.339,-0.417 0.312,-0.417C0.3,-0.417 0.288,-0.416 0.277,-0.413C0.266,-0.41 0.256,-0.405 0.247,-0.398C0.238,-0.391 0.23,-0.383 0.225,-0.374C0.22,-0.364 0.217,-0.353 0.217,-0.34L0.217,-0L0.069,-0Z" style="fill-rule:nonzero;"/>
            </g>
            <g transform="matrix(50,0,0,50,1709.7,897.426)">
                <path d="M0.555,0.038C0.555,0.066 0.55,0.091 0.541,0.112C0.531,0.133 0.515,0.152 0.493,0.167C0.471,0.182 0.442,0.193 0.406,0.201C0.369,0.208 0.324,0.212 0.271,0.212C0.226,0.212 0.187,0.209 0.156,0.204C0.124,0.198 0.098,0.19 0.079,0.18C0.059,0.169 0.045,0.157 0.036,0.142C0.027,0.127 0.022,0.109 0.022,0.09C0.022,0.061 0.031,0.038 0.048,0.021C0.065,0.004 0.089,-0.006 0.12,-0.01L0.12,-0.021C0.095,-0.026 0.076,-0.037 0.063,-0.054C0.05,-0.07 0.044,-0.09 0.044,-0.113C0.044,-0.127 0.047,-0.139 0.053,-0.15C0.058,-0.16 0.066,-0.169 0.075,-0.177C0.084,-0.184 0.094,-0.19 0.106,-0.195C0.118,-0.2 0.13,-0.203 0.142,-0.206L0.142,-0.21C0.11,-0.225 0.086,-0.245 0.071,-0.271C0.056,-0.296 0.048,-0.326 0.048,-0.36C0.048,-0.413 0.067,-0.456 0.104,-0.489C0.14,-0.521 0.197,-0.537 0.273,-0.537C0.308,-0.537 0.337,-0.534 0.362,-0.527L0.362,-0.547C0.362,-0.575 0.369,-0.595 0.383,-0.608C0.396,-0.62 0.416,-0.626 0.441,-0.626L0.524,-0.626L0.524,-0.516L0.408,-0.516L0.408,-0.51C0.439,-0.495 0.461,-0.475 0.476,-0.45C0.491,-0.424 0.498,-0.394 0.498,-0.36C0.498,-0.307 0.48,-0.265 0.443,-0.234C0.405,-0.202 0.349,-0.186 0.273,-0.186C0.239,-0.186 0.208,-0.19 0.18,-0.197C0.165,-0.187 0.157,-0.173 0.157,-0.155C0.157,-0.142 0.162,-0.133 0.172,-0.126C0.181,-0.119 0.197,-0.115 0.22,-0.115L0.372,-0.115C0.436,-0.115 0.483,-0.102 0.512,-0.075C0.541,-0.048 0.555,-0.011 0.555,0.038ZM0.416,0.058C0.416,0.043 0.41,0.031 0.398,0.023C0.386,0.015 0.365,0.011 0.335,0.011L0.155,0.011C0.148,0.018 0.143,0.025 0.141,0.034C0.138,0.042 0.136,0.05 0.136,0.058C0.136,0.077 0.144,0.092 0.161,0.101C0.178,0.11 0.206,0.114 0.246,0.114L0.306,0.114C0.346,0.114 0.374,0.11 0.391,0.101C0.408,0.092 0.416,0.077 0.416,0.058ZM0.273,-0.283C0.302,-0.283 0.324,-0.289 0.339,-0.302C0.353,-0.314 0.36,-0.332 0.36,-0.355L0.36,-0.367C0.36,-0.39 0.353,-0.408 0.339,-0.421C0.324,-0.433 0.302,-0.439 0.273,-0.439C0.244,-0.439 0.222,-0.433 0.208,-0.421C0.193,-0.408 0.186,-0.39 0.186,-0.367L0.186,-0.355C0.186,-0.332 0.193,-0.314 0.208,-0.302C0.222,-0.289 0.244,-0.283 0.273,-0.283Z" style="fill-rule:nonzero;"/>
            </g>
            <g transform="matrix(50,0,0,50,1737.3,897.426)">
                <path d="M0.247,0.012C0.196,0.012 0.154,0.004 0.119,-0.013C0.084,-0.029 0.053,-0.052 0.026,-0.082L0.113,-0.17C0.132,-0.149 0.152,-0.133 0.175,-0.121C0.198,-0.109 0.223,-0.103 0.252,-0.103C0.281,-0.103 0.302,-0.108 0.313,-0.117C0.324,-0.126 0.33,-0.138 0.33,-0.153C0.33,-0.178 0.312,-0.192 0.277,-0.197L0.22,-0.204C0.102,-0.219 0.043,-0.273 0.043,-0.366C0.043,-0.391 0.048,-0.415 0.058,-0.436C0.067,-0.456 0.081,-0.474 0.099,-0.49C0.116,-0.505 0.137,-0.516 0.163,-0.525C0.188,-0.533 0.216,-0.537 0.247,-0.537C0.274,-0.537 0.299,-0.535 0.32,-0.532C0.341,-0.528 0.359,-0.523 0.376,-0.516C0.392,-0.509 0.407,-0.5 0.421,-0.49C0.434,-0.479 0.448,-0.468 0.461,-0.455L0.376,-0.368C0.359,-0.385 0.341,-0.398 0.32,-0.408C0.299,-0.417 0.277,-0.422 0.255,-0.422C0.23,-0.422 0.212,-0.418 0.201,-0.41C0.19,-0.402 0.185,-0.391 0.185,-0.378C0.185,-0.364 0.189,-0.353 0.197,-0.346C0.204,-0.338 0.219,-0.332 0.24,-0.329L0.299,-0.321C0.414,-0.306 0.472,-0.253 0.472,-0.163C0.472,-0.138 0.467,-0.114 0.456,-0.093C0.445,-0.072 0.43,-0.053 0.411,-0.038C0.391,-0.022 0.367,-0.01 0.34,-0.001C0.312,0.008 0.281,0.012 0.247,0.012Z" style="fill-rule:nonzero;"/>
            </g>
        </g>
    </g>
</svg>
