<?xml version="1.0" encoding="UTF-8" standalone="no"?>
<!DOCTYPE svg PUBLIC "-//W3C//DTD SVG 1.1//EN" "http://www.w3.org/Graphics/SVG/1.1/DTD/svg11.dtd">
<svg width="100%" height="100%" viewBox="0 0 1584 837" version="1.1" xmlns="http://www.w3.org/2000/svg" xmlns:xlink="http://www.w3.org/1999/xlink" xml:space="preserve" xmlns:serif="http://www.serif.com/" style="fill-rule:evenodd;clip-rule:evenodd;stroke-linejoin:round;stroke-miterlimit:2;">
    <g transform="matrix(1,0,0,1,-167.497,-10960.4)">
        <g transform="matrix(1,0,0,1.14896,0,-1709.06)">
            <rect x="167.497" y="11027" width="1583.71" height="727.668" style="fill:white;"/>
        </g>
        <g id="Layer-1" serif:id="Layer 1">
        </g>
        <g transform="matrix(1,0,0,1,-2994.76,533.206)">
            <g transform="matrix(0.95,0,0,1,163.205,0)">
                <g transform="matrix(400,0,0,400,3264.11,10789.7)">
                    <path d="M0.29,-0.33L0.223,-0.47L0.22,-0.47L0.22,-0L0.077,-0L0.077,-0.698L0.243,-0.698L0.434,-0.368L0.501,-0.228L0.504,-0.228L0.504,-0.698L0.647,-0.698L0.647,-0L0.481,-0L0.29,-0.33Z" style="fill-rule:nonzero;"/>
                </g>
            </g>
            <g transform="matrix(0.95,0,0,1,174.7,0)">
                <g transform="matrix(400,0,0,400,3494.01,10789.7)">
                    <path d="M0.282,0.012C0.243,0.012 0.209,0.006 0.179,-0.007C0.148,-0.02 0.123,-0.038 0.102,-0.062C0.081,-0.086 0.064,-0.115 0.053,-0.149C0.042,-0.183 0.036,-0.221 0.036,-0.263C0.036,-0.305 0.042,-0.343 0.053,-0.377C0.064,-0.411 0.081,-0.44 0.102,-0.464C0.123,-0.487 0.148,-0.505 0.179,-0.518C0.209,-0.531 0.243,-0.537 0.282,-0.537C0.321,-0.537 0.355,-0.531 0.386,-0.518C0.416,-0.505 0.442,-0.487 0.463,-0.464C0.484,-0.44 0.5,-0.411 0.511,-0.377C0.522,-0.343 0.528,-0.305 0.528,-0.263C0.528,-0.221 0.522,-0.183 0.511,-0.149C0.5,-0.115 0.484,-0.086 0.463,-0.062C0.442,-0.038 0.416,-0.02 0.386,-0.007C0.355,0.006 0.321,0.012 0.282,0.012ZM0.282,-0.105C0.311,-0.105 0.334,-0.114 0.35,-0.132C0.366,-0.15 0.374,-0.176 0.374,-0.209L0.374,-0.316C0.374,-0.349 0.366,-0.375 0.35,-0.393C0.334,-0.411 0.311,-0.42 0.282,-0.42C0.253,-0.42 0.23,-0.411 0.214,-0.393C0.198,-0.375 0.19,-0.349 0.19,-0.316L0.19,-0.209C0.19,-0.176 0.198,-0.15 0.214,-0.132C0.23,-0.114 0.253,-0.105 0.282,-0.105Z" style="fill-rule:nonzero;"/>
                </g>
            </g>
            <g transform="matrix(0.95,0,0,1,183.345,0)">
                <g transform="matrix(400,0,0,400,3666.91,10789.7)">
                    <path d="M0.069,-0.74L0.217,-0.74L0.217,-0.437L0.222,-0.437C0.229,-0.466 0.246,-0.49 0.273,-0.509C0.299,-0.528 0.329,-0.537 0.363,-0.537C0.43,-0.537 0.48,-0.514 0.514,-0.467C0.548,-0.42 0.565,-0.352 0.565,-0.263C0.565,-0.174 0.548,-0.106 0.514,-0.059C0.48,-0.012 0.43,0.012 0.363,0.012C0.346,0.012 0.329,0.01 0.314,0.005C0.299,-0 0.285,-0.008 0.273,-0.017C0.26,-0.025 0.25,-0.036 0.241,-0.049C0.232,-0.061 0.226,-0.074 0.222,-0.088L0.217,-0.088L0.217,-0L0.069,-0L0.069,-0.74ZM0.314,-0.108C0.342,-0.108 0.365,-0.118 0.384,-0.138C0.402,-0.157 0.411,-0.184 0.411,-0.217L0.411,-0.308C0.411,-0.341 0.402,-0.368 0.384,-0.388C0.365,-0.407 0.342,-0.417 0.314,-0.417C0.286,-0.417 0.263,-0.41 0.245,-0.397C0.226,-0.383 0.217,-0.364 0.217,-0.34L0.217,-0.185C0.217,-0.161 0.226,-0.142 0.245,-0.129C0.263,-0.115 0.286,-0.108 0.314,-0.108Z" style="fill-rule:nonzero;"/>
                </g>
            </g>
            <g transform="matrix(0.95,0,0,1,193.206,0)">
                <g transform="matrix(400,0,0,400,3864.13,10789.7)">
                    <path d="M0.282,0.012C0.243,0.012 0.209,0.006 0.179,-0.007C0.148,-0.02 0.123,-0.038 0.102,-0.062C0.081,-0.086 0.064,-0.115 0.053,-0.149C0.042,-0.183 0.036,-0.221 0.036,-0.263C0.036,-0.305 0.042,-0.343 0.053,-0.377C0.064,-0.411 0.081,-0.44 0.102,-0.464C0.123,-0.487 0.148,-0.505 0.179,-0.518C0.209,-0.531 0.243,-0.537 0.282,-0.537C0.321,-0.537 0.355,-0.531 0.386,-0.518C0.416,-0.505 0.442,-0.487 0.463,-0.464C0.484,-0.44 0.5,-0.411 0.511,-0.377C0.522,-0.343 0.528,-0.305 0.528,-0.263C0.528,-0.221 0.522,-0.183 0.511,-0.149C0.5,-0.115 0.484,-0.086 0.463,-0.062C0.442,-0.038 0.416,-0.02 0.386,-0.007C0.355,0.006 0.321,0.012 0.282,0.012ZM0.282,-0.105C0.311,-0.105 0.334,-0.114 0.35,-0.132C0.366,-0.15 0.374,-0.176 0.374,-0.209L0.374,-0.316C0.374,-0.349 0.366,-0.375 0.35,-0.393C0.334,-0.411 0.311,-0.42 0.282,-0.42C0.253,-0.42 0.23,-0.411 0.214,-0.393C0.198,-0.375 0.19,-0.349 0.19,-0.316L0.19,-0.209C0.19,-0.176 0.198,-0.15 0.214,-0.132C0.23,-0.114 0.253,-0.105 0.282,-0.105Z" style="fill-rule:nonzero;"/>
                </g>
            </g>
            <g transform="matrix(0.95,0,0,1,202.212,0)">
                <g transform="matrix(400,0,0,400,4044.25,10789.7)">
                    <path d="M0.391,-0.088L0.386,-0.088C0.382,-0.074 0.376,-0.061 0.367,-0.049C0.358,-0.036 0.348,-0.025 0.336,-0.017C0.323,-0.008 0.309,-0 0.294,0.005C0.278,0.01 0.262,0.012 0.245,0.012C0.178,0.012 0.128,-0.012 0.094,-0.059C0.06,-0.106 0.043,-0.174 0.043,-0.263C0.043,-0.352 0.06,-0.42 0.094,-0.467C0.128,-0.514 0.178,-0.537 0.245,-0.537C0.279,-0.537 0.309,-0.528 0.336,-0.509C0.362,-0.49 0.379,-0.466 0.386,-0.437L0.391,-0.437L0.391,-0.74L0.539,-0.74L0.539,-0L0.391,-0L0.391,-0.088ZM0.294,-0.108C0.322,-0.108 0.345,-0.115 0.364,-0.129C0.382,-0.142 0.391,-0.161 0.391,-0.185L0.391,-0.34C0.391,-0.364 0.382,-0.383 0.364,-0.397C0.345,-0.41 0.322,-0.417 0.294,-0.417C0.266,-0.417 0.243,-0.407 0.225,-0.388C0.206,-0.368 0.197,-0.341 0.197,-0.308L0.197,-0.217C0.197,-0.184 0.206,-0.157 0.225,-0.138C0.243,-0.118 0.266,-0.108 0.294,-0.108Z" style="fill-rule:nonzero;"/>
                </g>
            </g>
            <g transform="matrix(0.95,0,0,1,212.244,0)">
                <g transform="matrix(400,0,0,400,4244.89,10789.7)">
                    <path d="M0.39,-0.525L0.528,-0.525L0.326,0.081C0.313,0.122 0.294,0.152 0.27,0.171C0.245,0.19 0.21,0.2 0.165,0.2L0.073,0.2L0.073,0.085L0.172,0.085L0.19,0.027L0.006,-0.525L0.153,-0.525L0.23,-0.28L0.268,-0.128L0.274,-0.128L0.313,-0.28L0.39,-0.525Z" style="fill-rule:nonzero;"/>
                </g>
            </g>
            <g transform="matrix(0.95,0,0,1,221.18,0)">
                <g transform="matrix(400,0,0,400,4423.61,10789.7)">
                    <path d="M0.152,-0.75C0.182,-0.75 0.204,-0.743 0.218,-0.73C0.231,-0.716 0.238,-0.699 0.238,-0.678L0.238,-0.657C0.238,-0.638 0.235,-0.618 0.23,-0.599C0.224,-0.579 0.216,-0.56 0.207,-0.542C0.197,-0.524 0.185,-0.507 0.172,-0.492C0.159,-0.476 0.144,-0.462 0.129,-0.45L0.036,-0.45C0.058,-0.47 0.077,-0.49 0.093,-0.511C0.108,-0.532 0.12,-0.555 0.128,-0.58C0.107,-0.584 0.091,-0.593 0.081,-0.607C0.071,-0.62 0.066,-0.636 0.066,-0.653L0.066,-0.678C0.066,-0.699 0.073,-0.716 0.087,-0.73C0.1,-0.743 0.122,-0.75 0.152,-0.75Z" style="fill-rule:nonzero;"/>
                </g>
            </g>
            <g transform="matrix(0.95,0,0,1,222.63,0)">
                <g transform="matrix(400,0,0,400,4452.61,10789.7)">
                    <path d="M0.247,0.012C0.196,0.012 0.154,0.004 0.119,-0.013C0.084,-0.029 0.053,-0.052 0.026,-0.082L0.113,-0.17C0.132,-0.149 0.152,-0.133 0.175,-0.121C0.198,-0.109 0.223,-0.103 0.252,-0.103C0.281,-0.103 0.302,-0.108 0.313,-0.117C0.324,-0.126 0.33,-0.138 0.33,-0.153C0.33,-0.178 0.312,-0.192 0.277,-0.197L0.22,-0.204C0.102,-0.219 0.043,-0.273 0.043,-0.366C0.043,-0.391 0.048,-0.415 0.058,-0.436C0.067,-0.456 0.081,-0.474 0.099,-0.49C0.116,-0.505 0.137,-0.516 0.163,-0.525C0.188,-0.533 0.216,-0.537 0.247,-0.537C0.274,-0.537 0.299,-0.535 0.32,-0.532C0.341,-0.528 0.359,-0.523 0.376,-0.516C0.392,-0.509 0.407,-0.5 0.421,-0.49C0.434,-0.479 0.448,-0.468 0.461,-0.455L0.376,-0.368C0.359,-0.385 0.341,-0.398 0.32,-0.408C0.299,-0.417 0.277,-0.422 0.255,-0.422C0.23,-0.422 0.212,-0.418 0.201,-0.41C0.19,-0.402 0.185,-0.391 0.185,-0.378C0.185,-0.364 0.189,-0.353 0.197,-0.346C0.204,-0.338 0.219,-0.332 0.24,-0.329L0.299,-0.321C0.414,-0.306 0.472,-0.253 0.472,-0.163C0.472,-0.138 0.467,-0.114 0.456,-0.093C0.445,-0.072 0.43,-0.053 0.411,-0.038C0.391,-0.022 0.367,-0.01 0.34,-0.001C0.312,0.008 0.281,0.012 0.247,0.012Z" style="fill-rule:nonzero;"/>
                </g>
            </g>
            <g transform="matrix(0.95,0,0,1,167.569,0)">
                <g transform="matrix(400,0,0,400,3351.39,11106.4)">
                    <path d="M0.069,-0.525L0.217,-0.525L0.217,-0.437L0.222,-0.437C0.229,-0.466 0.246,-0.49 0.273,-0.509C0.299,-0.528 0.329,-0.537 0.363,-0.537C0.43,-0.537 0.48,-0.514 0.514,-0.467C0.548,-0.42 0.565,-0.352 0.565,-0.263C0.565,-0.174 0.548,-0.106 0.514,-0.059C0.48,-0.012 0.43,0.012 0.363,0.012C0.346,0.012 0.329,0.01 0.314,0.005C0.299,-0 0.285,-0.008 0.273,-0.017C0.26,-0.025 0.25,-0.036 0.241,-0.049C0.232,-0.061 0.226,-0.074 0.222,-0.088L0.217,-0.088L0.217,0.2L0.069,0.2L0.069,-0.525ZM0.314,-0.108C0.342,-0.108 0.365,-0.118 0.384,-0.138C0.402,-0.157 0.411,-0.184 0.411,-0.217L0.411,-0.308C0.411,-0.341 0.402,-0.368 0.384,-0.388C0.365,-0.407 0.342,-0.417 0.314,-0.417C0.286,-0.417 0.263,-0.41 0.245,-0.397C0.226,-0.383 0.217,-0.364 0.217,-0.34L0.217,-0.185C0.217,-0.161 0.226,-0.142 0.245,-0.129C0.263,-0.115 0.286,-0.108 0.314,-0.108Z" style="fill-rule:nonzero;"/>
                </g>
            </g>
            <g transform="matrix(0.95,0,0,1,177.411,0)">
                <g transform="matrix(400,0,0,400,3548.23,11106.4)">
                    <path d="M0.288,0.012C0.248,0.012 0.212,0.006 0.181,-0.008C0.15,-0.021 0.123,-0.039 0.102,-0.063C0.08,-0.086 0.064,-0.115 0.053,-0.149C0.042,-0.183 0.036,-0.221 0.036,-0.263C0.036,-0.304 0.041,-0.342 0.052,-0.376C0.063,-0.409 0.079,-0.438 0.1,-0.462C0.121,-0.486 0.146,-0.505 0.177,-0.518C0.208,-0.531 0.243,-0.537 0.282,-0.537C0.325,-0.537 0.363,-0.53 0.394,-0.515C0.425,-0.5 0.45,-0.481 0.47,-0.456C0.489,-0.431 0.503,-0.403 0.513,-0.371C0.522,-0.338 0.526,-0.304 0.526,-0.269L0.526,-0.225L0.189,-0.225L0.189,-0.217C0.189,-0.182 0.198,-0.155 0.217,-0.135C0.236,-0.114 0.265,-0.104 0.305,-0.104C0.336,-0.104 0.361,-0.11 0.38,-0.123C0.399,-0.135 0.417,-0.15 0.434,-0.167L0.508,-0.075C0.485,-0.048 0.454,-0.026 0.417,-0.011C0.379,0.004 0.336,0.012 0.288,0.012ZM0.285,-0.428C0.255,-0.428 0.232,-0.418 0.215,-0.399C0.198,-0.379 0.189,-0.353 0.189,-0.32L0.189,-0.312L0.373,-0.312L0.373,-0.321C0.373,-0.353 0.366,-0.379 0.352,-0.399C0.337,-0.418 0.315,-0.428 0.285,-0.428Z" style="fill-rule:nonzero;"/>
                </g>
            </g>
            <g transform="matrix(0.95,0,0,1,185.999,0)">
                <g transform="matrix(400,0,0,400,3719.99,11106.4)">
                    <path d="M0.069,-0L0.069,-0.525L0.217,-0.525L0.217,-0.411L0.222,-0.411C0.225,-0.426 0.229,-0.44 0.236,-0.454C0.243,-0.467 0.252,-0.479 0.263,-0.49C0.274,-0.501 0.287,-0.509 0.302,-0.516C0.317,-0.522 0.335,-0.525 0.356,-0.525L0.382,-0.525L0.382,-0.387L0.345,-0.387C0.302,-0.387 0.27,-0.381 0.249,-0.37C0.228,-0.359 0.217,-0.338 0.217,-0.307L0.217,-0L0.069,-0Z" style="fill-rule:nonzero;"/>
                </g>
            </g>
            <g transform="matrix(0.95,0,0,1,192.715,0)">
                <g transform="matrix(400,0,0,400,3854.31,11106.4)">
                    <path d="M0.095,-0.41L0.021,-0.41L0.021,-0.525L0.095,-0.525L0.095,-0.587C0.095,-0.638 0.108,-0.676 0.135,-0.702C0.162,-0.727 0.201,-0.74 0.252,-0.74L0.348,-0.74L0.348,-0.625L0.243,-0.625L0.243,-0.525L0.348,-0.525L0.348,-0.41L0.243,-0.41L0.243,-0L0.095,-0L0.095,-0.41Z" style="fill-rule:nonzero;"/>
                </g>
            </g>
            <g transform="matrix(0.95,0,0,1,198.164,0)">
                <g transform="matrix(400,0,0,400,3963.29,11106.4)">
                    <path d="M0.288,0.012C0.248,0.012 0.212,0.006 0.181,-0.008C0.15,-0.021 0.123,-0.039 0.102,-0.063C0.08,-0.086 0.064,-0.115 0.053,-0.149C0.042,-0.183 0.036,-0.221 0.036,-0.263C0.036,-0.304 0.041,-0.342 0.052,-0.376C0.063,-0.409 0.079,-0.438 0.1,-0.462C0.121,-0.486 0.146,-0.505 0.177,-0.518C0.208,-0.531 0.243,-0.537 0.282,-0.537C0.325,-0.537 0.363,-0.53 0.394,-0.515C0.425,-0.5 0.45,-0.481 0.47,-0.456C0.489,-0.431 0.503,-0.403 0.513,-0.371C0.522,-0.338 0.526,-0.304 0.526,-0.269L0.526,-0.225L0.189,-0.225L0.189,-0.217C0.189,-0.182 0.198,-0.155 0.217,-0.135C0.236,-0.114 0.265,-0.104 0.305,-0.104C0.336,-0.104 0.361,-0.11 0.38,-0.123C0.399,-0.135 0.417,-0.15 0.434,-0.167L0.508,-0.075C0.485,-0.048 0.454,-0.026 0.417,-0.011C0.379,0.004 0.336,0.012 0.288,0.012ZM0.285,-0.428C0.255,-0.428 0.232,-0.418 0.215,-0.399C0.198,-0.379 0.189,-0.353 0.189,-0.32L0.189,-0.312L0.373,-0.312L0.373,-0.321C0.373,-0.353 0.366,-0.379 0.352,-0.399C0.337,-0.418 0.315,-0.428 0.285,-0.428Z" style="fill-rule:nonzero;"/>
                </g>
            </g>
            <g transform="matrix(0.95,0,0,1,207.322,0)">
                <g transform="matrix(400,0,0,400,4146.45,11106.4)">
                    <path d="M0.281,0.012C0.242,0.012 0.207,0.006 0.176,-0.008C0.145,-0.021 0.12,-0.039 0.099,-0.063C0.078,-0.086 0.063,-0.115 0.052,-0.149C0.041,-0.183 0.036,-0.221 0.036,-0.263C0.036,-0.305 0.041,-0.343 0.052,-0.377C0.063,-0.41 0.078,-0.439 0.099,-0.463C0.12,-0.487 0.145,-0.505 0.176,-0.518C0.207,-0.531 0.242,-0.537 0.281,-0.537C0.334,-0.537 0.379,-0.525 0.415,-0.501C0.45,-0.477 0.476,-0.443 0.491,-0.4L0.371,-0.348C0.366,-0.368 0.357,-0.385 0.342,-0.399C0.327,-0.413 0.307,-0.42 0.281,-0.42C0.251,-0.42 0.228,-0.41 0.213,-0.391C0.198,-0.371 0.19,-0.344 0.19,-0.311L0.19,-0.213C0.19,-0.18 0.198,-0.153 0.213,-0.134C0.228,-0.115 0.251,-0.105 0.281,-0.105C0.308,-0.105 0.329,-0.112 0.345,-0.127C0.36,-0.141 0.372,-0.16 0.379,-0.183L0.494,-0.133C0.477,-0.083 0.45,-0.046 0.414,-0.023C0.377,0 0.333,0.012 0.281,0.012Z" style="fill-rule:nonzero;"/>
                </g>
            </g>
            <g transform="matrix(0.95,0,0,1,216.005,0)">
                <g transform="matrix(400,0,0,400,4320.11,11106.4)">
                    <path d="M0.253,-0C0.202,-0 0.163,-0.013 0.137,-0.039C0.11,-0.065 0.097,-0.103 0.097,-0.153L0.097,-0.41L0.023,-0.41L0.023,-0.525L0.06,-0.525C0.08,-0.525 0.094,-0.53 0.101,-0.54C0.108,-0.549 0.112,-0.563 0.112,-0.581L0.112,-0.667L0.245,-0.667L0.245,-0.525L0.349,-0.525L0.349,-0.41L0.245,-0.41L0.245,-0.115L0.341,-0.115L0.341,-0L0.253,-0Z" style="fill-rule:nonzero;"/>
                </g>
            </g>
            <g transform="matrix(0.95,0,0,1,221.952,0)">
                <g transform="matrix(400,0,0,400,4439.05,11106.4)">
                    <path d="M0.155,0.011C0.125,0.011 0.103,0.003 0.089,-0.012C0.074,-0.027 0.067,-0.046 0.067,-0.069L0.067,-0.089C0.067,-0.112 0.074,-0.131 0.089,-0.147C0.103,-0.162 0.125,-0.169 0.155,-0.169C0.185,-0.169 0.207,-0.162 0.222,-0.147C0.236,-0.131 0.243,-0.112 0.243,-0.089L0.243,-0.069C0.243,-0.046 0.236,-0.027 0.222,-0.012C0.207,0.003 0.185,0.011 0.155,0.011Z" style="fill-rule:nonzero;"/>
                </g>
            </g>
        </g>
        <g id="Layer1">
        </g>
        <g id="g862">
        </g>
    </g>
</svg>
